<?xml version="1.0" encoding="UTF-8"?>
<svg version="1.1" xmlns="http://www.w3.org/2000/svg" width="206" height="195">
<path d="M0 0 C4.63353387 2.19039783 8.43445572 5.51484634 11 10 C12.24744543 13.61759176 13.18225528 17.26363796 14 21 C14.7425 20.21625 15.485 19.4325 16.25 18.625 C20.16814159 14.88495575 20.16814159 14.88495575 23 14 C26.78485152 14.28386386 29.47916339 15.11904387 32 18 C33.03313276 21.07564811 33.42367679 23.77440736 33 27 C30.12888944 30.43132726 28.28239081 31.76916965 23.875 32.5625 C20.34130524 31.87112494 19.22375187 30.77968983 17 28 C16.01 26.515 16.01 26.515 15 25 C13.515 25.495 13.515 25.495 12 26 C11.608125 26.886875 11.21625 27.77375 10.8125 28.6875 C8.44714913 33.01038263 5.2681974 35.57332325 1 38 C0.01 38 -0.98 38 -2 38 C-1.96640442 40.4616398 -1.89862006 42.91505782 -1.8125 45.375 C-1.80669922 46.05433594 -1.80089844 46.73367187 -1.79492188 47.43359375 C-1.35449483 57.90597013 4.44626918 65.2505913 11.75 72.25 C12.41515625 72.91773437 13.0803125 73.58546875 13.765625 74.2734375 C17.94335876 78.37083022 22.28296427 81.72790206 27.22363281 84.86230469 C29 86 29 86 30 87 C31.63256758 87.15714654 33.27135338 87.25085414 34.91015625 87.31640625 C35.89951172 87.35830078 36.88886719 87.40019531 37.90820312 87.44335938 C38.94912109 87.48267578 39.99003906 87.52199219 41.0625 87.5625 C42.10728516 87.60568359 43.15207031 87.64886719 44.22851562 87.69335938 C46.81886884 87.79981225 49.40932186 87.9018276 52 88 C52.29390625 87.06542969 52.5878125 86.13085938 52.890625 85.16796875 C54.49384972 80.58974604 56.61288797 77.98112802 60.5625 75.1875 C65.95580619 73.32435786 71.64495123 72.85286936 77.125 74.7265625 C82.01980626 77.32165375 85.25623652 80.76870957 87 86 C87.50998393 90.85738789 87.57598423 94.8019528 85.4375 99.25 C84.633125 100.1575 83.82875 101.065 83 102 C82.54882812 102.55945313 82.09765625 103.11890625 81.6328125 103.6953125 C78.86983326 106.65073806 76.8832895 107.86603624 72.83203125 108.48046875 C66.07439508 108.64081944 61.53121886 108.26964709 56.41796875 103.53515625 C53.73299721 100.32171412 53 99.32867454 53 95 C49.25026094 94.88377061 45.50098536 94.8127405 41.75 94.75 C40.68652344 94.71648437 39.62304688 94.68296875 38.52734375 94.6484375 C36.99013672 94.62910156 36.99013672 94.62910156 35.421875 94.609375 C34.47924805 94.58842773 33.53662109 94.56748047 32.56542969 94.54589844 C29.24980372 95.13279074 28.18563789 96.51265286 26 99 C25.13375 99.53625 24.2675 100.0725 23.375 100.625 C15.53032445 105.66942428 8.76454957 113.71544482 3 121 C2.29101562 121.88429688 1.58203125 122.76859375 0.8515625 123.6796875 C-1.48948658 127.87777129 -1.66192367 131.15090596 -1.75 135.875 C-1.79447266 137.050625 -1.79447266 137.050625 -1.83984375 138.25 C-1.909946 140.16612807 -1.95730658 142.08306537 -2 144 C-1.06542969 144.13148438 -0.13085938 144.26296875 0.83203125 144.3984375 C4.69856917 145.13265062 6.26210319 146.18810598 9 149 C10.80316991 152.54416155 12 155.01265607 12 159 C14.45224694 158.89386164 14.45224694 158.89386164 17 158 C17.69658363 156.34561387 18.36096883 154.67745682 19 153 C21.42997715 151.08159699 22.92586122 149.96745034 26.0625 150.0625 C28.71420933 151.34558516 30.17743213 152.67465479 32 155 C33.17590974 158.68451718 33.33481338 160.28254275 31.6875 163.8125 C30 166 30 166 28 167 C23.94857881 167.25860135 22.45662331 167.30441554 19 165 C16.67612053 164.60612212 14.34206251 164.26513915 12 164 C11.773125 165.03125 11.54625 166.0625 11.3125 167.125 C9.85360901 172.20029682 6.77818419 175.47584212 2.8125 178.875 C-2.13775761 180.85510305 -7.13676182 180.83511114 -12.25 179.34375 C-17.32374662 177.11437649 -20.47465671 173.91892955 -23 169 C-23.8125 166.0625 -23.8125 166.0625 -24 164 C-25.175625 164.309375 -26.35125 164.61875 -27.5625 164.9375 C-37.6753083 167.40316704 -37.6753083 167.40316704 -41.875 166.125 C-44.68788512 163.31211488 -45.04103042 161.1389221 -45.2578125 157.23046875 C-45 155 -45 155 -43 151.9375 C-39.30843936 149.55336709 -37.31824345 149.36026023 -33 150 C-30.00890032 151.95968599 -29.1600321 154.69837016 -28 158 C-27.01 158 -26.02 158 -25 158 C-24.484375 156.80375 -23.96875 155.6075 -23.4375 154.375 C-21.16213136 149.8323314 -18.27760891 146.74034321 -14 144 C-11.0625 143.125 -11.0625 143.125 -9 143 C-9.08378906 142.33613281 -9.16757813 141.67226562 -9.25390625 140.98828125 C-10.26537786 132.21792619 -10.26537786 132.21792619 -9 128 C-9.66 128 -10.32 128 -11 128 C-12.11328125 126.42578125 -12.11328125 126.42578125 -13.3125 124.3125 C-14.93700625 121.58081538 -16.50229983 119.31050186 -18.8125 117.125 C-19.8953125 116.073125 -19.8953125 116.073125 -21 115 C-21 114.34 -21 113.68 -21 113 C-21.66 113 -22.32 113 -23 113 C-24.48046875 111.4609375 -24.48046875 111.4609375 -26.1875 109.375 C-29.50009026 105.47702477 -33.01681336 102.19356815 -37 99 C-37.66644531 98.28714844 -38.33289063 97.57429688 -39.01953125 96.83984375 C-43.59379793 94.01614833 -47.81317679 94.5491789 -53.0625 94.8125 C-54.55233398 94.82313477 -54.55233398 94.82313477 -56.07226562 94.83398438 C-61.29124851 94.90050001 -61.29124851 94.90050001 -65.5012207 97.5546875 C-66.73577119 99.6539193 -66.73577119 99.6539193 -68 103 C-70.93298742 106.37737945 -72.91003025 107.79699338 -77.453125 108.23828125 C-84.86638993 108.43500197 -88.94555518 107.7036786 -94.53515625 102.59765625 C-98.46910008 98.11580938 -98.68634723 93.61862521 -98.41796875 87.80859375 C-97.61086532 82.38516044 -95.19178777 79.89992137 -90.9375 76.6875 C-85.94747327 73.8208889 -81.64547836 73.32366981 -76 74 C-71.19026914 75.72512764 -67.7281464 78.69792299 -65 83 C-64.67 84.65 -64.34 86.3 -64 88 C-56.74 88 -49.48 88 -42 88 C-41.505 86.515 -41.505 86.515 -41 85 C-39.21484375 83.67578125 -39.21484375 83.67578125 -36.9375 82.3125 C-31.69734631 78.96718588 -25.84105646 74.68211293 -23 69 C-22.34 69 -21.68 69 -21 69 C-21 68.34 -21 67.68 -21 67 C-20.34 67 -19.68 67 -19 67 C-18.34 65.35 -17.68 63.7 -17 62 C-16.34 62 -15.68 62 -15 62 C-14.71125 61.236875 -14.4225 60.47375 -14.125 59.6875 C-13 57 -13 57 -11 54 C-10.34 54 -9.68 54 -9 54 C-9 48.72 -9 43.44 -9 38 C-10.65 37.67 -12.3 37.34 -14 37 C-18.55545633 34.26293788 -22.31115488 30.27206873 -24.4609375 25.40234375 C-25.83299757 19.28772822 -24.70758064 12.7721571 -21.43359375 7.45703125 C-15.1939115 0.05835834 -9.52569816 -1.02289376 0 0 Z M-15 12 C-17.13562101 16.27124202 -16.33793524 20.94643719 -14.9375 25.3125 C-12.33569129 28.92146046 -10.27895217 29.85894609 -6 31 C-1.71491862 30.28581977 1.31604092 29.48597052 4 26 C5.01941865 20.19331142 4.32698878 14.92887227 1 10 C-4.89008133 6.07327911 -10.22700289 7.08236661 -15 12 Z M23 19 C22.34 19.66 21.68 20.32 21 21 C21.3185177 23.10820797 21.3185177 23.10820797 22 25 C23.89179203 25.6814823 23.89179203 25.6814823 26 26 C26.66 25.34 27.32 24.68 28 24 C27.6814823 21.89179203 27.6814823 21.89179203 27 20 C25.10820797 19.3185177 25.10820797 19.3185177 23 19 Z M-9.60644531 66.35766602 C-10.45867676 67.29630493 -10.45867676 67.29630493 -11.328125 68.25390625 C-11.96363281 68.94419922 -12.59914063 69.63449219 -13.25390625 70.34570312 C-14.24197266 71.44301758 -14.24197266 71.44301758 -15.25 72.5625 C-16.54570216 73.98154054 -17.8425712 75.39951653 -19.140625 76.81640625 C-19.77653564 77.51523926 -20.41244629 78.21407227 -21.06762695 78.93408203 C-23.50852502 81.54366882 -26.06472271 84.01908649 -28.66186523 86.47241211 C-30.25284984 88.06295938 -30.25284984 88.06295938 -30.8125 91 C-29.38793941 96.25991604 -25.74904955 99.60972985 -21.5625 102.9375 C-18.53136397 105.37719485 -16.15984734 108.13737451 -13.6484375 111.09765625 C-11.44570434 113.67069598 -11.44570434 113.67069598 -9 116 C-5.26559251 116 -3.54840856 115.52276356 -0.828125 112.9296875 C-0.39967285 112.48077148 0.0287793 112.03185547 0.47021484 111.56933594 C2.2624733 109.73074076 4.13741868 108.00003058 6.0234375 106.2578125 C7.47435486 104.88062597 8.92486715 103.50301257 10.375 102.125 C11.12394531 101.44308594 11.87289062 100.76117188 12.64453125 100.05859375 C16.95450526 95.98799256 16.95450526 95.98799256 18.34765625 90.39453125 C16.64633169 86.10916592 14.40559277 83.65709343 11.0625 80.5625 C10.51142578 80.02173828 9.96035156 79.48097656 9.39257812 78.92382812 C6.67112062 75.96036965 6.67112062 75.96036965 3 75 C3 74.34 3 73.68 3 73 C2.34 73 1.68 73 1 73 C0.7525 72.4225 0.505 71.845 0.25 71.25 C-1.19393699 68.65091342 -2.73521987 66.92163162 -5 65 C-7.96866749 64.67725528 -7.96866749 64.67725528 -9.60644531 66.35766602 Z M-89 85 C-90.61588379 88.23176757 -90.57451407 91.50615283 -90 95 C-88.00835994 97.98746009 -86.63318045 99.66366185 -83.02734375 100.40625 C-80.00595942 100.54178874 -77.43459096 100.17154906 -74.625 99.0625 C-72.01796884 95.75357584 -71.10317967 92.19351647 -71 88 C-72.96930475 84.44010294 -75.13625066 82.32816384 -79 81 C-83.74547942 81 -85.28673738 82.1944238 -89 85 Z M61 86 C59.87551026 89.37346922 59.80990489 91.25690093 60.6875 94.6875 C62.24737458 97.43585046 63.15958197 98.57979098 66 100 C70.59806306 100.5108959 72.86036211 100.60619037 76.9375 98.4375 C79.65361118 95.22755042 80 93.17955847 80 89 C78.29284176 84.82694653 76.08580235 82.84833916 72 81 C66.92306756 79.95857796 64.42036075 82.4241683 61 86 Z M-12.9375 153.3125 C-16.11567665 157.45376048 -16.43778562 159.74657251 -16 165 C-14.27022143 168.39549127 -12.93208897 170.42059334 -9.6875 172.4375 C-6.1478905 173.1783485 -3.5055998 172.84394069 0 172 C3.42457002 169.30809039 4.03825995 166.35359892 4.84375 162.21875 C5.17123164 159.83194447 5.17123164 159.83194447 3.875 157.125 C0.26649646 153.03536265 -2.58079853 151.33191265 -8.03125 150.79296875 C-10.36042865 150.86107975 -10.36042865 150.86107975 -12.9375 153.3125 Z M-37 157 C-37 157.99 -37 158.98 -37 160 C-36.34 159.34 -35.68 158.68 -35 158 C-35.66 157.67 -36.32 157.34 -37 157 Z M24 157 C23.67 157.99 23.34 158.98 23 160 C23.99 160 24.98 160 26 160 C26 159.01 26 158.02 26 157 C25.34 157 24.68 157 24 157 Z " fill="#EBD8A7" transform="translate(109,9)"/>
<path d="M0 0 C0 3.9630046 -1.27346349 4.75603761 -3.9375 7.625 C-4.74960938 8.50929688 -5.56171875 9.39359375 -6.3984375 10.3046875 C-9.58803157 13.60922189 -12.92693564 16.73284492 -16.34765625 19.796875 C-18.53429218 22.71238957 -18.49333892 24.43646448 -18 28 C-15.58333229 30.75041666 -15.58333229 30.75041666 -13 33 C-13 33.66 -13 34.32 -13 35 C-12.45085937 35.20238281 -11.90171875 35.40476563 -11.3359375 35.61328125 C-7.53435655 37.87007262 -4.97583091 41.49514546 -2.2421875 44.91992188 C-0.71324429 46.78684479 -0.71324429 46.78684479 2 49 C5.79791088 48.98620613 7.30509543 48.69490457 10 46 C10.721875 45.773125 11.44375 45.54625 12.1875 45.3125 C15.71679106 43.66549751 17.69821251 41.35306206 20.25390625 38.4609375 C22 37 22 37 26 37 C26 36.01 26 35.02 26 34 C27.11193726 34.1074353 27.11193726 34.1074353 28.24633789 34.21704102 C31.70951874 33.94407641 32.59511296 32.90709529 35.05859375 30.52734375 C40.54235315 26.01458384 45.19609255 26.16827724 52.0625 26.5625 C53.11888672 26.59408203 54.17527344 26.62566406 55.26367188 26.65820312 C57.84543455 26.73997841 60.42117928 26.85447558 63 27 C63 27.33 63 27.66 63 28 C62.35450195 28.0093457 61.70900391 28.01869141 61.04394531 28.02832031 C58.11186056 28.08209101 55.18135992 28.1657234 52.25 28.25 C50.72632813 28.27126953 50.72632813 28.27126953 49.171875 28.29296875 C43.40400298 28.34800855 43.40400298 28.34800855 38.4609375 30.9453125 C37.97882813 31.62335938 37.49671875 32.30140625 37 33 C36.13375 33.53625 35.2675 34.0725 34.375 34.625 C26.53032445 39.66942428 19.76454957 47.71544482 14 55 C13.29101562 55.88429687 12.58203125 56.76859375 11.8515625 57.6796875 C9.51051342 61.87777129 9.33807633 65.15090596 9.25 69.875 C9.20552734 71.050625 9.20552734 71.050625 9.16015625 72.25 C9.090054 74.16612807 9.04269342 76.08306537 9 78 C9.93457031 78.13148438 10.86914062 78.26296875 11.83203125 78.3984375 C15.69856917 79.13265062 17.26210319 80.18810598 20 83 C21.80316991 86.54416155 23 89.01265607 23 93 C25.45224694 92.89386164 25.45224694 92.89386164 28 92 C28.69658363 90.34561387 29.36096883 88.67745682 30 87 C32.42997715 85.08159699 33.92586122 83.96745034 37.0625 84.0625 C39.71420933 85.34558516 41.17743213 86.67465479 43 89 C44.17590974 92.68451718 44.33481338 94.28254275 42.6875 97.8125 C41 100 41 100 39 101 C34.94857881 101.25860135 33.45662331 101.30441554 30 99 C27.67612053 98.60612212 25.34206251 98.26513915 23 98 C22.773125 99.03125 22.54625 100.0625 22.3125 101.125 C20.85360901 106.20029682 17.77818419 109.47584212 13.8125 112.875 C8.86224239 114.85510305 3.86323818 114.83511114 -1.25 113.34375 C-6.32374662 111.11437649 -9.47465671 107.91892955 -12 103 C-12.8125 100.0625 -12.8125 100.0625 -13 98 C-14.175625 98.309375 -15.35125 98.61875 -16.5625 98.9375 C-26.6753083 101.40316704 -26.6753083 101.40316704 -30.875 100.125 C-33.68788512 97.31211488 -34.04103042 95.1389221 -34.2578125 91.23046875 C-34 89 -34 89 -32 85.9375 C-28.30843936 83.55336709 -26.31824345 83.36026023 -22 84 C-19.00890032 85.95968599 -18.1600321 88.69837016 -17 92 C-16.01 92 -15.02 92 -14 92 C-13.484375 90.80375 -12.96875 89.6075 -12.4375 88.375 C-10.16213136 83.8323314 -7.27760891 80.74034321 -3 78 C-0.0625 77.125 -0.0625 77.125 2 77 C1.91621094 76.33613281 1.83242187 75.67226562 1.74609375 74.98828125 C0.73462214 66.21792619 0.73462214 66.21792619 2 62 C1.34 62 0.68 62 0 62 C-2 59 -2 59 -1.75 57.0625 C-0.97936717 54.94325972 -0.0643413 52.98677042 1 51 C-0.093125 50.278125 -1.18625 49.55625 -2.3125 48.8125 C-5.51020694 46.53757823 -7.09823624 44.45775228 -9 41 C-9.886875 40.113125 -10.77375 39.22625 -11.6875 38.3125 C-12.450625 37.549375 -13.21375 36.78625 -14 36 C-14 35.34 -14 34.68 -14 34 C-15.485 33.505 -15.485 33.505 -17 33 C-20.07745905 30.17899587 -20.95457308 28.67246734 -21.23828125 24.47265625 C-20.23931739 17.90578327 -14.54309806 13.81990656 -9.9375 9.5 C-8.97691652 8.57457365 -8.01791446 7.64750284 -7.06054688 6.71875 C-4.72206026 4.46252171 -2.36884193 2.22426473 0 0 Z M-1.9375 87.3125 C-5.11567665 91.45376048 -5.43778562 93.74657251 -5 99 C-3.27022143 102.39549127 -1.93208897 104.42059334 1.3125 106.4375 C4.8521095 107.1783485 7.4944002 106.84394069 11 106 C14.42457002 103.30809039 15.03825995 100.35359892 15.84375 96.21875 C16.17123164 93.83194447 16.17123164 93.83194447 14.875 91.125 C11.26649646 87.03536265 8.41920147 85.33191265 2.96875 84.79296875 C0.63957135 84.86107975 0.63957135 84.86107975 -1.9375 87.3125 Z M-26 91 C-26 91.99 -26 92.98 -26 94 C-25.34 93.34 -24.68 92.68 -24 92 C-24.66 91.67 -25.32 91.34 -26 91 Z M35 91 C34.67 91.99 34.34 92.98 34 94 C34.99 94 35.98 94 37 94 C37 93.01 37 92.02 37 91 C36.34 91 35.68 91 35 91 Z " fill="#E3CD9F" transform="translate(98,75)"/>
<path d="M0 0 C4.63353387 2.19039783 8.43445572 5.51484634 11 10 C12.24744543 13.61759176 13.18225528 17.26363796 14 21 C14.7425 20.21625 15.485 19.4325 16.25 18.625 C20.16814159 14.88495575 20.16814159 14.88495575 23 14 C26.78485152 14.28386386 29.47916339 15.11904387 32 18 C33.03313276 21.07564811 33.42367679 23.77440736 33 27 C30.12888944 30.43132726 28.28239081 31.76916965 23.875 32.5625 C20.34130524 31.87112494 19.22375187 30.77968983 17 28 C16.34 27.01 15.68 26.02 15 25 C14.01 25.33 13.02 25.66 12 26 C11.608125 26.886875 11.21625 27.77375 10.8125 28.6875 C8.44714913 33.01038263 5.2681974 35.57332325 1 38 C0.01 38 -0.98 38 -2 38 C-1.85775413 40.52108103 -1.71129879 43.04180403 -1.5625 45.5625 C-1.52318359 46.26697266 -1.48386719 46.97144531 -1.44335938 47.69726562 C-1.17481721 52.1798541 -0.69383803 56.56293497 0 61 C-2.6465335 58.3534665 -3.59941997 55.43778736 -5 52 C-5.99 52 -6.98 52 -8 52 C-9.38226016 49.23547967 -9.09525387 46.9538637 -9.0625 43.875 C-9.05347656 42.77929688 -9.04445313 41.68359375 -9.03515625 40.5546875 C-9.02355469 39.71164063 -9.01195313 38.86859375 -9 38 C-9.75152344 37.88785156 -10.50304687 37.77570312 -11.27734375 37.66015625 C-16.72492883 36.33929272 -20.63895538 32.09936844 -23.5625 27.4375 C-26.0928643 21.70567479 -24.90535553 15.77358677 -23 10 C-17.25587627 0.67475175 -10.57938796 -1.13604166 0 0 Z M-15 12 C-17.13562101 16.27124202 -16.33793524 20.94643719 -14.9375 25.3125 C-12.33569129 28.92146046 -10.27895217 29.85894609 -6 31 C-1.71491862 30.28581977 1.31604092 29.48597052 4 26 C5.01941865 20.19331142 4.32698878 14.92887227 1 10 C-4.89008133 6.07327911 -10.22700289 7.08236661 -15 12 Z M23 19 C22.34 19.66 21.68 20.32 21 21 C21.3185177 23.10820797 21.3185177 23.10820797 22 25 C23.89179203 25.6814823 23.89179203 25.6814823 26 26 C26.66 25.34 27.32 24.68 28 24 C27.6814823 21.89179203 27.6814823 21.89179203 27 20 C25.10820797 19.3185177 25.10820797 19.3185177 23 19 Z " fill="#EAD5A2" transform="translate(109,9)"/>
<path d="M0 0 C3.58666607 3.33930979 6.95665035 7.13103495 8 12 C8.07897528 18.05853249 6.96821762 22.26018451 3 27 C-0.79451702 30.5948056 -4.57238855 33 -9.94921875 33 C-13.58741406 32.667365 -15.95711971 32.02226476 -19.25 30.3125 C-21.83159412 28.71290237 -21.83159412 28.71290237 -24.0625 29.5625 C-26.12691067 31.04837212 -26.12691067 31.04837212 -28.375 33.125 C-31.5567729 35.39769493 -33.18216636 35.16599277 -37 35 C-37.99 35.66 -38.98 36.32 -40 37 C-43.97615614 37.31556795 -46.75939556 37.50896592 -50.4375 36 C-52.81501259 32.95678388 -53.19804177 29.75545884 -53 26 C-51.42569236 22.37909244 -50.31117074 21.20744716 -47 19 C-43.27742496 18.51444673 -41.50583521 18.70109738 -38.25 20.625 C-35.70516655 23.31121308 -34.88959814 25.44160742 -34 29 C-33.21625 28.34 -32.4325 27.68 -31.625 27 C-29 25 -29 25 -27 25 C-27.33 24.38125 -27.66 23.7625 -28 23.125 C-29.58625961 18.16793871 -30.00804203 12.97257847 -28.3125 7.97265625 C-25.8202585 3.22701306 -22.0795479 -0.66552924 -17.125 -2.8125 C-10.49781275 -3.39725182 -5.91835539 -3.39757439 0 0 Z M-20 9 C-21.26372224 13.08851312 -21.2741007 15.20815353 -19.875 19.25 C-17.78213301 22.31953825 -16.45108014 23.63561948 -13 25 C-8.97572121 25 -7.09159345 24.05875806 -3.6875 21.875 C-0.46143924 18.42386524 0.083724 16.68854421 0 12 C-1.70603085 7.82970236 -3.89699181 5.81295711 -8 4 C-13.60191702 3.04648221 -16.24056456 4.89084964 -20 9 Z M-46 27 C-45.67 28.32 -45.34 29.64 -45 31 C-44.01 30.67 -43.02 30.34 -42 30 C-42 29.01 -42 28.02 -42 27 C-43.32 27 -44.64 27 -46 27 Z " fill="#DDC48F" transform="translate(173,35)"/>
<path d="M0 0 C3.77702297 2.63513231 6.60374735 5.7074947 8.6875 9.875 C8.8103777 11.80960941 8.86304888 13.74902904 8.875 15.6875 C8.88917969 16.72519531 8.90335938 17.76289062 8.91796875 18.83203125 C8.68464427 21.91270533 7.98868886 24.09261592 6.6875 26.875 C7.285625 26.99875 7.88375 27.1225 8.5 27.25 C10.6875 27.875 10.6875 27.875 13.6875 29.875 C14.30625 28.2353125 14.30625 28.2353125 14.9375 26.5625 C16.35370294 23.34504355 17.33278057 21.32568948 20.6875 19.875 C24.50412833 19.69730273 27.59584263 20.05625697 30.6875 22.375 C32.23535561 26.24463902 32.45291544 29.77820496 31.6875 33.875 C29.625 36.9375 29.625 36.9375 26.6875 38.875 C23.25 39.5 23.25 39.5 19.6875 38.875 C18.18486284 37.69207287 16.68352422 36.50011231 15.2890625 35.19140625 C11.76587358 32.29551682 7.53799749 30.78893035 3 31 C0.59896459 31.80151988 0.59896459 31.80151988 -1.5625 33.4375 C-5.55853552 35.52633675 -8.89497021 35.62676763 -13.3125 34.875 C-18.29342504 33.08186699 -22.12015016 30.83350442 -24.8125 26.1875 C-25.3075 25.094375 -25.8025 24.00125 -26.3125 22.875 C-26.6425 22.215 -26.9725 21.555 -27.3125 20.875 C-27.87252785 14.37867688 -26.63007072 10.44377942 -23.3125 4.875 C-22.6525 4.875 -21.9925 4.875 -21.3125 4.875 C-21.3125 4.215 -21.3125 3.555 -21.3125 2.875 C-15.50694037 -2.30853539 -7.13017123 -2.42156759 0 0 Z M-16.3125 8.875 C-18.58053219 11.6722397 -19.25905567 13.35124554 -19.625 16.9375 C-19.31003546 19.89816672 -19.04821674 21.47805784 -17.3125 23.875 C-14.40453243 26.20137406 -12.52890506 26.84794937 -8.8125 27.3125 C-4.02493993 26.71405499 -1.862428 24.84763564 1.0625 21.125 C2.05061609 17.56778209 1.79856949 14.3885769 0.6875 10.875 C-1.8246867 8.07570625 -3.68519496 7.07520373 -7.25 5.9375 C-11.14779079 5.85795325 -13.08015877 6.72010584 -16.3125 8.875 Z M21.6875 25.875 C21.0275 26.535 20.3675 27.195 19.6875 27.875 C20.0060177 29.98320797 20.0060177 29.98320797 20.6875 31.875 C22.57929203 32.5564823 22.57929203 32.5564823 24.6875 32.875 C25.3475 32.215 26.0075 31.555 26.6875 30.875 C26.3689823 28.76679203 26.3689823 28.76679203 25.6875 26.875 C23.79570797 26.1935177 23.79570797 26.1935177 21.6875 25.875 Z " fill="#DBCAA4" transform="translate(53.3125,33.125)"/>
<path d="M0 0 C4.49937495 3.05668959 5.63048571 7.02803771 6.88671875 12.13671875 C7.33973782 17.14947329 5.63861537 21.66644727 3.94921875 26.32421875 C3.28921875 26.32421875 2.62921875 26.32421875 1.94921875 26.32421875 C1.94921875 26.98421875 1.94921875 27.64421875 1.94921875 28.32421875 C0.5234375 29.578125 0.5234375 29.578125 -1.36328125 30.88671875 C-1.97816406 31.32113281 -2.59304687 31.75554687 -3.2265625 32.203125 C-7.26257463 34.68350077 -11.45106336 34.91561105 -16.05078125 34.32421875 C-21.39997816 32.51493156 -25.39049605 29.65001035 -29.05078125 25.32421875 C-31.02181566 19.41111552 -31.04818631 12.6925955 -28.48828125 6.94921875 C-22.40866489 -3.62497113 -10.29314912 -5.11962914 0 0 Z M-20.05078125 9.32421875 C-22.22257124 11.968137 -22.14318712 14.03836723 -21.86328125 17.32421875 C-21.08763095 21.92665824 -21.08763095 21.92665824 -18.05078125 25.32421875 C-13.80132317 26.50553528 -10.312985 26.81812456 -6.17578125 25.19921875 C-2.83060937 22.2475965 -1.30272046 19.80436163 -0.55078125 15.38671875 C-1.254882 11.07410163 -3.0117098 9.43564904 -6.05078125 6.32421875 C-11.51578998 3.59171438 -15.6376126 5.7134444 -20.05078125 9.32421875 Z " fill="#DEC899" transform="translate(174.05078125,135.67578125)"/>
<path d="M0 0 C4.03162131 2.81573552 6.41486446 6.51687109 7.72265625 11.203125 C8.34541558 17.53451149 7.39403107 21.9486803 3.72265625 27.203125 C-0.45514314 31.60999433 -4.37116832 33.35710821 -10.40234375 33.640625 C-16.72334477 33.56527532 -20.76946184 31.58942503 -25.27734375 27.203125 C-28.81887082 22.63742659 -29.89271183 18.02876574 -29.59765625 12.3046875 C-28.72963369 6.60961268 -25.59279865 2.81606399 -21.27734375 -0.796875 C-14.15165263 -4.19777303 -6.80776147 -3.84374604 0 0 Z M-18.27734375 7.203125 C-20.27791011 8.84168411 -21.16408644 9.70762426 -21.74609375 12.25390625 C-21.80481904 16.50414891 -21.66061236 19.33281454 -18.90234375 22.703125 C-16.01311353 25.61018584 -16.01311353 25.61018584 -12.25390625 26.22265625 C-7.14294782 25.7990833 -7.14294782 25.7990833 -2.77734375 23.265625 C-0.34299954 19.91840171 0.13088548 17.42499228 0.0625 13.23828125 C-0.53558397 9.65665193 -2.42510658 8.26644551 -5.27734375 6.203125 C-10.70524891 3.83458457 -13.33426215 3.94518485 -18.27734375 7.203125 Z " fill="#DFC590" transform="translate(55.27734375,135.796875)"/>
<path d="M0 0 C2.74315908 -0.4987562 4.45346648 -0.34832716 6.8203125 1.16015625 C11.24156474 4.77670358 13.62975091 7.50320302 14.24609375 13.32421875 C14.53176836 19.11562216 13.97315979 22.51746075 10 27 C9.54882812 27.55945313 9.09765625 28.11890625 8.6328125 28.6953125 C5.86983326 31.65073806 3.8832895 32.86603624 -0.16796875 33.48046875 C-6.06518186 33.62040262 -10.0982762 33.51219167 -15 30 C-17.5242962 27.4757038 -18.81428628 25.79856898 -19.625 22.3125 C-18.44119728 16.03834558 -14.76715042 10.25007855 -10 6 C-7.02523018 4.01682012 -4.39982444 3.0278539 -1 2 C-0.67 1.34 -0.34 0.68 0 0 Z M-12 11 C-13.12448974 14.37346922 -13.19009511 16.25690093 -12.3125 19.6875 C-10.75262542 22.43585046 -9.84041803 23.57979098 -7 25 C-2.40193694 25.5108959 -0.13963789 25.60619037 3.9375 23.4375 C6.65361118 20.22755042 7 18.17955847 7 14 C5.29284176 9.82694653 3.08580235 7.84833916 -1 6 C-6.07693244 4.95857796 -8.57963925 7.4241683 -12 11 Z " fill="#DAC391" transform="translate(182,84)"/>
<path d="M0 0 C0 3.9630046 -1.27346349 4.75603761 -3.9375 7.625 C-4.74960938 8.50929688 -5.56171875 9.39359375 -6.3984375 10.3046875 C-9.58803157 13.60922189 -12.92693564 16.73284492 -16.34765625 19.796875 C-18.53429218 22.71238957 -18.49333892 24.43646448 -18 28 C-15.58333229 30.75041666 -15.58333229 30.75041666 -13 33 C-13 33.66 -13 34.32 -13 35 C-12.45085937 35.20238281 -11.90171875 35.40476563 -11.3359375 35.61328125 C-7.53435655 37.87007262 -4.97583091 41.49514546 -2.2421875 44.91992188 C-0.71324429 46.78684479 -0.71324429 46.78684479 2 49 C5.79791088 48.98620613 7.30509543 48.69490457 10 46 C10.721875 45.773125 11.44375 45.54625 12.1875 45.3125 C15.71679106 43.66549751 17.69821251 41.35306206 20.25390625 38.4609375 C22 37 22 37 26 37 C26 36.01 26 35.02 26 34 C27.11193726 34.1074353 27.11193726 34.1074353 28.24633789 34.21704102 C31.70951874 33.94407641 32.59511296 32.90709529 35.05859375 30.52734375 C40.54235315 26.01458384 45.19609255 26.16827724 52.0625 26.5625 C53.11888672 26.59408203 54.17527344 26.62566406 55.26367188 26.65820312 C57.84543455 26.73997841 60.42117928 26.85447558 63 27 C63 27.33 63 27.66 63 28 C62.35450195 28.0093457 61.70900391 28.01869141 61.04394531 28.02832031 C58.11186056 28.08209101 55.18135992 28.1657234 52.25 28.25 C50.72632813 28.27126953 50.72632813 28.27126953 49.171875 28.29296875 C43.40400298 28.34800855 43.40400298 28.34800855 38.4609375 30.9453125 C37.73777344 31.96238281 37.73777344 31.96238281 37 33 C36.13375 33.53625 35.2675 34.0725 34.375 34.625 C26.53032445 39.66942428 19.76454957 47.71544482 14 55 C13.29101562 55.88429687 12.58203125 56.76859375 11.8515625 57.6796875 C9.51051342 61.87777129 9.33807633 65.15090596 9.25 69.875 C9.20552734 71.050625 9.20552734 71.050625 9.16015625 72.25 C9.090054 74.16612807 9.04269342 76.08306537 9 78 C8.34 78 7.68 78 7 78 C7 72.72 7 67.44 7 62 C4.69 62 2.38 62 0 62 C-2 59 -2 59 -1.75 57.0625 C-0.97936717 54.94325972 -0.0643413 52.98677042 1 51 C-0.093125 50.278125 -1.18625 49.55625 -2.3125 48.8125 C-5.51020694 46.53757823 -7.09823624 44.45775228 -9 41 C-9.886875 40.113125 -10.77375 39.22625 -11.6875 38.3125 C-12.450625 37.549375 -13.21375 36.78625 -14 36 C-14 35.34 -14 34.68 -14 34 C-14.99 33.67 -15.98 33.34 -17 33 C-20.07745905 30.17899587 -20.95457308 28.67246734 -21.23828125 24.47265625 C-20.23931739 17.90578327 -14.54309806 13.81990656 -9.9375 9.5 C-8.97691652 8.57457365 -8.01791446 7.64750284 -7.06054688 6.71875 C-4.72206026 4.46252171 -2.36884193 2.22426473 0 0 Z " fill="#E2CD9A" transform="translate(98,75)"/>
<path d="M0 0 C0.66 0 1.32 0 2 0 C2.05441656 1.89551022 2.09298035 3.7914792 2.125 5.6875 C2.14820312 6.74324219 2.17140625 7.79898438 2.1953125 8.88671875 C1.99858729 12.02251859 1.33057654 14.17645373 0 17 C0.598125 17.12375 1.19625 17.2475 1.8125 17.375 C4 18 4 18 7 20 C7.4125 18.906875 7.825 17.81375 8.25 16.6875 C9.66620294 13.47004355 10.64528057 11.45068948 14 10 C17.81662833 9.82230273 20.90834263 10.18125697 24 12.5 C25.54785561 16.36963902 25.76541544 19.90320496 25 24 C22.9375 27.0625 22.9375 27.0625 20 29 C16.5625 29.625 16.5625 29.625 13 29 C11.49736284 27.81707287 9.99602422 26.62511231 8.6015625 25.31640625 C5.07837358 22.42051682 0.85049749 20.91393035 -3.6875 21.125 C-6.08853541 21.92651988 -6.08853541 21.92651988 -8.25 23.5625 C-12.15237171 25.60237612 -15.68152814 25.25402776 -20 25 C-20.33 24.34 -20.66 23.68 -21 23 C-20.35933594 22.98582031 -19.71867187 22.97164062 -19.05859375 22.95703125 C-12.4068358 22.59024281 -9.14461033 21.17999589 -4 17 C-3.34 17 -2.68 17 -2 17 C-0.95117609 13.43928688 -0.69613047 9.94472103 -0.4375 6.25 C-0.35371094 5.07953125 -0.26992188 3.9090625 -0.18359375 2.703125 C-0.09271484 1.36507812 -0.09271484 1.36507812 0 0 Z M15 16 C14.34 16.66 13.68 17.32 13 18 C13.3185177 20.10820797 13.3185177 20.10820797 14 22 C15.89179203 22.6814823 15.89179203 22.6814823 18 23 C18.66 22.34 19.32 21.68 20 21 C19.6814823 18.89179203 19.6814823 18.89179203 19 17 C17.10820797 16.3185177 17.10820797 16.3185177 15 16 Z " fill="#888072" transform="translate(60,43)"/>
<path d="M0 0 C3.4375 1.625 3.4375 1.625 6 4 C6.94875 4.78375 7.8975 5.5675 8.875 6.375 C12.7268329 11.15275428 11.49967502 18.2537373 11 24 C10.505 25.485 10.505 25.485 10 27 C6.04 27.495 6.04 27.495 2 28 C2.33 27.34 2.66 26.68 3 26 C3.53747084 20.2531964 3.81732053 14.62705519 0 10 C-2.31470905 9.16483941 -4.51015997 8.69549281 -6.94140625 8.32421875 C-9 8 -9 8 -11 7 C-11.99 6.67 -12.98 6.34 -14 6 C-14.12375 6.78375 -14.2475 7.5675 -14.375 8.375 C-15 11 -15 11 -17 13 C-17.33 12.34 -17.66 11.68 -18 11 C-18.99 11.33 -19.98 11.66 -21 12 C-21.73323796 14.01508358 -21.73323796 14.01508358 -22 16 C-22.66 16 -23.32 16 -24 16 C-23.86088734 10.43549353 -21.42713774 7.69718671 -17.88671875 3.734375 C-12.66680215 -1.06405765 -6.7753994 -0.72755967 0 0 Z " fill="#E9D9AC" transform="translate(109,9)"/>
<path d="M0 0 C0.99 0 1.98 0 3 0 C3.33 0.99 3.66 1.98 4 3 C4.66 3.309375 5.32 3.61875 6 3.9375 C8 5 8 5 8.9375 6.9375 C9 9 9 9 7.5625 10.75 C6.7890625 11.36875 6.7890625 11.36875 6 12 C5.01 11.34 4.02 10.68 3 10 C2.01 10.33 1.02 10.66 0 11 C0.55429688 11.26554687 1.10859375 11.53109375 1.6796875 11.8046875 C2.40414062 12.15789062 3.12859375 12.51109375 3.875 12.875 C4.95394531 13.39707031 4.95394531 13.39707031 6.0546875 13.9296875 C8 15 8 15 10 17 C10.67985612 23.11870504 10.67985612 23.11870504 8.3125 26.1875 C7.1678125 27.0846875 7.1678125 27.0846875 6 28 C5.0925 28.7425 4.185 29.485 3.25 30.25 C2.5075 30.8275 1.765 31.405 1 32 C0.67 31.01 0.34 30.02 0 29 C-1.98248715 28.28293018 -3.98415349 27.61709587 -6 27 C-6.66 26.34 -7.32 25.68 -8 25 C-7.625 22.875 -7.625 22.875 -7 21 C-5.35 20.67 -3.7 20.34 -2 20 C-2 20.66 -2 21.32 -2 22 C-0.35 22 1.3 22 3 22 C1.02047029 19.67114152 -0.91424294 18.54136681 -3.625 17.25 C-6.77577603 15.51071812 -6.93739998 15.18450534 -8.1875 11.5 C-8 8 -8 8 -6.25 5.5625 C-4 4 -4 4 -1 4 C-0.67 2.68 -0.34 1.36 0 0 Z " fill="#CCBC88" transform="translate(102,85)"/>
<path d="M0 0 C-0.33 0.66 -0.66 1.32 -1 2 C-2.34328544 6.02985632 -2.40531328 8.74421055 -2 13 C-0.66666667 15.66666667 -0.66666667 15.66666667 2 17 C6.72867414 17.45034992 10.84419997 17.56681766 15 15 C16.16953416 12.57616923 16.16953416 12.57616923 17 10 C18.5 8.1875 18.5 8.1875 20 7 C20.66 7 21.32 7 22 7 C22 8.32 22 9.64 22 11 C29.92 11 37.84 11 46 11 C46 11.33 46 11.66 46 12 C42.86225774 12.79869803 39.93423168 13.06052925 36.71484375 13.0703125 C35.54791992 13.08578125 35.54791992 13.08578125 34.35742188 13.1015625 C32.74029135 13.11722478 31.12276535 13.10929427 29.50585938 13.078125 C27.14847903 13.1329023 25.23863341 13.25029439 23 14 C21.01779067 16.20761224 20.21365376 18.22248394 19 21 C16.06701258 24.37737945 14.08996975 25.79699338 9.546875 26.23828125 C3.11892551 26.40885533 -0.86843968 26.01600373 -6 22 C-6.9375 19.75 -6.9375 19.75 -7 18 C-5.68 17.34 -4.36 16.68 -3 16 C-3.66 15.01 -4.32 14.02 -5 13 C-5.58922568 8.84481115 -5.62495003 5.16467959 -3.625 1.4375 C-2 0 -2 0 0 0 Z " fill="#E5D09A" transform="translate(22,91)"/>
<path d="M0 0 C2 1 2 1 2.6328125 2.84765625 C2.87644531 3.94400391 2.87644531 3.94400391 3.125 5.0625 C3.29257813 5.79597656 3.46015625 6.52945312 3.6328125 7.28515625 C3.75398438 7.85105469 3.87515625 8.41695312 4 9 C5.11375 7.824375 5.11375 7.824375 6.25 6.625 C10.16814159 2.88495575 10.16814159 2.88495575 13 2 C16.78485152 2.28386386 19.47916339 3.11904387 22 6 C23.03313276 9.07564811 23.42367679 11.77440736 23 15 C20.12888944 18.43132726 18.28239081 19.76916965 13.875 20.5625 C10.34130524 19.87112494 9.22375187 18.77968983 7 16 C6.34 15.01 5.68 14.02 5 13 C4.01 13.33 3.02 13.66 2 14 C1.608125 14.886875 1.21625 15.77375 0.8125 16.6875 C-1.55285087 21.01038263 -4.7318026 23.57332325 -9 26 C-9.99 26 -10.98 26 -12 26 C-11.85775413 28.52108103 -11.71129879 31.04180403 -11.5625 33.5625 C-11.52318359 34.26697266 -11.48386719 34.97144531 -11.44335938 35.69726562 C-11.17481721 40.1798541 -10.69383803 44.56293497 -10 49 C-13.33970213 45.66029787 -14.11560468 42.41500038 -14.1953125 37.79296875 C-14.18213414 36.25769016 -14.15845284 34.72247066 -14.125 33.1875 C-14.11597656 32.39923828 -14.10695313 31.61097656 -14.09765625 30.79882812 C-14.07422504 28.86575334 -14.03835838 26.9328362 -14 25 C-13.32453125 24.731875 -12.6490625 24.46375 -11.953125 24.1875 C-6.61243738 21.84130197 -2.81429764 19.94158443 -0.5390625 14.40234375 C0.52937517 9.64082803 0.2906181 4.84363492 0 0 Z M13 7 C12.34 7.66 11.68 8.32 11 9 C11.3185177 11.10820797 11.3185177 11.10820797 12 13 C13.89179203 13.6814823 13.89179203 13.6814823 16 14 C16.66 13.34 17.32 12.68 18 12 C17.6814823 9.89179203 17.6814823 9.89179203 17 8 C15.10820797 7.3185177 15.10820797 7.3185177 13 7 Z " fill="#BAB1A1" transform="translate(119,21)"/>
<path d="M0 0 C2.25851133 1.89021692 2.82665636 3.5452258 3.62890625 6.36328125 C3.84485445 11.43806384 3.70694161 15.95856851 0.56640625 20.05078125 C-0.07296875 20.48390625 -0.71234375 20.91703125 -1.37109375 21.36328125 C-1.31308594 20.69941406 -1.25507812 20.03554687 -1.1953125 19.3515625 C-0.87658483 13.46284977 -0.87658483 13.46284977 -3.49609375 8.30078125 C-6.7216596 6.12703035 -8.48444628 5.36328125 -12.37109375 5.36328125 C-15.55471811 6.66326565 -15.55471811 6.66326565 -18.37109375 8.36328125 C-19.36109375 8.69328125 -20.35109375 9.02328125 -21.37109375 9.36328125 C-23.08677036 12.86622996 -23.08677036 12.86622996 -24.37109375 16.36328125 C-25.36109375 16.36328125 -26.35109375 16.36328125 -27.37109375 16.36328125 C-27.37109375 18.34328125 -27.37109375 20.32328125 -27.37109375 22.36328125 C-30.07843205 18.3022738 -29.89411642 15.12769086 -29.37109375 10.36328125 C-27.31966588 4.74884707 -24.07058302 0.65167386 -18.62109375 -1.94921875 C-11.67920343 -3.41769555 -6.40660056 -3.14505846 0 0 Z " fill="#E8D7AA" transform="translate(55.37109375,135.63671875)"/>
<path d="M0 0 C3.8736787 2.07488622 6.73829803 4.51825714 8.99609375 8.28125 C8.74609375 10.59375 8.74609375 10.59375 7.99609375 12.28125 C6.01609375 8.81625 6.01609375 8.81625 3.99609375 5.28125 C3.33609375 5.28125 2.67609375 5.28125 1.99609375 5.28125 C1.99609375 6.93125 1.99609375 8.58125 1.99609375 10.28125 C1.29484375 9.971875 0.59359375 9.6625 -0.12890625 9.34375 C-5.27870425 7.44056378 -9.64883706 6.82077658 -15.00390625 8.28125 C-17.07714763 11.39111207 -17.27782811 12.17233387 -17.25390625 15.71875 C-17.2590625 16.48058594 -17.26421875 17.24242188 -17.26953125 18.02734375 C-16.97863545 20.49568018 -16.23366281 22.138936 -15.00390625 24.28125 C-15.80828125 24.405 -16.61265625 24.52875 -17.44140625 24.65625 C-18.28703125 24.8625 -19.13265625 25.06875 -20.00390625 25.28125 C-20.33390625 25.94125 -20.66390625 26.60125 -21.00390625 27.28125 C-24.83002276 21.75012666 -24.79349036 16.81971615 -24.00390625 10.28125 C-21.70761166 5.33538474 -18.6906676 2.97364482 -14.00390625 0.28125 C-9.41328016 -1.2489587 -4.62850487 -1.6601265 0 0 Z " fill="#E5D6A9" transform="translate(35.00390625,83.71875)"/>
<path d="M0 0 C1.91099423 1.896517 3.3988686 3.816639 5 6 C4.67 6.33 4.34 6.66 4 7 C3.814375 8.670625 3.814375 8.670625 3.625 10.375 C3.01688361 13.90207504 2.78215593 14.94362388 0 17 C-0.4640625 15.3603125 -0.4640625 15.3603125 -0.9375 13.6875 C-1.58337897 11.44592006 -2.2623117 9.2130649 -3 7 C-5.50447516 5.78130071 -5.50447516 5.78130071 -8 5 C-8 4.34 -8 3.68 -8 3 C-13.87092068 3.28266331 -13.87092068 3.28266331 -18.875 6.125 C-21.36859679 9.49868978 -22.12316723 11.93468442 -23 16 C-23.99 14.68 -24.98 13.36 -26 12 C-27.96822886 13.96822886 -27.66248381 17.34808709 -28 20 C-28.33 20 -28.66 20 -29 20 C-29.50510026 13.02681033 -29.23176818 8.67947834 -25 3 C-17.82971193 -4.3811789 -8.90564973 -5.04093381 0 0 Z " fill="#E7D6AD" transform="translate(173,35)"/>
<path d="M0 0 C-0.66 0.33 -1.32 0.66 -2 1 C-2.2475 1.639375 -2.495 2.27875 -2.75 2.9375 C-4.55160535 5.91014882 -6.74389646 5.97847732 -10 7 C-15.87281102 10.43774304 -18.86495661 16.90277021 -20.640625 23.3125 C-20.75921875 23.869375 -20.8778125 24.42625 -21 25 C-21.33 23.68 -21.66 22.36 -22 21 C-27.94 21 -33.88 21 -40 21 C-38.68 19.68 -37.36 18.36 -36 17 C-40.455 16.01 -40.455 16.01 -45 15 C-45 14.67 -45 14.34 -45 14 C-37.74 14 -30.48 14 -23 14 C-22.34 12.02 -21.68 10.04 -21 8 C-15.62823054 -0.2495031 -9.09443656 -0.43692133 0 0 Z " fill="#EEDCAD" transform="translate(184,83)"/>
<path d="M0 0 C2.65170933 1.28308516 4.11493213 2.61215479 5.9375 4.9375 C7.11340974 8.62201718 7.27231338 10.22004275 5.625 13.75 C3.9375 15.9375 3.9375 15.9375 1.9375 16.9375 C-2.11392119 17.19610135 -3.60587669 17.24191554 -7.0625 14.9375 C-9.38637947 14.54362212 -11.72043749 14.20263915 -14.0625 13.9375 C-14.3925 15.9175 -14.7225 17.8975 -15.0625 19.9375 C-15.7225 19.9375 -16.3825 19.9375 -17.0625 19.9375 C-16.7325 16.3075 -16.4025 12.6775 -16.0625 8.9375 C-12.0625 7.9375 -12.0625 7.9375 -9.0625 7.9375 C-8.835625 7.174375 -8.60875 6.41125 -8.375 5.625 C-6.58782642 1.96554934 -4.23049921 -0.12819695 0 0 Z M-2.0625 6.9375 C-2.3925 7.9275 -2.7225 8.9175 -3.0625 9.9375 C-2.0725 9.9375 -1.0825 9.9375 -0.0625 9.9375 C-0.0625 8.9475 -0.0625 7.9575 -0.0625 6.9375 C-0.7225 6.9375 -1.3825 6.9375 -2.0625 6.9375 Z " fill="#BDAB82" transform="translate(135.0625,159.0625)"/>
<path d="M0 0 C2.46603042 1.6156751 2.94231946 2.83849448 3.9375 5.625 C4.7498001 8.19124685 4.7498001 8.19124685 7.125 8.8125 C7.74375 8.874375 8.3625 8.93625 9 9 C9 10.32 9 11.64 9 13 C-1.41333333 17.88190476 -1.41333333 17.88190476 -8 16 C-11 14 -11 14 -11.6875 12.01171875 C-12.27222665 7.66281426 -12.47462069 5.72676293 -10 1.9375 C-6.30843936 -0.44663291 -4.31824345 -0.63973977 0 0 Z M-4 7 C-4 7.99 -4 8.98 -4 10 C-3.34 9.34 -2.68 8.68 -2 8 C-2.66 7.67 -3.32 7.34 -4 7 Z " fill="#CAB387" transform="translate(76,159)"/>
<path d="M0 0 C3 2 3 2 3.875 5.75 C4.26011625 9.89566313 3.31302451 12.48762944 1 16 C-2.21102274 17.60551137 -5.51699208 17.46807221 -9 17 C-11.5 15.5625 -11.5 15.5625 -13 13 C-13.81442033 9.17079563 -14.06209824 5.66257781 -11.89453125 2.26953125 C-7.99495107 -1.46277471 -4.96586373 -1.40543313 0 0 Z M-6 7 C-6 7.99 -6 8.98 -6 10 C-5.01 10 -4.02 10 -3 10 C-3 9.01 -3 8.02 -3 7 C-3.99 7 -4.98 7 -6 7 Z " fill="#E5D3A7" transform="translate(134,130)"/>
<path d="M0 0 C3 2 3 2 3.65234375 3.98828125 C4.42506595 10.28649644 4.42506595 10.28649644 2.25 13.9375 C-0.45154757 16.41391861 -2.19193409 17.8946001 -5.875 18.375 C-9.8473057 17.89832332 -11.33317132 16.9716091 -14 14 C-15.125 10.625 -15.125 10.625 -15 7 C-11.40101855 0.67708357 -7.03411776 -0.82180782 0 0 Z M-8 5 C-8.66 5.66 -9.32 6.32 -10 7 C-9.6814823 9.10820797 -9.6814823 9.10820797 -9 11 C-7.10820797 11.6814823 -7.10820797 11.6814823 -5 12 C-4.34 11.34 -3.68 10.68 -3 10 C-3.3185177 7.89179203 -3.3185177 7.89179203 -4 6 C-5.89179203 5.3185177 -5.89179203 5.3185177 -8 5 Z " fill="#E9D6A2" transform="translate(159,71)"/>
<path d="M0 0 C2.875 2.0625 2.875 2.0625 5 5 C5.51521375 9.19531196 5.47609387 12.48134029 3 16 C0 18 0 18 -3.4375 17.8125 C-8.74489796 16.60204082 -8.74489796 16.60204082 -11 14 C-12.08711382 10.08639025 -12.4142982 7.93217096 -10.75 4.1875 C-7.54266712 0.17833389 -4.99384393 -0.69913815 0 0 Z M-3 7 C-3.33 7.99 -3.66 8.98 -4 10 C-3.34 10 -2.68 10 -2 10 C-2.33 9.01 -2.66 8.02 -3 7 Z " fill="#B3A888" transform="translate(76,23)"/>
<path d="M0 0 C3.09824425 2.01385876 3.79896026 3.38347812 4.9375 6.875 C5.01494522 10.74726087 4.06519782 12.75468914 2 16 C-1.54129184 18.36086122 -2.82750218 18.57269578 -7 18 C-11.29477197 15.53448276 -11.29477197 15.53448276 -13 13 C-14.00778483 8.70927973 -13.71900637 5.281707 -11.5625 1.4375 C-7.7385792 -0.7076263 -4.28070856 -0.77115706 0 0 Z M-6 4 C-6.66 4.66 -7.32 5.32 -8 6 C-7.6814823 8.10820797 -7.6814823 8.10820797 -7 10 C-5.10820797 10.6814823 -5.10820797 10.6814823 -3 11 C-2.34 10.34 -1.68 9.68 -1 9 C-1.3185177 6.89179203 -1.3185177 6.89179203 -2 5 C-3.89179203 4.3185177 -3.89179203 4.3185177 -6 4 Z " fill="#E3D1A1" transform="translate(81,130)"/>
<path d="M0 0 C3.44150865 2.43773529 4.762119 3.85817119 5.625 8 C4.77618008 12.0743356 3.32274404 13.54405875 0 16 C-4.08253945 16.78176287 -5.67833514 16.18207445 -9.3125 14.125 C-12.44701772 11.64654413 -12.86734514 11.01702062 -13.375 7.125 C-13 4 -13 4 -11 1.625 C-7.17603317 -0.44631537 -4.25742362 -0.98710427 0 0 Z M-4 6 C-4.33 6.66 -4.66 7.32 -5 8 C-4.01 7.67 -3.02 7.34 -2 7 C-2.66 6.67 -3.32 6.34 -4 6 Z " fill="#D6C59E" transform="translate(158,113)"/>
<path d="M0 0 C3 1.5 3 1.5 5 4 C5.79190864 8.98902441 5.80380719 10.83082591 2.9375 15 C-0.79836042 17.54356454 -2.55999051 17.77894903 -7 17 C-10.23914501 15.11540654 -12.50734691 13.77707006 -13.546875 10.02734375 C-13.79260133 6.37557747 -13.27705176 4.34631471 -11 1.5 C-7.14457281 -0.42771359 -4.22694408 -0.81811821 0 0 Z M-6 4 C-6.66 4.66 -7.32 5.32 -8 6 C-7.6814823 8.10820797 -7.6814823 8.10820797 -7 10 C-5.10820797 10.6814823 -5.10820797 10.6814823 -3 11 C-2.34 10.34 -1.68 9.68 -1 9 C-1.3185177 6.89179203 -1.3185177 6.89179203 -2 5 C-3.89179203 4.3185177 -3.89179203 4.3185177 -6 4 Z " fill="#EAD9A7" transform="translate(56,72)"/>
<path d="M0 0 C2.73856769 1.90509057 3.0643878 3.26215033 3.875 6.5625 C4.38281062 11.7076755 2.73585097 16.21415101 1 21 C0.34 21 -0.32 21 -1 21 C-1 21.66 -1 22.32 -1 23 C-4.36634499 26.28983715 -6.29677848 27.92406019 -11.06640625 28.13671875 C-19.00699426 27.49650287 -19.00699426 27.49650287 -22 26 C-22 25.34 -22 24.68 -22 24 C-21.01 24.33 -20.02 24.66 -19 25 C-18.67 24.01 -18.34 23.02 -18 22 C-16.4221875 21.9071875 -16.4221875 21.9071875 -14.8125 21.8125 C-10.32224602 20.85556063 -8.85016871 19.52079664 -6 16 C-5.67 15.01 -5.34 14.02 -5 13 C-4.154375 12.278125 -3.30875 11.55625 -2.4375 10.8125 C0.14936483 7.82765597 0.33859935 7.38055861 0.3125 3.6875 C0.209375 2.470625 0.10625 1.25375 0 0 Z " fill="#C7AF85" transform="translate(177,141)"/>
<path d="M0 0 C2.04119788 1.61594832 4.04072937 3.2856382 6 5 C6 5.66 6 6.32 6 7 C6.5775 7.226875 7.155 7.45375 7.75 7.6875 C11.1390875 9.66446771 13.37207731 12.40604241 14.8125 16.0625 C16.74700266 19.21879382 19.7527055 20.31621767 23 22 C22.01 22.33 21.02 22.66 20 23 C19.26676204 25.01508358 19.26676204 25.01508358 19 27 C15.18063472 25.44396229 12.73955562 23.04395069 10 20 C10 19.34 10 18.68 10 18 C9.34 18 8.68 18 8 18 C6.51953125 16.4609375 6.51953125 16.4609375 4.8125 14.375 C1.13604287 10.04477958 -2.85203119 5.57398441 -8 3 C-8 2.34 -8 1.68 -8 1 C-3.125 2.875 -3.125 2.875 -2 4 C-1.34 2.68 -0.68 1.36 0 0 Z " fill="#E9D297" transform="translate(78,104)"/>
<path d="M0 0 C2.9375 1.375 2.9375 1.375 5 4 C5.22230588 7.44574119 4.87814002 10.66190482 4 14 C2 16 2 16 -0.1640625 16.1953125 C-0.97617188 16.17210938 -1.78828125 16.14890625 -2.625 16.125 C-3.44226563 16.10695313 -4.25953125 16.08890625 -5.1015625 16.0703125 C-5.72804688 16.04710938 -6.35453125 16.02390625 -7 16 C-7 15.01 -7 14.02 -7 13 C-6.34 13 -5.68 13 -5 13 C-4.67 12.34 -4.34 11.68 -4 11 C-3.34 11 -2.68 11 -2 11 C-1.67 10.01 -1.34 9.02 -1 8 C-3.41712366 7.13674155 -4.64990694 6.8867346 -7.125 7.6875 C-9.31296172 9.2190732 -10.01906046 10.54765115 -11 13 C-11.33 12.67 -11.66 12.34 -12 12 C-11.76642336 4.87591241 -11.76642336 4.87591241 -8.8125 1.5 C-5.45867766 -0.28870525 -3.74723342 -0.6245389 0 0 Z " fill="#E7D19C" transform="translate(132,54)"/>
<path d="M0 0 C2.625 1.1875 2.625 1.1875 5 3 C5 4.32 5 5.64 5 7 C2.69 7.33 0.38 7.66 -2 8 C-1.43410156 8.15855469 -0.86820312 8.31710938 -0.28515625 8.48046875 C1.92756716 9.18434035 3.94841871 9.90955868 6 11 C7.1875 13.5 7.1875 13.5 7 16 C5.38010972 18.51982932 4.22117209 18.94342109 1.3125 19.6875 C0.549375 19.790625 -0.21375 19.89375 -1 20 C-1.0825 19.21625 -1.165 18.4325 -1.25 17.625 C-1.72214303 14.86319488 -1.72214303 14.86319488 -4 13.75 C-4.66 13.5025 -5.32 13.255 -6 13 C-7 12 -7 12 -7.375 8.6875 C-7 5 -7 5 -4.625 2.625 C-2 1 -2 1 0 0 Z " fill="#D1CBA2" transform="translate(103,18)"/>
<path d="M0 0 C3.65000636 2.01379661 4.59245811 3.25735863 5.8125 7.375 C5.8125 11 5.8125 11 3.6875 14 C0.8125 16 0.8125 16 -1.75 16.125 C-4.98441808 14.63219166 -6.33087826 13.0256058 -8.1875 10 C-8.8125 7.5 -8.8125 7.5 -8.1875 5 C-3.4048913 0 -3.4048913 0 0 0 Z " fill="#CCB58A" transform="translate(31.1875,119)"/>
<path d="M0 0 C0.99 0 1.98 0 3 0 C3.33 0.99 3.66 1.98 4 3 C4.66 3.309375 5.32 3.61875 6 3.9375 C8 5 8 5 8.9375 6.9375 C9 9 9 9 7.5625 10.75 C6.7890625 11.36875 6.7890625 11.36875 6 12 C5.01 11.34 4.02 10.68 3 10 C2.01 10.33 1.02 10.66 0 11 C0.55429688 11.24234375 1.10859375 11.4846875 1.6796875 11.734375 C2.40414062 12.06953125 3.12859375 12.4046875 3.875 12.75 C4.59429687 13.07484375 5.31359375 13.3996875 6.0546875 13.734375 C8.3370674 15.21929686 9.00375898 16.50415408 10 19 C9.34 19.99 8.68 20.98 8 22 C7.814375 21.236875 7.62875 20.47375 7.4375 19.6875 C5.36554378 15.81384272 3.07713462 15.43454737 -1 14 C-1 14.66 -1 15.32 -1 16 C-1.598125 15.690625 -2.19625 15.38125 -2.8125 15.0625 C-5.08956772 13.89790296 -5.08956772 13.89790296 -8 13 C-8.37254569 9.64708882 -8.31050198 8.3961577 -6.1875 5.6875 C-4 4 -4 4 -1 4 C-0.67 2.68 -0.34 1.36 0 0 Z " fill="#AA9B77" transform="translate(102,85)"/>
<path d="M0 0 C1.8125 0.59375 1.8125 0.59375 3.9375 2.09375 C5.32570443 6.06004838 4.33038087 9.74230462 2.8125 13.59375 C1.39453125 15.390625 1.39453125 15.390625 -0.1875 16.59375 C-2.875 16.28125 -2.875 16.28125 -5.1875 15.59375 C-5.5175 14.60375 -5.8475 13.61375 -6.1875 12.59375 C-4.5375 11.93375 -2.8875 11.27375 -1.1875 10.59375 C-1.5175 9.27375 -1.8475 7.95375 -2.1875 6.59375 C-4.13749129 6.78846111 -4.13749129 6.78846111 -6.1875 7.59375 C-7.47186734 9.5775267 -7.47186734 9.5775267 -8.1875 11.59375 C-10.1875 10.59375 -10.1875 10.59375 -11.1875 7.59375 C-11.5175 8.58375 -11.8475 9.57375 -12.1875 10.59375 C-11.95577505 6.57718428 -11.72092981 4.24033158 -9.125 1.09375 C-5.66454001 -0.6732934 -3.74888036 -0.73841583 0 0 Z " fill="#DECB94" transform="translate(80.1875,53.40625)"/>
<path d="M0 0 C0.99 0.99 1.98 1.98 3 3 C-1.9486789 9.72107807 -1.9486789 9.72107807 -6.0625 10.8125 C-7.031875 10.874375 -8.00125 10.93625 -9 11 C-10.175625 11.5259375 -10.175625 11.5259375 -11.375 12.0625 C-15.16157209 13.41484718 -17.97120432 13.31974569 -22 13 C-24.5 11.5 -24.5 11.5 -26 10 C-24.53679654 3.41558442 -24.53679654 3.41558442 -22.0625 1.5 C-20 1 -20 1 -17 2 C-17.99 2.495 -17.99 2.495 -19 3 C-19.34153937 4.66500443 -19.67449498 6.33178677 -20 8 C-20.66 8.66 -21.32 9.32 -22 10 C-20.52093108 10.02689216 -19.04172517 10.04634621 -17.5625 10.0625 C-16.32693359 10.07990234 -16.32693359 10.07990234 -15.06640625 10.09765625 C-13.00836062 10.23267348 -13.00836062 10.23267348 -12 9 C-11.76924918 7.65252916 -11.58846937 6.29622435 -11.4375 4.9375 C-11.293125 3.638125 -11.14875 2.33875 -11 1 C-10.01 2.32 -9.02 3.64 -8 5 C-7.236875 4.360625 -6.47375 3.72125 -5.6875 3.0625 C-3 1 -3 1 0 0 Z " fill="#AC9E82" transform="translate(147,59)"/>
<path d="M0 0 C1.35506252 0.97035218 2.69207533 1.96698943 4 3 C3.74476126 4.62752231 3.47025506 6.25203196 3.1875 7.875 C3.03667969 8.77992187 2.88585937 9.68484375 2.73046875 10.6171875 C2 13 2 13 -1 15 C-6.12133891 15.5334728 -6.12133891 15.5334728 -8.75 13.9375 C-10.66351526 10.97155135 -11.45853887 8.48941619 -12 5 C-8.88939198 -0.29955441 -5.87333936 -1.71902615 0 0 Z M-5 4 C-5.66 4.66 -6.32 5.32 -7 6 C-6.6814823 8.10820797 -6.6814823 8.10820797 -6 10 C-4.10820797 10.6814823 -4.10820797 10.6814823 -2 11 C-1.34 10.34 -0.68 9.68 0 9 C-0.3185177 6.89179203 -0.3185177 6.89179203 -1 5 C-2.89179203 4.3185177 -2.89179203 4.3185177 -5 4 Z " fill="#E7D5A2" transform="translate(137,24)"/>
<path d="M0 0 C3.46567143 1.6309042 5.08120901 3.81409051 7.125 7 C6.625 10.25 6.625 10.25 5.125 13 C2.125 15 2.125 15 -0.9375 14.75 C-3.875 14 -3.875 14 -5.875 12 C-6.84525279 9.00838725 -6.9760566 7.36211949 -6.125 4.3125 C-4.64888005 1.5816781 -3.27223037 0 0 0 Z " fill="#E8D2A1" transform="translate(175.875,119)"/>
<path d="M0 0 C4.15 2.075 4.15 2.075 5.5 4.25 C5.37642942 7.7099761 5.14724014 10.24677779 3.25 13.1875 C0.81689101 14.66474475 -0.70342824 14.66948576 -3.5 14.25 C-5.25 13.25 -5.25 13.25 -6.5 11.25 C-7.17204138 8.58405071 -7.61650359 6.00170392 -7.5 3.25 C-5.17773686 -0.23339471 -4.10866419 -1.23259926 0 0 Z " fill="#E7CD97" transform="translate(176.5,66.75)"/>
<path d="M0 0 C2.34549674 3.51824511 2.57991403 4.85775694 2 9 C-0.27735933 11.92803342 -2.11783637 13.60302636 -5.5 15.125 C-8 15 -8 15 -10.8125 12.9375 C-13 10 -13 10 -13.6875 7 C-12.90175256 3.5712839 -11.6260101 1.94047302 -8.79296875 -0.15234375 C-5.63001608 -1.64768303 -3.23065994 -0.99404921 0 0 Z M-7 4 C-7.66 4.66 -8.32 5.32 -9 6 C-8.6814823 8.10820797 -8.6814823 8.10820797 -8 10 C-6.10820797 10.6814823 -6.10820797 10.6814823 -4 11 C-3.34 10.34 -2.68 9.68 -2 9 C-2.3185177 6.89179203 -2.3185177 6.89179203 -3 5 C-4.89179203 4.3185177 -4.89179203 4.3185177 -7 4 Z " fill="#D6C092" transform="translate(57,113)"/>
<path d="M0 0 C2 2.25 2 2.25 3 5 C2.18932559 8.40483253 0.88920158 10.96685815 -2 13 C-4.4375 13.5625 -4.4375 13.5625 -7 13 C-9.57202088 10.08955532 -11 8.25839626 -11 4.3125 C-8.6963725 -1.0146386 -5.34255536 -1.81874225 0 0 Z " fill="#D7C79B" transform="translate(34,68)"/>
<path d="M0 0 C3.3 0 6.6 0 10 0 C10 0.33 10 0.66 10 1 C9.113125 1.226875 8.22625 1.45375 7.3125 1.6875 C3.38173605 3.24497251 1.51638473 4.59547949 -1 8 C-1.68922401 13.42763909 -1.42302022 17.50728596 2 22 C7.98713253 24.62593532 11.7500758 23.91127561 17.80078125 21.7265625 C20 21 20 21 23 21 C22.07392708 24.70429168 20.81120807 26.42370341 17.625 28.375 C14 30 14 30 11.5625 29.75 C11.046875 29.5025 10.53125 29.255 10 29 C10 28.34 10 27.68 10 27 C9.09507813 26.76216797 9.09507813 26.76216797 8.171875 26.51953125 C2.99451027 25.00807477 -0.10263207 23.82894656 -3 19 C-4.23158317 15.30525048 -4.46031807 11.84638658 -4 8 C-2.5625 5.75 -2.5625 5.75 -1 4 C-0.67 2.68 -0.34 1.36 0 0 Z " fill="#E0CFA6" transform="translate(95,15)"/>
<path d="M0 0 C0 0.99 0 1.98 0 3 C2.64 3 5.28 3 8 3 C4.18302512 5.54464992 0.35577041 7.54807653 -4 9 C-5.71567661 12.50294871 -5.71567661 12.50294871 -7 16 C-7.99 16 -8.98 16 -10 16 C-10 17.98 -10 19.96 -10 22 C-12.70466749 17.94299876 -12.52988139 14.76078045 -12 10 C-9.71991175 3.95776613 -6.96922192 -0.77435799 0 0 Z " fill="#D9C79E" transform="translate(38,136)"/>
<path d="M0 0 C1.19741068 2.39482137 1.00722243 3.72173665 0.875 6.375 C0.80540201 10.3231039 1.34081176 11.99396112 4 15 C3.67 15.99 3.34 16.98 3 18 C1.68 18 0.36 18 -1 18 C3.33443514 21.44532024 6.42756325 22.49043992 11.94921875 22.82421875 C14 23 14 23 17 24 C15.31445405 25.68554595 13.31295927 25.33148937 11 25.4375 C4.67165626 25.4044969 0.64120197 23.19238244 -4 19 C-6.67927341 14.98108988 -6.15601248 12.75838077 -6 8 C-5.01 8 -4.02 8 -3 8 C-2.87625 7.236875 -2.7525 6.47375 -2.625 5.6875 C-2 3 -2 3 0 0 Z " fill="#C1AD88" transform="translate(34,144)"/>
<path d="M0 0 C-0.33 0.66 -0.66 1.32 -1 2 C-2.25202947 5.75608842 -2.82733932 9.0860486 -2 13 C0.47906969 15.7295585 0.47906969 15.7295585 3 18 C2.9375 20.25 2.9375 20.25 2 22 C1.34 22.33 0.68 22.66 0 23 C1.7290774 23.02725341 3.45828176 23.04650987 5.1875 23.0625 C6.63189453 23.07990234 6.63189453 23.07990234 8.10546875 23.09765625 C10.85576513 23.00486622 13.32479591 22.62111685 16 22 C15.67 22.99 15.34 23.98 15 25 C9.8482863 26.7172379 3.95134944 26.99235269 -1.2421875 25.24609375 C-3.97763368 23.79891786 -5.72953132 22.64912484 -6.9375 19.75 C-6.958125 19.1725 -6.97875 18.595 -7 18 C-5.68 17.34 -4.36 16.68 -3 16 C-3.66 15.01 -4.32 14.02 -5 13 C-5.58922568 8.84481115 -5.62495003 5.16467959 -3.625 1.4375 C-2 0 -2 0 0 0 Z " fill="#E1CB9B" transform="translate(22,91)"/>
<path d="M0 0 C2.78588699 1.34800983 4.19870414 2.32930621 5.9375 4.9375 C5.6940774 7.98918821 5.17339621 11.70160379 2.9375 13.9375 C0.93791636 13.97830783 -1.06295254 13.98004356 -3.0625 13.9375 C-3.0625 12.6175 -3.0625 11.2975 -3.0625 9.9375 C-2.0725 9.9375 -1.0825 9.9375 -0.0625 9.9375 C-0.0625 8.9475 -0.0625 7.9575 -0.0625 6.9375 C-1.0525 6.6075 -2.0425 6.2775 -3.0625 5.9375 C-3.43375 6.4325 -3.805 6.9275 -4.1875 7.4375 C-6.80944393 9.53505514 -8.80092472 9.15493835 -12.0625 8.9375 C-11.0725 8.6075 -10.0825 8.2775 -9.0625 7.9375 C-8.77375 7.15375 -8.485 6.37 -8.1875 5.5625 C-6.59687822 1.85104919 -4.15743382 -0.12598284 0 0 Z " fill="#D9C99D" transform="translate(135.0625,159.0625)"/>
<path d="M0 0 C2 3 2 3 1.5625 5.875 C-0.50407089 10.00814178 -2.6990347 12.39495479 -7 14 C-11.69841604 14.40565559 -16.29728755 14.29351187 -21 14 C-18.89273649 11.6520922 -17.24335719 10.52636102 -14.25 9.5625 C-10.14611873 8.1136251 -6.65117311 6.38443958 -3 4 C-2.67 3.01 -2.34 2.02 -2 1 C-1.34 0.67 -0.68 0.34 0 0 Z " fill="#EAD39B" transform="translate(58,51)"/>
<path d="M0 0 C1.41823316 0.08006155 2.83603027 0.17654137 4.25 0.3125 C4.559375 0.951875 4.86875 1.59125 5.1875 2.25 C6.0845163 4.24860821 6.0845163 4.24860821 7.25 5.3125 C7.55867281 8.78506915 7.63701339 10.6997288 5.75 13.6875 C5.255 14.22375 4.76 14.76 4.25 15.3125 C1.28 14.8175 1.28 14.8175 -1.75 14.3125 C-1.75 13.6525 -1.75 12.9925 -1.75 12.3125 C0.25 10.6875 0.25 10.6875 2.25 9.3125 C1.92 7.9925 1.59 6.6725 1.25 5.3125 C-2.05 5.3125 -5.35 5.3125 -8.75 5.3125 C-6.33348981 1.10987358 -4.73606739 -0.03729187 0 0 Z " fill="#EAD9A8" transform="translate(76.75,129.6875)"/>
<path d="M0 0 C3.79379058 1.49041773 5.68343758 3.69062512 8 7 C8 7.66 8 8.32 8 9 C15.26 9 22.52 9 30 9 C30 9.33 30 9.66 30 10 C29.25838623 10.01458252 28.51677246 10.02916504 27.75268555 10.04418945 C24.39709369 10.11859457 21.04250506 10.21528006 17.6875 10.3125 C16.52025391 10.33505859 15.35300781 10.35761719 14.15039062 10.38085938 C13.03212891 10.41630859 11.91386719 10.45175781 10.76171875 10.48828125 C9.2142395 10.52755737 9.2142395 10.52755737 7.63549805 10.56762695 C4.65201905 11.05708886 3.77616402 11.60666095 2 14 C0.80972016 16.59915538 0.80972016 16.59915538 0 19 C-0.99 19 -1.98 19 -3 19 C-2.484375 17.989375 -1.96875 16.97875 -1.4375 15.9375 C0.27418176 11.99665129 -0.21852737 9.21995218 -1 5 C-0.5625 2.0625 -0.5625 2.0625 0 0 Z " fill="#E9DDBE" transform="translate(37,88)"/>
<path d="M0 0 C1.58458008 0.04737305 1.58458008 0.04737305 3.20117188 0.09570312 C5.78293455 0.17747841 8.35867928 0.29197558 10.9375 0.4375 C10.9375 0.7675 10.9375 1.0975 10.9375 1.4375 C10.29200195 1.4468457 9.64650391 1.45619141 8.98144531 1.46582031 C6.04936056 1.51959101 3.11885992 1.6032234 0.1875 1.6875 C-1.33617187 1.70876953 -1.33617187 1.70876953 -2.890625 1.73046875 C-8.6480852 1.78432475 -8.6480852 1.78432475 -13.5859375 4.3671875 C-14.07320312 5.05039063 -14.56046875 5.73359375 -15.0625 6.4375 C-16.485625 7.365625 -16.485625 7.365625 -17.9375 8.3125 C-20.45470809 10.0242015 -22.23589675 11.52985858 -24.3125 13.6875 C-25.22 14.595 -26.1275 15.5025 -27.0625 16.4375 C-27.7225 16.4375 -28.3825 16.4375 -29.0625 16.4375 C-29.3925 15.7775 -29.7225 15.1175 -30.0625 14.4375 C-30.7225 14.4375 -31.3825 14.4375 -32.0625 14.4375 C-31.4025 13.1175 -30.7425 11.7975 -30.0625 10.4375 C-28.7425 10.4375 -27.4225 10.4375 -26.0625 10.4375 C-26.0625 9.4475 -26.0625 8.4575 -26.0625 7.4375 C-25.3212085 7.50912354 -24.57991699 7.58074707 -23.81616211 7.65454102 C-20.35298126 7.38157641 -19.46738704 6.34459529 -17.00390625 3.96484375 C-11.52014685 -0.54791616 -6.86640745 -0.39422276 0 0 Z " fill="#968B6E" transform="translate(150.0625,101.5625)"/>
<path d="M0 0 C0 0.99 0 1.98 0 3 C-0.95712891 3.31130859 -0.95712891 3.31130859 -1.93359375 3.62890625 C-4.48558503 4.58042874 -6.7184428 5.50622576 -9 7 C-10.22267708 10.62176584 -10.22267708 10.62176584 -10 14 C-11.32 14 -12.64 14 -14 14 C-15.55779277 8.00848933 -15.55779277 8.00848933 -14.0234375 5.234375 C-9.43778464 -0.28986177 -6.75342749 -0.10892625 0 0 Z " fill="#E5D4A8" transform="translate(159,71)"/>
<path d="M0 0 C0.33 0 0.66 0 1 0 C1 1.65 1 3.3 1 5 C2.32 5 3.64 5 5 5 C7.25 6 7.25 6 9 7 C9 7.66 9 8.32 9 9 C10.98 9 12.96 9 15 9 C15.66 6.69 16.32 4.38 17 2 C17.33 2 17.66 2 18 2 C18.46233492 5.9760803 18.30954571 7.56851204 15.9375 10.875 C13 13 13 13 9.5625 13.625 C4.94312966 12.81458415 3.04384755 11.56352884 0 8 C-0.50159903 5.14352551 -0.2978711 2.92906579 0 0 Z " fill="#D6C9A1" transform="translate(43,76)"/>
<path d="M0 0 C0.66 0.99 1.32 1.98 2 3 C2.66 2.67 3.32 2.34 4 2 C3.43925205 5.23987703 2.6830797 6.75219336 0.0625 8.75 C-4.45677707 11.74124281 -8.74319425 11.92382434 -14 11 C-16.91274574 9.90360298 -19.30523108 8.5969001 -22 7 C-22 6.34 -22 5.68 -22 5 C-21.38125 5.28875 -20.7625 5.5775 -20.125 5.875 C-15.84133876 7.41711805 -11.47071788 8.18398547 -7 9 C-7 8.34 -7 7.68 -7 7 C-5.68 7 -4.36 7 -3 7 C-3.33 5.68 -3.66 4.36 -4 3 C-2.68 2.01 -1.36 1.02 0 0 Z " fill="#BCAE8F" transform="translate(113,178)"/>
<path d="M0 0 C1 3 1 3 0.0625 5.8125 C-2.57388181 9.88690825 -5.78266474 12.60224084 -10 15 C-10.99 15 -11.98 15 -13 15 C-12.85775413 17.52108103 -12.71129879 20.04180403 -12.5625 22.5625 C-12.52318359 23.26697266 -12.48386719 23.97144531 -12.44335938 24.69726562 C-12.17481721 29.1798541 -11.69383803 33.56293497 -11 38 C-14.33970213 34.66029787 -15.11560468 31.41500038 -15.1953125 26.79296875 C-15.18213414 25.25769016 -15.15845284 23.72247066 -15.125 22.1875 C-15.11597656 21.39923828 -15.10695313 20.61097656 -15.09765625 19.79882812 C-15.07422504 17.86575334 -15.03835838 15.9328362 -15 14 C-14.33613281 13.74347656 -13.67226562 13.48695312 -12.98828125 13.22265625 C-5.98198226 10.18488866 -2.91525405 7.04264005 0 0 Z " fill="#918979" transform="translate(120,32)"/>
<path d="M0 0 C0.309375 0.825 0.61875 1.65 0.9375 2.5 C1.288125 3.325 1.63875 4.15 2 5 C4.04105639 5.88693303 4.04105639 5.88693303 6 6 C6 7.32 6 8.64 6 10 C4.73392393 10.53229326 3.46189588 11.05044544 2.1875 11.5625 C1.47980469 11.85253906 0.77210937 12.14257812 0.04296875 12.44140625 C-2 13 -2 13 -5 12 C-4.01 11.34 -3.02 10.68 -2 10 C-1.7497843 6.91634129 -1.7497843 6.91634129 -2 4 C-5.93075644 4.57452746 -5.93075644 4.57452746 -9 7 C-9 4.69 -9 2.38 -9 0 C-3.375 -1.125 -3.375 -1.125 0 0 Z " fill="#B09B75" transform="translate(79,162)"/>
<path d="M0 0 C3.6357261 1.99099287 5.28513176 3.99651729 7.625 7.4375 C7.4375 9.8125 7.4375 9.8125 6.625 11.4375 C4.645 7.9725 4.645 7.9725 2.625 4.4375 C1.965 4.4375 1.305 4.4375 0.625 4.4375 C0.625 6.0875 0.625 7.7375 0.625 9.4375 C-0.365 9.004375 -0.365 9.004375 -1.375 8.5625 C-4.99999465 7.20312701 -8.60846693 6.33125361 -12.375 5.4375 C-10.4002669 1.4880338 -4.23186073 -1.00228281 0 0 Z " fill="#C8BB99" transform="translate(36.375,84.5625)"/>
<path d="M0 0 C0 0.99 0 1.98 0 3 C-3.75 4.125 -3.75 4.125 -6 3 C-6.33 5.31 -6.66 7.62 -7 10 C-7.66 10 -8.32 10 -9 10 C-8.34 11.98 -7.68 13.96 -7 16 C-8.93359375 15.26953125 -8.93359375 15.26953125 -11 14 C-12.17437171 11.02609353 -12.31138458 8.16847468 -12 5 C-8.6854578 -0.07539275 -5.86641714 -0.57513893 0 0 Z " fill="#DFC595" transform="translate(76,159)"/>
<path d="M0 0 C0.33 0 0.66 0 1 0 C1.4206933 4.29107165 1.45543836 6.35134537 -1.0625 9.9375 C-4 12 -4 12 -7.4375 12.625 C-12.12953142 11.80183659 -13.7339314 10.42538902 -17 7 C-17 6.01 -17 5.02 -17 4 C-16.34 4 -15.68 4 -15 4 C-15 3.01 -15 2.02 -15 1 C-14.34 1.33 -13.68 1.66 -13 2 C-13.33 2.66 -13.66 3.32 -14 4 C-12.35 4.33 -10.7 4.66 -9 5 C-8.67 6.32 -8.34 7.64 -8 9 C-5.56282742 8.72965366 -5.56282742 8.72965366 -3 8 C-1.0549 5.08235 -0.54723683 3.37462715 0 0 Z " fill="#D8C496" transform="translate(84,60)"/>
<path d="M0 0 C2.35953094 2.35953094 2.49141413 3.77895617 3 7 C3.99 7.33 4.98 7.66 6 8 C6.33 7.67 6.66 7.34 7 7 C9.33297433 6.95907063 11.66705225 6.95758277 14 7 C14.66 5.02 15.32 3.04 16 1 C16.66 1 17.32 1 18 1 C18.46707789 5.01686987 18.32150834 6.56501812 15.875 9.875 C13 12 13 12 10.0625 12.5625 C6.25292641 11.8627824 4.01983892 10.38777961 1 8 C-0.35439668 5.29120665 -0.06501451 2.99066732 0 0 Z " fill="#C5B387" transform="translate(145,117)"/>
<path d="M0 0 C4.95476478 4.79493366 4.95476478 4.79493366 5.09765625 8.6015625 C5.08605469 9.59929688 5.07445312 10.59703125 5.0625 11.625 C5.05347656 12.62789062 5.04445313 13.63078125 5.03515625 14.6640625 C5.02355469 15.43492188 5.01195312 16.20578125 5 17 C4.34 16.34 3.68 15.68 3 15 C0.94729537 16.84188612 0.94729537 16.84188612 0 19 C-0.66 19 -1.32 19 -2 19 C-1.7834375 17.081875 -1.7834375 17.081875 -1.5625 15.125 C-1.00185355 10.08719116 -0.49498469 5.04463121 0 0 Z " fill="#ECD6A4" transform="translate(55,37)"/>
<path d="M0 0 C-0.66 0.66 -1.32 1.32 -2 2 C-2.66 2 -3.32 2 -4 2 C-4 2.99 -4 3.98 -4 5 C-4.61875 5.2475 -5.2375 5.495 -5.875 5.75 C-8.35068687 7.20628639 -8.95125002 8.37812506 -10 11 C-12 10 -12 10 -13 7 C-13.33 7.99 -13.66 8.98 -14 10 C-13.76827505 5.98343428 -13.53342981 3.64658158 -10.9375 0.5 C-6.81567084 -1.60476383 -4.48370077 -0.91193914 0 0 Z " fill="#EDD7A0" transform="translate(82,54)"/>
<path d="M0 0 C0 0.66 0 1.32 0 2 C1.32 1.67 2.64 1.34 4 1 C4 1.66 4 2.32 4 3 C2.68 3 1.36 3 0 3 C0 3.99 0 4.98 0 6 C-0.99 6.495 -0.99 6.495 -2 7 C-1.67 7.99 -1.34 8.98 -1 10 C0.98 10 2.96 10 5 10 C5.66 8.68 6.32 7.36 7 6 C7.33 6 7.66 6 8 6 C8 7.65 8 9.3 8 11 C5.29889598 12.35055201 2.99210994 12 0 12 C-0.99 12.495 -0.99 12.495 -2 13 C-5 11 -5 11 -5.51171875 9.0546875 C-5.67447917 7.03645833 -5.83723958 5.01822917 -6 3 C-2.25 0 -2.25 0 0 0 Z " fill="#E6D09A" transform="translate(152,113)"/>
<path d="M0 0 C1.76462683 3.08809695 2 4.23312136 2 8 C0.125 10.25 0.125 10.25 -2 12 C-2.66 12 -3.32 12 -4 12 C-4.33 11.34 -4.66 10.68 -5 10 C-6.32 11.32 -7.64 12.64 -9 14 C-9.99 13.67 -10.98 13.34 -12 13 C-10.88200014 11.66079162 -9.75538103 10.32877444 -8.625 9 C-7.99851562 8.2575 -7.37203125 7.515 -6.7265625 6.75 C-6.15679687 6.1725 -5.58703125 5.595 -5 5 C-4.34 5 -3.68 5 -3 5 C-3 4.34 -3 3.68 -3 3 C-2.34 3 -1.68 3 -1 3 C-0.67 2.01 -0.34 1.02 0 0 Z " fill="#F2E2B4" transform="translate(91,73)"/>
<path d="M0 0 C1.32 0.66 2.64 1.32 4 2 C3.88601335 3.62580966 3.75844341 5.25067157 3.625 6.875 C3.55539063 7.77992187 3.48578125 8.68484375 3.4140625 9.6171875 C3 12 3 12 1 14 C-1.1640625 14.1953125 -1.1640625 14.1953125 -3.625 14.125 C-4.44226563 14.10695313 -5.25953125 14.08890625 -6.1015625 14.0703125 C-6.72804688 14.04710938 -7.35453125 14.02390625 -8 14 C-8 13.01 -8 12.02 -8 11 C-7.34 11 -6.68 11 -6 11 C-5.67 10.34 -5.34 9.68 -5 9 C-3.68 9 -2.36 9 -1 9 C-0.67 8.01 -0.34 7.02 0 6 C0.66 6 1.32 6 2 6 C1.34 4.02 0.68 2.04 0 0 Z " fill="#D2BC8F" transform="translate(133,56)"/>
<path d="M0 0 C0.66 0.33 1.32 0.66 2 1 C1.66863156 8.45578996 0.20963937 12.95928902 -5.375 18.25 C-9.68472714 21.12315143 -13.16677304 22.2553839 -18.3125 21.75 C-19.529375 21.5025 -20.74625 21.255 -22 21 C-22.33 20.34 -22.66 19.68 -23 19 C-21.0509375 19.0928125 -21.0509375 19.0928125 -19.0625 19.1875 C-14.12807573 19.17969237 -9.34263112 18.46051827 -5 16 C-3.76546113 14.07794555 -3.76546113 14.07794555 -3 12 C-2.4740625 10.8553125 -2.4740625 10.8553125 -1.9375 9.6875 C-0.81899742 6.48112594 -0.39591207 3.36525261 0 0 Z " fill="#908A7D" transform="translate(179,46)"/>
<path d="M0 0 C0 3.6513433 -1.22810498 4.68314241 -3.61328125 7.3046875 C-7.8114891 12.43714442 -8.49822711 16.36099818 -8.6875 22.8125 C-8.72166016 23.60076172 -8.75582031 24.38902344 -8.79101562 25.20117188 C-8.87299875 27.13363119 -8.93818845 29.06679035 -9 31 C-9.66 31 -10.32 31 -11 31 C-11 25.06 -11 19.12 -11 13 C-10.01 12.67 -9.02 12.34 -8 12 C-7.731875 11.113125 -7.46375 10.22625 -7.1875 9.3125 C-5.62569338 4.95588154 -3.39518779 3.09995407 0 0 Z " fill="#998F7C" transform="translate(116,122)"/>
<path d="M0 0 C2.0625 0.4375 2.0625 0.4375 4 1 C3.67 2.32 3.34 3.64 3 5 C3.66 5 4.32 5 5 5 C5.33 4.34 5.66 3.68 6 3 C7.65206447 3.92647536 9.2964997 4.86656574 10.9375 5.8125 C12.31228516 6.59560547 12.31228516 6.59560547 13.71484375 7.39453125 C16 9 16 9 17 12 C16.01 13.485 16.01 13.485 15 15 C14.814375 14.236875 14.62875 13.47375 14.4375 12.6875 C12.36554378 8.81384272 10.07713462 8.43454737 6 7 C6 7.66 6 8.32 6 9 C5.401875 8.690625 4.80375 8.38125 4.1875 8.0625 C1.91043228 6.89790296 1.91043228 6.89790296 -1 6 C-1.042721 4.33388095 -1.04063832 2.66617115 -1 1 C-0.67 0.67 -0.34 0.34 0 0 Z " fill="#C8BC9A" transform="translate(95,92)"/>
<path d="M0 0 C0 3.9630046 -1.27346349 4.75603761 -3.9375 7.625 C-4.7521875 8.50671875 -5.566875 9.3884375 -6.40625 10.296875 C-9.5816945 13.60622379 -12.83710972 16.82312781 -16.15234375 19.9921875 C-17.92847517 21.92227534 -18.97337645 23.60275338 -20 26 C-20.37733841 22.28793343 -20.40069356 20.54935513 -18.1640625 17.48291016 C-17.32617188 16.67644043 -16.48828125 15.8699707 -15.625 15.0390625 C-14.72265625 14.15605469 -13.8203125 13.27304688 -12.890625 12.36328125 C-11.93671875 11.45964844 -10.9828125 10.55601563 -10 9.625 C-9.03509474 8.69020755 -8.07153637 7.75402269 -7.109375 6.81640625 C-4.75248058 4.53021866 -2.38275021 2.25917673 0 0 Z " fill="#7D786C" transform="translate(98,75)"/>
<path d="M0 0 C8.25 0 16.5 0 25 0 C25 0.33 25 0.66 25 1 C20.26120232 2.14850697 15.53708638 2.32901557 10.6875 2.5625 C9.85154297 2.60568359 9.01558594 2.64886719 8.15429688 2.69335938 C6.10303065 2.79885307 4.0515352 2.89987315 2 3 C1.01 4.98 0.02 6.96 -1 9 C-1.66 9 -2.32 9 -3 9 C-2.01 6.03 -1.02 3.06 0 0 Z " fill="#989281" transform="translate(43,102)"/>
<path d="M0 0 C3.43927579 1.2419607 6.25207819 2.55740284 9 5 C9 5.66 9 6.32 9 7 C9.99 7.33 10.98 7.66 12 8 C12 8.66 12 9.32 12 10 C12.66 10 13.32 10 14 10 C15.53612476 11.74307894 17.00540359 13.54549096 18.4375 15.375 C20.88669719 18.49802904 22.68910701 20.79273801 26 23 C26 23.66 26 24.32 26 25 C22.63820226 23.55922954 20.40843732 21.75249979 18 19 C18 18.34 18 17.68 18 17 C17.34 17 16.68 17 16 17 C14.51953125 15.4609375 14.51953125 15.4609375 12.8125 13.375 C9.13604287 9.04477958 5.14796881 4.57398441 0 2 C0 1.34 0 0.68 0 0 Z " fill="#C9C1A9" transform="translate(70,105)"/>
<path d="M0 0 C0.66 0 1.32 0 2 0 C5.14247981 5.27487682 7.2104105 9.80413637 6 16 C4.38799742 20.37992895 2.42577901 23.80980465 -1 27 C-1.99 26.67 -2.98 26.34 -4 26 C-3.57847656 25.51789063 -3.15695313 25.03578125 -2.72265625 24.5390625 C-1.90087891 23.59160156 -1.90087891 23.59160156 -1.0625 22.625 C-0.51722656 21.99851563 0.02804688 21.37203125 0.58984375 20.7265625 C3.7619552 16.84270305 3.48672829 12.8267222 3 8 C1.61785878 4.64838754 1.61785878 4.64838754 0 2 C0 1.34 0 0.68 0 0 Z " fill="#999186" transform="translate(57,139)"/>
<path d="M0 0 C0.99 0 1.98 0 3 0 C2.67 2.31 2.34 4.62 2 7 C-6.57142857 7.14285714 -6.57142857 7.14285714 -10 6 C-9.67 4.68 -9.34 3.36 -9 2 C-7.35 1.67 -5.7 1.34 -4 1 C-4 1.66 -4 2.32 -4 3 C-2.35 3 -0.7 3 1 3 C0.67 2.01 0.34 1.02 0 0 Z " fill="#D8C899" transform="translate(104,104)"/>
<path d="M0 0 C0.66 0.99 1.32 1.98 2 3 C1 5 1 5 -0.9375 5.875 C-3.12963887 6.81040697 -3.12963887 6.81040697 -3.88671875 8.84375 C-5.19968385 11.38675609 -6.70749176 12.76830426 -8.875 14.625 C-9.55304688 15.21539062 -10.23109375 15.80578125 -10.9296875 16.4140625 C-12.88666469 17.91318087 -14.76048537 18.98569068 -17 20 C-15.64937713 16.97503419 -14.14970763 14.9194306 -11.77734375 12.6171875 C-11.15666016 12.00746094 -10.53597656 11.39773437 -9.89648438 10.76953125 C-9.25001953 10.14433594 -8.60355469 9.51914063 -7.9375 8.875 C-6.6527607 7.62463926 -5.37010319 6.37213484 -4.08984375 5.1171875 C-3.52128662 4.56659668 -2.95272949 4.01600586 -2.36694336 3.44873047 C-0.89270095 2.02585988 -0.89270095 2.02585988 0 0 Z " fill="#EEDFB8" transform="translate(127,101)"/>
<path d="M0 0 C0 0.99 0 1.98 0 3 C-1.98 3.66 -3.96 4.32 -6 5 C-6.33 6.65 -6.66 8.3 -7 10 C-8.32 9.34 -9.64 8.68 -11 8 C-11.48038431 2.59567654 -11.48038431 2.59567654 -9.4375 0.0625 C-6.03339271 -1.42134164 -3.56538192 -0.75421541 0 0 Z " fill="#EAD8A6" transform="translate(55,73)"/>
<path d="M0 0 C0.66 0.99 1.32 1.98 2 3 C1.28609673 6.4267357 0.55141513 8.44858487 -1.9375 10.9375 C-2.618125 11.288125 -3.29875 11.63875 -4 12 C-4.99 11.67 -5.98 11.34 -7 11 C-6.6875 8.125 -6.6875 8.125 -6 5 C-5.01 4.34 -4.02 3.68 -3 3 C-1.98131338 2.01904252 -0.97648017 1.02297922 0 0 Z " fill="#DFC387" transform="translate(58,51)"/>
<path d="M0 0 C0.556875 0.226875 1.11375 0.45375 1.6875 0.6875 C1.6875 1.3475 1.6875 2.0075 1.6875 2.6875 C1.0275 2.6875 0.3675 2.6875 -0.3125 2.6875 C-0.3125 3.3475 -0.3125 4.0075 -0.3125 4.6875 C-1.3025 5.0175 -2.2925 5.3475 -3.3125 5.6875 C-3.9621875 6.4609375 -3.9621875 6.4609375 -4.625 7.25 C-7.09833126 9.35691181 -9.1762368 8.89658421 -12.3125 8.6875 C-11.3225 8.3575 -10.3325 8.0275 -9.3125 7.6875 C-9.02375 6.90375 -8.735 6.12 -8.4375 5.3125 C-6.79765065 1.48618485 -4.27113276 -0.5771801 0 0 Z " fill="#E1CC9A" transform="translate(135.3125,159.3125)"/>
<path d="M0 0 C0.33 0 0.66 0 1 0 C0.875 3.25 0.875 3.25 0 7 C-2.9375 9.3125 -2.9375 9.3125 -6 11 C-6.66 11.66 -7.32 12.32 -8 13 C-8.33 12.01 -8.66 11.02 -9 10 C-12.00847418 8.77479736 -12.00847418 8.77479736 -15 8 C-15 7.01 -15 6.02 -15 5 C-14.34 5.33 -13.68 5.66 -13 6 C-11.29297265 6.06996014 -9.58331997 6.08440154 -7.875 6.0625 C-6.96492188 6.05347656 -6.05484375 6.04445313 -5.1171875 6.03515625 C-4.06917969 6.01775391 -4.06917969 6.01775391 -3 6 C-2.01 4.02 -1.02 2.04 0 0 Z " fill="#747067" transform="translate(111,104)"/>
<path d="M0 0 C0.99 0.99 1.98 1.98 3 3 C-2.0940919 9.70459519 -2.0940919 9.70459519 -5.875 10.9375 C-6.57625 10.958125 -7.2775 10.97875 -8 11 C-7.54625 10.278125 -7.0925 9.55625 -6.625 8.8125 C-4.94102481 6.08649352 -4.94102481 6.08649352 -4 3.25 C-3.67 2.5075 -3.34 1.765 -3 1 C-2.01 0.67 -1.02 0.34 0 0 Z " fill="#7F7360" transform="translate(147,59)"/>
<path d="M0 0 C0.66 0 1.32 0 2 0 C2 0.66 2 1.32 2 2 C5.65757553 3.67638878 8.48467176 4.24953457 12.5 4.1875 C13.4178125 4.18105469 14.335625 4.17460938 15.28125 4.16796875 C17.93865687 4.00378988 20.40626246 3.58734999 23 3 C22.67 3.99 22.34 4.98 22 6 C16.85975805 7.71341398 10.92183141 8.02824032 5.7578125 6.2109375 C2.55909642 4.47221631 1.17080225 3.51240676 0 0 Z " fill="#B9AF98" transform="translate(15,110)"/>
<path d="M0 0 C0.66 1.32 1.32 2.64 2 4 C-0.64 6.64 -3.28 9.28 -6 12 C-6.66 11.67 -7.32 11.34 -8 11 C-7.8125 8.1875 -7.8125 8.1875 -7 5 C-4.5625 3.25 -4.5625 3.25 -2 2 C-1.34 1.34 -0.68 0.68 0 0 Z " fill="#F0D99B" transform="translate(86,82)"/>
<path d="M0 0 C0 4 0 4 -1.5 5.625 C-1.995 6.07875 -2.49 6.5325 -3 7 C-3 7.66 -3 8.32 -3 9 C-3.99 9.33 -4.98 9.66 -6 10 C-6.33 9.67 -6.66 9.34 -7 9 C-6.94921875 6.96875 -6.94921875 6.96875 -6.6875 4.5 C-6.60886719 3.6853125 -6.53023438 2.870625 -6.44921875 2.03125 C-6.30097656 1.3609375 -6.15273437 0.690625 -6 0 C-3.50907189 -1.24546405 -2.58919267 -0.7767578 0 0 Z " fill="#E8D199" transform="translate(130,132)"/>
<path d="M0 0 C1.21236328 0.01353516 1.21236328 0.01353516 2.44921875 0.02734375 C3.37154297 0.04474609 3.37154297 0.04474609 4.3125 0.0625 C4.3125 1.0525 4.3125 2.0425 4.3125 3.0625 C0.9953589 4.4841319 -2.12969804 5.45259109 -5.6875 6.0625 C-6.3475 4.4125 -7.0075 2.7625 -7.6875 1.0625 C-4.80538698 0.10179566 -2.98899956 -0.04331883 0 0 Z " fill="#ECDEB8" transform="translate(28.6875,82.9375)"/>
<path d="M0 0 C2.33944736 0.28730055 4.6739143 0.61936779 7 1 C7 2.32 7 3.64 7 5 C5.02 5 3.04 5 1 5 C0.67 7.31 0.34 9.62 0 12 C-0.66 12 -1.32 12 -2 12 C-1.85962479 10.18706911 -1.71255111 8.3746557 -1.5625 6.5625 C-1.48128906 5.55316406 -1.40007812 4.54382813 -1.31640625 3.50390625 C-1 1 -1 1 0 0 Z " fill="#9F8B66" transform="translate(120,167)"/>
<path d="M0 0 C1.9375 0.5625 1.9375 0.5625 4 2 C4.75 5.625 4.75 5.625 5 9 C4.01 9.33 3.02 9.66 2 10 C1.01 9.34 0.02 8.68 -1 8 C-1.25 4.4375 -1.25 4.4375 -1 1 C-0.67 0.67 -0.34 0.34 0 0 Z " fill="#F3E3B1" transform="translate(37,88)"/>
<path d="M0 0 C2.97 0.99 5.94 1.98 9 3 C8.34 4.98 7.68 6.96 7 9 C5.68 9 4.36 9 3 9 C3 7.68 3 6.36 3 5 C2.34 5 1.68 5 1 5 C0.67 3.35 0.34 1.7 0 0 Z " fill="#DBCC94" transform="translate(100,26)"/>
<path d="M0 0 C2.530472 0.33739627 3.6818563 0.6061078 5.3125 2.625 C6.32680207 6.1289526 5.92516366 8.48437809 5 12 C2.8125 14.9375 2.8125 14.9375 0 17 C-3.3125 17.3125 -3.3125 17.3125 -6 17 C-6.33 16.34 -6.66 15.68 -7 15 C-4.98177083 14.57682292 -2.96354167 14.15364583 -0.9453125 13.73046875 C1.37046549 13.07691162 1.37046549 13.07691162 3 10 C3.37478243 6.47704517 3.41127245 4.65118137 1.5 1.625 C1.005 1.08875 0.51 0.5525 0 0 Z " fill="#8E897C" transform="translate(80,131)"/>
<path d="M0 0 C3.80303152 1.4940481 5.92082935 3.48140352 8 7 C7.4375 10.1875 7.4375 10.1875 6 13 C3 15 3 15 0.8125 14.625 C0.214375 14.41875 -0.38375 14.2125 -1 14 C2.75 12 2.75 12 5 12 C4.56089921 7.16989127 3.57142007 5.22579877 0 2 C0 1.34 0 0.68 0 0 Z " fill="#B3A892" transform="translate(175,119)"/>
<path d="M0 0 C3.3 0 6.6 0 10 0 C10 0.33 10 0.66 10 1 C9.113125 1.226875 8.22625 1.45375 7.3125 1.6875 C3.31636692 3.27087348 1.5414427 4.51459287 -1 8 C-1.69417398 11.33305594 -1.92738869 14.60047032 -2 18 C-4 16 -4 16 -4.3125 12.125 C-4.23297465 8.45357945 -3.47625936 6.77341048 -1 4 C-0.67 2.68 -0.34 1.36 0 0 Z " fill="#767163" transform="translate(95,15)"/>
<path d="M0 0 C1.32 0.66 2.64 1.32 4 2 C4.36923077 9.50769231 4.36923077 9.50769231 2.5 12 C2.005 12.33 1.51 12.66 1 13 C-0.2834998 8.9088444 -1.38021934 5.3091525 -1 1 C-0.67 0.67 -0.34 0.34 0 0 Z " fill="#E9D09B" transform="translate(172,39)"/>
<path d="M0 0 C1.66666667 1.66666667 3.33333333 3.33333333 5 5 C5.8971875 5.8353125 5.8971875 5.8353125 6.8125 6.6875 C8 8 8 8 8 10 C8.59296875 10.25523438 9.1859375 10.51046875 9.796875 10.7734375 C12.21224538 12.11816498 13.51211706 13.49214367 15.25 15.625 C15.77078125 16.25664063 16.2915625 16.88828125 16.828125 17.5390625 C17.40820312 18.26222656 17.40820312 18.26222656 18 19 C17.67 19.66 17.34 20.32 17 21 C16.44570312 20.36191406 15.89140625 19.72382812 15.3203125 19.06640625 C14.59585938 18.24011719 13.87140625 17.41382812 13.125 16.5625 C12.04605469 15.32693359 12.04605469 15.32693359 10.9453125 14.06640625 C9.16761255 11.94017845 9.16761255 11.94017845 7 11 C7 10.34 7 9.68 7 9 C6.01 8.67 5.02 8.34 4 8 C0 3.65714286 0 3.65714286 0 0 Z " fill="#C2B9A5" transform="translate(77,100)"/>
<path d="M0 0 C1.32 0.33 2.64 0.66 4 1 C5.60153703 8.99027713 5.60153703 8.99027713 3.25 12.9375 C1 15 1 15 -2 17 C-4.1875 16.625 -4.1875 16.625 -6 16 C-1.25 13 -1.25 13 1 13 C2.17664871 9.47005387 2.19850603 6.70544587 2 3 C1.34 2.01 0.68 1.02 0 0 Z " fill="#6A655C" transform="translate(158,72)"/>
<path d="M0 0 C0.99 0.33 1.98 0.66 3 1 C2.39779006 7.38342541 2.39779006 7.38342541 0.75 9.9375 C-1.58371852 11.35440053 -3.32136078 11.21718696 -6 11 C-6.66 9.68 -7.32 8.36 -8 7 C-5.36 7.33 -2.72 7.66 0 8 C0 5.36 0 2.72 0 0 Z " fill="#B4AC96" transform="translate(179,70)"/>
<path d="M0 0 C2.5056117 1.15643617 4.4803655 2.36865259 6.6875 4.0625 C10.33931036 6.19846455 12.81014086 6.57401542 16.94921875 6.82421875 C19 7 19 7 22 8 C20.31445405 9.68554595 18.31295927 9.33148937 16 9.4375 C9.75726377 9.40490086 5.49491396 7.29630149 1 3 C0.67 2.01 0.34 1.02 0 0 Z " fill="#AFA795" transform="translate(29,160)"/>
<path d="M0 0 C2.13586678 3.20380017 2.23132175 4.01939967 2.125 7.6875 C2.10695313 8.49574219 2.08890625 9.30398437 2.0703125 10.13671875 C2.03550781 11.05904297 2.03550781 11.05904297 2 12 C-1.75 13.125 -1.75 13.125 -4 12 C-3.34 11.01 -2.68 10.02 -2 9 C-2 8.01 -2 7.02 -2 6 C-2 3 -2 3 0 0 Z " fill="#E4C791" transform="translate(59,144)"/>
<path d="M0 0 C0.66 0.33 1.32 0.66 2 1 C2.46963359 5.03884885 2.35683282 6.54121494 -0.1875 9.8125 C-2.98487704 11.9882377 -4.52308771 12.70197895 -8 13 C-8 12.01 -8 11.02 -8 10 C-5.11165997 7.89229241 -3.61537605 7 0 7 C0 4.69 0 2.38 0 0 Z " fill="#CCB27E" transform="translate(57,115)"/>
<path d="M0 0 C2.475 0.495 2.475 0.495 5 1 C5 2.32 5 3.64 5 5 C6.94999129 4.80528889 6.94999129 4.80528889 9 4 C10.28436734 2.0162233 10.28436734 2.0162233 11 0 C11.6875 1.8125 11.6875 1.8125 12 4 C10.35495989 6.46756016 9.19700648 6.94960299 6.3125 7.6875 C5.1678125 7.8421875 5.1678125 7.8421875 4 8 C3.67 6.35 3.34 4.7 3 3 C2.01 2.67 1.02 2.34 0 2 C0 1.34 0 0.68 0 0 Z " fill="#959282" transform="translate(98,30)"/>
<path d="M0 0 C1.98 0.66 3.96 1.32 6 2 C5.67 3.32 5.34 4.64 5 6 C3.68 6.33 2.36 6.66 1 7 C1 7.66 1 8.32 1 9 C0.34 9 -0.32 9 -1 9 C-1.125 2.25 -1.125 2.25 0 0 Z " fill="#B39D6F" transform="translate(70,24)"/>
<path d="M0 0 C1.2065625 0.0309375 1.2065625 0.0309375 2.4375 0.0625 C2.7675 0.7225 3.0975 1.3825 3.4375 2.0625 C2.4475 2.5575 2.4475 2.5575 1.4375 3.0625 C1.4375 5.0425 1.4375 7.0225 1.4375 9.0625 C-0.2125 8.7325 -1.8625 8.4025 -3.5625 8.0625 C-3.60491723 5.72955225 -3.60342937 3.39547433 -3.5625 1.0625 C-2.5625 0.0625 -2.5625 0.0625 0 0 Z " fill="#D3C596" transform="translate(99.5625,21.9375)"/>
<path d="M0 0 C1.22589844 0.15275391 1.22589844 0.15275391 2.4765625 0.30859375 C3.41628906 0.43427734 3.41628906 0.43427734 4.375 0.5625 C2.19126175 1.11886643 0.02535423 1.63072356 -2.1875 2.0625 C-4.74786851 2.53726438 -4.74786851 2.53726438 -7.625 3.5625 C-8.77520525 5.80993756 -8.77520525 5.80993756 -9.625 8.5625 C-9.99625 9.655625 -10.3675 10.74875 -10.75 11.875 C-11.03875 12.761875 -11.3275 13.64875 -11.625 14.5625 C-11.955 14.5625 -12.285 14.5625 -12.625 14.5625 C-13.04556594 11.12787817 -13.26481991 8.56764918 -11.359375 5.57421875 C-7.66500818 1.24320134 -5.84311697 -0.7512579 0 0 Z " fill="#6E695C" transform="translate(103.625,158.4375)"/>
<path d="M0 0 C2.29404844 3.44107266 2.26293056 4.96839809 2 9 C1 10 1 10 -2.0625 10.0625 C-3.031875 10.041875 -4.00125 10.02125 -5 10 C-4.67 9.21625 -4.34 8.4325 -4 7.625 C-2.88133489 5.15667503 -2.88133489 5.15667503 -3 3 C-2.01 3 -1.02 3 0 3 C0 2.01 0 1.02 0 0 Z " fill="#DBC08A" transform="translate(76,163)"/>
<path d="M0 0 C2.4375 0.75 2.4375 0.75 5 2 C6 3.9375 6 3.9375 6 6 C4.5625 7.75 4.5625 7.75 3 9 C0.9375 7.3125 0.9375 7.3125 -1 5 C-0.75 2.25 -0.75 2.25 0 0 Z " fill="#BDB49C" transform="translate(105,88)"/>
<path d="M0 0 C0.99386719 0.00902344 1.98773438 0.01804687 3.01171875 0.02734375 C4.15060547 0.04474609 4.15060547 0.04474609 5.3125 0.0625 C5.3125 0.3925 5.3125 0.7225 5.3125 1.0625 C4.66023438 1.08828125 4.00796875 1.1140625 3.3359375 1.140625 C-2.48356763 1.518292 -6.04981305 2.26802886 -10.6875 6.0625 C-11.24695313 6.51625 -11.80640625 6.97 -12.3828125 7.4375 C-13.83437705 8.62575749 -15.26321161 9.84168138 -16.6875 11.0625 C-15.24929187 6.02877156 -12.78504485 4.07294111 -8.6875 1.0625 C-5.53819107 0.01273036 -3.29935544 -0.03881595 0 0 Z " fill="#F2EACF" transform="translate(178.6875,82.9375)"/>
<path d="M0 0 C2.76276177 0.52268466 5.3260876 1.10869587 8 2 C8 2.66 8 3.32 8 4 C8.66 4.33 9.32 4.66 10 5 C9 6 9 6 6.125 6.25 C3 6 3 6 1.125 4.6875 C0 3 0 3 0 0 Z " fill="#E5CF95" transform="translate(127,33)"/>
<path d="M0 0 C5.49805447 -0.36653696 5.49805447 -0.36653696 7.6796875 1.2265625 C9.35710949 3.47966777 9.37211584 4.77889863 9.3125 7.5625 C9.30863281 8.34753906 9.30476563 9.13257813 9.30078125 9.94140625 C9 12 9 12 7 14 C7 11.36 7 8.72 7 6 C6.34 5.67 5.68 5.34 5 5 C5 4.34 5 3.68 5 3 C2.525 2.01 2.525 2.01 0 1 C0 0.67 0 0.34 0 0 Z " fill="#D5BD8A" transform="translate(70,23)"/>
<path d="M0 0 C1.093125 0.226875 2.18625 0.45375 3.3125 0.6875 C3.6425 2.3375 3.9725 3.9875 4.3125 5.6875 C3.3225 6.3475 2.3325 7.0075 1.3125 7.6875 C-0.1875 6.3125 -0.1875 6.3125 -1.6875 4.6875 C-1.6875 4.0275 -1.6875 3.3675 -1.6875 2.6875 C-3.3375 2.6875 -4.9875 2.6875 -6.6875 2.6875 C-4.58035839 -0.41123767 -3.86755884 -0.32775922 0 0 Z " fill="#E9D397" transform="translate(130.6875,129.3125)"/>
<path d="M0 0 C3.7952131 1.49097658 5.61042731 3.75700849 8 7 C7.01 7.99 6.02 8.98 5 10 C5 9.34 5 8.68 5 8 C4.38125 7.731875 3.7625 7.46375 3.125 7.1875 C1 6 1 6 -1 3 C-0.34 3 0.32 3 1 3 C0.67 2.01 0.34 1.02 0 0 Z " fill="#F4E2AC" transform="translate(120,84)"/>
<path d="M0 0 C0.66 0 1.32 0 2 0 C2.46707789 4.01686987 2.32150834 5.56501812 -0.125 8.875 C-3.43498188 11.32150834 -4.98313013 11.46707789 -9 11 C-9.33 10.34 -9.66 9.68 -10 9 C-8.88625 8.71125 -7.7725 8.4225 -6.625 8.125 C-2.99708908 7.30758671 -2.99708908 7.30758671 -1 5 C-0.35232207 2.42938689 -0.35232207 2.42938689 0 0 Z " fill="#787468" transform="translate(161,118)"/>
<path d="M0 0 C-0.6875 1.9375 -0.6875 1.9375 -2 4 C-4.5 4.625 -4.5 4.625 -7 5 C-7.66 5.66 -8.32 6.32 -9 7 C-9 4.69 -9 2.38 -9 0 C-3.375 -1.125 -3.375 -1.125 0 0 Z " fill="#AC9A77" transform="translate(79,162)"/>
<path d="M0 0 C1.60725635 3.21451269 1.05748185 6.43612536 1 10 C-0.98 10 -2.96 10 -5 10 C-4.56802365 5.2482602 -3.67230705 3.07999946 0 0 Z " fill="#E9D8AD" transform="translate(69,24)"/>
<path d="M0 0 C0 0.33 0 0.66 0 1 C-1.6396875 1.4021875 -1.6396875 1.4021875 -3.3125 1.8125 C-7.43645041 2.98923796 -7.43645041 2.98923796 -10 6 C-10.83041943 8.65418868 -11.41876518 11.27266738 -12 14 C-12.33 14 -12.66 14 -13 14 C-13.36193496 10.92355285 -13.48731247 8.06750377 -13 5 C-9.03415244 0.26032853 -6.06847696 -0.6068477 0 0 Z " fill="#5A5348" transform="translate(181,89)"/>
<path d="M0 0 C3.37462715 0.54723683 5.08235 1.0549 8 3 C8 3.99 8 4.98 8 6 C2.46153846 5.38461538 2.46153846 5.38461538 0.125 3.4375 C-0.24625 2.963125 -0.6175 2.48875 -1 2 C-0.67 1.34 -0.34 0.68 0 0 Z " fill="#766F67" transform="translate(59,60)"/>
<path d="M0 0 C0.33 1.32 0.66 2.64 1 4 C-2.67410785 5.17571451 -6.16929183 5.07366746 -10 5 C-9.67 4.01 -9.34 3.02 -9 2 C-3.21052632 0 -3.21052632 0 0 0 Z " fill="#ECD197" transform="translate(109,181)"/>
<path d="M0 0 C0.66 0.66 1.32 1.32 2 2 C1.85611045 5.38140438 1.60498077 7.32779915 -0.6875 9.875 C-3.59577155 11.28983481 -5.80615246 11.21776233 -9 11 C-9 10.34 -9 9.68 -9 9 C-7.329375 8.7215625 -7.329375 8.7215625 -5.625 8.4375 C-4.42875 7.963125 -3.2325 7.48875 -2 7 C-0.45913678 3.48599332 -0.45913678 3.48599332 0 0 Z " fill="#989288" transform="translate(140,165)"/>
<path d="M0 0 C3.75 0.1875 3.75 0.1875 7 1 C6.01 1.495 6.01 1.495 5 2 C5 2.66 5 3.32 5 4 C2.04335481 5.4783226 -0.74229737 5.06032783 -4 5 C-2.4375 2.4375 -2.4375 2.4375 0 0 Z " fill="#F3E4B8" transform="translate(72,130)"/>
<path d="M0 0 C0 3.69999753 -1.32294626 4.75686018 -3.6953125 7.4375 C-5.18437614 9.13389439 -5.18437614 9.13389439 -6.6875 11.875 C-7.120625 12.57625 -7.55375 13.2775 -8 14 C-8.66 14 -9.32 14 -10 14 C-10.33 14.66 -10.66 15.32 -11 16 C-10.67 14.68 -10.34 13.36 -10 12 C-9.34 12 -8.68 12 -8 12 C-7.79375 11.13375 -7.5875 10.2675 -7.375 9.375 C-5.62470564 5.07882294 -3.40607577 3.10989527 0 0 Z " fill="#70685B" transform="translate(116,122)"/>
<path d="M0 0 C2.05078125 0.03255208 4.1015625 0.06510417 6.15234375 0.09765625 C6.15234375 0.42765625 6.15234375 0.75765625 6.15234375 1.09765625 C4.89421875 1.36578125 3.63609375 1.63390625 2.33984375 1.91015625 C-1.97070592 2.93717642 -1.97070592 2.93717642 -4.84765625 6.09765625 C-5.67317707 8.75299391 -6.2664892 11.37064163 -6.84765625 14.09765625 C-7.17765625 14.09765625 -7.50765625 14.09765625 -7.84765625 14.09765625 C-8.46279821 6.83898117 -8.46279821 6.83898117 -5.41015625 3.16015625 C-4.56453125 2.47953125 -3.71890625 1.79890625 -2.84765625 1.09765625 C-1.84765625 0.09765625 -1.84765625 0.09765625 0 0 Z " fill="#736E64" transform="translate(158.84765625,37.90234375)"/>
<path d="M0 0 C0.99 0.66 1.98 1.32 3 2 C3.25660094 5.07921132 3.39431504 7.21136993 2 10 C0.68 10 -0.64 10 -2 10 C-1.34 6.7 -0.68 3.4 0 0 Z " fill="#EBDBA8" transform="translate(137,27)"/>
<path d="M0 0 C-0.33 0.99 -0.66 1.98 -1 3 C-1.66 3 -2.32 3 -3 3 C-2.855625 3.61488281 -2.71125 4.22976562 -2.5625 4.86328125 C-2.376875 5.67152344 -2.19125 6.47976562 -2 7.3125 C-1.814375 8.11300781 -1.62875 8.91351563 -1.4375 9.73828125 C-1 12 -1 12 -1 15 C-4 13 -4 13 -4.6171875 10.9765625 C-5.31469898 4.6144123 -5.31469898 4.6144123 -3.6875 1.4375 C-2 0 -2 0 0 0 Z " fill="#D8CAAF" transform="translate(69,160)"/>
<path d="M0 0 C0 0.66 0 1.32 0 2 C-0.95132813 2.64388672 -0.95132813 2.64388672 -1.921875 3.30078125 C-4.57168572 5.46744979 -4.73079729 6.85594928 -5.25 10.1875 C-5.39953125 11.08855469 -5.5490625 11.98960937 -5.703125 12.91796875 C-5.80109375 13.60503906 -5.8990625 14.29210937 -6 15 C-6.66 14.67 -7.32 14.34 -8 14 C-8.42244894 10.55000031 -8.62172957 7.99399975 -6.734375 4.9765625 C-2.55 0 -2.55 0 0 0 Z " fill="#7B705E" transform="translate(158,141)"/>
<path d="M0 0 C0.33 0 0.66 0 1 0 C1.46233492 3.9760803 1.30954571 5.56851204 -1.0625 8.875 C-4.65037512 11.47048413 -6.6677071 11.4247346 -11 11 C-11 10.34 -11 9.68 -11 9 C-9.741875 8.814375 -8.48375 8.62875 -7.1875 8.4375 C-4.58129396 7.8147782 -3.36939111 7.52099789 -1.80078125 5.30859375 C-0.87461627 3.16740924 -0.87461627 3.16740924 0 0 Z " fill="#807B71" transform="translate(60,78)"/>
<path d="M0 0 C0.33 0.99 0.66 1.98 1 3 C0.67 3.66 0.34 4.32 0 5 C-0.66 5 -1.32 5 -2 5 C-2 5.66 -2 6.32 -2 7 C-1.34 7.33 -0.68 7.66 0 8 C-0.99 8.495 -0.99 8.495 -2 9 C-4 7.75 -4 7.75 -6 6 C-6 4.68 -6 3.36 -6 2 C-4.35 2 -2.7 2 -1 2 C-0.67 1.34 -0.34 0.68 0 0 Z " fill="#D2C59B" transform="translate(71,31)"/>
<path d="M0 0 C0.33 0.99 0.66 1.98 1 3 C-0.5 5 -0.5 5 -3 7 C-5.75871627 7.35800135 -8.20097524 7.18660165 -11 7 C-11 6.34 -11 5.68 -11 5 C-10.37351562 4.89042969 -9.74703125 4.78085938 -9.1015625 4.66796875 C-7.87566406 4.43013672 -7.87566406 4.43013672 -6.625 4.1875 C-5.81289062 4.03667969 -5.00078125 3.88585937 -4.1640625 3.73046875 C-1.64179359 3.12455058 -1.64179359 3.12455058 0 0 Z " fill="#837B70" transform="translate(136,140)"/>
<path d="M0 0 C0.928125 0.2784375 0.928125 0.2784375 1.875 0.5625 C4.04160178 1.23686176 4.04160178 1.23686176 6 0 C6.99 0.33 7.98 0.66 9 1 C9 1.99 9 2.98 9 4 C9.66 4.66 10.32 5.32 11 6 C6.64477147 5.49357808 3.55760365 4.61588503 0 2 C0 1.34 0 0.68 0 0 Z " fill="#B3A98A" transform="translate(95,98)"/>
<path d="M0 0 C-0.309375 0.639375 -0.61875 1.27875 -0.9375 1.9375 C-2.31935403 5.92049104 -2.6536543 9.81650849 -3 14 C-3.66 13.67 -4.32 13.34 -5 13 C-5.46882399 4.87371744 -5.46882399 4.87371744 -3.625 1.4375 C-2 0 -2 0 0 0 Z " fill="#91897D" transform="translate(22,91)"/>
<path d="M0 0 C-0.8125 2.4375 -0.8125 2.4375 -2 5 C-2.99 5.33 -3.98 5.66 -5 6 C-5.66 5.67 -6.32 5.34 -7 5 C-7 3.68 -7 2.36 -7 1 C-4.53721199 -0.231394 -2.7204945 -0.07159196 0 0 Z " fill="#E7CB8F" transform="translate(118,36)"/>
<path d="M0 0 C-0.8125 1.9375 -0.8125 1.9375 -2 4 C-2.99 4.33 -3.98 4.66 -5 5 C-4.67 7.31 -4.34 9.62 -4 12 C-4.99 12.495 -4.99 12.495 -6 13 C-7.55426378 7.0220624 -7.55426378 7.0220624 -6.0234375 4.19921875 C-2.59591289 0 -2.59591289 0 0 0 Z " fill="#E7DEC2" transform="translate(151,72)"/>
<path d="M0 0 C0.66 0 1.32 0 2 0 C1.45773019 3.79588866 -0.20127563 5.47211993 -3 8 C-4 7 -4 7 -4.0625 3.9375 C-4.041875 2.968125 -4.02125 1.99875 -4 1 C-3.01 1 -2.02 1 -1 1 C-0.67 0.67 -0.34 0.34 0 0 Z " fill="#CBBB9B" transform="translate(141,62)"/>
<path d="M0 0 C1 3 1 3 -0.125 5.9375 C-2.09253023 9.15113271 -3.88066821 10.92044547 -7 13 C-7.66 13 -8.32 13 -9 13 C-9 12.34 -9 11.68 -9 11 C-8.39671875 10.76539063 -7.7934375 10.53078125 -7.171875 10.2890625 C-4.46867073 8.6846427 -3.67684104 7.14941313 -2.25 4.375 C-1.82203125 3.55773438 -1.3940625 2.74046875 -0.953125 1.8984375 C-0.63859375 1.27195313 -0.3240625 0.64546875 0 0 Z " fill="#6F685A" transform="translate(120,32)"/>
<path d="M0 0 C0 3.11227195 -0.45627049 5.94152152 -1 9 C-0.34 9 0.32 9 1 9 C1.33 9.99 1.66 10.98 2 12 C1.01 12 0.02 12 -1 12 C-3.31282587 8.53076119 -3.42478586 7.07794425 -3 3 C-1.5 1.125 -1.5 1.125 0 0 Z " fill="#D3CBB5" transform="translate(47,114)"/>
<path d="M0 0 C0.99 0 1.98 0 3 0 C2.67 2.31 2.34 4.62 2 7 C0.02 7 -1.96 7 -4 7 C-3.34 5.68 -2.68 4.36 -2 3 C-1.01 3 -0.02 3 1 3 C0.67 2.01 0.34 1.02 0 0 Z " fill="#DED2A5" transform="translate(104,104)"/>
<path d="M0 0 C-0.66 0.66 -1.32 1.32 -2 2 C-2.969375 1.979375 -3.93875 1.95875 -4.9375 1.9375 C-7.99644979 1.67559419 -7.99644979 1.67559419 -9.75 3.5 C-10.1625 3.995 -10.575 4.49 -11 5 C-11.66 5 -12.32 5 -13 5 C-10.04964557 -1.80851023 -6.4752192 -1.06151134 0 0 Z " fill="#E6DABB" transform="translate(82,54)"/>
<path d="M0 0 C0.66 1.32 1.32 2.64 2 4 C1 5 1 5 -2.0625 5.0625 C-3.5165625 5.0315625 -3.5165625 5.0315625 -5 5 C-5 3.68 -5 2.36 -5 1 C-3.35 0.67 -1.7 0.34 0 0 Z " fill="#E0C78E" transform="translate(137,168)"/>
<path d="M0 0 C1.32 0.33 2.64 0.66 4 1 C4.33 3.64 4.66 6.28 5 9 C4.01 9.33 3.02 9.66 2 10 C1.77213542 7.98177083 1.54427083 5.96354167 1.31640625 3.9453125 C1.08707039 1.92595684 1.08707039 1.92595684 0 0 Z " fill="#BAAE99" transform="translate(133,131)"/>
<path d="M0 0 C4.24480464 -0.33292585 6.35542625 -0.43885872 9.9375 2 C10.618125 2.66 11.29875 3.32 12 4 C11.67 5.98 11.34 7.96 11 10 C10.67 10 10.34 10 10 10 C9.71125 9.05125 9.4225 8.1025 9.125 7.125 C8.23174891 3.94788422 8.23174891 3.94788422 6 2 C4.01178687 1.60235737 2.01055661 1.26224651 0 1 C0 0.67 0 0.34 0 0 Z " fill="#C6BDA7" transform="translate(49,72)"/>
<path d="M0 0 C0.33 0 0.66 0 1 0 C1.42880585 4.37381963 1.48534354 6.34825296 -1.1875 9.9375 C-4.19995189 12.14663138 -5.37267012 12.51818998 -9 12 C-8.01 11.34 -7.02 10.68 -6 10 C-2.41659978 6.84319505 -0.41575062 4.85042388 0 0 Z " fill="#6B6559" transform="translate(84,60)"/>
<path d="M0 0 C1.32 0 2.64 0 4 0 C4 1.65 4 3.3 4 5 C2.02 5 0.04 5 -2 5 C-2 4.01 -2 3.02 -2 2 C-1.34 2 -0.68 2 0 2 C0 1.34 0 0.68 0 0 Z " fill="#EAD5A0" transform="translate(127,65)"/>
<path d="M0 0 C3.81287042 1.44626119 5.32707177 3.30194812 7 7 C6.57421875 9.1640625 6.57421875 9.1640625 6 11 C5.18357746 9.73168307 4.37200895 8.46024069 3.5625 7.1875 C3.11003906 6.47980469 2.65757813 5.77210938 2.19140625 5.04296875 C1 3 1 3 0 0 Z " fill="#B2A691" transform="translate(113,155)"/>
<path d="M0 0 C0 0.66 0 1.32 0 2 C-3.31371 4.20914 -4.3446021 4.22481553 -8.1875 4.125 C-9.08855469 4.10695313 -9.98960937 4.08890625 -10.91796875 4.0703125 C-11.60503906 4.04710938 -12.29210937 4.02390625 -13 4 C-10.34531286 2.23020858 -8.92500069 1.57859829 -5.9375 0.875 C-5.24527344 0.70742187 -4.55304688 0.53984375 -3.83984375 0.3671875 C-2 0 -2 0 0 0 Z " fill="#746E5D" transform="translate(188,113)"/>
<path d="M0 0 C2.3125 1.4375 2.3125 1.4375 4 3 C4 3.66 4 4.32 4 5 C0.125 3.125 0.125 3.125 -1 2 C-3.33297433 1.95907063 -5.66705225 1.95758277 -8 2 C-8 1.34 -8 0.68 -8 0 C-4.62858491 -1.12380503 -3.35507997 -0.98197462 0 0 Z " fill="#CDC8B5" transform="translate(137,24)"/>
<path d="M0 0 C0 0.66 0 1.32 0 2 C-1.32 2.33 -2.64 2.66 -4 3 C-4 3.66 -4 4.32 -4 5 C-3.01 5.33 -2.02 5.66 -1 6 C-2.65 6.33 -4.3 6.66 -6 7 C-6.33 5.68 -6.66 4.36 -7 3 C-3.375 0 -3.375 0 0 0 Z " fill="#968463" transform="translate(156,117)"/>
<path d="M0 0 C3.63 0.66 7.26 1.32 11 2 C10.01 2.99 9.02 3.98 8 5 C4.51967799 4.73897585 2.94903702 3.96602468 0 2 C0 1.34 0 0.68 0 0 Z " fill="#A19879" transform="translate(95,109)"/>
<path d="M0 0 C0.66 0.33 1.32 0.66 2 1 C1.2884375 1.7734375 1.2884375 1.7734375 0.5625 2.5625 C-1.42809407 5.66782675 -1.65060818 8.36632504 -2 12 C-2.66 11.67 -3.32 11.34 -4 11 C-3.38461538 3.49230769 -3.38461538 3.49230769 -1.4375 1 C-0.963125 0.67 -0.48875 0.34 0 0 Z " fill="#E8DBC0" transform="translate(124,55)"/>
<path d="M0 0 C0.99 0.495 0.99 0.495 2 1 C2.4140625 3.06640625 2.4140625 3.06640625 2.625 5.5625 C2.69976562 6.38878906 2.77453125 7.21507812 2.8515625 8.06640625 C2.92503906 9.02353516 2.92503906 9.02353516 3 10 C2.01 10.495 2.01 10.495 1 11 C-0.17571451 7.32589215 -0.07366746 3.83070817 0 0 Z " fill="#A8977B" transform="translate(119,21)"/>
<path d="M0 0 C3.3 1.65 6.6 3.3 10 5 C10 5.66 10 6.32 10 7 C6.4257023 6.67506385 4.44287547 6.36129314 1.625 4.0625 C0 2 0 2 0 0 Z " fill="#BDB29A" transform="translate(165,110)"/>
<path d="M0 0 C0.3403125 0.8353125 0.3403125 0.8353125 0.6875 1.6875 C2.35896766 4.63246684 4.55276352 6.68156544 7 9 C2.25 8.125 2.25 8.125 0 7 C-1.26229508 2.52459016 -1.26229508 2.52459016 0 0 Z " fill="#C0AF93" transform="translate(169,101)"/>
<path d="M0 0 C0.99 0.33 1.98 0.66 3 1 C2.34 2.65 1.68 4.3 1 6 C-1.31 6 -3.62 6 -6 6 C-5.34 5.34 -4.68 4.68 -4 4 C-3.01 4 -2.02 4 -1 4 C-0.67 2.68 -0.34 1.36 0 0 Z " fill="#D9CEAE" transform="translate(102,85)"/>
<path d="M0 0 C0.66 0.33 1.32 0.66 2 1 C2 2.32 2 3.64 2 5 C0 6.75 0 6.75 -2 8 C-2 7.01 -2 6.02 -2 5 C-2.99 4.67 -3.98 4.34 -5 4 C-4.360625 3.71125 -3.72125 3.4225 -3.0625 3.125 C-0.84793921 2.17176549 -0.84793921 2.17176549 0 0 Z " fill="#E2D0A9" transform="translate(133,57)"/>
<path d="M0 0 C0.66 0.33 1.32 0.66 2 1 C2.36923077 6.53846154 2.36923077 6.53846154 0.5 8.875 C-0.2425 9.431875 -0.2425 9.431875 -1 10 C-1.99 9.67 -2.98 9.34 -4 9 C-3.01 8.67 -2.02 8.34 -1 8 C-0.67 5.36 -0.34 2.72 0 0 Z " fill="#6F6A5E" transform="translate(140,29)"/>
<path d="M0 0 C0.99 0.33 1.98 0.66 3 1 C2.67 3.31 2.34 5.62 2 8 C1.34 8 0.68 8 0 8 C0 5.36 0 2.72 0 0 Z " fill="#A79D8A" transform="translate(179,70)"/>
<path d="M0 0 C3.3 0 6.6 0 10 0 C10 0.33 10 0.66 10 1 C8.63875 1.433125 8.63875 1.433125 7.25 1.875 C4.67797092 2.76531776 2.38653234 3.71494413 0 5 C0 3.35 0 1.7 0 0 Z " fill="#9F9E83" transform="translate(95,15)"/>
<path d="M0 0 C2.31 0 4.62 0 7 0 C7.33 1.32 7.66 2.64 8 4 C7.34 4 6.68 4 6 4 C5.67 4.66 5.34 5.32 5 6 C4.731875 5.38125 4.46375 4.7625 4.1875 4.125 C3.04443152 1.7004767 3.04443152 1.7004767 0 0 Z " fill="#E8DAAE" transform="translate(74,130)"/>
<path d="M0 0 C-0.33 0.99 -0.66 1.98 -1 3 C-3.75078884 3.91692961 -5.35948913 4.10886083 -8.1875 4.0625 C-10.0746875 4.0315625 -10.0746875 4.0315625 -12 4 C-12 3.67 -12 3.34 -12 3 C-10.906875 2.690625 -9.81375 2.38125 -8.6875 2.0625 C-1.52941176 0 -1.52941176 0 0 0 Z " fill="#706A5F" transform="translate(38,113)"/>
<path d="M0 0 C1.32 0 2.64 0 4 0 C3.67 1.65 3.34 3.3 3 5 C2.01 5.33 1.02 5.66 0 6 C0 4.02 0 2.04 0 0 Z " fill="#B6A986" transform="translate(124,109)"/>
<path d="M0 0 C0.66 0.99 1.32 1.98 2 3 C0.60210322 5.79579355 -1.2628997 6.59807058 -4 8 C-4.66 7.67 -5.32 7.34 -6 7 C-4.02 4.69 -2.04 2.38 0 0 Z " fill="#F4E7C8" transform="translate(127,101)"/>
<path d="M0 0 C-1.15173355 2.46800047 -2.04783565 4.04783565 -4 6 C-4.69748583 7.31747324 -5.36959957 8.64914193 -6 10 C-6.33663062 6.29706315 -6.47736015 4.60465619 -4.125 1.625 C-2 0 -2 0 0 0 Z " fill="#736C5E" transform="translate(84,91)"/>
<path d="M0 0 C0 3 0 3 -1.53125 4.60546875 C-2.1809375 5.12753906 -2.830625 5.64960937 -3.5 6.1875 C-4.1496875 6.71730469 -4.799375 7.24710937 -5.46875 7.79296875 C-5.9740625 8.19128906 -6.479375 8.58960937 -7 9 C-5.64978174 4.58110387 -3.73884332 2.65654657 0 0 Z " fill="#F4EDD0" transform="translate(19,85)"/>
<path d="M0 0 C0.66 0 1.32 0 2 0 C3.35439668 2.70879335 3.06501451 5.00933268 3 8 C2.01 7.34 1.02 6.68 0 6 C-0.1875 2.875 -0.1875 2.875 0 0 Z " fill="#EED99E" transform="translate(146,77)"/>
<path d="M0 0 C1.32 0.33 2.64 0.66 4 1 C4.33 3.97 4.66 6.94 5 10 C4.34 9.67 3.68 9.34 3 9 C2.2833793 6.68152126 1.61757973 4.34680297 1 2 C0.67 1.34 0.34 0.68 0 0 Z " fill="#938D84" transform="translate(158,72)"/>
<path d="M0 0 C0.66 0.66 1.32 1.32 2 2 C0.71034824 3.37562854 -0.62689293 4.70766393 -2 6 C-2.66 6 -3.32 6 -4 6 C-3.67 4.35 -3.34 2.7 -3 1 C-2.01 0.67 -1.02 0.34 0 0 Z " fill="#B2976A" transform="translate(147,59)"/>
<path d="M0 0 C1.32 1.32 2.64 2.64 4 4 C3.34 6.31 2.68 8.62 2 11 C1.67 11 1.34 11 1 11 C0.67 7.37 0.34 3.74 0 0 Z " fill="#E0C793" transform="translate(113,23)"/>
<path d="M0 0 C0 0.66 0 1.32 0 2 C-2.95664519 3.4783226 -5.74229737 3.06032783 -9 3 C-9 2.34 -9 1.68 -9 1 C-5.94152152 0.45627049 -3.11227195 0 0 0 Z " fill="#857F71" transform="translate(111,186)"/>
<path d="M0 0 C0.33 0 0.66 0 1 0 C1.36923077 5.53846154 1.36923077 5.53846154 -0.5 7.875 C-1.2425 8.431875 -1.2425 8.431875 -2 9 C-2.6875 7.3125 -2.6875 7.3125 -3 5 C-1.625 2.25 -1.625 2.25 0 0 Z " fill="#EBCE93" transform="translate(166,98)"/>
<path d="M0 0 C4.455 0.99 4.455 0.99 9 2 C8.01 2.99 7.02 3.98 6 5 C3.5625 4.1875 3.5625 4.1875 1 3 C0.67 2.01 0.34 1.02 0 0 Z " fill="#C0B9A0" transform="translate(146,84)"/>
<path d="M0 0 C-2.26185454 2.26185454 -3.96983561 3.03921617 -7 4 C-7.99 3.67 -8.98 3.34 -10 3 C-6.68152292 -0.06320961 -4.44849969 -0.3033068 0 0 Z " fill="#736A5A" transform="translate(84,171)"/>
<path d="M0 0 C0.66 0 1.32 0 2 0 C2 0.99 2 1.98 2 3 C2.66 3.33 3.32 3.66 4 4 C2.68 5.32 1.36 6.64 0 8 C0 5.36 0 2.72 0 0 Z " fill="#E8DAB2" transform="translate(68,135)"/>
<path d="M0 0 C1.60080151 4.00200378 0.29279692 7.04556236 -1 11 C-1.33 11 -1.66 11 -2 11 C-2.05399736 9.54207116 -2.09279177 8.08357288 -2.125 6.625 C-2.15980469 5.40683594 -2.15980469 5.40683594 -2.1953125 4.1640625 C-2 2 -2 2 0 0 Z " fill="#E8DDC2" transform="translate(123,132)"/>
<path d="M0 0 C3.37503669 1.1858237 5.64722731 2.27573689 8 5 C7.67 5.66 7.34 6.32 7 7 C5.82780457 6.21654285 4.66236332 5.42297164 3.5 4.625 C2.8503125 4.18414062 2.200625 3.74328125 1.53125 3.2890625 C1.0259375 2.86367187 0.520625 2.43828125 0 2 C0 1.34 0 0.68 0 0 Z " fill="#DCCEB3" transform="translate(92,119)"/>
<path d="M0 0 C0.66 0 1.32 0 2 0 C2 1.65 2 3.3 2 5 C0.68 5.33 -0.64 5.66 -2 6 C-2.33 5.34 -2.66 4.68 -3 4 C-2.34 4 -1.68 4 -1 4 C-0.67 2.68 -0.34 1.36 0 0 Z " fill="#E8D8AC" transform="translate(75,29)"/>
<path d="M0 0 C2.64 0.66 5.28 1.32 8 2 C5.64046906 4.35953094 4.22104383 4.49141413 1 5 C0.67 3.35 0.34 1.7 0 0 Z " fill="#ECE1C3" transform="translate(100,26)"/>
<path d="M0 0 C0.86625 0.3403125 0.86625 0.3403125 1.75 0.6875 C1.75 1.3475 1.75 2.0075 1.75 2.6875 C-0.89 2.6875 -3.53 2.6875 -6.25 2.6875 C-2.80384615 -0.38942308 -2.80384615 -0.38942308 0 0 Z " fill="#E8D9B3" transform="translate(135.25,159.3125)"/>
<path d="M0 0 C0.33 0 0.66 0 1 0 C0.4140625 6.15234375 0.4140625 6.15234375 0 8 C-0.99 8.495 -0.99 8.495 -2 9 C-2.25 3.375 -2.25 3.375 0 0 Z " fill="#EED399" transform="translate(59,144)"/>
<path d="M0 0 C1.65 0 3.3 0 5 0 C5 2 5 2 3.625 3.625 C2 5 2 5 0 5 C0 3.35 0 1.7 0 0 Z " fill="#9A8D6D" transform="translate(125,134)"/>
<path d="M0 0 C1.093125 0.226875 2.18625 0.45375 3.3125 0.6875 C-0.3316774 3.1169516 -2.39991272 2.84929575 -6.6875 2.6875 C-4.58035839 -0.41123767 -3.86755884 -0.32775922 0 0 Z " fill="#E9E0C5" transform="translate(130.6875,129.3125)"/>
<path d="M0 0 C1.32 0.99 2.64 1.98 4 3 C3.01 3 2.02 3 1 3 C0.67 4.32 0.34 5.64 0 7 C-0.66 6.67 -1.32 6.34 -2 6 C-1.34 4.02 -0.68 2.04 0 0 Z " fill="#ECD7A6" transform="translate(97,124)"/>
<path d="M0 0 C0.66 0.99 1.32 1.98 2 3 C1.125 5.6875 1.125 5.6875 0 8 C-0.185625 7.071875 -0.185625 7.071875 -0.375 6.125 C-0.87197356 3.80879168 -0.87197356 3.80879168 -3 2 C-2.01 1.34 -1.02 0.68 0 0 Z " fill="#E5CB95" transform="translate(58,51)"/>
<path d="M0 0 C0.33 0.66 0.66 1.32 1 2 C1.99 2 2.98 2 4 2 C4 2.99 4 3.98 4 5 C2.35 5.33 0.7 5.66 -1 6 C-0.67 4.02 -0.34 2.04 0 0 Z " fill="#B1A799" transform="translate(122,28)"/>
<path d="M0 0 C5.53846154 -0.36923077 5.53846154 -0.36923077 7.875 1.5 C8.24625 1.995 8.6175 2.49 9 3 C8.01 3.495 8.01 3.495 7 4 C4.64018187 3.06421005 2.30368736 2.06652192 0 1 C0 0.67 0 0.34 0 0 Z " fill="#D4CBBA" transform="translate(70,23)"/>
<path d="M0 0 C0.33 0 0.66 0 1 0 C1 1.65 1 3.3 1 5 C0.67 5 0.34 5 0 5 C0 3.35 0 1.7 0 0 Z " fill="#FBFBFB" transform="translate(96,166)"/>
<path d="M0 0 C4 1 4 1 4 1 Z " fill="#FEFEFE" transform="translate(104,176)"/>
<path d="" fill="#FAFAFA" transform="translate(0,0)"/>
<path d="M0 0 C2 1 2 1 2 1 Z " fill="#FFFFFF" transform="translate(145,132)"/>
<path d="" fill="#FBFBFB" transform="translate(0,0)"/>
<path d="" fill="#FFFFFF" transform="translate(0,0)"/>
<path d="" fill="#FFFFFF" transform="translate(0,0)"/>
<path d="" fill="#FFFFFF" transform="translate(0,0)"/>
<path d="" fill="#FFFFFF" transform="translate(0,0)"/>
</svg>
