<?xml version="1.0" encoding="UTF-8"?>
<svg version="1.1" xmlns="http://www.w3.org/2000/svg" width="221" height="192">
<path d="M0 0 C3.73080353 3.17073133 6.81405466 7.38847376 7.375 12.25 C6.93008447 16.6991553 5.91680277 19.60406824 3 23 C0.73019907 24.65253173 -1.45124741 25.77463818 -4 27 C-3.505 28.485 -3.505 28.485 -3 30 C-2.91330471 31.51907624 -2.882306 33.04169001 -2.88647461 34.56323242 C-2.88658791 35.94432442 -2.88658791 35.94432442 -2.88670349 37.35331726 C-2.89186478 38.34402725 -2.89702606 39.33473724 -2.90234375 40.35546875 C-2.9037587 41.37224197 -2.90517365 42.3890152 -2.90663147 43.43659973 C-2.91223293 46.68692964 -2.92478568 49.93719088 -2.9375 53.1875 C-2.94251481 55.38997296 -2.94707775 57.59244701 -2.95117188 59.79492188 C-2.96220283 65.19663804 -2.97894238 70.59831412 -3 76 C-2.23300781 76.29648438 -1.46601562 76.59296875 -0.67578125 76.8984375 C2.07457175 78.03069961 4.48539389 79.41939045 7 81 C9.57469348 79.66575814 12.13289879 78.30929195 14.6875 76.9375 C15.40873047 76.56689453 16.12996094 76.19628906 16.87304688 75.81445312 C20.72734491 73.72010853 23.32046069 71.91798093 25.76171875 68.2265625 C28 65 28 65 30.05761719 64.52099609 C31.51849939 64.46199495 32.97986499 64.4144345 34.44140625 64.375 C39.47011195 63.63796833 43.7204222 60.61574194 48 58 C48 54.37 48 50.74 48 47 C48.99 46.67 49.98 46.34 51 46 C51 45.01 51 44.02 51 43 C56.22423479 39.70048329 60.97823347 38.99002017 67 40 C71.04415414 41.76554491 73.42678988 44.21183609 76 47.75 C77.34092109 52.10799353 77.19223206 55.61226162 76 60 C73.63107875 63.89179919 71.00326298 65.88716676 67 68 C67.33 68.33 67.66 68.66 68 69 C68.10581006 72.07160376 68.1400141 75.11550833 68.125 78.1875 C68.12306641 79.13898926 68.12113281 80.09047852 68.11914062 81.07080078 C68.04299162 94.38630089 67.50787613 107.69526628 67 121 C64.525 121.495 64.525 121.495 62 122 C59.99206236 118.98809354 59.72471672 118.17775201 59.55078125 114.76171875 C59.50759766 113.94123047 59.46441406 113.12074219 59.41992188 112.27539062 C59.38447266 111.42138672 59.34902344 110.56738281 59.3125 109.6875 C59.24192383 108.42389648 59.24192383 108.42389648 59.16992188 107.13476562 C58.95128652 102.55059161 59.23389723 98.5373541 60 94 C60.12823125 92.0071278 60.22097635 90.01170865 60.28125 88.015625 C60.31863281 86.91605469 60.35601562 85.81648438 60.39453125 84.68359375 C60.46532325 82.37892093 60.5356293 80.07423313 60.60546875 77.76953125 C60.64285156 76.67511719 60.68023437 75.58070312 60.71875 74.453125 C60.74904297 73.45442383 60.77933594 72.45572266 60.81054688 71.42675781 C61 69 61 69 62 67 C60.39125 66.7834375 60.39125 66.7834375 58.75 66.5625 C55 66 55 66 53.14453125 65.23828125 C49.66687852 64.85187539 47.75821279 66.70258112 44.9375 68.625 C43.89464844 69.31851563 42.85179687 70.01203125 41.77734375 70.7265625 C39.00243369 72.99800787 37.77497986 74.94682764 36 78 C32.84505047 79.16849983 29.86852636 79.85987035 26.5546875 80.39453125 C23.83195822 81.03982642 21.89950668 82.01384903 19.5 83.4375 C16.39642706 85.23021492 13.38967372 86.79721255 10 88 C10.309375 89.546875 10.309375 89.546875 10.625 91.125 C11.01194403 95.1234216 10.51883076 97.33693757 9 101 C9.639375 101.226875 10.27875 101.45375 10.9375 101.6875 C21 106 21 106 24 109 C25.37490142 109.02655389 26.74993896 109.04618572 28.125 109.0625 C31.0703889 109.35426022 32.55033498 109.59311285 34.765625 111.59765625 C35.86767632 112.98591993 36.95967719 114.38220488 38.04296875 115.78515625 C41.57325828 119.78051386 46.15095633 122.80939068 51 125 C53.08589275 124.80926172 53.08589275 124.80926172 55 124 C61.47067036 122.66380038 67.11259688 122.67233736 73 126 C76.14861269 130.00732524 76.47643508 133.93841849 76.28515625 138.88671875 C75.73432588 142.96889996 73.97625358 145.11527019 71 147.8125 C65.54533535 149.97163809 59.54151752 149.97334714 54.0625 147.875 C51.30281711 145.36619738 49.63179749 143.38911786 48 140 C47.96976786 136.91632151 48.38327872 134.01657146 49 131 C48.26136719 130.8865625 47.52273437 130.773125 46.76171875 130.65625 C43.94432565 129.98677045 42.22686111 129.05823681 39.8125 127.5 C34.96287008 124.66696703 30.54928787 124.12743667 25 124 C24.79117188 123.08605469 24.58234375 122.17210937 24.3671875 121.23046875 C22.64509434 117.16140862 20.99026668 116.33963864 17.125 114.3125 C11.17835216 111.13462308 11.17835216 111.13462308 8.76953125 109.31640625 C6.33803277 107.50754314 4.97093106 107.5652296 2 108 C-0.77897309 108.73346963 -0.77897309 108.73346963 -3 111 C-3.80153772 114.45965312 -3.72392885 117.89541681 -3.69921875 121.43359375 C-3.70637405 122.46307632 -3.71352936 123.4925589 -3.72090149 124.55323792 C-3.72868852 126.73120251 -3.72364527 128.90924494 -3.70678711 131.0871582 C-3.68758788 134.42223368 -3.72690267 137.75312971 -3.77148438 141.08789062 C-3.77177477 143.20312748 -3.76863379 145.31836817 -3.76171875 147.43359375 C-3.77700119 148.43160507 -3.79228363 149.42961639 -3.80802917 150.45787048 C-3.76337426 153.10833678 -3.67153843 155.4351332 -3 158 C-0.21185748 160.55911531 -0.21185748 160.55911531 3 162 C5.31357188 165.47035782 5.48844098 167.90752784 6 172 C6.33 172.99 6.66 173.98 7 175 C5.14480056 180.12908082 2.81609457 182.49933551 -2 185 C-7.64234998 186.53882272 -10.91402723 185.82554043 -16 183 C-19.3527994 180.30318309 -20.7816886 178.89003879 -21.8125 174.6875 C-21.874375 173.800625 -21.93625 172.91375 -22 172 C-23.08667969 171.82984375 -23.08667969 171.82984375 -24.1953125 171.65625 C-27.13428502 170.96857955 -29.2475047 169.97336185 -31.875 168.5 C-32.83148438 167.96375 -33.78796875 167.4275 -34.7734375 166.875 C-39.02000738 164.40725963 -43.22591477 161.87510192 -47.42871094 159.33374023 C-57.82723905 152.87245613 -57.82723905 152.87245613 -69 148 C-69.66 148.33 -70.32 148.66 -71 149 C-75.89219273 149.58646923 -80.88461957 150.16131527 -85.3125 147.73046875 C-88.3660768 145.11584362 -90.8201269 142.95439044 -91.203125 138.79296875 C-91.36199664 129.96235319 -91.36199664 129.96235319 -88 126 C-84.5862069 123 -84.5862069 123 -82 123 C-82.33 122.01 -82.66 121.02 -83 120 C-83.0922485 118.36384719 -83.12791055 116.72419984 -83.12939453 115.08544922 C-83.13254669 114.08786591 -83.13569885 113.09028259 -83.13894653 112.06246948 C-83.1369223 110.98740143 -83.13489807 109.91233337 -83.1328125 108.8046875 C-83.13376923 107.70150177 -83.13472595 106.59831604 -83.13571167 105.46170044 C-83.13639234 103.12990258 -83.13454591 100.79810282 -83.13037109 98.46630859 C-83.12501113 94.88244411 -83.13032515 91.29870438 -83.13671875 87.71484375 C-83.13605815 85.45312472 -83.13477736 83.19140577 -83.1328125 80.9296875 C-83.13483673 79.85057098 -83.13686096 78.77145447 -83.13894653 77.65963745 C-83.13421829 76.17271896 -83.13421829 76.17271896 -83.12939453 74.65576172 C-83.12859894 73.77878632 -83.12780334 72.90181091 -83.12698364 71.9982605 C-83 70 -83 70 -82 69 C-80.00041636 68.95919217 -77.99954746 68.95745644 -76 69 C-75.97473261 76.24486551 -75.9571682 83.48971974 -75.94506836 90.73461914 C-75.94002644 93.20142033 -75.93319309 95.66821852 -75.92456055 98.13500977 C-75.91248875 101.67204529 -75.90677044 105.20904145 -75.90234375 108.74609375 C-75.89718246 109.85649521 -75.89202118 110.96689667 -75.88670349 112.11094666 C-75.88662796 113.13192947 -75.88655243 114.15291229 -75.88647461 115.20483398 C-75.884254 116.10862289 -75.88203339 117.0124118 -75.87974548 117.94358826 C-76 120 -76 120 -77 121 C-73.74651031 123.35390729 -71.03288573 124.68438286 -67 125 C-59.78558221 122.14751514 -53.81093929 116.60795895 -50 110 C-47 109 -47 109 -43.77734375 108.69140625 C-39.35011609 107.88104503 -36.35325613 106.26009026 -32.5625 103.9375 C-31.92634766 103.56044922 -31.29019531 103.18339844 -30.63476562 102.79492188 C-29.08367098 101.87359498 -27.54092657 100.93823407 -26 100 C-25.328441 95.91722651 -25.4044095 92.84818885 -27 89 C-32.13771015 84.31091173 -39.51127362 80.56859336 -46.35546875 79.453125 C-49 79 -49 79 -50.4765625 77.6171875 C-50.85554688 77.04226562 -51.23453125 76.46734375 -51.625 75.875 C-55.57114988 70.85357647 -61.01037182 67.17591961 -67 65 C-70.11023432 65.71902778 -70.11023432 65.71902778 -73 67 C-77.69937745 67.67357743 -81.09583926 67.45208037 -85.375 65.3125 C-88.79351181 62.30095388 -90.68960411 60.28773267 -91.31640625 55.66796875 C-91.58213652 49.95048191 -90.96847152 46.39749547 -87 42 C-83.25230258 38.78768793 -79.85755707 38.55239829 -75.09375 38.6953125 C-72.40257009 39.08693943 -70.87204383 40.04656296 -69 42 C-68.67 41.34 -68.34 40.68 -68 40 C-65.90409499 38.8812 -63.77188332 37.8300575 -61.625 36.8125 C-56.15240185 34.15840436 -51.03329658 31.23670832 -45.93359375 27.91015625 C-42.35776069 25.58181755 -38.75586675 23.30386282 -35.125 21.0625 C-34.49408447 20.66047363 -33.86316895 20.25844727 -33.21313477 19.84423828 C-29.67384769 17.67543945 -27.17953656 16.48351735 -23 17 C-22.01 19.475 -22.01 19.475 -21 22 C-21.94746094 22.60134766 -21.94746094 22.60134766 -22.9140625 23.21484375 C-23.80867188 23.78332031 -24.70328125 24.35179688 -25.625 24.9375 C-26.63691406 25.57945313 -27.64882812 26.22140625 -28.69140625 26.8828125 C-30.8750102 28.28011278 -33.04977039 29.69134332 -35.21484375 31.1171875 C-44.54046413 37.24898922 -54.19456722 42.67482732 -64 48 C-63.814375 49.093125 -63.62875 50.18625 -63.4375 51.3125 C-63 55 -63 55 -64 58 C-61.7965194 59.1560727 -59.58796844 60.29984721 -57.375 61.4375 C-56.44880859 61.92573242 -56.44880859 61.92573242 -55.50390625 62.42382812 C-52.52113477 63.94661146 -49.99704824 65.00046479 -46.67578125 65.5234375 C-45.79277344 65.68070312 -44.90976563 65.83796875 -44 66 C-42.84831369 67.67817148 -41.70301267 69.36196177 -40.62109375 71.0859375 C-37.88881159 74.3120056 -34.25707962 75.87146019 -30.5234375 77.73828125 C-28 79 -28 79 -25 81 C-22.0417628 80.80278419 -20.8430415 79.8744332 -18.5 78 C-16 76 -16 76 -12 75 C-11.67 58.83 -11.34 42.66 -11 26 C-12.98 25.34 -14.96 24.68 -17 24 C-20.62563859 21.58290761 -22.08915611 19.18196149 -23 15 C-22.8305479 10.35217109 -21.57113359 6.32010722 -18.8125 2.5625 C-13.14544513 -2.60081666 -6.87427392 -2.97928194 0 0 Z M-15.5625 86.625 C-17.08897682 90.20890211 -17.57119174 92.16485549 -17 96 C-15.73711341 98.77835049 -14.6477829 100.49102772 -12.25 102.375 C-8.12697154 103.52028568 -4.46888964 102.65713484 -0.625 100.9375 C1.86623619 97.96717993 2.19801939 94.75503438 2 91 C0.42569236 87.37909244 -0.68882926 86.20744716 -4 84 C-8.87487155 83.06632295 -12.01325862 82.98919175 -15.5625 86.625 Z M-27.25 108.625 C-28.03375 109.17285156 -28.8175 109.72070312 -29.625 110.28515625 C-30.40875 110.85105469 -31.1925 111.41695313 -32 112 C-32.721875 112.51433594 -33.44375 113.02867188 -34.1875 113.55859375 C-37.35328528 115.86697885 -40.02814486 118.03076299 -42.6875 120.9375 C-43.450625 121.618125 -44.21375 122.29875 -45 123 C-45.76828125 122.80921875 -46.5365625 122.6184375 -47.328125 122.421875 C-50.07681331 121.71165874 -50.07681331 121.71165874 -52.53515625 123.36328125 C-53.36917969 124.00652344 -54.20320313 124.64976562 -55.0625 125.3125 C-58.05321232 127.5843354 -60.60755302 129.30377651 -64 131 C-64 134.3 -64 137.6 -64 141 C-64.99 141.495 -64.99 141.495 -66 142 C-65.030625 142.226875 -64.06125 142.45375 -63.0625 142.6875 C-58.27706846 144.080487 -54.27156031 146.47217253 -50 149 C-47.9188976 150.22430248 -45.83724441 151.44766319 -43.75537109 152.6706543 C-42.25325982 153.55601865 -40.75356925 154.44550301 -39.25634766 155.33911133 C-35.40183677 157.63268686 -31.54258066 159.73747311 -27.5 161.6875 C-25.47265625 162.7734375 -25.47265625 162.7734375 -24 164 C-22.9375 167.8125 -22.9375 167.8125 -23 171 C-22.34 170.67 -21.68 170.34 -21 170 C-20.855625 169.4225 -20.71125 168.845 -20.5625 168.25 C-19.83225214 165.32900854 -18.80136123 163.42252027 -17 161 C-15.02 160.01 -13.04 159.02 -11 158 C-11 142.16 -11 126.32 -11 110 C-19.57483658 105.23342405 -19.57483658 105.23342405 -27.25 108.625 Z M-68 143 C-67 146 -67 146 -67 146 Z " fill="#E1D4A4" transform="translate(114,6)"/>
<path d="M0 0 C3.73080353 3.17073133 6.81405466 7.38847376 7.375 12.25 C6.93008447 16.6991553 5.91680277 19.60406824 3 23 C0.73019907 24.65253173 -1.45124741 25.77463818 -4 27 C-3.505 28.485 -3.505 28.485 -3 30 C-2.91330471 31.51907624 -2.882306 33.04169001 -2.88647461 34.56323242 C-2.88658791 35.94432442 -2.88658791 35.94432442 -2.88670349 37.35331726 C-2.89186478 38.34402725 -2.89702606 39.33473724 -2.90234375 40.35546875 C-2.9037587 41.37224197 -2.90517365 42.3890152 -2.90663147 43.43659973 C-2.91223293 46.68692964 -2.92478568 49.93719088 -2.9375 53.1875 C-2.94251481 55.38997296 -2.94707775 57.59244701 -2.95117188 59.79492188 C-2.96220283 65.19663804 -2.97894238 70.59831412 -3 76 C-2.23300781 76.29648438 -1.46601562 76.59296875 -0.67578125 76.8984375 C2.07457175 78.03069961 4.48539389 79.41939045 7 81 C9.57469348 79.66575814 12.13289879 78.30929195 14.6875 76.9375 C15.40873047 76.56689453 16.12996094 76.19628906 16.87304688 75.81445312 C20.72549222 73.72111524 23.31850412 71.92062033 25.7578125 68.23046875 C28 65 28 65 30.08837891 64.48974609 C31.56316069 64.40912881 33.03924189 64.35070535 34.515625 64.30859375 C38.43372267 63.82191181 41.51460914 61.9473286 44.93359375 60.05859375 C47 59 47 59 49 59 C48.83203125 61.28515625 48.83203125 61.28515625 48 64 C45.63671875 65.80859375 45.63671875 65.80859375 42.6875 67.4375 C37.94799565 70.14832102 37.94799565 70.14832102 34.8125 74.4375 C34.214375 75.283125 33.61625 76.12875 33 77 C31.07072461 77 29.13738068 76.9853252 27.21484375 76.82421875 C23.4956057 77.11939637 21.05371113 79.31750895 18.109375 81.46484375 C14.54079386 84.06197781 11.44883342 86 7 86 C4.87953208 89.53411321 4.46800711 92.94393835 4 97 C3.67 97 3.34 97 3 97 C2.9175 96.113125 2.835 95.22625 2.75 94.3125 C1.70749734 89.70811324 -0.73141523 87.26858477 -4 84 C-3.67 83.67 -3.34 83.34 -3 83 C-6.51536439 81.2423178 -10.2820494 82.05565376 -14 83 C-16.74612994 84.91182268 -16.74612994 84.91182268 -18 88 C-18.44632734 93.44519359 -17.77078218 98.60452474 -17 104 C-17.804375 103.87625 -18.60875 103.7525 -19.4375 103.625 C-24.68401826 104.17726508 -27.81396476 106.94712716 -32 110 C-32.91265625 110.61101562 -33.8253125 111.22203125 -34.765625 111.8515625 C-35.66796875 112.45742187 -36.5703125 113.06328125 -37.5 113.6875 C-38.75296875 114.52861328 -38.75296875 114.52861328 -40.03125 115.38671875 C-42.2735088 116.93160345 -42.2735088 116.93160345 -43 120 C-45.97 120.495 -45.97 120.495 -49 121 C-49.28875 120.38125 -49.5775 119.7625 -49.875 119.125 C-50.93720042 116.86674235 -50.93720042 116.86674235 -53 115 C-50.375 110.125 -50.375 110.125 -47 109 C-45.40478516 108.84724609 -45.40478516 108.84724609 -43.77734375 108.69140625 C-39.35011609 107.88104503 -36.35325613 106.26009026 -32.5625 103.9375 C-31.92634766 103.56044922 -31.29019531 103.18339844 -30.63476562 102.79492188 C-29.08367098 101.87359498 -27.54092657 100.93823407 -26 100 C-25.328441 95.91722651 -25.4044095 92.84818885 -27 89 C-32.13771015 84.31091173 -39.51127362 80.56859336 -46.35546875 79.453125 C-49 79 -49 79 -50.4765625 77.6171875 C-50.85554688 77.04226562 -51.23453125 76.46734375 -51.625 75.875 C-55.57114988 70.85357647 -61.01037182 67.17591961 -67 65 C-70.11023432 65.71902778 -70.11023432 65.71902778 -73 67 C-77.69937745 67.67357743 -81.09583926 67.45208037 -85.375 65.3125 C-88.79351181 62.30095388 -90.68960411 60.28773267 -91.31640625 55.66796875 C-91.58213652 49.95048191 -90.96847152 46.39749547 -87 42 C-83.25230258 38.78768793 -79.85755707 38.55239829 -75.09375 38.6953125 C-72.40257009 39.08693943 -70.87204383 40.04656296 -69 42 C-68.67 41.34 -68.34 40.68 -68 40 C-65.90409499 38.8812 -63.77188332 37.8300575 -61.625 36.8125 C-56.15240185 34.15840436 -51.03329658 31.23670832 -45.93359375 27.91015625 C-42.35776069 25.58181755 -38.75586675 23.30386282 -35.125 21.0625 C-34.49408447 20.66047363 -33.86316895 20.25844727 -33.21313477 19.84423828 C-29.67384769 17.67543945 -27.17953656 16.48351735 -23 17 C-22.01 19.475 -22.01 19.475 -21 22 C-21.94746094 22.60134766 -21.94746094 22.60134766 -22.9140625 23.21484375 C-23.80867188 23.78332031 -24.70328125 24.35179688 -25.625 24.9375 C-26.63691406 25.57945313 -27.64882812 26.22140625 -28.69140625 26.8828125 C-30.8750102 28.28011278 -33.04977039 29.69134332 -35.21484375 31.1171875 C-44.54046413 37.24898922 -54.19456722 42.67482732 -64 48 C-63.814375 49.093125 -63.62875 50.18625 -63.4375 51.3125 C-63 55 -63 55 -64 58 C-61.7965194 59.1560727 -59.58796844 60.29984721 -57.375 61.4375 C-56.44880859 61.92573242 -56.44880859 61.92573242 -55.50390625 62.42382812 C-52.52113477 63.94661146 -49.99704824 65.00046479 -46.67578125 65.5234375 C-45.79277344 65.68070312 -44.90976563 65.83796875 -44 66 C-42.84831369 67.67817148 -41.70301267 69.36196177 -40.62109375 71.0859375 C-37.88881159 74.3120056 -34.25707962 75.87146019 -30.5234375 77.73828125 C-28 79 -28 79 -25 81 C-22.0417628 80.80278419 -20.8430415 79.8744332 -18.5 78 C-16 76 -16 76 -12 75 C-11.67 58.83 -11.34 42.66 -11 26 C-12.98 25.34 -14.96 24.68 -17 24 C-20.62563859 21.58290761 -22.08915611 19.18196149 -23 15 C-22.8305479 10.35217109 -21.57113359 6.32010722 -18.8125 2.5625 C-13.14544513 -2.60081666 -6.87427392 -2.97928194 0 0 Z " fill="#F0ECCA" transform="translate(114,6)"/>
<path d="M0 0 C0.99 2.475 0.99 2.475 2 5 C1.05253906 5.60134766 1.05253906 5.60134766 0.0859375 6.21484375 C-1.25597656 7.06755859 -1.25597656 7.06755859 -2.625 7.9375 C-3.63691406 8.57945313 -4.64882812 9.22140625 -5.69140625 9.8828125 C-7.8750102 11.28011278 -10.04977039 12.69134332 -12.21484375 14.1171875 C-21.54046413 20.24898922 -31.19456722 25.67482732 -41 31 C-40.814375 32.093125 -40.62875 33.18625 -40.4375 34.3125 C-40 38 -40 38 -41 41 C-38.7965194 42.1560727 -36.58796844 43.29984721 -34.375 44.4375 C-33.75753906 44.76298828 -33.14007813 45.08847656 -32.50390625 45.42382812 C-29.52113477 46.94661146 -26.99704824 48.00046479 -23.67578125 48.5234375 C-22.79277344 48.68070313 -21.90976563 48.83796875 -21 49 C-19.84627083 50.68114822 -18.69900854 52.36790337 -17.61328125 54.09375 C-14.90846231 57.28975882 -11.29753469 58.78604191 -7.60546875 60.64453125 C-4.76283914 62.12338054 -2.38468294 63.8620084 0 66 C-0.33 67.65 -0.66 69.3 -1 71 C-7.45388592 70.85332077 -11.67193958 68.03297436 -17.03515625 64.59375 C-19.92334211 62.83394512 -19.92334211 62.83394512 -23.20703125 62.4765625 C-26 62 -26 62 -27.4765625 60.6171875 C-27.85554688 60.04226562 -28.23453125 59.46734375 -28.625 58.875 C-32.57114988 53.85357647 -38.01037182 50.17591961 -44 48 C-47.11023432 48.71902778 -47.11023432 48.71902778 -50 50 C-54.69937745 50.67357743 -58.09583926 50.45208037 -62.375 48.3125 C-65.79351181 45.30095388 -67.68960411 43.28773267 -68.31640625 38.66796875 C-68.58213652 32.95048191 -67.96847152 29.39749547 -64 25 C-60.25230258 21.78768793 -56.85755707 21.55239829 -52.09375 21.6953125 C-49.40257009 22.08693943 -47.87204383 23.04656296 -46 25 C-45.67 24.34 -45.34 23.68 -45 23 C-42.90409499 21.8812 -40.77188332 20.8300575 -38.625 19.8125 C-33.15240185 17.15840436 -28.03329658 14.23670832 -22.93359375 10.91015625 C-19.35776069 8.58181755 -15.75586675 6.30386282 -12.125 4.0625 C-11.49408447 3.66047363 -10.86316895 3.25844727 -10.21313477 2.84423828 C-6.67384769 0.67543945 -4.17953656 -0.51648265 0 0 Z " fill="#F1F1D0" transform="translate(91,23)"/>
<path d="M0 0 C1.65 0 3.3 0 5 0 C5.029729 1.96791504 5.029729 1.96791504 5.06005859 3.97558594 C5.1361375 8.84361955 5.22485164 13.71135516 5.31738281 18.57910156 C5.35566306 20.68581254 5.3905176 22.79258867 5.421875 24.89941406 C5.46754598 27.92797121 5.52553745 30.95608022 5.5859375 33.984375 C5.59748871 34.92617615 5.60903992 35.86797729 5.62094116 36.83831787 C5.64081085 37.71892883 5.66068054 38.59953979 5.68115234 39.50683594 C5.69447601 40.27960876 5.70779968 41.05238159 5.7215271 41.84857178 C6.04129567 44.31904241 6.67108025 45.89652833 8 48 C9.98075027 49.36176581 11.98079663 50.69593116 14 52 C16.31357188 55.47035782 16.48844098 57.90752784 17 62 C17.33 62.99 17.66 63.98 18 65 C16.14480056 70.12908082 13.81609457 72.49933551 9 75 C3.35765002 76.53882272 0.08597277 75.82554043 -5 73 C-8.3527994 70.30318309 -9.7816886 68.89003879 -10.8125 64.6875 C-10.9053125 63.3571875 -10.9053125 63.3571875 -11 62 C-12.1446875 61.814375 -12.1446875 61.814375 -13.3125 61.625 C-16 61 -16 61 -19 59 C-18.67 58.67 -18.34 58.34 -18 58 C-18.92296875 57.48953125 -19.8459375 56.9790625 -20.796875 56.453125 C-28.9031108 51.94650034 -36.94810793 47.33565851 -44.9375 42.625 C-46.26056152 41.85784668 -46.26056152 41.85784668 -47.61035156 41.07519531 C-48.8377002 40.34574707 -48.8377002 40.34574707 -50.08984375 39.6015625 C-51.18607056 38.95695068 -51.18607056 38.95695068 -52.30444336 38.29931641 C-54 37 -54 37 -55 34 C-49.46953131 34.45969369 -45.60594282 36.00015638 -40.875 38.9375 C-37.00999742 41.28081501 -33.26007312 43.44262901 -29 45 C-25.02985092 46.49200764 -21.43192247 48.32900991 -17.75 50.4375 C-16.69296875 51.03433594 -15.6359375 51.63117188 -14.546875 52.24609375 C-12 54 -12 54 -11 57 C-8.74644234 56.16552003 -8.74644234 56.16552003 -8.1875 53.625 C-6.70618261 50.35050893 -5.1983925 49.51923644 -2 48 C-1.34 48 -0.68 48 0 48 C0 32.16 0 16.32 0 0 Z " fill="#DED3A9" transform="translate(103,116)"/>
<path d="M0 0 C3.72209925 0.58075308 6.49269162 1.61994281 9.75 3.5 C10.52859375 3.9434375 11.3071875 4.386875 12.109375 4.84375 C14 6 14 6 15 7 C16.37490142 7.02655389 17.74993896 7.04618572 19.125 7.0625 C22.0703889 7.35426022 23.55033498 7.59311285 25.765625 9.59765625 C26.86767632 10.98591993 27.95967719 12.38220488 29.04296875 13.78515625 C32.57325828 17.78051386 37.15095633 20.80939068 42 23 C44.08589275 22.80926172 44.08589275 22.80926172 46 22 C52.47067036 20.66380038 58.11259688 20.67233736 64 24 C67.14861269 28.00732524 67.47643508 31.93841849 67.28515625 36.88671875 C66.73432588 40.96889996 64.97625358 43.11527019 62 45.8125 C56.54533535 47.97163809 50.54151752 47.97334714 45.0625 45.875 C42.30281711 43.36619738 40.63179749 41.38911786 39 38 C38.96976786 34.91632151 39.38327872 32.01657146 40 29 C39.26136719 28.8865625 38.52273437 28.773125 37.76171875 28.65625 C34.94432565 27.98677045 33.22686111 27.05823681 30.8125 25.5 C25.96287008 22.66696703 21.54928787 22.12743667 16 22 C15.68675781 20.62908203 15.68675781 20.62908203 15.3671875 19.23046875 C13.64509434 15.16140862 11.99026668 14.33963864 8.125 12.3125 C2.18012212 9.13556895 2.18012212 9.13556895 -0.2109375 7.3359375 C-2.41529051 5.68989224 -4.30411749 5.37442813 -7 5 C-5.68 4.01 -4.36 3.02 -3 2 C-1.02 3.32 0.96 4.64 3 6 C2.42655063 3.13275314 2.1385485 2.1385485 0 0 Z " fill="#DCD0A1" transform="translate(123,108)"/>
<path d="M0 0 C3.73080353 3.17073133 6.81405466 7.38847376 7.375 12.25 C6.93008447 16.6991553 5.91680277 19.60406824 3 23 C0.73019907 24.65253173 -1.45124741 25.77463818 -4 27 C-3.67 27.99 -3.34 28.98 -3 30 C-2.89808431 32.49093936 -2.85947052 34.94668208 -2.875 37.4375 C-2.87693359 38.19724121 -2.87886719 38.95698242 -2.88085938 39.73974609 C-2.96593083 51.83170817 -3.51458621 63.91887701 -4 76 C-4.66 76 -5.32 76 -6 76 C-6 60.16 -6 44.32 -6 28 C-7.32 28 -8.64 28 -10 28 C-10 27.34 -10 26.68 -10 26 C-10.721875 25.896875 -11.44375 25.79375 -12.1875 25.6875 C-16.99169947 24.51314013 -19.29855821 23.13135773 -21.9375 18.875 C-23.61941437 14.32902574 -22.75602826 10.41011662 -21 6 C-18.95769089 2.29387922 -16.63498975 0.29307219 -12.75 -1.5 C-8.07556349 -2.1232582 -4.35169177 -1.88600525 0 0 Z " fill="#F3F0CB" transform="translate(114,6)"/>
<path d="M0 0 C2.64 0 5.28 0 8 0 C9.05073417 4.12651966 9.79938467 7.5020761 7.73046875 11.37890625 C6.23024836 13.34289501 4.692296 15.19978947 3 17 C9.56594257 16.47604732 9.56594257 16.47604732 15 13 C15.99 13 16.98 13 18 13 C18.33 12.34 18.66 11.68 19 11 C20.41152344 11.74056641 20.41152344 11.74056641 21.8515625 12.49609375 C23.1091536 13.14365932 24.36697864 13.79077071 25.625 14.4375 C26.24246094 14.76298828 26.85992187 15.08847656 27.49609375 15.42382812 C30.47886523 16.94661146 33.00295176 18.00046479 36.32421875 18.5234375 C37.20722656 18.68070313 38.09023437 18.83796875 39 19 C40.15372917 20.68114822 41.30099146 22.36790337 42.38671875 24.09375 C45.09153769 27.28975882 48.70246531 28.78604191 52.39453125 30.64453125 C55.23716086 32.12338054 57.61531706 33.8620084 60 36 C59.67 37.65 59.34 39.3 59 41 C52.54611408 40.85332077 48.32806042 38.03297436 42.96484375 34.59375 C40.07665789 32.83394512 40.07665789 32.83394512 36.79296875 32.4765625 C34 32 34 32 32.5234375 30.6171875 C31.95496094 29.75480469 31.95496094 29.75480469 31.375 28.875 C27.42885012 23.85357647 21.98962818 20.17591961 16 18 C12.88976568 18.71902778 12.88976568 18.71902778 10 20 C5.30062255 20.67357743 1.90416074 20.45208037 -2.375 18.3125 C-5.60073827 15.47077819 -7.80416109 13.33701094 -8.17578125 8.90234375 C-8.1861955 6.93405107 -8.09995495 4.96578064 -8 3 C-7.34 3.66 -6.68 4.32 -6 5 C-2.37206002 3.13433512 -2.37206002 3.13433512 0 0 Z " fill="#E4E1CA" transform="translate(31,53)"/>
<path d="M0 0 C1.6875 1.515625 1.6875 1.515625 3 3 C2.24074219 3.01417969 1.48148438 3.02835937 0.69921875 3.04296875 C-5.34430984 3.10717172 -5.34430984 3.10717172 -10.1875 6.1875 C-11.33711113 10.16692315 -11.56977178 13.29068467 -10.25 17.25 C-8.63374549 19.51275631 -7.68090941 20.20297288 -5 21 C-0.8195491 20.70663502 1.48886112 20.34075925 5 18 C5.79798218 15.58392583 5.79798218 15.58392583 6.1875 12.875 C6.34605469 11.96492188 6.50460938 11.05484375 6.66796875 10.1171875 C6.83232422 9.06917969 6.83232422 9.06917969 7 8 C7.99 8 8.98 8 10 8 C11.68798827 6.56249809 11.68798827 6.56249809 13 5 C13.05429959 6.74965358 13.09292823 8.49979787 13.125 10.25 C13.14820312 11.22453125 13.17140625 12.1990625 13.1953125 13.203125 C12.99862781 16.0196498 12.44568916 17.60949036 11 20 C11.66 20 12.32 20 13 20 C13.33 19.34 13.66 18.68 14 18 C14 18.66 14 19.32 14 20 C14.66 20.33 15.32 20.66 16 21 C16.625 24.0625 16.625 24.0625 17 27 C16.236875 26.67 15.47375 26.34 14.6875 26 C12.00930865 24.82563314 12.00930865 24.82563314 9 25 C8.34 25 7.68 25 7 25 C6.67 25.99 6.34 26.98 6 28 C3.9375 29.1875 3.9375 29.1875 2 30 C2.01047363 31.24612061 2.02094727 32.49224121 2.03173828 33.77612305 C2.06798744 38.40727862 2.09091844 43.0384217 2.10986328 47.66967773 C2.11990963 49.67262889 2.13354909 51.67556542 2.15087891 53.6784668 C2.17518713 56.56042088 2.18649687 59.44218072 2.1953125 62.32421875 C2.20563507 63.21711105 2.21595764 64.11000336 2.22659302 65.029953 C2.22739134 69.4717257 2.10378748 72.96349427 0 77 C-0.33 77 -0.66 77 -1 77 C-1 61.16 -1 45.32 -1 29 C-3.31 29 -5.62 29 -8 29 C-10.87109375 28.125 -10.87109375 28.125 -13.4375 27 C-14.30246094 26.62875 -15.16742188 26.2575 -16.05859375 25.875 C-16.69925781 25.58625 -17.33992188 25.2975 -18 25 C-17.67 24.34 -17.34 23.68 -17 23 C-15.35 23 -13.7 23 -12 23 C-12.495 21.2675 -12.495 21.2675 -13 19.5 C-15.41733669 9.51304697 -15.41733669 9.51304697 -12.984375 5.19921875 C-9.21174569 0.43797874 -5.9150542 -0.49292118 0 0 Z " fill="#EAE2B8" transform="translate(109,87)"/>
<path d="M0 0 C3.37589576 3.01675791 5.19538187 5.57883512 6 10 C6 14.38622219 5.39249611 16.37000591 3 20 C2.484375 20.78375 1.96875 21.5675 1.4375 22.375 C-2.47650488 24.98433659 -6.44619589 24.73805577 -11 24 C-14.50252011 21.95686327 -16.77361702 19.90212767 -18 16 C-18.51417338 10.5497622 -17.5921305 6.81395665 -15 2 C-10.28225178 -2.42288895 -5.83050499 -2.46631497 0 0 Z " fill="#E2D4A8" transform="translate(87,46)"/>
<path d="M0 0 C3.19230926 2.64728085 4.18295512 4.96014315 4.875 8.9375 C5.15469304 12.74562833 4.79957462 15.55733552 3 19 C-0.37440464 22.12749698 -3.04700111 23.26440588 -7.5625 23.4375 C-11.4308723 23.24864007 -13.97842676 22.56375911 -17 20 C-19.73359864 16.48537318 -19.40787708 12.25721702 -19 8 C-17.90350227 3.97950831 -16.1705807 1.69018968 -13 -1 C-8.44337691 -2.51887436 -4.50180558 -1.47600183 0 0 Z " fill="#E2D29D" transform="translate(162,90)"/>
<path d="M0 0 C4.05826442 2.66618534 5.66665409 5.96292383 7.125 10.5 C6.93537461 15.80951088 4.7070087 18.56141615 1.6875 22.875 C-1.15264118 24.76842746 -3.63112766 24.88580094 -7 25 C-11.68336013 23.34704936 -14.32038314 21.16829289 -17 17 C-18.78131789 12.72483706 -17.42789174 9.30344684 -16.08203125 5.0859375 C-12.79396692 -1.2527858 -6.33994913 -1.27348689 0 0 Z " fill="#E7DAB0" transform="translate(137,46)"/>
<path d="M0 0 C2.87260572 2.3656753 3.91992483 4.44183628 4.49609375 8.1171875 C4.61070564 12.4454717 4.68689261 15.73976918 1.9375 19.25 C-1.97825009 22.73066674 -4.05982542 23.78300317 -9.3125 23.6875 C-13.44748901 22.599345 -16.587332 21.44422006 -18.875 17.75 C-19.94598172 12.37874055 -19.53651356 8.0966526 -17.125 3.1875 C-12.33317215 -2.00364683 -6.47332518 -2.81448921 0 0 Z " fill="#E3D3A4" transform="translate(88.875,131.25)"/>
<path d="M0 0 C3.98598773 2.14630108 6.34214945 3.78693025 8 8 C8.71997278 13.07329659 8.5246969 16.9686992 6.1875 21.5625 C3.40863058 24.6589545 1.78301787 24.92613039 -2.3125 25.3125 C-7.47952631 24.87461641 -10.16600497 22.71172869 -13.875 19.25 C-15.56818595 15.86362811 -15.50827279 12.66379971 -15 9 C-13.65496686 5.03962464 -12.6763797 3.4509198 -9.1875 1.125 C-5.72788251 -0.09604147 -3.63006892 -0.52938505 0 0 Z " fill="#DFD09F" transform="translate(60,88)"/>
<path d="M0 0 C3.21607037 2.72666836 5.73349256 4.88316947 6.2734375 9.171875 C6.58178724 16.99921457 6.58178724 16.99921457 3.9375 20.5625 C0.38420433 23.51097939 -1.39948706 24.07931919 -6 24 C-11.09278668 22.44626847 -14.42217136 20.74320469 -17 16 C-17.84575616 11.28294758 -17.42563309 7.9003777 -15.375 3.5625 C-10.8694224 -1.29878109 -6.25953135 -1.70714491 0 0 Z " fill="#E6DBAC" transform="translate(137,131)"/>
<path d="M0 0 C4.875 0.875 4.875 0.875 6 2 C6.10581006 5.07160376 6.1400141 8.11550833 6.125 11.1875 C6.12306641 12.13898926 6.12113281 13.09047852 6.11914062 14.07080078 C6.04299162 27.38630089 5.50787613 40.69526628 5 54 C2.525 54.495 2.525 54.495 0 55 C-2.00793764 51.98809354 -2.27528328 51.17775201 -2.44921875 47.76171875 C-2.49240234 46.94123047 -2.53558594 46.12074219 -2.58007812 45.27539062 C-2.61552734 44.42138672 -2.65097656 43.56738281 -2.6875 42.6875 C-2.73455078 41.84509766 -2.78160156 41.00269531 -2.83007812 40.13476562 C-3.04871348 35.55059161 -2.76610277 31.5373541 -2 27 C-1.87176875 25.0071278 -1.77902365 23.01170865 -1.71875 21.015625 C-1.68136719 19.91605469 -1.64398438 18.81648438 -1.60546875 17.68359375 C-1.53467675 15.37892093 -1.4643707 13.07423313 -1.39453125 10.76953125 C-1.35714844 9.67511719 -1.31976563 8.58070312 -1.28125 7.453125 C-1.25095703 6.45442383 -1.22066406 5.45572266 -1.18945312 4.42675781 C-1 2 -1 2 0 0 Z " fill="#E8E2BB" transform="translate(176,73)"/>
<path d="M0 0 C1.1875 2.0625 1.1875 2.0625 2 4 C-4.57657207 8.87991343 -11.4366442 13.12349011 -18.52026367 17.21166992 C-21.99995523 19.22249268 -25.44272656 21.25594937 -28.80859375 23.453125 C-29.39278076 23.83090088 -29.97696777 24.20867676 -30.57885742 24.59790039 C-32.14808906 25.62105317 -33.70723879 26.65962173 -35.265625 27.69921875 C-38.40915206 29.19463948 -39.74837276 29.07398637 -43 28 C-43.3125 25.75 -43.3125 25.75 -43 23 C-39.7280415 20.0535802 -36.15995299 17.76759479 -32.39453125 15.50390625 C-31.32783203 14.86259766 -30.26113281 14.22128906 -29.16210938 13.56054688 C-28.05673828 12.90119141 -26.95136719 12.24183594 -25.8125 11.5625 C-24.72646484 10.90701172 -23.64042969 10.25152344 -22.52148438 9.57617188 C-4.19432587 -1.39810862 -4.19432587 -1.39810862 0 0 Z " fill="#6B6967" transform="translate(163,149)"/>
<path d="M0 0 C5.44288368 -0.84810219 8.95531986 2.10910596 13.3125 4.9375 C14.91378698 5.94911609 16.5166872 6.95818256 18.12109375 7.96484375 C18.93046387 8.4738623 19.73983398 8.98288086 20.57373047 9.50732422 C24.92361603 12.18343615 29.39346629 14.64138987 33.87231445 17.09350586 C37.09565395 18.87162433 40.12805426 20.69089789 43 23 C42.505 25.475 42.505 25.475 42 28 C39.11463379 28.84683391 37.52531556 29.20521177 34.68261719 28.09472656 C33.89532227 27.61487305 33.10802734 27.13501953 32.296875 26.640625 C31.40629395 26.10655029 30.51571289 25.57247559 29.59814453 25.0222168 C28.65825684 24.43738525 27.71836914 23.85255371 26.75 23.25 C25.78304199 22.66323486 24.81608398 22.07646973 23.81982422 21.47192383 C15.10427364 16.15212609 6.51457178 10.63497522 -2 5 C-1.34 3.35 -0.68 1.7 0 0 Z " fill="#F3F4D5" transform="translate(121,23)"/>
<path d="M0 0 C0.66 0.99 1.32 1.98 2 3 C1.34 3.99 0.68 4.98 0 6 C-0.2774583 11.45667989 0.22857672 16.60003703 1 22 C0.195625 21.87625 -0.60875 21.7525 -1.4375 21.625 C-6.68401826 22.17726508 -9.81396476 24.94712716 -14 28 C-14.91265625 28.61101562 -15.8253125 29.22203125 -16.765625 29.8515625 C-17.66796875 30.45742187 -18.5703125 31.06328125 -19.5 31.6875 C-20.3353125 32.24824219 -21.170625 32.80898437 -22.03125 33.38671875 C-24.2735088 34.93160345 -24.2735088 34.93160345 -25 38 C-27.97 38.495 -27.97 38.495 -31 39 C-31.28875 38.38125 -31.5775 37.7625 -31.875 37.125 C-32.93720042 34.86674235 -32.93720042 34.86674235 -35 33 C-32.375 28.125 -32.375 28.125 -29 27 C-27.93652344 26.89816406 -26.87304688 26.79632813 -25.77734375 26.69140625 C-21.35011609 25.88104503 -18.35325613 24.26009026 -14.5625 21.9375 C-13.60827148 21.37192383 -13.60827148 21.37192383 -12.63476562 20.79492188 C-11.08367098 19.87359498 -9.54092657 18.93823407 -8 18 C-8.33 14.04 -8.66 10.08 -9 6 C-8.01 6 -7.02 6 -6 6 C-5.9071875 5.071875 -5.9071875 5.071875 -5.8125 4.125 C-5 2 -5 2 -2.4375 0.75 C-1.633125 0.5025 -0.82875 0.255 0 0 Z " fill="#ECE4BA" transform="translate(96,88)"/>
<path d="M0 0 C3.07114084 1.7844178 4.63404145 3.73145632 6 7 C6.46460617 11.05520386 6.36001277 14.93985603 6 19 C5.34 19 4.68 19 4 19 C4 18.34 4 17.68 4 17 C3.34 17 2.68 17 2 17 C1.6596875 15.576875 1.6596875 15.576875 1.3125 14.125 C0.31192169 10.87529201 0.31192169 10.87529201 -2.3125 9.625 C-4.98600909 9.0032537 -7.26879783 8.95425122 -10 9 C-10.06058594 9.69867188 -10.12117187 10.39734375 -10.18359375 11.1171875 C-10.26738281 12.02726562 -10.35117188 12.93734375 -10.4375 13.875 C-10.51871094 14.77992187 -10.59992188 15.68484375 -10.68359375 16.6171875 C-11 19 -11 19 -12 21 C-14.86724686 20.42655063 -15.8614515 20.1385485 -18 18 C-18.33 18 -18.66 18 -19 18 C-19 14.37 -19 10.74 -19 7 C-18.01 6.67 -17.02 6.34 -16 6 C-16 5.01 -16 4.02 -16 3 C-10.85335352 -0.25051356 -5.94380542 -1.28878629 0 0 Z " fill="#F8F7D7" transform="translate(181,46)"/>
<path d="M0 0 C3.72209925 0.58075308 6.49269162 1.61994281 9.75 3.5 C10.52859375 3.9434375 11.3071875 4.386875 12.109375 4.84375 C14 6 14 6 15 7 C16.51469448 7.23192865 18.03754562 7.41215238 19.5625 7.5625 C20.38878906 7.64628906 21.21507812 7.73007813 22.06640625 7.81640625 C22.70449219 7.87699219 23.34257812 7.93757813 24 8 C24.22236328 8.928125 24.22236328 8.928125 24.44921875 9.875 C24.95256645 12.00931516 24.95256645 12.00931516 25.8125 14 C26 16 26 16 24.4375 18.125 C21.71353136 20.22036049 19.29770992 21.10062457 16 22 C15.68675781 20.62908203 15.68675781 20.62908203 15.3671875 19.23046875 C13.64509434 15.16140862 11.99026668 14.33963864 8.125 12.3125 C2.18012212 9.13556895 2.18012212 9.13556895 -0.2109375 7.3359375 C-2.41529051 5.68989224 -4.30411749 5.37442813 -7 5 C-5.68 4.01 -4.36 3.02 -3 2 C-1.02 3.32 0.96 4.64 3 6 C2.42655063 3.13275314 2.1385485 2.1385485 0 0 Z " fill="#DBD6B8" transform="translate(123,108)"/>
<path d="M0 0 C1.32 0 2.64 0 4 0 C4 16.5 4 33 4 50 C1.525 50.495 1.525 50.495 -1 51 C-1.02526787 43.89755001 -1.04283201 36.79511152 -1.05493164 29.69262695 C-1.05997349 27.27432828 -1.06680678 24.85603267 -1.07543945 22.43774414 C-1.08751157 18.97020717 -1.09322963 15.50271034 -1.09765625 12.03515625 C-1.10281754 10.94662857 -1.10797882 9.85810089 -1.11329651 8.73658752 C-1.11337204 7.73562546 -1.11344757 6.73466339 -1.11352539 5.70336914 C-1.115746 4.81734512 -1.11796661 3.93132111 -1.12025452 3.01844788 C-1 1 -1 1 0 0 Z " fill="#E2D6AB" transform="translate(32,75)"/>
<path d="M0 0 C2.64 0 5.28 0 8 0 C9.05073417 4.12651966 9.79938467 7.5020761 7.73046875 11.37890625 C6.23024836 13.34289501 4.692296 15.19978947 3 17 C9.28908482 16.47519999 9.28908482 16.47519999 15 14 C15 16 15 16 13.0625 18.125 C8.94004048 20.64895481 5.721557 20.82439884 1 20 C-3.38410756 17.80794622 -6.13092657 15.56884617 -8 11 C-8.22805455 8.27854899 -8.13934685 5.740488 -8 3 C-7.34 3.66 -6.68 4.32 -6 5 C-2.37206002 3.13433512 -2.37206002 3.13433512 0 0 Z " fill="#D0C193" transform="translate(31,53)"/>
<path d="M0 0 C0.99 0.33 1.98 0.66 3 1 C3.40509197 5.96237667 2.9520946 9.25977435 0.35546875 13.421875 C-1.99740691 16.16124609 -4.76826686 17.44628214 -8 19 C-7.67 19.99 -7.34 20.98 -7 22 C-6.89808431 24.49093936 -6.85947052 26.94668208 -6.875 29.4375 C-6.87693359 30.19724121 -6.87886719 30.95698242 -6.88085938 31.73974609 C-6.96593083 43.83170817 -7.51458621 55.91887701 -8 68 C-8.66 68 -9.32 68 -10 68 C-10 52.16 -10 36.32 -10 20 C-11.32 20 -12.64 20 -14 20 C-14 19.34 -14 18.68 -14 18 C-14.721875 17.896875 -15.44375 17.79375 -16.1875 17.6875 C-19.39022322 16.9046121 -21.42539682 16.07398589 -24 14 C-24.8125 10.8125 -24.8125 10.8125 -25 8 C-24.278125 8.78375 -23.55625 9.5675 -22.8125 10.375 C-19.05272523 13.88412312 -16.63610247 14.82151609 -11.5625 15.375 C-7.05233456 14.90024574 -5.22680549 14.22680549 -2 11 C-0.90820068 7.36937547 -0.37668829 3.76688292 0 0 Z " fill="#54524E" transform="translate(118,14)"/>
<path d="M0 0 C0.763125 0.66 1.52625 1.32 2.3125 2 C6.80252758 5.00404226 11.80415505 4.70235692 17 4 C18.68991979 3.0398183 20.36209288 2.04644066 22 1 C28.33469523 1 32.7548889 3.81909391 38 7 C38.92296875 7.5259375 39.8459375 8.051875 40.796875 8.59375 C46.11767871 11.65997587 46.11767871 11.65997587 48 13 C48 13.66 48 14.32 48 15 C42.59224162 13.06714886 37.80985429 10.09386244 32.8828125 7.18945312 C29.26904888 5.10642523 26.22448808 3.47030434 22 3 C24.64696845 5.81971956 27.1499069 7.85930677 30.52734375 9.734375 C31.39657471 10.22260742 32.26580566 10.71083984 33.16137695 11.21386719 C34.53555786 11.97425293 34.53555786 11.97425293 35.9375 12.75 C37.82647252 13.81080711 39.7144944 14.8733088 41.6015625 15.9375 C42.52098633 16.45570313 43.44041016 16.97390625 44.38769531 17.5078125 C49.67900238 20.53028622 54.84653322 23.74920463 60 27 C57 28 57 28 53.8046875 26.48046875 C52.48873082 25.72662882 51.17922576 24.96145852 49.875 24.1875 C49.17721436 23.7845874 48.47942871 23.3816748 47.76049805 22.96655273 C45.49958932 21.65659928 43.24868196 20.33082343 41 19 C40.23026855 18.54463867 39.46053711 18.08927734 38.66748047 17.62011719 C37.89936035 17.16540039 37.13124023 16.71068359 36.33984375 16.2421875 C35.20409912 15.57086792 35.20409912 15.57086792 34.04541016 14.88598633 C32.58534759 14.02058078 31.12786791 13.15079874 29.67333984 12.27612305 C24.54473269 9.19918558 24.54473269 9.19918558 19 7 C18.01 7.495 18.01 7.495 17 8 C6.99434377 9.04849691 6.99434377 9.04849691 2.875 6.8828125 C1.25 5.5 1.25 5.5 -1 3 C-0.67 2.01 -0.34 1.02 0 0 Z " fill="#B7B4AB" transform="translate(26,147)"/>
<path d="M0 0 C3.39302462 2.34901705 4.93588123 5.03373913 6 9 C5.8125 11.6875 5.8125 11.6875 5 14 C4.01 14.66 3.02 15.32 2 16 C1.505 14.865625 1.01 13.73125 0.5 12.5625 C-0.82541249 10.1805993 -1.430125 9.1914084 -4.046875 8.3125 C-6.50160806 7.99817869 -6.50160806 7.99817869 -10 8 C-10.33 9.65 -10.66 11.3 -11 13 C-11.33 12.34 -11.66 11.68 -12 11 C-14.475 12.485 -14.475 12.485 -17 14 C-17.75 11.875 -17.75 11.875 -18 9 C-13.95274655 1.21682029 -8.54715615 -1.44053193 0 0 Z " fill="#F2F1D3" transform="translate(41,45)"/>
<path d="M0 0 C1.75390625 1.109375 1.75390625 1.109375 3.12890625 3.671875 C3.95316736 8.20531111 3.0167878 11.73786193 1.75390625 16.109375 C1.09390625 16.109375 0.43390625 16.109375 -0.24609375 16.109375 C-0.24609375 15.449375 -0.24609375 14.789375 -0.24609375 14.109375 C-0.90609375 14.109375 -1.56609375 14.109375 -2.24609375 14.109375 C-2.24609375 13.449375 -2.24609375 12.789375 -2.24609375 12.109375 C-2.90609375 12.109375 -3.56609375 12.109375 -4.24609375 12.109375 C-4.63796875 11.325625 -5.02984375 10.541875 -5.43359375 9.734375 C-7.86945824 6.20657126 -10.2037306 6.15739508 -14.24609375 5.109375 C-14.57609375 4.119375 -14.90609375 3.129375 -15.24609375 2.109375 C-16.56609375 3.099375 -17.88609375 4.089375 -19.24609375 5.109375 C-19.57609375 3.789375 -19.90609375 2.469375 -20.24609375 1.109375 C-13.7203359 -2.51604603 -7.02238939 -2.78453005 0 0 Z " fill="#F7F3CC" transform="translate(185.24609375,130.890625)"/>
<path d="M0 0 C1.1875 1.8125 1.1875 1.8125 2 4 C2.53625 4.5775 3.0725 5.155 3.625 5.75 C5.71544756 9.17073237 5.19818811 12.03623789 5 16 C4.01 16.33 3.02 16.66 2 17 C2 16.34 2 15.68 2 15 C1.01 14.67 0.02 14.34 -1 14 C-1 13.34 -1 12.68 -1 12 C-2.98 11.34 -4.96 10.68 -7 10 C-7 9.34 -7 8.68 -7 8 C-10.78332024 7.63019987 -10.78332024 7.63019987 -12.6875 9.125 C-14.45703053 11.65290076 -14.66336586 13.97029275 -15 17 C-15.33 17 -15.66 17 -16 17 C-16.33506294 11.52730529 -15.6071996 7.84194211 -13 3 C-8.90235402 -0.8415431 -5.39859841 -1.49322935 0 0 Z " fill="#F6F0CE" transform="translate(85,45)"/>
<path d="M0 0 C0.99 0.33 1.98 0.66 3 1 C2.01 1.33 1.02 1.66 0 2 C-0.33 2.99 -0.66 3.98 -1 5 C-3.0625 6.1875 -3.0625 6.1875 -5 7 C-4.98952637 8.24612061 -4.97905273 9.49224121 -4.96826172 10.77612305 C-4.93201256 15.40727862 -4.90908156 20.0384217 -4.89013672 24.66967773 C-4.88009037 26.67262889 -4.86645091 28.67556542 -4.84912109 30.6784668 C-4.82481287 33.56042088 -4.81350313 36.44218072 -4.8046875 39.32421875 C-4.79436493 40.21711105 -4.78404236 41.11000336 -4.77340698 42.029953 C-4.77260866 46.4717257 -4.89621252 49.96349427 -7 54 C-7.33 54 -7.66 54 -8 54 C-8 38.16 -8 22.32 -8 6 C-10.31 6 -12.62 6 -15 6 C-15.99 5.67 -16.98 5.34 -18 5 C-18 4.34 -18 3.68 -18 3 C-17.20335938 3.03480469 -16.40671875 3.06960937 -15.5859375 3.10546875 C-9.46955409 3.26172672 -5.39205237 3.17992832 0 0 Z " fill="#73706C" transform="translate(116,110)"/>
<path d="M0 0 C1.65 0 3.3 0 5 0 C5.07408977 6.06890175 5.12857359 12.13754097 5.16479492 18.20678711 C5.17989271 20.27193791 5.20037274 22.3370566 5.22631836 24.40209961 C5.26265795 27.36840739 5.2797163 30.33429171 5.29296875 33.30078125 C5.30845261 34.2258699 5.32393646 35.15095856 5.33988953 36.1040802 C5.34011612 36.96474594 5.34034271 37.82541168 5.34057617 38.7121582 C5.34723801 39.46938675 5.35389984 40.2266153 5.36076355 41.00679016 C4.90469178 43.52657559 3.97201056 44.42362156 2 46 C1.67 46 1.34 46 1 46 C0.67 30.82 0.34 15.64 0 0 Z " fill="#FBF7C9" transform="translate(103,116)"/>
<path d="M0 0 C2.475 2.475 2.475 2.475 5 5 C4.443125 5.226875 3.88625 5.45375 3.3125 5.6875 C0.82652288 6.96295 0.82652288 6.96295 -1.375 9.375 C-4 12 -4 12 -7.125 14 C-10.12910945 15.77288413 -10.12910945 15.77288413 -11.4375 18.625 C-13.69861295 22.06189169 -16.06889386 22.18666769 -20 23 C-20.80695313 23.13019531 -21.61390625 23.26039062 -22.4453125 23.39453125 C-25.16804178 24.03982642 -27.10049332 25.01384903 -29.5 26.4375 C-32.60357294 28.23021492 -35.61032628 29.79721255 -39 31 C-38.773125 32.03125 -38.54625 33.0625 -38.3125 34.125 C-37.96098535 38.4837817 -38.76055351 40.32730775 -41 44 C-41.66 44 -42.32 44 -43 44 C-43.21726328 38.84678648 -43.32428032 33.70066912 -41 29 C-35.89042665 23.96368777 -28.00789356 20.40443398 -21 19 C-20.175 19.103125 -19.35 19.20625 -18.5 19.3125 C-17.675 19.209375 -16.85 19.10625 -16 19 C-15.11861743 17.61012748 -14.24810651 16.21185257 -13.44140625 14.77734375 C-10.82058202 11.54570412 -6.97986711 9.86064342 -3.36328125 7.90625 C-0.69536862 6.14206541 -0.69536862 6.14206541 -0.16796875 2.78125 C-0.11253906 1.8634375 -0.05710938 0.945625 0 0 Z " fill="#716F69" transform="translate(163,63)"/>
<path d="M0 0 C2.7505834 1.08058634 3.97483287 1.96673754 5.78515625 4.359375 C8.85754795 8.02240285 12.52919925 9.89820301 16.63671875 12.25390625 C19 14 19 14 19.89453125 16.15234375 C19.94673828 17.06693359 19.94673828 17.06693359 20 18 C19 19 19 19 16 19.375 C11.68214406 19.34851009 8.88496877 17.37004525 5.28515625 15.171875 C1.88643406 13.42894054 -1.22537939 13.3370197 -5 13 C-5.33 12.34 -5.66 11.68 -6 11 C-2.535 10.505 -2.535 10.505 1 10 C2.0089034 5.76353233 2.0089034 5.76353233 1.0625 1.625 C0.711875 1.08875 0.36125 0.5525 0 0 Z " fill="#D9D2B4" transform="translate(146,117)"/>
<path d="M0 0 C3.0491961 0.63038315 5.37786567 1.64341312 8.0546875 3.22265625 C9.2147229 3.90134766 9.2147229 3.90134766 10.39819336 4.59375 C11.21553955 5.0784375 12.03288574 5.563125 12.875 6.0625 C14.58177658 7.06423612 16.28881013 8.06553453 17.99609375 9.06640625 C18.84026855 9.56285645 19.68444336 10.05930664 20.55419922 10.57080078 C25.07790748 13.21422144 29.6485349 15.77486111 34.21484375 18.34375 C36.61586567 19.77156668 38.81113539 21.27000581 41 23 C40.505 25.475 40.505 25.475 40 28 C36.60829284 29.13056905 35.26307444 29.11350928 31.921875 27.671875 C30.87515625 27.03765625 29.8284375 26.4034375 28.75 25.75 C27.69296875 25.12609375 26.6359375 24.5021875 25.546875 23.859375 C23 22 23 22 22 19 C23.65 19.66 25.3 20.32 27 21 C27.33 19.68 27.66 18.36 28 17 C27.28360352 16.73123047 26.56720703 16.46246094 25.82910156 16.18554688 C20.87481823 14.10943367 16.36417237 11.23410471 11.75 8.5 C10.73164063 7.90574219 9.71328125 7.31148437 8.6640625 6.69921875 C7.69726562 6.12816406 6.73046875 5.55710937 5.734375 4.96875 C4.84975586 4.44732422 3.96513672 3.92589844 3.05371094 3.38867188 C1 2 1 2 0 0 Z " fill="#D0D1C3" transform="translate(123,23)"/>
<path d="M0 0 C5.4091316 2.85765443 5.4091316 2.85765443 6.9375 5.8125 C7.02710017 8.94850579 6.53374393 11.91614616 6 15 C5.67 13.68 5.34 12.36 5 11 C2.03 11 -0.94 11 -4 11 C-4.33 11.66 -4.66 12.32 -5 13 C-7 11.1875 -7 11.1875 -9 9 C-9 8.01 -9 7.02 -9 6 C-9.66 6 -10.32 6 -11 6 C-11.33 5.01 -11.66 4.02 -12 3 C-7.80590318 0.60337325 -4.8458087 -0.70668044 0 0 Z " fill="#F3E9C0" transform="translate(60,88)"/>
<path d="M0 0 C1.4375 1.75 1.4375 1.75 2 4 C2.226875 4.886875 2.45375 5.77375 2.6875 6.6875 C2.790625 7.450625 2.89375 8.21375 3 9 C1.12274106 10.87725894 -1.92850307 10.21702304 -4.4375 10.25 C-5.61183594 10.27578125 -6.78617188 10.3015625 -7.99609375 10.328125 C-8.98738281 10.21984375 -9.97867188 10.1115625 -11 10 C-11.66 9.01 -12.32 8.02 -13 7 C-13.66 8.32 -14.32 9.64 -15 11 C-15.66 11 -16.32 11 -17 11 C-15.88744102 6.17891107 -14.94630932 3.1092134 -11 0 C-7.11080442 -1.29639853 -3.93996353 -1.10011969 0 0 Z " fill="#F5EBBF" transform="translate(160,89)"/>
<path d="M0 0 C5.71863118 4.01520913 5.71863118 4.01520913 7 8.5 C7 12.14579025 6.97759028 13.95121498 5 17 C-0.21030353 20.85562461 -3.59668868 21.44935518 -10 21 C-8.33962264 16.2743106 -8.33962264 16.2743106 -6.375 14.6875 C-4.03474898 11.81537374 -4.8231772 8.59539698 -5 5 C-2.9754262 6.93254772 -1.57894208 8.63158688 0 11 C2.30745935 8.24689917 2.30745935 8.24689917 1.6875 5.5 C1.17901328 3.65095738 0.60642538 1.81927613 0 0 Z " fill="#EAE4B7" transform="translate(44,49)"/>
<path d="M0 0 C0.33 0 0.66 0 1 0 C1 16.83 1 33.66 1 51 C-1.475 51.495 -1.475 51.495 -4 52 C-5 51 -5 51 -5.02172852 48.86694336 C-4.97459717 47.95050049 -4.92746582 47.03405762 -4.87890625 46.08984375 C-4.83056641 45.10048828 -4.78222656 44.11113281 -4.73242188 43.09179688 C-4.67634766 42.05087891 -4.62027344 41.00996094 -4.5625 39.9375 C-4.51029297 38.89271484 -4.45808594 37.84792969 -4.40429688 36.77148438 C-4.27416704 34.18071764 -4.13918842 31.59029334 -4 29 C-3.34 29.99 -2.68 30.98 -2 32 C-1.19423531 24.7965625 -0.73236406 17.61608802 -0.4375 10.375 C-0.39431641 9.37082031 -0.35113281 8.36664063 -0.30664062 7.33203125 C-0.20190141 4.88811617 -0.09972744 2.44412383 0 0 Z " fill="#A79F81" transform="translate(180,76)"/>
<path d="M0 0 C0.99 0.33 1.98 0.66 3 1 C-1.13911505 4.90787957 -5.21953784 8.25452139 -10.1875 11.0625 C-13.34769958 12.86004472 -15.61489971 14.41000905 -17.8125 17.3125 C-20 20 -20 20 -22.6875 20.9375 C-25 21 -25 21 -27 20 C-27.47050781 20.3609375 -27.94101562 20.721875 -28.42578125 21.09375 C-29.04839844 21.5578125 -29.67101563 22.021875 -30.3125 22.5 C-31.23482422 23.19609375 -31.23482422 23.19609375 -32.17578125 23.90625 C-34 25 -34 25 -37 25 C-37 24.34 -37 23.68 -37 23 C-35.01310269 21.64721885 -33.01254782 20.31431695 -31 19 C-30.67 18.34 -30.34 17.68 -30 17 C-30.99 16.67 -31.98 16.34 -33 16 C-33 15.34 -33 14.68 -33 14 C-31.35 13.67 -29.7 13.34 -28 13 C-27.34 14.65 -26.68 16.3 -26 18 C-24.02 17.67 -22.04 17.34 -20 17 C-19.9278125 16.40960938 -19.855625 15.81921875 -19.78125 15.2109375 C-18.71161939 12.18388287 -17.16232999 11.37523546 -14.5 9.625 C-13.60152344 9.02945313 -12.70304687 8.43390625 -11.77734375 7.8203125 C-10.40255859 6.91925781 -10.40255859 6.91925781 -9 6 C-8.15566406 5.39929688 -7.31132813 4.79859375 -6.44140625 4.1796875 C-5.26384766 3.34824219 -5.26384766 3.34824219 -4.0625 2.5 C-3.35222656 1.9946875 -2.64195313 1.489375 -1.91015625 0.96875 C-1.27980469 0.6490625 -0.64945313 0.329375 0 0 Z " fill="#B1AA92" transform="translate(91,109)"/>
<path d="M0 0 C0.33 0 0.66 0 1 0 C1.61491335 13.67200967 2.18359241 27.3121658 2 41 C0.68 41 -0.64 41 -2 41 C-2.0493521 35.48243524 -2.08569662 29.96499829 -2.10986328 24.44726562 C-2.11993534 22.56931318 -2.13359362 20.69137647 -2.15087891 18.81347656 C-2.17507453 16.1177991 -2.18647083 13.42232854 -2.1953125 10.7265625 C-2.20563507 9.88380768 -2.21595764 9.04105286 -2.22659302 8.17276001 C-2.22699144 6.11378753 -2.12257588 4.05532065 -2 2 C-1.34 1.34 -0.68 0.68 0 0 Z " fill="#FAFAD4" transform="translate(106,41)"/>
<path d="M0 0 C0.66 0 1.32 0 2 0 C2.495 1.98 2.495 1.98 3 4 C2.36835937 4.40089844 1.73671875 4.80179688 1.0859375 5.21484375 C-0.25597656 6.06755859 -0.25597656 6.06755859 -1.625 6.9375 C-2.63175781 7.576875 -3.63851562 8.21625 -4.67578125 8.875 C-6.90950765 10.30290501 -9.13624002 11.73757819 -11.35546875 13.1875 C-17.35216285 17.09886952 -23.393685 20.92737856 -29.5625 24.5625 C-30.67753906 25.22378906 -31.79257812 25.88507812 -32.94140625 26.56640625 C-35.97943645 27.99036166 -37.70484022 28.33749309 -41 28 C-41.66 26.68 -42.32 25.36 -43 24 C-42.33226562 24.2475 -41.66453125 24.495 -40.9765625 24.75 C-36.69211823 25.10984834 -33.91905347 23.14419866 -30.375 21 C-29.66714355 20.58645264 -28.95928711 20.17290527 -28.22998047 19.74682617 C-23.26282627 16.8236779 -18.3725303 13.78020539 -13.546875 10.62890625 C-10.07279766 8.40698869 -6.49368687 6.37815856 -2.8984375 4.359375 C-0.69454493 3.06234747 -0.69454493 3.06234747 0 0 Z " fill="#75736F" transform="translate(90,24)"/>
<path d="M0 0 C0.51171875 2.1640625 0.51171875 2.1640625 0 5 C-2.46838938 7.22863939 -5.2929166 8.76084965 -8.1875 10.375 C-9.34088867 11.06916016 -9.34088867 11.06916016 -10.51757812 11.77734375 C-16.16385647 15.02455962 -16.16385647 15.02455962 -19.92578125 14.9140625 C-22 14 -22 14 -24 12 C-21.649158 10.556819 -19.29458926 9.12041477 -16.9375 7.6875 C-15.95233398 7.08131836 -15.95233398 7.08131836 -14.94726562 6.46289062 C-4.2808689 0 -4.2808689 0 0 0 Z " fill="#ECE3BA" transform="translate(162,148)"/>
<path d="M0 0 C2.0625 1.75 2.0625 1.75 2.9375 3.875 C2.97875 4.49375 3.02 5.1125 3.0625 5.75 C2.7325 6.08 2.4025 6.41 2.0625 6.75 C2.02169217 8.74958364 2.01995644 10.75045254 2.0625 12.75 C1.0725 13.245 1.0725 13.245 0.0625 13.75 C0.0625 13.09 0.0625 12.43 0.0625 11.75 C-0.8965625 11.5953125 -0.8965625 11.5953125 -1.875 11.4375 C-2.8959375 11.0971875 -2.8959375 11.0971875 -3.9375 10.75 C-4.2675 9.76 -4.5975 8.77 -4.9375 7.75 C-5.5975 7.75 -6.2575 7.75 -6.9375 7.75 C-7.2675 6.76 -7.5975 5.77 -7.9375 4.75 C-7.2775 4.09 -6.6175 3.43 -5.9375 2.75 C-8.76704525 1.49865147 -8.76704525 1.49865147 -11 2.3125 C-11.9590625 2.5290625 -11.9590625 2.5290625 -12.9375 2.75 C-13.5975 2.09 -14.2575 1.43 -14.9375 0.75 C-10.26865142 -2.36256572 -4.9600605 -2.11066404 0 0 Z " fill="#E0D9B9" transform="translate(88.9375,131.25)"/>
<path d="M0 0 C3.77323546 2.7068863 4.83964191 4.24755052 5.8125 8.8125 C5.874375 9.864375 5.93625 10.91625 6 12 C1.545 11.01 1.545 11.01 -3 10 C-3 9.34 -3 8.68 -3 8 C-5.97 7.505 -5.97 7.505 -9 7 C-9 5.02 -9 3.04 -9 1 C-5.86128812 -0.56935594 -3.46144178 -0.35201103 0 0 Z " fill="#FAFADB" transform="translate(135,47)"/>
<path d="M0 0 C1.0828125 0.7425 1.0828125 0.7425 2.1875 1.5 C5.14848659 3.07919285 6.71253029 3.28178312 10 3 C9.35417969 3.226875 8.70835937 3.45375 8.04296875 3.6875 C5.76341954 4.82186964 5.76341954 4.82186964 5.42578125 7.3125 C5.38839844 8.199375 5.35101563 9.08625 5.3125 10 C5.06472492 14.87055016 5.06472492 14.87055016 4 17 C1.13275314 16.42655063 0.1385485 16.1385485 -2 14 C-2.33 14 -2.66 14 -3 14 C-3 10.37 -3 6.74 -3 3 C-2.01 2.67 -1.02 2.34 0 2 C0 1.34 0 0.68 0 0 Z " fill="#EADFB3" transform="translate(165,50)"/>
<path d="M0 0 C0.66 0 1.32 0 2 0 C2.02526739 7.24486551 2.0428318 14.48971974 2.05493164 21.73461914 C2.05997356 24.20142033 2.06680691 26.66821852 2.07543945 29.13500977 C2.08751125 32.67204529 2.09322956 36.20904145 2.09765625 39.74609375 C2.10281754 40.85649521 2.10797882 41.96689667 2.11329651 43.11094666 C2.11337204 44.13192947 2.11344757 45.15291229 2.11352539 46.20483398 C2.115746 47.10862289 2.11796661 48.0124118 2.12025452 48.94358826 C2 51 2 51 1 52 C-0.66617115 52.04063832 -2.33388095 52.042721 -4 52 C-4 51.34 -4 50.68 -4 50 C-2.68 50 -1.36 50 0 50 C0 33.5 0 17 0 0 Z " fill="#838280" transform="translate(36,75)"/>
<path d="M0 0 C0.99 0.33 1.98 0.66 3 1 C3.144375 2.093125 3.28875 3.18625 3.4375 4.3125 C3.88288104 7.93122987 3.88288104 7.93122987 5 11 C3.14480056 16.12908082 0.81609457 18.49933551 -4 21 C-9.66182828 22.54413498 -12.84273089 21.67781281 -18 19 C-18.99 18.34 -19.98 17.68 -21 17 C-20.505 15.515 -20.505 15.515 -20 14 C-19.19755859 14.73476562 -19.19755859 14.73476562 -18.37890625 15.484375 C-15.36448251 17.40489456 -13.48330589 17.33787623 -9.9375 17.25 C-8.89464844 17.23453125 -7.85179688 17.2190625 -6.77734375 17.203125 C-3.91466716 17.10832623 -3.91466716 17.10832623 -1 16 C0.14077657 12.57767028 0.09815117 9.91326783 0.0625 6.3125 C0.05347656 5.13300781 0.04445313 3.95351562 0.03515625 2.73828125 C0.02355469 1.83464844 0.01195313 0.93101562 0 0 Z " fill="#83807C" transform="translate(116,170)"/>
<path d="M0 0 C0.33 0.66 0.66 1.32 1 2 C2.32 2 3.64 2 5 2 C5 12.56 5 23.12 5 34 C4.67 34 4.34 34 4 34 C3.67 26.08 3.34 18.16 3 10 C0.89330541 12.10669459 1.74107511 16.71256289 1.68359375 19.62890625 C1.66281265 20.49313705 1.64203156 21.35736786 1.62062073 22.24778748 C1.55502886 25.01927445 1.49619582 27.79085921 1.4375 30.5625 C1.39432392 32.43685923 1.35070994 34.31120843 1.30664062 36.18554688 C1.19933773 40.79026336 1.09809785 45.39507858 1 50 C0.67 50 0.34 50 0 50 C0 33.5 0 17 0 0 Z " fill="#DAD8BC" transform="translate(103,32)"/>
<path d="M0 0 C0.99 0.33 1.98 0.66 3 1 C2.7734375 3.32421875 2.7734375 3.32421875 2 6 C0.0390625 7.58203125 0.0390625 7.58203125 -2.375 8.8125 C-3.16648438 9.23144531 -3.95796875 9.65039062 -4.7734375 10.08203125 C-7 11 -7 11 -10 11 C-10.66 12.32 -11.32 13.64 -12 15 C-13.32 14.67 -14.64 14.34 -16 14 C-15.64263288 11.28166653 -15.27693694 10.23321006 -13.14453125 8.4375 C-12.37496094 7.963125 -11.60539062 7.48875 -10.8125 7 C-10.00167969 6.49339844 -9.19085938 5.98679688 -8.35546875 5.46484375 C-7.57816406 4.98144531 -6.80085937 4.49804688 -6 4 C-4.87239533 3.1911187 -3.74693672 2.37922471 -2.625 1.5625 C-1.325625 0.7890625 -1.325625 0.7890625 0 0 Z " fill="#EEE4BE" transform="translate(136,161)"/>
<path d="M0 0 C5.94 0.99 5.94 0.99 12 2 C13 8.625 13 8.625 13 12 C10.3125 12.875 10.3125 12.875 7 13 C2.70125021 9.09204564 1.23171581 5.59870822 0 0 Z " fill="#ECE8C0" transform="translate(57,71)"/>
<path d="M0 0 C3.5 0.1875 3.5 0.1875 7 1 C9 4 9 4 8.8125 6.5625 C8 9 8 9 5 11 C2.3125 11.125 2.3125 11.125 0 11 C-1.84651134 7.88401212 -2.38079379 5.61754103 -2 2 C-1.34 1.34 -0.68 0.68 0 0 Z " fill="#A59B79" transform="translate(102,12)"/>
<path d="M0 0 C0.66 0 1.32 0 2 0 C2.36490759 5.12897894 2.56057961 8.89817111 0.1875 13.5625 C-2.59136942 16.6589545 -4.21698213 16.92613039 -8.3125 17.3125 C-13.48835112 16.87386855 -16.39607374 14.60392626 -20 11 C-19.67 10.01 -19.34 9.02 -19 8 C-18.67 8.99 -18.34 9.98 -18 11 C-14.54480293 13.5249517 -11.14588253 13.22210085 -7 13 C-5.66078767 12.69113237 -4.32547038 12.36334166 -3 12 C-2.95101562 11.38511719 -2.90203125 10.77023438 -2.8515625 10.13671875 C-2.77679688 9.32847656 -2.70203125 8.52023438 -2.625 7.6875 C-2.55539063 6.88699219 -2.48578125 6.08648437 -2.4140625 5.26171875 C-2 3 -2 3 0 0 Z " fill="#948C79" transform="translate(66,96)"/>
<path d="M0 0 C4.09789669 0.37943488 6.53958935 0.69305957 10 3 C9.40138258 5.35171131 8.73075648 7.6859378 8 10 C7.01 10.495 7.01 10.495 6 11 C2.16917814 9.40382422 0.33343353 8.50015029 -2 5 C-1.48275862 1.48275862 -1.48275862 1.48275862 0 0 Z " fill="#BCA97C" transform="translate(31,136)"/>
<path d="M0 0 C2.93106007 0.5837541 3.93011719 0.93411049 6.1875 3.0625 C8.4524975 6.73335802 9.2198685 9.69565127 9 14 C7.8125 17.25 7.8125 17.25 6 20 C5.484375 20.78375 4.96875 21.5675 4.4375 22.375 C0.56713833 24.95524112 -3.48204461 24.31039388 -8 24 C-8.33 23.01 -8.66 22.02 -9 21 C-8.09507813 21.06960937 -8.09507813 21.06960937 -7.171875 21.140625 C-1.97699408 21.46834155 -1.97699408 21.46834155 2.5 19.125 C5.25326466 15.22454173 5.79309931 11.69953525 5 7 C3.57433609 4.3430809 1.94698408 2.3363809 0 0 Z " fill="#7B7976" transform="translate(84,46)"/>
<path d="M0 0 C2 2 2 2 2.3125 5.4375 C1.9773321 9.25841401 1.71566987 9.65692863 -1 12 C-6.90769231 6.83076923 -6.90769231 6.83076923 -7.375 2.625 C-7.25125 1.75875 -7.1275 0.8925 -7 0 C-4.29393021 -1.35303489 -2.8671629 -0.7884698 0 0 Z " fill="#A99A75" transform="translate(108,173)"/>
<path d="M0 0 C5.75 0.75 5.75 0.75 8 3 C7.77236654 5.35221237 7.20564662 6.71858884 5.8125 8.625 C3.39217025 10.46111223 0.89816534 11.16275223 -2 12 C-2.66 9.69 -3.32 7.38 -4 5 C-3.34 5 -2.68 5 -2 5 C-1.34 3.35 -0.68 1.7 0 0 Z " fill="#F5EBB6" transform="translate(141,118)"/>
<path d="M0 0 C4.55564061 1.58532809 8.31475769 3.99003081 12.3125 6.625 C12.95767578 7.04523437 13.60285156 7.46546875 14.26757812 7.8984375 C15.84760724 8.92838241 17.42416047 9.96365628 19 11 C18.34 11.66 17.68 12.32 17 13 C12.68606488 12.71092187 9.88810245 10.83279712 6.375 8.4375 C2.53196763 5.64692641 2.53196763 5.64692641 -2 5 C-1.34 3.35 -0.68 1.7 0 0 Z " fill="#F4F4DD" transform="translate(121,23)"/>
<path d="M0 0 C5.68136083 0.47466382 9.52001818 2.01312396 14.375 4.9375 C15.00277344 5.29779297 15.63054688 5.65808594 16.27734375 6.02929688 C20.8575487 8.7150974 20.8575487 8.7150974 22 11 C15.96675219 11.47304385 12.61297279 10.22388855 7.625 7.1875 C6.99722656 6.83107422 6.36945312 6.47464844 5.72265625 6.10742188 C1.13597179 3.40791536 1.13597179 3.40791536 0 0 Z " fill="#E4DBB2" transform="translate(48,150)"/>
<path d="M0 0 C0.97839844 0.52400391 0.97839844 0.52400391 1.9765625 1.05859375 C6.63695125 3.48502034 10.67136947 5.57931864 16 6 C17 9 17 9 17 12 C12.29119673 11.47602338 9.12067767 10.21593018 5.125 7.6875 C4.15820312 7.09324219 3.19140625 6.49898438 2.1953125 5.88671875 C1.47085938 5.26410156 0.74640625 4.64148438 0 4 C0 2.68 0 1.36 0 0 Z " fill="#F2ECCB" transform="translate(72,80)"/>
<path d="M0 0 C1.32 0.66 2.64 1.32 4 2 C2.9024777 4.99324263 2.32317108 5.84610901 -0.625 7.25 C-1.800625 7.62125 -1.800625 7.62125 -3 8 C-2.67 8.99 -2.34 9.98 -2 11 C-4.60582371 11.93065133 -5.64198224 12.14917407 -8.25 11.0625 C-8.8275 10.711875 -9.405 10.36125 -10 10 C-10 9.01 -10 8.02 -10 7 C-7.8125 5.17578125 -7.8125 5.17578125 -5 3.3125 C-3.6078125 2.37857422 -3.6078125 2.37857422 -2.1875 1.42578125 C-1.1046875 0.72001953 -1.1046875 0.72001953 0 0 Z " fill="#E4DFC3" transform="translate(57,124)"/>
<path d="M0 0 C0.66 0 1.32 0 2 0 C2.90582416 5.25378015 3.56029172 9.10205063 1 14 C-3.14214765 17.83906368 -6.43642303 18.43093995 -11.8515625 18.3359375 C-14.22246339 17.96521482 -15.92119479 17.1757948 -18 16 C-17.67 15.01 -17.34 14.02 -17 13 C-15.948125 13.495 -15.948125 13.495 -14.875 14 C-11.57102153 15.1492099 -9.47096888 15.50618296 -6 15 C-2.79282291 12.86188194 -1.26240932 11.26380958 -0.46875 7.44140625 C-0.2147306 4.95413292 -0.05337813 2.49906688 0 0 Z " fill="#848079" transform="translate(164,95)"/>
<path d="M0 0 C2 3 2 3 1.625 5.6875 C1.41875 6.450625 1.2125 7.21375 1 8 C-6.75 7.125 -6.75 7.125 -9 6 C-9 4.02 -9 2.04 -9 0 C-2.25 -1.125 -2.25 -1.125 0 0 Z " fill="#F9F5D3" transform="translate(160,90)"/>
<path d="M0 0 C1.75 1.1171875 1.75 1.1171875 3.0625 3.8046875 C3.8415462 7.55827372 3.49743589 10.38000807 2.75 14.1171875 C2.42 14.1171875 2.09 14.1171875 1.75 14.1171875 C1.72421875 13.51390625 1.6984375 12.910625 1.671875 12.2890625 C1.41224297 8.63061114 1.15832008 5.82730937 -0.6875 2.6171875 C-4.63833993 0.30450071 -8.74078976 0.28929476 -13.25 0.1171875 C-12.92 1.7671875 -12.59 3.4171875 -12.25 5.1171875 C-10.93 5.4471875 -9.61 5.7771875 -8.25 6.1171875 C-9.9 6.1171875 -11.55 6.1171875 -13.25 6.1171875 C-13.91 4.7971875 -14.57 3.4771875 -15.25 2.1171875 C-16.57 3.1071875 -17.89 4.0971875 -19.25 5.1171875 C-19.58 3.7971875 -19.91 2.4771875 -20.25 1.1171875 C-13.71515795 -2.51328031 -7.03652661 -2.7608594 0 0 Z " fill="#D8D3BC" transform="translate(185.25,130.8828125)"/>
<path d="M0 0 C2.59463419 2.59463419 2.49855548 4.41825345 3 8 C3.28739925 10.24240782 3.28739925 10.24240782 4 12 C4.99 12.33 5.98 12.66 7 13 C5.09598862 14.90401138 3.66574314 15.93520439 0.953125 16.19921875 C-1.03233273 16.1886578 -3.0169914 16.09915043 -5 16 C-3.33962264 11.2743106 -3.33962264 11.2743106 -1.375 9.6875 C0.96525102 6.81537374 0.1768228 3.59539698 0 0 Z " fill="#E3D5A4" transform="translate(39,54)"/>
<path d="M0 0 C0.33 0 0.66 0 1 0 C1.61828629 9.96127904 1.61828629 9.96127904 -0.5625 13.625 C-3.86130982 15.48586708 -6.20335532 15.93565009 -10 16 C-14.03458181 14.6551394 -17.28479374 13.35407832 -20 10 C-19.67 9.01 -19.34 8.02 -19 7 C-18.38125 7.639375 -17.7625 8.27875 -17.125 8.9375 C-13.79959594 12.16509806 -11.5624722 12.1565431 -6.97265625 12.328125 C-4.35856667 11.89330614 -3.57049891 11.11413314 -2 9 C-1.21643098 6.73606029 -1.21643098 6.73606029 -0.8125 4.3125 C-0.57466797 3.10013672 -0.57466797 3.10013672 -0.33203125 1.86328125 C-0.16767578 0.94095703 -0.16767578 0.94095703 0 0 Z " fill="#5B5751" transform="translate(141,139)"/>
<path d="M0 0 C0.763125 0.66 1.52625 1.32 2.3125 2 C6.73374689 4.98275508 11.86832001 4.69281708 17 4 C17.99 3.34 18.98 2.68 20 2 C19 4 18 6 17 8 C5.17005924 8.86140345 5.17005924 8.86140345 1.25 5.5 C0.5075 4.675 -0.235 3.85 -1 3 C-0.67 2.01 -0.34 1.02 0 0 Z " fill="#9E9883" transform="translate(26,147)"/>
<path d="M0 0 C0.99 0.495 0.99 0.495 2 1 C2 1.66 2 2.32 2 3 C6.56572403 4.52190801 12.41384057 4.83446377 17 3 C17.33 2.34 17.66 1.68 18 1 C18.66 1 19.32 1 20 1 C19.61704951 3.22111286 19.13079812 4.80380283 17.875 6.6875 C14.95236789 8.73334248 12.53148706 8.88028857 9 9 C4.84287191 7.48104935 2.24001141 5.85779744 0 2 C0 1.34 0 0.68 0 0 Z " fill="#9B968A" transform="translate(121,62)"/>
<path d="M0 0 C0.33 0.66 0.66 1.32 1 2 C1.845625 2.268125 2.69125 2.53625 3.5625 2.8125 C7.18938762 4.06542482 9.91420351 5.74314575 13.0703125 7.87890625 C15.05023894 9.0291874 16.76418261 9.55780501 19 10 C18.67 8.68 18.34 7.36 18 6 C18.99 6.33 19.98 6.66 21 7 C20.67 8.65 20.34 10.3 20 12 C13.54611408 11.85332077 9.32806042 9.03297436 3.96484375 5.59375 C0.89217385 3.94203812 -1.55317605 3.36875383 -5 3 C-5 2.34 -5 1.68 -5 1 C-3.35 0.67 -1.7 0.34 0 0 Z " fill="#919089" transform="translate(70,82)"/>
<path d="M0 0 C1.6875 1.515625 1.6875 1.515625 3 3 C2.24074219 3.01417969 1.48148438 3.02835937 0.69921875 3.04296875 C-5.27583561 3.10808051 -5.27583561 3.10808051 -10.125 6.0625 C-11.22158281 9.74388513 -11.6754385 13.17017426 -12 17 C-14 15 -14 15 -14.4375 11.25 C-14.36538682 7.95082194 -13.75645378 6.13622865 -11.6875 3.5625 C-7.92437225 -0.02559855 -5.08147347 -0.42345612 0 0 Z " fill="#6C6B67" transform="translate(109,87)"/>
<path d="M0 0 C2.4375 0.1875 2.4375 0.1875 3.4375 1.1875 C3.15019945 3.52694736 2.81813221 5.8614143 2.4375 8.1875 C0.0625 8.8125 0.0625 8.8125 -2.5625 9.1875 C-4.5625 7.1875 -4.5625 7.1875 -4.8125 4.6875 C-4.45862826 1.14878262 -3.54553886 0.25942967 0 0 Z " fill="#756952" transform="translate(175.5625,136.8125)"/>
<path d="M0 0 C2.66666667 2.66666667 5.33333333 5.33333333 8 8 C7.01 8.495 7.01 8.495 6 9 C6 9.66 6 10.32 6 11 C1.31034294 12.11658501 -1.53763531 11.80619523 -6 10 C-5.67 9.34 -5.34 8.68 -5 8 C-3.35 8 -1.7 8 0 8 C-0.185625 7.05125 -0.37125 6.1025 -0.5625 5.125 C-1 2 -1 2 0 0 Z " fill="#DBD4B4" transform="translate(97,102)"/>
<path d="M0 0 C3.7843721 0.57801649 6.48757109 1.64334185 9.7578125 3.6171875 C10.63050781 4.14183594 11.50320312 4.66648438 12.40234375 5.20703125 C13.30082031 5.75746094 14.19929688 6.30789062 15.125 6.875 C16.48431641 7.68904297 16.48431641 7.68904297 17.87109375 8.51953125 C25.18175044 12.94924768 25.18175044 12.94924768 28 16 C24.18289335 15.42459931 21.515346 14.34067384 18.2421875 12.3125 C17.36949219 11.77882812 16.49679688 11.24515625 15.59765625 10.6953125 C14.69917969 10.13585937 13.80070312 9.57640625 12.875 9 C11.082307 7.89327345 9.28810067 6.78899341 7.4921875 5.6875 C6.70183105 5.19636719 5.91147461 4.70523438 5.09716797 4.19921875 C2.92445078 2.86569964 2.92445078 2.86569964 0 2 C0 1.34 0 0.68 0 0 Z " fill="#99968F" transform="translate(58,159)"/>
<path d="M0 0 C0.99 0.33 1.98 0.66 3 1 C-2.28706869 6.25596829 -7.69952271 9.61433644 -14.4609375 12.73828125 C-17.0880152 13.8756386 -17.0880152 13.8756386 -19 16 C-18.92578125 14.28515625 -18.92578125 14.28515625 -18 12 C-15.74830978 10.31924287 -13.58788207 8.86807947 -11.1875 7.4375 C-9.93020146 6.66664859 -8.67367086 5.894543 -7.41796875 5.12109375 C-6.82290527 4.76128418 -6.2278418 4.40147461 -5.61474609 4.03076172 C-3.83809362 2.9400243 -3.83809362 2.9400243 -1.73828125 1.16015625 C-1.16464844 0.77730469 -0.59101562 0.39445312 0 0 Z " fill="#615F5B" transform="translate(91,109)"/>
<path d="M0 0 C0.66 0 1.32 0 2 0 C2.57685009 9.80645161 2.57685009 9.80645161 -1 14 C-5.24996508 17.52139964 -8.71872247 17.26853954 -14 17 C-14 16.34 -14 15.68 -14 15 C-13.09507812 14.88785156 -13.09507812 14.88785156 -12.171875 14.7734375 C-7.81228151 14.05621406 -5.58658218 13.63057584 -2.5 10.3125 C-0.90956562 6.80029075 -0.3064247 3.83030874 0 0 Z " fill="#76726C" transform="translate(188,138)"/>
<path d="M0 0 C0.99 0.66 1.98 1.32 3 2 C-3.75 6 -3.75 6 -6 6 C-5.773125 7.03125 -5.54625 8.0625 -5.3125 9.125 C-4.96098535 13.4837817 -5.76055351 15.32730775 -8 19 C-8.66 19 -9.32 19 -10 19 C-9.31838565 5.29955157 -9.31838565 5.29955157 -6.0859375 2.11328125 C-4.05395583 1.14755145 -2.20026086 0.45540283 0 0 Z " fill="#878582" transform="translate(130,88)"/>
<path d="M0 0 C4.83901683 1.29827281 9.52832674 3.28181739 13 7 C13 8.32 13 9.64 13 11 C12.01 11.33 11.02 11.66 10 12 C9.01 11.34 8.02 10.68 7 10 C7.33 9.67 7.66 9.34 8 9 C7.175 8.5875 6.35 8.175 5.5 7.75 C4.675 7.1725 3.85 6.595 3 6 C3 4.68 3 3.36 3 2 C2.01 2 1.02 2 0 2 C0 1.34 0 0.68 0 0 Z " fill="#DED2A8" transform="translate(77,165)"/>
<path d="M0 0 C0.8971875 0.5259375 0.8971875 0.5259375 1.8125 1.0625 C0.1625 1.3925 -1.4875 1.7225 -3.1875 2.0625 C-3.1875 4.0425 -3.1875 6.0225 -3.1875 8.0625 C-4.5075 8.0625 -5.8275 8.0625 -7.1875 8.0625 C-9.89142137 9.86511425 -10.17908743 11.02349626 -10.875 14.25 C-10.978125 15.178125 -11.08125 16.10625 -11.1875 17.0625 C-11.5175 17.0625 -11.8475 17.0625 -12.1875 17.0625 C-12.52256294 11.58980529 -11.7946996 7.90444211 -9.1875 3.0625 C-6.41590073 0.46412569 -3.78953153 -1.62408494 0 0 Z " fill="#DED9BE" transform="translate(81.1875,44.9375)"/>
<path d="M0 0 C0.99 1.32 1.98 2.64 3 4 C-12.35674157 15 -12.35674157 15 -17 15 C-17 14.34 -17 13.68 -17 13 C-14.56866946 11.36136603 -12.15228465 9.85078666 -9.625 8.375 C-8.92632812 7.95476562 -8.22765625 7.53453125 -7.5078125 7.1015625 C-2.27140828 4 -2.27140828 4 0 4 C0 2.68 0 1.36 0 0 Z " fill="#787673" transform="translate(162,149)"/>
<path d="M0 0 C1.32 0 2.64 0 4 0 C5.60725635 3.21451269 5.05748185 6.43612536 5 10 C2.5625 9.625 2.5625 9.625 0 9 C-1.36623674 6.26752652 -1.128426 4.01801098 -1 1 C-0.67 0.67 -0.34 0.34 0 0 Z " fill="#D2BE87" transform="translate(171,54)"/>
<path d="M0 0 C4.26672384 0.47408043 6.2455048 2.88307122 9 6 C11.01679759 9.07321538 11.20257027 11.35373509 11 15 C10.34 15 9.68 15 9 15 C9 15.99 9 16.98 9 18 C8.34 18 7.68 18 7 18 C6.99742187 17.19175781 6.99484375 16.38351563 6.9921875 15.55078125 C6.98541752 9.48137118 6.98541752 9.48137118 4.59765625 4.125 C2.78639422 2.64093687 2.78639422 2.64093687 0 1 C0 0.67 0 0.34 0 0 Z " fill="#C2C3B7" transform="translate(180,47)"/>
<path d="M0 0 C1.60781893 0.7631861 3.21113138 1.53587058 4.8125 2.3125 C5.70582031 2.74175781 6.59914062 3.17101562 7.51953125 3.61328125 C9.78931933 4.88221789 11.29248171 6.06556898 13 8 C12.67 8.66 12.34 9.32 12 10 C6.25 8.125 6.25 8.125 4 7 C4 6.34 4 5.68 4 5 C2.35 4.67 0.7 4.34 -1 4 C-0.67 2.68 -0.34 1.36 0 0 Z " fill="#EDE4BD" transform="translate(151,125)"/>
<path d="M0 0 C0.99 0.33 1.98 0.66 3 1 C3.144375 2.093125 3.28875 3.18625 3.4375 4.3125 C3.88288104 7.93122987 3.88288104 7.93122987 5 11 C3.875 14.125 3.875 14.125 2 17 C-0.6875 17.875 -0.6875 17.875 -3 18 C-3 17.34 -3 16.68 -3 16 C-2.34 16 -1.68 16 -1 16 C0.14077657 12.57767028 0.09815117 9.91326783 0.0625 6.3125 C0.04896484 4.54326172 0.04896484 4.54326172 0.03515625 2.73828125 C0.02355469 1.83464844 0.01195313 0.93101562 0 0 Z " fill="#847E78" transform="translate(116,170)"/>
<path d="M0 0 C0.33 0 0.66 0 1 0 C1.08086376 2.93804996 1.1404283 5.87388075 1.1875 8.8125 C1.21263672 9.64587891 1.23777344 10.47925781 1.26367188 11.33789062 C1.27333984 12.14033203 1.28300781 12.94277344 1.29296875 13.76953125 C1.3086792 14.50792236 1.32438965 15.24631348 1.34057617 16.00708008 C0.90811047 18.53770199 -0.02499774 19.41968594 -2 21 C-2.33 21 -2.66 21 -3 21 C-3 17.37 -3 13.74 -3 10 C-2.34 9.67 -1.68 9.34 -1 9 C-0.53348793 6.87423218 -0.53348793 6.87423218 -0.375 4.4375 C-0.30023438 3.61121094 -0.22546875 2.78492188 -0.1484375 1.93359375 C-0.09945312 1.29550781 -0.05046875 0.65742188 0 0 Z " fill="#F5EFBB" transform="translate(107,141)"/>
<path d="M0 0 C-0.66 0 -1.32 0 -2 0 C-1.95359375 0.67546875 -1.9071875 1.3509375 -1.859375 2.046875 C-1.56089194 9.42367067 -1.56089194 9.42367067 -4 12.625 C-4.66 13.07875 -5.32 13.5325 -6 14 C-7.41778293 11.16443413 -6.86257622 9.0091294 -6.5625 5.875 C-6.46066406 4.77929688 -6.35882813 3.68359375 -6.25390625 2.5546875 C-6.17011719 1.71164063 -6.08632813 0.86859375 -6 0 C-3 -1 -3 -1 0 0 Z " fill="#78736C" transform="translate(53,135)"/>
<path d="M0 0 C2.44350949 2.44350949 2.25627116 3.11316352 2.265625 6.46484375 C2.26949219 7.78838867 2.26949219 7.78838867 2.2734375 9.13867188 C2.26570312 10.06228516 2.25796875 10.98589844 2.25 11.9375 C2.25773438 12.85724609 2.26546875 13.77699219 2.2734375 14.72460938 C2.27085937 15.60826172 2.26828125 16.49191406 2.265625 17.40234375 C2.26336914 18.21179443 2.26111328 19.02124512 2.25878906 19.85522461 C2 22 2 22 0 25 C-0.19572967 21.95866211 -0.38183916 18.91723937 -0.5625 15.875 C-0.61857422 15.0190625 -0.67464844 14.163125 -0.73242188 13.28125 C-0.99798352 8.67818141 -1.00515346 4.54180454 0 0 Z " fill="#DBD7C2" transform="translate(174,100)"/>
<path d="M0 0 C0 3 0 3 -2 6 C-2.99 6 -3.98 6 -5 6 C-5.33 7.32 -5.66 8.64 -6 10 C-7.65 10.33 -9.3 10.66 -11 11 C-10.5625 8.3125 -10.5625 8.3125 -9 5 C-6.15827264 2.98949088 -3.15211076 1.46579636 0 0 Z " fill="#F5F4D3" transform="translate(137,78)"/>
<path d="M0 0 C0.99 0.33 1.98 0.66 3 1 C3.8594442 10.66397254 3.8594442 10.66397254 0.8125 14.625 C-2 17 -2 17 -4.8125 17.375 C-5.534375 17.25125 -6.25625 17.1275 -7 17 C-6.21625 16.2575 -5.4325 15.515 -4.625 14.75 C-1.00411101 10.95668772 0.097663 8.93491779 0.125 3.75 C0.08375 2.5125 0.0425 1.275 0 0 Z " fill="#706E6D" transform="translate(90,136)"/>
<path d="M0 0 C4.1497206 1.49915418 7.69900823 3.54119477 11.4375 5.875 C12.52933594 6.55304687 13.62117187 7.23109375 14.74609375 7.9296875 C17.86162956 9.91196118 20.93630575 11.93905334 24 14 C23.01 14.33 22.02 14.66 21 15 C18.14453125 13.5234375 18.14453125 13.5234375 14.8125 11.375 C13.64844345 10.63019904 12.48438095 9.88540736 11.3203125 9.140625 C9.67675781 8.08101562 9.67675781 8.08101562 8 7 C6.39724915 6.03930068 4.79337547 5.08046713 3.1875 4.125 C2.135625 3.42375 1.08375 2.7225 0 2 C0 1.34 0 0.68 0 0 Z " fill="#A8A8A2" transform="translate(120,27)"/>
<path d="M0 0 C3 1 3 1 5 4 C4.05125 4.0825 3.1025 4.165 2.125 4.25 C-1.10461791 4.65074923 -1.10461791 4.65074923 -2.375 7.0625 C-2.58125 7.701875 -2.7875 8.34125 -3 9 C-4.32 8.67 -5.64 8.34 -7 8 C-6.875 6.25 -6.875 6.25 -6 4 C-3.125 1.6875 -3.125 1.6875 0 0 Z " fill="#E4DBAF" transform="translate(127,167)"/>
<path d="M0 0 C3.94421131 -0.55218958 7.50216318 -1.0355415 10.8984375 1.3125 C14.57065926 5.32507402 15.78007277 8.61178293 16 14 C15.34 14 14.68 14 14 14 C13.67 14.66 13.34 15.32 13 16 C12.81824219 14.98679687 12.81824219 14.98679687 12.6328125 13.953125 C12.46523437 13.06109375 12.29765625 12.1690625 12.125 11.25 C11.88136719 9.92742188 11.88136719 9.92742188 11.6328125 8.578125 C11.00925739 6.03771528 10.51511501 4.13670065 9 2 C6.81458448 1.3006486 6.81458448 1.3006486 4.375 1.25 C3.14910156 1.16492187 3.14910156 1.16492187 1.8984375 1.078125 C1.27195313 1.05234375 0.64546875 1.0265625 0 1 C0 0.67 0 0.34 0 0 Z " fill="#B2B0A6" transform="translate(128,46)"/>
<path d="M0 0 C2.93783498 0.62953607 5.55005903 1.22590481 8 3 C8.75 6.125 8.75 6.125 9 9 C9.66 8.34 10.32 7.68 11 7 C11.73080266 8.97746603 12.39421747 10.98072489 13 13 C12.67 13.66 12.34 14.32 12 15 C11.34 15 10.68 15 10 15 C9.67 13.68 9.34 12.36 9 11 C7.68 11 6.36 11 5 11 C5 10.34 5 9.68 5 9 C5.66 9 6.32 9 7 9 C6.95231597 7.12119128 6.95231597 7.12119128 6 5 C4.04402816 3.60287726 2.04563599 2.26220093 0 1 C0 0.67 0 0.34 0 0 Z " fill="#CAC4AF" transform="translate(83,167)"/>
<path d="M0 0 C0.1875 2.375 0.1875 2.375 0 5 C-3 7 -3 7 -5.5625 6.5625 C-6.366875 6.376875 -7.17125 6.19125 -8 6 C-8.99 6.495 -8.99 6.495 -10 7 C-9.9375 5.1875 -9.9375 5.1875 -9 3 C-3.10714286 0 -3.10714286 0 0 0 Z " fill="#EEE6BD" transform="translate(162,148)"/>
<path d="M0 0 C5.625 -0.25 5.625 -0.25 9 2 C9 2.66 9 3.32 9 4 C5.77786243 6.14809171 4.72224599 6.29386153 1 6 C0 5 0 5 -0.0625 2.4375 C-0.041875 1.633125 -0.02125 0.82875 0 0 Z " fill="#9A8765" transform="translate(32,137)"/>
<path d="M0 0 C0.99 0.495 0.99 0.495 2 1 C2 1.66 2 2.32 2 3 C2.61875 3.309375 3.2375 3.61875 3.875 3.9375 C5.25 4.625 6.625 5.3125 8 6 C10.10955062 6.19738723 10.10955062 6.19738723 12.4375 6.1875 C13.61119141 6.20876953 13.61119141 6.20876953 14.80859375 6.23046875 C17.29205987 6.14086064 17.29205987 6.14086064 20 4 C19.1875 5.9375 19.1875 5.9375 18 8 C14.38069302 9.20643566 11.80768995 9.32268559 8 9 C4.89960457 7.24505919 2.51174333 5.51174333 0 3 C0 2.01 0 1.02 0 0 Z " fill="#AEACAA" transform="translate(46,104)"/>
<path d="M0 0 C2 3 2 3 1.6875 5.125 C1 7 1 7 0 8 C-1.68608966 8.07205511 -3.37500659 8.08386068 -5.0625 8.0625 C-5.98160156 8.05347656 -6.90070313 8.04445313 -7.84765625 8.03515625 C-8.55792969 8.02355469 -9.26820312 8.01195313 -10 8 C-7.09492679 5.57910566 -4.36852957 3.68426478 -1 2 C-0.67 1.34 -0.34 0.68 0 0 Z " fill="#F3F1D4" transform="translate(89,104)"/>
<path d="M0 0 C-0.29950017 2.8951683 -0.80934832 3.83823494 -3.0625 5.75 C-7.03344066 7.43976198 -9.69737956 7.35267381 -14 7 C-14.66 6.34 -15.32 5.68 -16 5 C-14.98679688 4.83564453 -14.98679688 4.83564453 -13.953125 4.66796875 C-12.61507812 4.43013672 -12.61507812 4.43013672 -11.25 4.1875 C-10.36828125 4.03667969 -9.4865625 3.88585937 -8.578125 3.73046875 C-5.32666201 2.8092209 -3.28483237 0 0 0 Z " fill="#646261" transform="translate(188,66)"/>
<path d="M0 0 C0.33 0.66 0.66 1.32 1 2 C-1.2495682 4.32213491 -2.99681745 5.86681887 -6.265625 6.30078125 C-12.33965655 6.33017173 -12.33965655 6.33017173 -15 5 C-15 4.34 -15 3.68 -15 3 C-13.75283203 2.92652344 -13.75283203 2.92652344 -12.48046875 2.8515625 C-11.39378906 2.77679688 -10.30710937 2.70203125 -9.1875 2.625 C-8.10855469 2.55539063 -7.02960937 2.48578125 -5.91796875 2.4140625 C-2.81373814 2.18804267 -2.81373814 2.18804267 0 0 Z " fill="#85827A" transform="translate(45,67)"/>
<path d="M0 0 C-0.433125 0.804375 -0.433125 0.804375 -0.875 1.625 C-2.16711808 4.35280484 -3.08558592 7.12612718 -4 10 C-7.60654039 7.59563974 -7.85452932 6.05320393 -9 2 C-3.375 0 -3.375 0 0 0 Z " fill="#F3ECC2" transform="translate(133,130)"/>
<path d="M0 0 C1.875 0.25 1.875 0.25 4 1 C6.03603536 4.08156703 6.154702 6.14802637 5.625 9.75 C5.45871094 10.94882813 5.45871094 10.94882813 5.2890625 12.171875 C5.14597656 13.07679687 5.14597656 13.07679687 5 14 C4.34 13.34 3.68 12.68 3 12 C1.68 12 0.36 12 -1 12 C-1 11.34 -1 10.68 -1 10 C-1.99 10 -2.98 10 -4 10 C-3.67 9.34 -3.34 8.68 -3 8 C-1.02 8 0.96 8 3 8 C2.45276317 4.62537285 1.9451 2.91765 0 0 Z " fill="#D9D1AF" transform="translate(159,90)"/>
<path d="M0 0 C8.44646925 6.15034169 8.44646925 6.15034169 12 10 C7.94718288 8.77472971 4.55639236 7.30119506 1 5 C0.01 6.485 0.01 6.485 -1 8 C-1.66 6.02 -2.32 4.04 -3 2 C-2.01 1.34 -1.02 0.68 0 0 Z " fill="#D2CEBB" transform="translate(72,76)"/>
<path d="M0 0 C0.66 0 1.32 0 2 0 C2 5.94 2 11.88 2 18 C-1 15 -1 15 -1.328125 12.1875 C-1.30234375 11.135625 -1.2765625 10.08375 -1.25 9 C-1.23453125 7.948125 -1.2190625 6.89625 -1.203125 5.8125 C-1 3 -1 3 0 0 Z " fill="#908E8B" transform="translate(109,36)"/>
<path d="M0 0 C0.763125 0.309375 1.52625 0.61875 2.3125 0.9375 C4.18789677 1.67893593 6.08684652 2.36228217 8 3 C8 3.66 8 4.32 8 5 C11.3 5.99 14.6 6.98 18 8 C17.34 8.66 16.68 9.32 16 10 C12.02438143 9.6619372 9.13367738 8.16128489 5.75 6.125 C4.87859375 5.61195312 4.0071875 5.09890625 3.109375 4.5703125 C1 3 1 3 0 0 Z " fill="#989A93" transform="translate(145,42)"/>
<path d="M0 0 C0.66 0 1.32 0 2 0 C2.66 2.31 3.32 4.62 4 7 C5.32 7.33 6.64 7.66 8 8 C8 6.02 8 4.04 8 2 C8.33 2 8.66 2 9 2 C9.37211538 8.57403846 9.37211538 8.57403846 7.48828125 10.73046875 C6.99714844 11.14941406 6.50601563 11.56835938 6 12 C0.09230769 6.83076923 0.09230769 6.83076923 -0.375 2.625 C-0.25125 1.75875 -0.1275 0.8925 0 0 Z " fill="#C5B68A" transform="translate(101,173)"/>
<path d="M0 0 C0.99 0 1.98 0 3 0 C3.33 0.66 3.66 1.32 4 2 C4.66 2.33 5.32 2.66 6 3 C4.37829621 4.00533667 2.75252763 5.00411907 1.125 6 C-0.23238281 6.8353125 -0.23238281 6.8353125 -1.6171875 7.6875 C-4 9 -4 9 -6 9 C-6 7.68 -6 6.36 -6 5 C-5.195625 4.731875 -4.39125 4.46375 -3.5625 4.1875 C-2.716875 3.795625 -1.87125 3.40375 -1 3 C-0.67 2.01 -0.34 1.02 0 0 Z " fill="#E3DAA7" transform="translate(151,153)"/>
<path d="M0 0 C0 0.33 0 0.66 0 1 C-3.3 1.33 -6.6 1.66 -10 2 C-9.67 4.31 -9.34 6.62 -9 9 C-9.66 8.34 -10.32 7.68 -11 7 C-11.66 8.32 -12.32 9.64 -13 11 C-13.66 11 -14.32 11 -15 11 C-13.88744102 6.17891107 -12.94630932 3.1092134 -9 0 C-5.52176885 -1.15941038 -3.54104422 -0.70820884 0 0 Z " fill="#E2DABF" transform="translate(158,89)"/>
<path d="M0 0 C5.68057554 3.98848921 5.68057554 3.98848921 7.125 8.5625 C7 12 7 12 5.0625 14.4375 C4.381875 14.953125 3.70125 15.46875 3 16 C3.03480469 15.32453125 3.06960937 14.6490625 3.10546875 13.953125 C3.13253906 13.06109375 3.15960938 12.1690625 3.1875 11.25 C3.22230469 10.36828125 3.25710937 9.4865625 3.29296875 8.578125 C2.94708688 5.53436457 1.92206641 4.32060511 0 2 C0 1.34 0 0.68 0 0 Z " fill="#82817B" transform="translate(44,49)"/>
<path d="M0 0 C0.66 0.33 1.32 0.66 2 1 C-2.23048048 6.68093093 -2.23048048 6.68093093 -5.5625 8.0625 C-8.61622536 7.98419935 -9.7937818 7.04279463 -12 5 C-8.8035914 3.93453047 -6.34252724 3.92572162 -3 4 C-2.67 3.01 -2.34 2.02 -2 1 C-1.34 0.67 -0.68 0.34 0 0 Z " fill="#989691" transform="translate(74,122)"/>
<path d="M0 0 C0.33 0.99 0.66 1.98 1 3 C1.56203125 2.67257813 2.1240625 2.34515625 2.703125 2.0078125 C5.26859964 0.88214506 6.96842277 0.7931889 9.75 0.875 C10.54921875 0.89304687 11.3484375 0.91109375 12.171875 0.9296875 C12.77515625 0.95289062 13.3784375 0.97609375 14 1 C14 3.31 14 5.62 14 8 C13.67 6.68 13.34 5.36 13 4 C10.03 4 7.06 4 4 4 C3.67 4.66 3.34 5.32 3 6 C2.01 5.34 1.02 4.68 0 4 C0 2.68 0 1.36 0 0 Z " fill="#EFE2B2" transform="translate(52,95)"/>
<path d="M0 0 C2.475 0.99 2.475 0.99 5 2 C5 3.65 5 5.3 5 7 C2.0625 6.625 2.0625 6.625 -1 6 C-1.33 5.34 -1.66 4.68 -2 4 C-1.0625 1.875 -1.0625 1.875 0 0 Z " fill="#ECE4C9" transform="translate(84,85)"/>
<path d="M0 0 C0.33 0 0.66 0 1 0 C1 4.29 1 8.58 1 13 C3.475 13.99 3.475 13.99 6 15 C8.8125 17.625 8.8125 17.625 11 20 C7.62440315 19.41800054 6.37247717 18.37247717 4 16 C1.525 15.01 1.525 15.01 -1 14 C-0.67 9.38 -0.34 4.76 0 0 Z " fill="#D0CFCA" transform="translate(110,69)"/>
<path d="M0 0 C0 0.66 0 1.32 0 2 C-0.66 2 -1.32 2 -2 2 C-2.0825 2.7425 -2.165 3.485 -2.25 4.25 C-3.1396946 7.51221354 -4.48503749 8.80954878 -7 11 C-7.8531488 8.61118335 -8.12563748 7.37691245 -7.3125 4.9375 C-5.44094585 2.17472959 -3.46826287 0 0 0 Z " fill="#EDEAC8" transform="translate(128,46)"/>
<path d="M0 0 C0.79921875 0.01804687 1.5984375 0.03609375 2.421875 0.0546875 C3.02515625 0.07789062 3.6284375 0.10109375 4.25 0.125 C-0.89285714 4.55357143 -0.89285714 4.55357143 -4.75 5.125 C-4.75 4.465 -4.75 3.805 -4.75 3.125 C-6.07 2.795 -7.39 2.465 -8.75 2.125 C-5.68753253 0.34090198 -3.52920727 -0.10380021 0 0 Z " fill="#F0EBC3" transform="translate(82.75,111.875)"/>
<path d="M0 0 C1.66870487 0.32297514 3.33465333 0.66013333 5 1 C5.74765625 1.14566406 6.4953125 1.29132813 7.265625 1.44140625 C8.06484375 1.60511719 8.8640625 1.76882812 9.6875 1.9375 C10.45449219 2.09089844 11.22148438 2.24429688 12.01171875 2.40234375 C14 3 14 3 16 5 C16.125 7.625 16.125 7.625 16 10 C13 6.25 13 6.25 13 4 C11.1746875 4.0928125 11.1746875 4.0928125 9.3125 4.1875 C5.4301524 4.20129164 3.12152948 3.43869491 0 1 C0 0.67 0 0.34 0 0 Z " fill="#AAA69E" transform="translate(56,69)"/>
<path d="M0 0 C3.57793304 1.48974436 5.05688568 3.74091302 7.1953125 6.9140625 C6.5353125 8.2340625 5.8753125 9.5540625 5.1953125 10.9140625 C4.12006056 8.26177438 3.10075099 5.63037796 2.1953125 2.9140625 C-2.0946875 2.2540625 -6.3846875 1.5940625 -10.8046875 0.9140625 C-6.18290059 -1.39683096 -4.76540948 -1.1795568 0 0 Z " fill="#C7C7BF" transform="translate(111.8046875,5.0859375)"/>
<path d="M0 0 C4.79022833 0.4354753 8.62460714 2.63368078 12 6 C12.765625 8.10546875 12.765625 8.10546875 13 10 C12 11 12 11 9.4375 11.0625 C8.633125 11.041875 7.82875 11.02125 7 11 C8.32 10.67 9.64 10.34 11 10 C8.39870577 7.24568847 5.86603183 4.80358826 2.6875 2.75 C1.800625 2.1725 0.91375 1.595 0 1 C0 0.67 0 0.34 0 0 Z " fill="#969185" transform="translate(153,125)"/>
<path d="M0 0 C0.33 0.66 0.66 1.32 1 2 C0.34 2 -0.32 2 -1 2 C-1.66 3.65 -2.32 5.3 -3 7 C-4.65 7 -6.3 7 -8 7 C-8.33 5.68 -8.66 4.36 -9 3 C-6.03 2.01 -3.06 1.02 0 0 Z " fill="#F1E6C0" transform="translate(111,107)"/>
<path d="M0 0 C0 0.99 0 1.98 0 3 C0.66 3.33 1.32 3.66 2 4 C0.68 4.33 -0.64 4.66 -2 5 C-1.01 5.99 -0.02 6.98 1 8 C-0.32 8.33 -1.64 8.66 -3 9 C-4.5625 6.6875 -4.5625 6.6875 -6 4 C-5.67 3.01 -5.34 2.02 -5 1 C-2 0 -2 0 0 0 Z " fill="#F2F3E4" transform="translate(51,45)"/>
<path d="M0 0 C2.31 0.66 4.62 1.32 7 2 C7 2.99 7 3.98 7 5 C4.625 6.75 4.625 6.75 2 8 C1.34 7.67 0.68 7.34 0 7 C0 4.69 0 2.38 0 0 Z " fill="#ADA791" transform="translate(138,161)"/>
<path d="M0 0 C0.66 0 1.32 0 2 0 C2.93402724 5.41735797 3.20808081 8.80451575 1 14 C0.34 13.67 -0.32 13.34 -1 13 C-0.67 8.71 -0.34 4.42 0 0 Z " fill="#8E8B82" transform="translate(164,95)"/>
<path d="M0 0 C0.66 0.61875 1.32 1.2375 2 1.875 C5.70411034 4.49874482 8.57924515 5.10086342 13 6 C12.67 6.99 12.34 7.98 12 9 C3.06382979 7.21276596 3.06382979 7.21276596 0 3 C0 2.01 0 1.02 0 0 Z " fill="#928E86" transform="translate(121,146)"/>
<path d="M0 0 C1.79323253 0.28187936 3.58457126 0.5758281 5.375 0.875 C6.37273438 1.03742188 7.37046875 1.19984375 8.3984375 1.3671875 C11 2 11 2 13 4 C12.67 4.66 12.34 5.32 12 6 C11.43796875 5.68289062 10.8759375 5.36578125 10.296875 5.0390625 C7.84803683 3.93125475 5.91612145 3.61024601 3.25 3.375 C2.45078125 3.30023438 1.6515625 3.22546875 0.828125 3.1484375 C0.22484375 3.09945312 -0.3784375 3.05046875 -1 3 C-0.67 2.01 -0.34 1.02 0 0 Z " fill="#DAD5C7" transform="translate(32,127)"/>
<path d="M0 0 C3.89301165 -0.37076301 5.80577827 -0.10260771 9.3125 1.75 C12 4 12 4 12.875 6.25 C12.936875 7.11625 12.936875 7.11625 13 8 C12.34 8 11.68 8 11 8 C10.649375 7.38125 10.29875 6.7625 9.9375 6.125 C6.957792 2.85693317 3.24564106 2.67645434 -1 2 C-0.67 1.34 -0.34 0.68 0 0 Z " fill="#CECAC0" transform="translate(54,88)"/>
<path d="M0 0 C0.99 0 1.98 0 3 0 C3 0.66 3 1.32 3 2 C4.98 2 6.96 2 9 2 C9 2.33 9 2.66 9 3 C7.02 3 5.04 3 3 3 C2.67 4.65 2.34 6.3 2 8 C1.67 7.34 1.34 6.68 1 6 C-1.475 7.485 -1.475 7.485 -4 9 C-3.6875 7.0625 -3.6875 7.0625 -3 5 C-2.01 4.67 -1.02 4.34 0 4 C0.33 3.34 0.66 2.68 1 2 C0.34 1.67 -0.32 1.34 -1 1 C-0.67 0.67 -0.34 0.34 0 0 Z " fill="#EDE2AE" transform="translate(28,50)"/>
<path d="M0 0 C2.125 0.9375 2.125 0.9375 4 2 C2.9024777 4.99324263 2.32317108 5.84610901 -0.625 7.25 C-1.40875 7.4975 -2.1925 7.745 -3 8 C-3.66 7.34 -4.32 6.68 -5 6 C-3.68 6 -2.36 6 -1 6 C-1.33 4.35 -1.66 2.7 -2 1 C-1.34 0.67 -0.68 0.34 0 0 Z " fill="#E9E0B4" transform="translate(57,124)"/>
<path d="M0 0 C1.051875 1.1446875 1.051875 1.1446875 2.125 2.3125 C4.96352604 4.96590478 7.46949051 6.44000743 11 8 C11 8.66 11 9.32 11 10 C7.05085855 9.43583694 4.13228798 8.52323198 1 6 C0.1875 2.8125 0.1875 2.8125 0 0 Z " fill="#98978E" transform="translate(93,22)"/>
<path d="M0 0 C2.9719385 1.12451727 5.33440687 2.22293791 8 4 C9.65549531 4.38499891 11.3222433 4.72793135 13 5 C12.67 5.99 12.34 6.98 12 8 C3.27272727 5.09090909 3.27272727 5.09090909 0 1 C0 0.67 0 0.34 0 0 Z " fill="#908C80" transform="translate(127,116)"/>
<path d="M0 0 C1.48206495 0.254496 2.96068615 0.52911762 4.4375 0.8125 C5.67306641 1.03873047 5.67306641 1.03873047 6.93359375 1.26953125 C7.95646484 1.63111328 7.95646484 1.63111328 9 2 C9.33 2.99 9.66 3.98 10 5 C8.375 5.6875 8.375 5.6875 6 6 C2.75 4.5625 2.75 4.5625 0 3 C0 2.01 0 1.02 0 0 Z " fill="#F2EBBE" transform="translate(131,56)"/>
<path d="M0 0 C0.66 0.66 1.32 1.32 2 2 C1.8125 4.5 1.8125 4.5 1 7 C-2.22791555 9.1519437 -3.28400809 9.20086443 -7 9 C-7.33 8.34 -7.66 7.68 -8 7 C-6.02 7 -4.04 7 -2 7 C-2 6.34 -2 5.68 -2 5 C-1.34 5 -0.68 5 0 5 C0 3.35 0 1.7 0 0 Z " fill="#C2B990" transform="translate(109,14)"/>
<path d="M0 0 C0.99 0 1.98 0 3 0 C3 0.66 3 1.32 3 2 C2.34 2 1.68 2 1 2 C1.33 2.99 1.66 3.98 2 5 C-1 7 -1 7 -3.6875 6.625 C-4.450625 6.41875 -5.21375 6.2125 -6 6 C-5.67 5.34 -5.34 4.68 -5 4 C-4.01 4 -3.02 4 -2 4 C-1.34 2.68 -0.68 1.36 0 0 Z " fill="#9F9B8A" transform="translate(126,171)"/>
<path d="M0 0 C0.20625 0.5775 0.4125 1.155 0.625 1.75 C1.95861411 4.29040182 1.95861411 4.29040182 5.125 6.0625 C6.07375 6.701875 7.0225 7.34125 8 8 C8 8.99 8 9.98 8 11 C4.7 9.02 1.4 7.04 -2 5 C-1.34 3.35 -0.68 1.7 0 0 Z " fill="#A8A49E" transform="translate(109,160)"/>
<path d="M0 0 C1.65 0 3.3 0 5 0 C5 3.3 5 6.6 5 10 C1.65094547 6.65094547 1.10529715 4.50621146 0 0 Z " fill="#ECE9C5" transform="translate(103,116)"/>
<path d="M0 0 C0 0.66 0 1.32 0 2 C-0.99 2.33 -1.98 2.66 -3 3 C-3.9590625 4.0209375 -3.9590625 4.0209375 -4.9375 5.0625 C-7 7 -7 7 -11 7 C-11 6.34 -11 5.68 -11 5 C-9.35546875 3.7109375 -9.35546875 3.7109375 -7.1875 2.375 C-6.47980469 1.92898437 -5.77210938 1.48296875 -5.04296875 1.0234375 C-3 0 -3 0 0 0 Z " fill="#615F5B" transform="translate(142,82)"/>
<path d="M0 0 C-0.33 1.32 -0.66 2.64 -1 4 C-2.45736087 4.19491452 -3.91594593 4.38069358 -5.375 4.5625 C-6.18710938 4.66691406 -6.99921875 4.77132812 -7.8359375 4.87890625 C-10 5 -10 5 -12 4 C-10.3767313 3.3291288 -8.75132422 2.66342971 -7.125 2 C-6.22007812 1.62875 -5.31515625 1.2575 -4.3828125 0.875 C-2 0 -2 0 0 0 Z " fill="#807E7B" transform="translate(150,81)"/>
<path d="M0 0 C0.83438967 2.33629107 1.22334675 3.50176494 0.1875 5.8125 C-0.4003125 6.8953125 -0.4003125 6.8953125 -1 8 C-1.69730806 10.3243602 -2.36912152 12.65673706 -3 15 C-3.33 15 -3.66 15 -4 15 C-4.34650743 9.34037856 -3.48055609 5.96111218 -1 1 C-0.67 0.67 -0.34 0.34 0 0 Z " fill="#F2EEDA" transform="translate(73,47)"/>
<path d="M0 0 C0.886875 0.639375 1.77375 1.27875 2.6875 1.9375 C5.69211428 3.80829757 7.5510371 4.59423966 11 5 C11 5.66 11 6.32 11 7 C7.18634321 7.35475877 5.41557542 7.2619932 2.125 5.1875 C0 3 0 3 0 0 Z " fill="#8C887F" transform="translate(71,147)"/>
<path d="M0 0 C1.98 0 3.96 0 6 0 C6 0.66 6 1.32 6 2 C8.64 2.66 11.28 3.32 14 4 C13.01 4.66 12.02 5.32 11 6 C7.12705551 4.84858407 3.59122757 2.83737224 0 1 C0 0.67 0 0.34 0 0 Z " fill="#B0AFA4" transform="translate(149,130)"/>
<path d="M0 0 C0.99 0.33 1.98 0.66 3 1 C3.1875 4.375 3.1875 4.375 3 8 C2.01 8.66 1.02 9.32 0 10 C0 6.7 0 3.4 0 0 Z " fill="#777774" transform="translate(118,14)"/>
<path d="M0 0 C4.29 2.31 8.58 4.62 13 7 C9 8 9 8 6.640625 6.85546875 C5.85171875 6.30503906 5.0628125 5.75460938 4.25 5.1875 C3.45078125 4.64480469 2.6515625 4.10210937 1.828125 3.54296875 C1.22484375 3.03378906 0.6215625 2.52460937 0 2 C0 1.34 0 0.68 0 0 Z " fill="#9C9C95" transform="translate(48,69)"/>
<path d="M0 0 C0.66 0 1.32 0 2 0 C2.33 2.64 2.66 5.28 3 8 C2.34 8 1.68 8 1 8 C1 8.99 1 9.98 1 11 C0.34 10.67 -0.32 10.34 -1 10 C-0.67 6.7 -0.34 3.4 0 0 Z " fill="#898886" transform="translate(188,54)"/>
<path d="M0 0 C0.61875 0.474375 1.2375 0.94875 1.875 1.4375 C6.16105676 3.58052838 10.26600709 3.73342564 15 4 C15 4.33 15 4.66 15 5 C13.25285767 5.25002209 11.50200859 5.47423194 9.75 5.6875 C8.77546875 5.81511719 7.8009375 5.94273437 6.796875 6.07421875 C3.4829124 5.9862784 2.27952016 5.37178645 0 3 C0 2.01 0 1.02 0 0 Z " fill="#ACA490" transform="translate(95,184)"/>
<path d="M0 0 C0.33 0 0.66 0 1 0 C1.36521739 5.47826087 1.36521739 5.47826087 -0.3125 7.875 C-2 9 -2 9 -5 9 C-5 8.34 -5 7.68 -5 7 C-4.34 7 -3.68 7 -3 7 C-2.690625 6.21625 -2.38125 5.4325 -2.0625 4.625 C-1 2 -1 2 0 0 Z " fill="#65615D" transform="translate(118,179)"/>
<path d="M0 0 C1.31878578 0.76002917 2.6298684 1.53343653 3.9375 2.3125 C4.66839844 2.74175781 5.39929688 3.17101562 6.15234375 3.61328125 C8 5 8 5 9 8 C6.50638429 6.79618552 4.31856917 5.54571278 2 4 C0.34450469 3.61500109 -1.3222433 3.27206865 -3 3 C-2.01 2.01 -1.02 1.02 0 0 Z " fill="#B2AEA9" transform="translate(119,110)"/>
<path d="M0 0 C1.65 1.65 3.3 3.3 5 5 C4.360625 5.28875 3.72125 5.5775 3.0625 5.875 C0.84793921 6.82823451 0.84793921 6.82823451 0 9 C-0.99 8.67 -1.98 8.34 -3 8 C-2.34 7.34 -1.68 6.68 -1 6 C-0.60235737 4.01178687 -0.26224651 2.01055661 0 0 Z " fill="#55514A" transform="translate(163,63)"/>
<path d="M0 0 C2.31 0.33 4.62 0.66 7 1 C4.31158141 3.25245881 2.35358125 4.88213958 -1 6 C-0.67 4.02 -0.34 2.04 0 0 Z " fill="#EDEAC4" transform="translate(64,37)"/>
<path d="M0 0 C2.92879371 0.62759865 5.36095629 1.58622659 8 3 C8 5.31 8 7.62 8 10 C7.01 9.67 6.02 9.34 5 9 C5.66 9 6.32 9 7 9 C6.95231597 7.12119128 6.95231597 7.12119128 6 5 C4.04402816 3.60287726 2.04563599 2.26220093 0 1 C0 0.67 0 0.34 0 0 Z " fill="#948F85" transform="translate(83,167)"/>
<path d="M0 0 C3.875 1.75 3.875 1.75 5 4 C5.06996014 5.70702735 5.08440154 7.41668003 5.0625 9.125 C5.05347656 10.03507813 5.04445312 10.94515625 5.03515625 11.8828125 C5.02355469 12.58148438 5.01195312 13.28015625 5 14 C4.67 14 4.34 14 4 14 C3.87625 12.9275 3.7525 11.855 3.625 10.75 C3.09390241 7.56341444 2.55851468 5.72740069 1 3 C0.67 2.01 0.34 1.02 0 0 Z " fill="#B3B0AB" transform="translate(138,134)"/>
<path d="M0 0 C0.33 0.66 0.66 1.32 1 2 C-2.3 2 -5.6 2 -9 2 C-9.33 1.34 -9.66 0.68 -10 0 C-6.33291043 -0.94296589 -3.64653273 -1.11421833 0 0 Z " fill="#77736D" transform="translate(150,128)"/>
<path d="M0 0 C0.99 0.33 1.98 0.66 3 1 C3 2.32 3 3.64 3 5 C2.01 5 1.02 5 0 5 C-0.33 5.66 -0.66 6.32 -1 7 C-2 4 -2 4 -1.0625 1.8125 C-0.5365625 0.9153125 -0.5365625 0.9153125 0 0 Z " fill="#F0E8C3" transform="translate(25,50)"/>
<path d="M0 0 C0.66 0.33 1.32 0.66 2 1 C1.1875 2.9375 1.1875 2.9375 0 5 C-3 6 -3 6 -6 5 C-2.25 1.125 -2.25 1.125 0 0 Z " fill="#F9F8DD" transform="translate(71,32)"/>
<path d="M0 0 C4.75481646 0.57634139 7.97048212 2.55068521 12 5 C9 6 9 6 6.73828125 5.00390625 C5.93777344 4.52824219 5.13726562 4.05257812 4.3125 3.5625 C3.50425781 3.08941406 2.69601563 2.61632812 1.86328125 2.12890625 C1.24839844 1.75636719 0.63351563 1.38382813 0 1 C0 0.67 0 0.34 0 0 Z " fill="#9F9C94" transform="translate(74,169)"/>
<path d="M0 0 C0.598125 0.309375 1.19625 0.61875 1.8125 0.9375 C4.08956772 2.10209704 4.08956772 2.10209704 7 3 C6.67 4.32 6.34 5.64 6 7 C3 5.1875 3 5.1875 0 3 C0 2.01 0 1.02 0 0 Z " fill="#D9CD9D" transform="translate(73,164)"/>
<path d="M0 0 C1.29315061 0.95632999 2.58446853 1.91513851 3.875 2.875 C4.59429687 3.40867188 5.31359375 3.94234375 6.0546875 4.4921875 C8 6 8 6 10 8 C7.8125 8.375 7.8125 8.375 5 8 C2.91167347 6.17130326 1.61663209 4.30947441 0 2 C0 1.34 0 0.68 0 0 Z " fill="#918B80" transform="translate(163,146)"/>
<path d="M0 0 C1.32 0 2.64 0 4 0 C4.33 0.99 4.66 1.98 5 3 C3.02 3.99 1.04 4.98 -1 6 C-0.67 4.02 -0.34 2.04 0 0 Z " fill="#E9DEB0" transform="translate(74,115)"/>
<path d="M0 0 C3.3 0.33 6.6 0.66 10 1 C10 1.66 10 2.32 10 3 C3.375 3.125 3.375 3.125 0 2 C0 1.34 0 0.68 0 0 Z " fill="#8D8A79" transform="translate(98,113)"/>
<path d="M0 0 C0.66 0 1.32 0 2 0 C1.625 2.4375 1.625 2.4375 1 5 C0.01 5.495 0.01 5.495 -1 6 C-1.99 5.67 -2.98 5.34 -4 5 C-3.67 4.01 -3.34 3.02 -3 2 C-2.01 2 -1.02 2 0 2 C0 1.34 0 0.68 0 0 Z " fill="#EADC9E" transform="translate(137,162)"/>
<path d="M0 0 C3.16377937 0.59945293 3.94747507 0.94605548 6.3125 3.375 C6.869375 4.24125 7.42625 5.1075 8 6 C7.67 6.99 7.34 7.98 7 9 C7 8.34 7 7.68 7 7 C6.34 7 5.68 7 5 7 C3.7109375 5.46875 3.7109375 5.46875 2.375 3.5 C1.70597656 2.52546875 1.70597656 2.52546875 1.0234375 1.53125 C0.68570313 1.0259375 0.34796875 0.520625 0 0 Z " fill="#9E9D97" transform="translate(84,46)"/>
<path d="M0 0 C3.3 0.33 6.6 0.66 10 1 C10 1.99 10 2.98 10 4 C6.39703406 4.41176754 5.21597933 4.1535853 2.1875 2 C1.465625 1.34 0.74375 0.68 0 0 Z " fill="#E4E7C4" transform="translate(153,46)"/>
<path d="M0 0 C0.66 0 1.32 0 2 0 C2 2.97 2 5.94 2 9 C1.01 9 0.02 9 -1 9 C-0.67 6.03 -0.34 3.06 0 0 Z " fill="#949490" transform="translate(188,138)"/>
<path d="M0 0 C-0.99 0.33 -1.98 0.66 -3 1 C-3.33 1.99 -3.66 2.98 -4 4 C-6.0625 4.6875 -6.0625 4.6875 -8 5 C-8.33 4.01 -8.66 3.02 -9 2 C-3.375 -1.125 -3.375 -1.125 0 0 Z " fill="#736F69" transform="translate(119,111)"/>
<path d="M0 0 C2.64 0 5.28 0 8 0 C7.67 0.99 7.34 1.98 7 3 C4.69 2.67 2.38 2.34 0 2 C0 1.34 0 0.68 0 0 Z " fill="#868580" transform="translate(127,68)"/>
<path d="M0 0 C0.66 0 1.32 0 2 0 C2.33 2.31 2.66 4.62 3 7 C2.34 7 1.68 7 1 7 C0.67 7.66 0.34 8.32 0 9 C0 6.03 0 3.06 0 0 Z " fill="#86847F" transform="translate(141,53)"/>
<path d="M0 0 C0.99 0.66 1.98 1.32 3 2 C-1.625 5 -1.625 5 -5 5 C-5 4.34 -5 3.68 -5 3 C-2.5 1.375 -2.5 1.375 0 0 Z " fill="#83837E" transform="translate(150,159)"/>
<path d="M0 0 C-1.33333333 0.33333333 -2.66666667 0.66666667 -4 1 C-4.70125 1.226875 -5.4025 1.45375 -6.125 1.6875 C-7.053125 1.8421875 -7.053125 1.8421875 -8 2 C-8.66 1.34 -9.32 0.68 -10 0 C-6.22996568 -2.61002376 -4.07631429 -1.66758312 0 0 Z " fill="#EEE8C9" transform="translate(84,132)"/>
<path d="M0 0 C0.99 0.495 0.99 0.495 2 1 C2 1.66 2 2.32 2 3 C2.61875 3.28875 3.2375 3.5775 3.875 3.875 C6 5 6 5 8 7 C7.01 7.495 7.01 7.495 6 8 C1.3125 4.38671875 1.3125 4.38671875 0 3 C0 2.01 0 1.02 0 0 Z " fill="#A6A298" transform="translate(46,104)"/>
<path d="M0 0 C0.99 0.66 1.98 1.32 3 2 C1.02 3.32 -0.96 4.64 -3 6 C-3.66 5.67 -4.32 5.34 -5 5 C-3.35 3.35 -1.7 1.7 0 0 Z " fill="#8C8B8B" transform="translate(159,71)"/>
<path d="M0 0 C5.75 -0.125 5.75 -0.125 8 1 C8 1.66 8 2.32 8 3 C8.66 3.33 9.32 3.66 10 4 C9.29875 3.855625 8.5975 3.71125 7.875 3.5625 C4.92443859 2.98521625 1.96729849 2.48304859 -1 2 C-0.67 1.34 -0.34 0.68 0 0 Z " fill="#BCBAB7" transform="translate(164,69)"/>
<path d="M0 0 C1.3303125 0.4021875 1.3303125 0.4021875 2.6875 0.8125 C2.6875 1.1425 2.6875 1.4725 2.6875 1.8125 C-4.74107143 3.95535714 -4.74107143 3.95535714 -8.3125 4.8125 C-4.12788462 -0.23365385 -4.12788462 -0.23365385 0 0 Z " fill="#F8F9E7" transform="translate(103.3125,5.1875)"/>
<path d="M0 0 C2.31 0.66 4.62 1.32 7 2 C6.67 2.66 6.34 3.32 6 4 C4.02 4 2.04 4 0 4 C0 2.68 0 1.36 0 0 Z " fill="#E9DDAF" transform="translate(25,133)"/>
<path d="M0 0 C0.99 0.33 1.98 0.66 3 1 C3 1.99 3 2.98 3 4 C4.65 4 6.3 4 8 4 C4.25 7 4.25 7 2 7 C1.34 4.69 0.68 2.38 0 0 Z " fill="#C8C6B5" transform="translate(137,123)"/>
<path d="M0 0 C0.33 0 0.66 0 1 0 C1.25 6.625 1.25 6.625 -1 10 C-1.66 10 -2.32 10 -3 10 C-2.01 6.7 -1.02 3.4 0 0 Z " fill="#615C59" transform="translate(123,97)"/>
<path d="M0 0 C0 0.66 0 1.32 0 2 C-2.35438733 3.42944945 -3.48032433 4.08661261 -6.25 3.625 C-6.8275 3.41875 -7.405 3.2125 -8 3 C-8 2.34 -8 1.68 -8 1 C-2.25 0 -2.25 0 0 0 Z " fill="#33312C" transform="translate(112,29)"/>
<path d="M0 0 C0.99 0 1.98 0 3 0 C2.1875 2.4375 2.1875 2.4375 1 5 C0.01 5.33 -0.98 5.66 -2 6 C-2 3 -2 3 0 0 Z " fill="#82807C" transform="translate(186,147)"/>
<path d="M0 0 C1.9375 0.6875 1.9375 0.6875 4 2 C4.75 4.625 4.75 4.625 5 7 C4.01 7.495 4.01 7.495 3 8 C1.92474806 5.34771188 0.90543849 2.71631546 0 0 Z " fill="#928D80" transform="translate(146,117)"/>
<path d="M0 0 C3.34373475 0.55728913 6.03312999 1.35173889 9 3 C5.18510326 4.46726798 2.70988378 3.43336419 -1 2 C-0.67 1.34 -0.34 0.68 0 0 Z " fill="#B1AEA3" transform="translate(92,110)"/>
<path d="M0 0 C1.32 0.33 2.64 0.66 4 1 C4 2.65 4 4.3 4 6 C2.68 5.67 1.36 5.34 0 5 C0.33 4.01 0.66 3.02 1 2 C0.67 1.34 0.34 0.68 0 0 Z " fill="#D8D3C1" transform="translate(85,86)"/>
<path d="M0 0 C2.475 0.495 2.475 0.495 5 1 C5.33 2.65 5.66 4.3 6 6 C5.67 5.01 5.34 4.02 5 3 C3.35 3 1.7 3 0 3 C0 2.01 0 1.02 0 0 Z " fill="#CECFCD" transform="translate(176,73)"/>
<path d="M0 0 C2.97 0 5.94 0 9 0 C9.33 1.32 9.66 2.64 10 4 C9.46375 3.67 8.9275 3.34 8.375 3 C5.4608939 1.77300796 3.13132292 1.85766714 0 2 C0 1.34 0 0.68 0 0 Z " fill="#F8F1C4" transform="translate(169,52)"/>
</svg>
