<?xml version="1.0" encoding="UTF-8"?>
<svg version="1.1" xmlns="http://www.w3.org/2000/svg" width="194" height="175">
<path d="M0 0 C1.73056641 -0.04253906 1.73056641 -0.04253906 3.49609375 -0.0859375 C4.60082031 -0.08851562 5.70554687 -0.09109375 6.84375 -0.09375 C7.85630859 -0.10083984 8.86886719 -0.10792969 9.91210938 -0.11523438 C12.5 0.5 12.5 0.5 14.30786133 2.90820312 C15.32967316 5.12969696 16.12795585 7.1279154 16.6875 9.5 C16.84605469 10.139375 17.00460938 10.77875 17.16796875 11.4375 C17.55109079 13.81736398 17.5543128 16.09352522 17.5 18.5 C18.20125 18.67015625 18.9025 18.8403125 19.625 19.015625 C25.72073842 20.57268862 30.98080518 22.48006321 36.5 25.5 C37.12648438 25.00628906 37.75296875 24.51257813 38.3984375 24.00390625 C39.21570313 23.36324219 40.03296875 22.72257812 40.875 22.0625 C41.68710938 21.42441406 42.49921875 20.78632813 43.3359375 20.12890625 C46.87385809 17.4658866 49.05512213 16.97707319 53.5 17.5 C55.21908662 19.11254356 56.87785076 20.78997445 58.5 22.5 C59.46679688 23.37398437 60.43359375 24.24796875 61.4296875 25.1484375 C62.41155501 26.05718722 63.39332533 26.96604197 64.375 27.875 C64.88546875 28.3184375 65.3959375 28.761875 65.921875 29.21875 C67.3671875 30.5859375 67.3671875 30.5859375 69.5 33.5 C69.52080651 38.29069857 68.57663221 41.05559588 65.375 44.5625 C62.89491459 47.59586122 62.89491459 47.59586122 62.375 51.4375 C63.61518329 54.81355451 65.05677916 58.05092929 66.578125 61.30859375 C67.71083664 64.0011837 68.20269424 66.60126882 68.5 69.5 C69.655 69.45875 70.81 69.4175 72 69.375 C76.49047225 69.38299016 80.22650947 70.10006345 84.5 71.5 C87.32987779 75.74481668 86.86789905 79.3830297 86.875 84.375 C86.89949219 85.27347656 86.92398438 86.17195313 86.94921875 87.09765625 C86.96760431 91.24666527 86.86560736 93.84122497 84.82421875 97.51953125 C82.18952675 99.76455451 80.29448846 100.53148636 76.9375 101.3125 C75.51244141 101.66248047 75.51244141 101.66248047 74.05859375 102.01953125 C71.5 102.5 71.5 102.5 68.5 102.5 C68.2525 103.49 68.005 104.48 67.75 105.5 C66.92992567 108.4787994 65.76308127 110.93621369 64.25 113.625 C62.63909545 116.66929995 62.63909545 116.66929995 63 120.0625 C63.495 120.866875 63.99 121.67125 64.5 122.5 C69.83869858 131.26626771 69.83869858 131.26626771 69.5 135.5 C67.16373933 138.84222702 64.55035938 141.79258043 61.5 144.5 C60.84 144.5 60.18 144.5 59.5 144.5 C59.2525 145.098125 59.005 145.69625 58.75 146.3125 C57.23978707 148.95537263 56.21973773 150.10337792 53.5 151.5 C47.64287642 151.61263699 44.6578587 149.43052007 40.4921875 145.6796875 C38.5638237 144.27968276 38.5638237 144.27968276 36.26953125 144.67578125 C35.35558594 144.94777344 34.44164062 145.21976563 33.5 145.5 C32.88447266 145.65275391 32.26894531 145.80550781 31.63476562 145.96289062 C26.76206976 147.21004114 21.63877966 148.55218055 17.5 151.5 C15.95259701 154.73468422 15.69090963 157.03264306 15.66796875 160.59765625 C15.4623118 164.15121706 14.86165068 165.82798865 12.5 168.5 C9.4609375 169.0234375 9.4609375 169.0234375 5.875 168.875 C4.62589844 168.82472656 3.37679687 168.77445313 2.08984375 168.72265625 C0.90519531 168.64917969 -0.27945313 168.57570312 -1.5 168.5 C-2.40621094 168.47808594 -3.31242187 168.45617187 -4.24609375 168.43359375 C-8.3986859 168.21651052 -10.11297387 167.79833264 -13.5 165.1875 C-17.07877559 160.37852031 -16.59719655 156.33179327 -16.5 150.5 C-17.31791016 150.35304687 -17.31791016 150.35304687 -18.15234375 150.203125 C-22.47572261 149.34583962 -26.22264816 148.26121119 -30.1875 146.3125 C-32.954189 145.04403532 -34.46976903 144.50123392 -37.5625 144.375 C-41.10290147 145.73089844 -43.59889107 147.68024271 -46.47265625 150.125 C-48.91468843 151.78125304 -50.54842327 152.36186068 -53.5 152.5 C-55.5625 151.2421875 -55.5625 151.2421875 -57.5 149.375 C-58.5209375 148.40626953 -58.5209375 148.40626953 -59.5625 147.41796875 C-60.201875 146.78503906 -60.84125 146.15210938 -61.5 145.5 C-62.304375 144.75169922 -62.304375 144.75169922 -63.125 143.98828125 C-64.30031637 142.87640526 -65.40828333 141.69406511 -66.5 140.5 C-66.5 139.84 -66.5 139.18 -66.5 138.5 C-67.16 138.5 -67.82 138.5 -68.5 138.5 C-69.96381927 136.17511057 -70.53565999 134.90084474 -70.2890625 132.12890625 C-69.35610795 129.02059728 -67.99635818 127.50193012 -65.8125 125.125 C-62.77688203 121.53563809 -62.77688203 121.53563809 -62.875 116.875 C-63.41125 115.76125 -63.9475 114.6475 -64.5 113.5 C-67.5 106.80660377 -67.5 106.80660377 -67.5 102.5 C-69.07201172 102.20996094 -69.07201172 102.20996094 -70.67578125 101.9140625 C-72.05475593 101.65140066 -73.43365849 101.38836 -74.8125 101.125 C-75.84793945 100.93550781 -75.84793945 100.93550781 -76.90429688 100.7421875 C-80.33703314 100.07885682 -82.55246458 99.46502361 -85.5 97.5 C-85.84057617 94.97802734 -85.84057617 94.97802734 -85.79296875 91.8359375 C-85.78330078 90.71445313 -85.77363281 89.59296875 -85.76367188 88.4375 C-85.73853516 87.261875 -85.71339844 86.08625 -85.6875 84.875 C-85.67396484 83.69164063 -85.66042969 82.50828125 -85.64648438 81.2890625 C-85.61103916 78.35892461 -85.56162769 75.42968541 -85.5 72.5 C-81.42838889 70.63033205 -78.30683001 69.3287709 -73.8125 69.0625 C-71.47449903 68.72984804 -71.47449903 68.72984804 -69.5 67.5 C-67.99322164 64.55331213 -67.17429443 61.69936851 -66.33984375 58.5 C-65.30887166 54.81727179 -63.82428507 52.48836652 -61.5 49.5 C-62.34884766 48.62988281 -62.34884766 48.62988281 -63.21484375 47.7421875 C-66.28943445 44.46766736 -69.0202217 41.52213638 -70.9375 37.4375 C-70.33495231 33.39182263 -68.40694982 31.55718238 -65.6015625 28.66796875 C-63.44187669 26.50353882 -63.44187669 26.50353882 -61.4609375 23.98828125 C-60.79320313 23.16714844 -60.12546875 22.34601562 -59.4375 21.5 C-58.82777344 20.736875 -58.21804687 19.97375 -57.58984375 19.1875 C-55.5 17.5 -55.5 17.5 -52.55078125 17.1015625 C-49.37293972 17.5165943 -47.48462377 18.24365547 -44.75 19.875 C-43.99203125 20.31585937 -43.2340625 20.75671875 -42.453125 21.2109375 C-40.5 22.5 -40.5 22.5 -38.5 24.5 C-33.39391425 24.01074091 -28.88336888 21.601408 -24.2421875 19.55859375 C-21.5 18.5 -21.5 18.5 -18.5 18.5 C-18.31824219 17.45199219 -18.13648437 16.40398438 -17.94921875 15.32421875 C-17.69592942 13.94519905 -17.44198904 12.56629881 -17.1875 11.1875 C-17.06955078 10.49720703 -16.95160156 9.80691406 -16.83007812 9.09570312 C-14.88292954 -1.23916243 -9.21420153 -0.02059039 0 0 Z M-38.3671875 48.0546875 C-48.28615401 59.42698243 -53.33713662 74.08710402 -52.81640625 89.12109375 C-51.41547407 104.0816658 -44.83950336 116.49894853 -33.375 126.125 C-20.82196694 135.52920827 -5.78334158 137.86630856 9.5 136.5 C21.79070552 134.37302139 33.77715738 127.4049726 41.5 117.5 C49.96702448 104.87900735 54.50842552 91.75613997 52.00390625 76.47265625 C49.26170672 64.43486507 44.10262037 56.26465603 35.5 47.5 C34.72398437 46.654375 33.94796875 45.80875 33.1484375 44.9375 C30.1596599 42.18676664 27.27227433 40.58825172 23.625 38.8125 C21.86542969 37.94044922 21.86542969 37.94044922 20.0703125 37.05078125 C0.08433577 28.3697826 -22.62080831 33.21132647 -38.3671875 48.0546875 Z " fill="#EFDA9B" transform="translate(97.5,3.5)"/>
<path d="M0 0 C3.39492584 2.61148142 4.71126356 4.79735348 5.2734375 9.0859375 C5.4734462 13.59382585 5.5159909 15.36493427 2.5625 19 C1.716875 19.66 0.87125 20.32 0 21 C-1.84913943 22.84913943 -1.17339215 25.8788482 -1.20532227 28.35571289 C-1.22017166 29.35079613 -1.22017166 29.35079613 -1.23532104 30.36598206 C-1.26701737 32.56816995 -1.29172534 34.77037945 -1.31640625 36.97265625 C-1.33696878 38.49580968 -1.35796505 40.01895731 -1.37937927 41.542099 C-1.43467247 45.55831214 -1.48404963 49.57457738 -1.53222656 53.59088135 C-1.58238882 57.68628599 -1.63810236 61.78161461 -1.69335938 65.87695312 C-1.80102954 73.91790455 -1.90245467 81.95891941 -2 90 C-5.465 90.495 -5.465 90.495 -9 91 C-10.12659519 87.62021442 -10.12020983 85.07183864 -10.11352539 81.5090332 C-10.11367142 80.8551059 -10.11381744 80.20117859 -10.1139679 79.5274353 C-10.11327188 77.36851674 -10.10549408 75.20968472 -10.09765625 73.05078125 C-10.09579096 71.55291287 -10.09436758 70.05504389 -10.09336853 68.55717468 C-10.08955207 64.61654981 -10.0797292 60.67596186 -10.06866455 56.73535156 C-10.05843172 52.71354675 -10.0538669 48.69173596 -10.04882812 44.66992188 C-10.03810616 36.77993099 -10.02104017 28.88997009 -10 21 C-10.62390625 20.70351562 -11.2478125 20.40703125 -11.890625 20.1015625 C-14.57862356 18.69782992 -15.58005957 17.69788683 -17 15 C-17.60220318 10.91840069 -17.92080832 8.51151554 -15.7578125 4.9609375 C-11.14496453 -0.61578915 -7.20827291 -1.90379789 0 0 Z M-6 7 C-7.64555699 8.22809091 -7.64555699 8.22809091 -9 10 C-9.00478037 12.1477633 -9.00478037 12.1477633 -8 14 C-7.01 14.33 -6.02 14.66 -5 15 C-3.35444301 13.77190909 -3.35444301 13.77190909 -2 12 C-1.99521963 9.8522367 -1.99521963 9.8522367 -3 8 C-3.99 7.67 -4.98 7.34 -6 7 Z " fill="#F2DFAA" transform="translate(103,45)"/>
<path d="M0 0 C3.3832887 2.63896519 4.74413945 4.00218471 5.28515625 8.2265625 C5.11403374 12.31981297 4.39450404 15.19763364 1.375 18.0625 C-2.48905068 20.28075131 -4.63246603 20.16079994 -9 20 C-8.99555878 20.68460297 -8.99111755 21.36920593 -8.98654175 22.07455444 C-8.94240503 29.17923909 -8.9121739 36.283885 -8.89013672 43.38867188 C-8.88005911 46.04265931 -8.86639687 48.6966356 -8.84912109 51.35058594 C-8.82495008 55.15823107 -8.81353465 58.96572984 -8.8046875 62.7734375 C-8.79436493 63.96617279 -8.78404236 65.15890808 -8.77340698 66.38778687 C-8.77325592 67.48877716 -8.77310486 68.58976746 -8.77294922 69.72412109 C-8.768508 70.69674896 -8.76406677 71.66937683 -8.75949097 72.67147827 C-9 75 -9 75 -11 77 C-13.5625 77.1875 -13.5625 77.1875 -16 77 C-17.66626776 75.33373224 -17.12744805 73.33305101 -17.12939453 71.04394531 C-17.13254669 69.98483948 -17.13569885 68.92573364 -17.13894653 67.83453369 C-17.1369223 66.67741882 -17.13489807 65.52030396 -17.1328125 64.328125 C-17.13376923 63.13958923 -17.13472595 61.95105347 -17.13571167 60.72650146 C-17.13639435 58.19771268 -17.13453397 55.66892217 -17.13037109 53.14013672 C-17.12508039 49.30822682 -17.13028356 45.4764372 -17.13671875 41.64453125 C-17.13605688 39.18489558 -17.13477347 36.72525998 -17.1328125 34.265625 C-17.13483673 33.1328009 -17.13686096 31.99997681 -17.13894653 30.83282471 C-17.07212777 7.58032325 -17.07212777 7.58032325 -13 2 C-8.82896387 -0.54005405 -4.75999012 -0.93847052 0 0 Z M-7 7 C-7.33 8.65 -7.66 10.3 -8 12 C-7.01 12.33 -6.02 12.66 -5 13 C-4.34 12.67 -3.68 12.34 -3 12 C-3.33 10.35 -3.66 8.7 -4 7 C-4.99 7 -5.98 7 -7 7 Z " fill="#CEBA8F" transform="translate(126,56)"/>
<path d="M0 0 C2.92810762 1.81651121 5.43591638 3.87183276 7 7 C7.42074378 10.05940837 7.47999423 12.9459708 7 16 C4.47031526 19.28175318 2.92268669 20.69243777 -1 22 C-1.01981934 22.61520508 -1.03963867 23.23041016 -1.06005859 23.86425781 C-1.15549727 26.65992542 -1.26509955 29.4548651 -1.375 32.25 C-1.42140625 33.70212891 -1.42140625 33.70212891 -1.46875 35.18359375 C-1.52675781 36.58544922 -1.52675781 36.58544922 -1.5859375 38.015625 C-1.6173584 38.87446289 -1.6487793 39.73330078 -1.68115234 40.61816406 C-2.02620236 43.19573526 -2.58420084 44.82339353 -4 47 C-7.125 48.75 -7.125 48.75 -10 50 C-11 49 -11 49 -11.05004883 46.31958008 C-11.01935303 45.14806396 -10.98865723 43.97654785 -10.95703125 42.76953125 C-10.93576172 41.49142578 -10.91449219 40.21332031 -10.89257812 38.89648438 C-10.85563657 36.85980577 -10.81283665 34.8239892 -10.75317383 32.7878418 C-10.69829196 30.82383783 -10.67114637 28.8591216 -10.64453125 26.89453125 C-10.61721924 25.71737549 -10.58990723 24.54021973 -10.56176758 23.32739258 C-11.08992954 19.31718678 -12.62122019 17.21701651 -15 14 C-15.46366822 11.11900536 -14.98587746 8.73792254 -14 6 C-9.95379126 0.99547867 -6.43531121 -0.75709544 0 0 Z M-5 8 C-5.66 9.32 -6.32 10.64 -7 12 C-5.93354885 13.29633621 -5.93354885 13.29633621 -3.4375 13.0625 C-2.633125 13.041875 -1.82875 13.02125 -1 13 C-0.67 11.68 -0.34 10.36 0 9 C-1.65 8.67 -3.3 8.34 -5 8 Z " fill="#D2BF97" transform="translate(136,76)"/>
<path d="M0 0 C2.30305343 3.68488549 2.76280788 7.18567642 2.5625 11.5 C0.82952149 15.78684157 -0.17729929 16.36989964 -4.4375 18.5 C-4.4375 28.07 -4.4375 37.64 -4.4375 47.5 C-9.4375 45.5 -9.4375 45.5 -12.4375 43.5 C-12.77807617 40.97802734 -12.77807617 40.97802734 -12.73046875 37.8359375 C-12.72080078 36.71445313 -12.71113281 35.59296875 -12.70117188 34.4375 C-12.67603516 33.261875 -12.65089844 32.08625 -12.625 30.875 C-12.61146484 29.69164062 -12.59792969 28.50828125 -12.58398438 27.2890625 C-12.54853916 24.35892461 -12.49912769 21.42968541 -12.4375 18.5 C-13.06140625 18.21511719 -13.6853125 17.93023437 -14.328125 17.63671875 C-17.25458048 16.05968441 -18.09312606 14.52484138 -19.4375 11.5 C-19.9541595 7.36672399 -19.90638301 5.28147168 -17.75 1.6875 C-12.48856267 -3.28953532 -6.16866727 -3.79610293 0 0 Z M-11.4375 5.5 C-12.1189823 7.39179203 -12.1189823 7.39179203 -12.4375 9.5 C-11.7775 10.16 -11.1175 10.82 -10.4375 11.5 C-8.34458843 11.41428339 -8.34458843 11.41428339 -6.4375 10.5 C-6.1075 9.51 -5.7775 8.52 -5.4375 7.5 C-6.0975 6.84 -6.7575 6.18 -7.4375 5.5 C-8.7575 5.5 -10.0775 5.5 -11.4375 5.5 Z " fill="#F1E6B7" transform="translate(74.4375,77.5)"/>
<path d="M0 0 C3 0.3125 3 0.3125 6 1 C7.71785224 4.43570448 7.26708873 8.38619879 7.3515625 12.171875 C7.37471527 13.08704895 7.39786804 14.0022229 7.42172241 14.94512939 C7.4694002 16.88523758 7.51462956 18.82540723 7.55761719 20.765625 C7.62441758 23.72420457 7.70230997 26.68234746 7.78125 29.640625 C7.82619584 31.5260257 7.87048767 33.41144212 7.9140625 35.296875 C7.93796051 36.17833191 7.96185852 37.05978882 7.98648071 37.96795654 C8.07714273 42.4501786 7.93206327 46.58553223 7 51 C4.36 51 1.72 51 -1 51 C-1.02526787 43.89755001 -1.04283201 36.79511152 -1.05493164 29.69262695 C-1.05997349 27.27432828 -1.06680678 24.85603267 -1.07543945 22.43774414 C-1.08751157 18.97020717 -1.09322963 15.50271034 -1.09765625 12.03515625 C-1.10281754 10.94662857 -1.10797882 9.85810089 -1.11329651 8.73658752 C-1.11337204 7.73562546 -1.11344757 6.73466339 -1.11352539 5.70336914 C-1.115746 4.81734512 -1.11796661 3.93132111 -1.12025452 3.01844788 C-1 1 -1 1 0 0 Z " fill="#F1DBA5" transform="translate(79,81)"/>
<path d="M0 0 C1.22024564 5.70010938 1.12702021 11.28871925 1.09765625 17.0859375 C1.0962413 18.14285797 1.09482635 19.19977844 1.09336853 20.28872681 C1.0877894 23.65084716 1.07524069 27.01289991 1.0625 30.375 C1.05748231 32.66015529 1.05291987 34.94531162 1.04882812 37.23046875 C1.03782679 42.8203354 1.02110944 48.41016287 1 54 C-0.98 54.66 -2.96 55.32 -5 56 C-5 37.85 -5 19.7 -5 1 C-2 0 -2 0 0 0 Z " fill="#EED6A0" transform="translate(114,76)"/>
<path d="M0 0 C0.6875 1.6875 0.6875 1.6875 1 4 C-0.85361191 8.09745791 -1.83449959 8.91724979 -6 11 C-6 20.57 -6 30.14 -6 40 C-11 38 -11 38 -14 36 C-14.34057617 33.47802734 -14.34057617 33.47802734 -14.29296875 30.3359375 C-14.28330078 29.21445313 -14.27363281 28.09296875 -14.26367188 26.9375 C-14.23853516 25.761875 -14.21339844 24.58625 -14.1875 23.375 C-14.17396484 22.19164063 -14.16042969 21.00828125 -14.14648438 19.7890625 C-14.11103916 16.85892461 -14.06162769 13.92968541 -14 11 C-14.63421875 10.72414063 -15.2684375 10.44828125 -15.921875 10.1640625 C-18.69544432 8.6104466 -19.06607784 6.95742018 -20 4 C-18.7315625 5.2375 -18.7315625 5.2375 -17.4375 6.5 C-14.84964397 8.64230535 -13.93751647 9.00986582 -10.4375 9.5625 C-6.40244275 8.90221791 -4.79479947 7.9545023 -2 5 C-0.66701026 2.38181544 -0.66701026 2.38181544 0 0 Z " fill="#E8D5A5" transform="translate(76,85)"/>
<path d="M0 0 C-3.35529869 1.14125806 -5.14513964 0.83534496 -8.4375 -0.375 C-22.59490591 -4.81208786 -36.93953737 -2.95829348 -50.0625 3.8125 C-51.73357812 4.83483631 -53.38210481 5.89542372 -55 7 C-55.71414062 7.47824219 -56.42828125 7.95648438 -57.1640625 8.44921875 C-66.90821165 15.91722495 -71.45538646 27.80405022 -74.30859375 39.33203125 C-75 42 -75 42 -76 43 C-76.23075082 44.34747084 -76.41153063 45.70377565 -76.5625 47.0625 C-76.7790625 49.0115625 -76.7790625 49.0115625 -77 51 C-77.33 51 -77.66 51 -78 51 C-79.23125153 36.06081479 -73.41594542 22.35821684 -64.1953125 10.72265625 C-47.64675772 -7.16488948 -21.44184505 -10.47159874 0 0 Z " fill="#66645D" transform="translate(121,40)"/>
<path d="M0 0 C3 1 3 1 4 3 C4.14640501 4.64142541 4.22096589 6.2898141 4.25 7.9375 C4.28867188 9.25041016 4.28867188 9.25041016 4.328125 10.58984375 C4 13 4 13 2.796875 14.75390625 C0.57491813 16.29478504 -1.34256021 16.64088651 -4 17 C-3.98839844 17.97839844 -3.97679687 18.95679687 -3.96484375 19.96484375 C-3.86610602 34.31002551 -3.86610602 34.31002551 -5 41 C-5.66 41.66 -6.32 42.32 -7 43 C-8.32 43 -9.64 43 -11 43 C-11.39808197 36.17363148 -10.7949382 29.71160027 -9.625 23 C-9.49891357 22.2582251 -9.37282715 21.5164502 -9.24291992 20.75219727 C-8.60039473 17.25979429 -7.99471022 14.99206533 -6 12 C-4.68 12 -3.36 12 -2 12 C-2.99 11.34 -3.98 10.68 -5 10 C-3.68 10 -2.36 10 -1 10 C-1 8.68 -1 7.36 -1 6 C-2.32 5.34 -3.64 4.68 -5 4 C-3.68 4 -2.36 4 -1 4 C-0.67 2.68 -0.34 1.36 0 0 Z " fill="#E3C78E" transform="translate(136,79)"/>
<path d="M0 0 C3 2 3 2 3.40405273 3.98364258 C3.43604174 6.59431528 3.45773937 9.20162125 3.4375 11.8125 C3.4674707 13.16698242 3.4674707 13.16698242 3.49804688 14.54882812 C3.49499155 18.70712996 3.36660613 21.34010897 1.3203125 25.0234375 C-1.31217558 27.26592735 -3.20857947 28.03220012 -6.5625 28.8125 C-7.51253906 29.04582031 -8.46257812 29.27914062 -9.44140625 29.51953125 C-12 30 -12 30 -15 30 C-15.2475 30.99 -15.495 31.98 -15.75 33 C-16.57007433 35.9787994 -17.73691873 38.43621369 -19.25 41.125 C-20.86090455 44.16929995 -20.86090455 44.16929995 -20.5 47.5625 C-20.005 48.366875 -19.51 49.17125 -19 50 C-13.81320182 58.5168437 -13.81320182 58.5168437 -14 63 C-16.07210849 66.42994068 -18.30051762 69.46157992 -22.20703125 70.69921875 C-23.09455078 70.84810547 -23.09455078 70.84810547 -24 71 C-22.90098719 68.43563678 -21.99502431 66.99560968 -19.875 65.125 C-17.75914293 63.10064905 -17.75914293 63.10064905 -17.5 60.125 C-18.12121837 56.2423852 -19.57826219 54.06278606 -22 51 C-22.66 50.67 -23.32 50.34 -24 50 C-24.71630064 44.55611512 -22.80904635 41.10531657 -20.265625 36.47265625 C-19.13767874 34.26898347 -18.55192691 32.37347168 -17.9375 30 C-16 27 -16 27 -13.25390625 26.19921875 C-11.11603226 25.86301048 -8.96707779 25.59003063 -6.8125 25.38671875 C-3.79836936 25.18060513 -3.79836936 25.18060513 -1 23 C-0.49095616 20.5842887 -0.49095616 20.5842887 -0.48828125 17.7734375 C-0.45283203 16.7421875 -0.41738281 15.7109375 -0.38085938 14.6484375 C-0.35830078 13.56820312 -0.33574219 12.48796875 -0.3125 11.375 C-0.27833984 10.28703125 -0.24417969 9.1990625 -0.20898438 8.078125 C-0.12631666 5.38551937 -0.05722913 2.69324709 0 0 Z " fill="#8C897E" transform="translate(181,76)"/>
<path d="M0 0 C3.45277903 1.23313537 5.15486581 3.27235522 7.625 5.9375 C10.37341911 8.21421738 10.37341911 8.21421738 13.125 7.75 C15.76162075 6.89309826 16.88189748 6.04757147 18.625 3.9375 C19.615 4.4325 19.615 4.4325 20.625 4.9375 C19.25516497 8.09865776 18.6359362 8.9302092 15.625 10.9375 C9.75021156 10.9375 6.80640432 8.8892209 2.6171875 5.1171875 C0.6888237 3.71718276 0.6888237 3.71718276 -1.60546875 4.11328125 C-2.51941406 4.38527344 -3.43335938 4.65726563 -4.375 4.9375 C-4.99052734 5.09025391 -5.60605469 5.24300781 -6.24023438 5.40039062 C-11.11293024 6.64754114 -16.23622034 7.98968055 -20.375 10.9375 C-21.92240299 14.17218422 -22.18409037 16.47014306 -22.20703125 20.03515625 C-22.4129332 23.5929504 -23.00444094 25.26637926 -25.375 27.9375 C-28.484375 28.4609375 -28.484375 28.4609375 -32.125 28.3125 C-33.37023437 28.26867187 -34.61546875 28.22484375 -35.8984375 28.1796875 C-39.45139446 27.93217814 -42.87840833 27.60351746 -46.375 26.9375 C-46.375 26.6075 -46.375 26.2775 -46.375 25.9375 C-36.475 25.4425 -36.475 25.4425 -26.375 24.9375 C-24.63857694 18.94750582 -24.63857694 18.94750582 -23.75 13 C-23.67523438 12.22785156 -23.60046875 11.45570313 -23.5234375 10.66015625 C-23.47445312 10.09167969 -23.42546875 9.52320313 -23.375 8.9375 C-18.27070285 6.66892349 -13.10415148 4.73716301 -7.828125 2.90234375 C-0.42073597 -0.011072 -0.42073597 -0.011072 0 0 Z " fill="#8F8C82" transform="translate(135.375,144.0625)"/>
<path d="M0 0 C0.66 0.33 1.32 0.66 2 1 C2.78734859 9.03095559 2.78734859 9.03095559 -0.4375 13 C-1.283125 13.66 -2.12875 14.32 -3 15 C-4.84913943 16.84913943 -4.17339215 19.8788482 -4.20532227 22.35571289 C-4.21522186 23.01910172 -4.22512146 23.68249054 -4.23532104 24.36598206 C-4.26701737 26.56816995 -4.29172534 28.77037945 -4.31640625 30.97265625 C-4.33696878 32.49580968 -4.35796505 34.01895731 -4.37937927 35.542099 C-4.43467247 39.55831214 -4.48404963 43.57457738 -4.53222656 47.59088135 C-4.58238882 51.68628599 -4.63810236 55.78161461 -4.69335938 59.87695312 C-4.80102954 67.91790455 -4.90245467 75.95891941 -5 84 C-8.465 84.495 -8.465 84.495 -12 85 C-12 84.34 -12 83.68 -12 83 C-10.35 83 -8.7 83 -7 83 C-7.01110306 82.15697327 -7.02220612 81.31394653 -7.03364563 80.44537354 C-7.13383771 72.49999099 -7.20995963 64.55482064 -7.25906086 56.60895157 C-7.28515327 52.52385762 -7.32054342 48.43928568 -7.37719727 44.35449219 C-7.43153189 40.41223778 -7.46142322 36.47048538 -7.47438622 32.52788544 C-7.4836237 31.02392421 -7.50166295 29.51999043 -7.52865028 28.01624298 C-7.56496389 25.90898832 -7.56994498 23.80380636 -7.56762695 21.69628906 C-7.57873001 20.49715881 -7.58983307 19.29802856 -7.60127258 18.06256104 C-6.82318668 14.09940749 -5.27011921 13.20828962 -2 11 C-0.85185003 8.70370006 -0.69230191 6.92301914 -0.4375 4.375 C-0.35371094 3.55773438 -0.26992187 2.74046875 -0.18359375 1.8984375 C-0.12300781 1.27195313 -0.06242187 0.64546875 0 0 Z " fill="#635B4A" transform="translate(106,51)"/>
<path d="M0 0 C0.66 0.33 1.32 0.66 2 1 C2.16811377 6.87140208 2.32861941 12.74294527 2.48217773 18.61474609 C2.53544079 20.6108963 2.59075705 22.60699285 2.64819336 24.60302734 C2.73054396 27.4774214 2.80543035 30.35192955 2.87890625 33.2265625 C2.90594131 34.11429352 2.93297638 35.00202454 2.96083069 35.91665649 C3.06851739 40.4200705 2.9423574 44.56425709 2 49 C-0.64 49 -3.28 49 -6 49 C-6.04935824 43.76726669 -6.08569949 38.53466824 -6.10986328 33.30175781 C-6.11993431 31.52080933 -6.13359185 29.73987743 -6.15087891 27.95898438 C-6.17507913 25.40230217 -6.18647184 22.84583815 -6.1953125 20.2890625 C-6.20563507 19.49005524 -6.21595764 18.69104797 -6.22659302 17.86782837 C-6.22699226 15.9104278 -6.12241069 13.95356923 -6 12 C-5.34 11.34 -4.68 10.68 -4 10 C-4 21.88 -4 33.76 -4 46 C-2.515 45.505 -2.515 45.505 -1 45 C-0.67 30.15 -0.34 15.3 0 0 Z " fill="#9A917C" transform="translate(84,83)"/>
<path d="M0 0 C1.23556641 0.01740234 1.23556641 0.01740234 2.49609375 0.03515625 C3.32238281 0.04417969 4.14867188 0.05320312 5 0.0625 C5.63808594 0.07410156 6.27617188 0.08570312 6.93359375 0.09765625 C6.60359375 0.75765625 6.27359375 1.41765625 5.93359375 2.09765625 C3.62359375 2.09765625 1.31359375 2.09765625 -1.06640625 2.09765625 C-1.06196503 2.78225922 -1.0575238 3.46686218 -1.052948 4.17221069 C-1.00881128 11.27689534 -0.97858015 18.38154125 -0.95654297 25.48632812 C-0.94646536 28.14031556 -0.93280312 30.79429185 -0.91552734 33.44824219 C-0.89135633 37.25588732 -0.8799409 41.06338609 -0.87109375 44.87109375 C-0.86077118 46.06382904 -0.85044861 47.25656433 -0.83981323 48.48544312 C-0.83966217 49.58643341 -0.83951111 50.68742371 -0.83935547 51.82177734 C-0.83491425 52.79440521 -0.83047302 53.76703308 -0.82589722 54.76913452 C-1.06640625 57.09765625 -1.06640625 57.09765625 -3.06640625 59.09765625 C-5.69140625 59.22265625 -5.69140625 59.22265625 -8.06640625 59.09765625 C-8.06640625 58.43765625 -8.06640625 57.77765625 -8.06640625 57.09765625 C-5.59140625 56.60265625 -5.59140625 56.60265625 -3.06640625 56.09765625 C-3.06862686 55.41083267 -3.07084747 54.72400909 -3.07313538 54.01637268 C-3.0951852 46.89560463 -3.11031158 39.77484621 -3.12133789 32.65405273 C-3.12638008 29.99324144 -3.13321361 27.33243293 -3.1418457 24.67163086 C-3.15391634 20.85660109 -3.15963554 17.04160781 -3.1640625 13.2265625 C-3.16922379 12.02866592 -3.17438507 10.83076935 -3.17970276 9.59657288 C-3.17977829 8.49550705 -3.17985382 7.39444122 -3.17993164 6.26000977 C-3.18215225 5.28516129 -3.18437286 4.31031281 -3.18666077 3.30592346 C-3.02919288 0.4142968 -2.89336287 0.13673738 0 0 Z " fill="#645944" transform="translate(118.06640625,73.90234375)"/>
<path d="M0 0 C0.66 0 1.32 0 2 0 C2.91368176 4.65977696 3.44465928 7.80915552 1 12 C-0.95458396 14.2673174 -2.27838333 14.94266949 -5.26171875 15.1796875 C-7.51635294 15.18676641 -9.74941185 15.12984162 -12 15 C-12.33 17.31 -12.66 19.62 -13 22 C-13.33 22 -13.66 22 -14 22 C-14 20.02 -14 18.04 -14 16 C-15.32 16.99 -16.64 17.98 -18 19 C-17.94014621 16.70759993 -17.85140973 14.41593794 -17.75 12.125 C-17.70359375 10.84882812 -17.6571875 9.57265625 -17.609375 8.2578125 C-17 5 -17 5 -15.140625 3.6796875 C-14.43421875 3.45539062 -13.7278125 3.23109375 -13 3 C-12.01 2.34 -11.02 1.68 -10 1 C-7.8125 1.375 -7.8125 1.375 -6 2 C-6.99 2.66 -7.98 3.32 -9 4 C-8.67 5.98 -8.34 7.96 -8 10 C-8.99 10.33 -9.98 10.66 -11 11 C-11.33 11.66 -11.66 12.32 -12 13 C-10.35333797 12.8864371 -8.70763918 12.75882619 -7.0625 12.625 C-6.14597656 12.55539063 -5.22945312 12.48578125 -4.28515625 12.4140625 C-3.15400391 12.20910156 -3.15400391 12.20910156 -2 12 C-0.78306124 9.56612247 -0.68040104 7.58161154 -0.4375 4.875 C-0.35371094 3.96492188 -0.26992187 3.05484375 -0.18359375 2.1171875 C-0.09271484 1.06917969 -0.09271484 1.06917969 0 0 Z " fill="#CAAD7A" transform="translate(128,60)"/>
<path d="M0 0 C0 1.98 0 3.96 0 6 C0.4125 5.484375 0.825 4.96875 1.25 4.4375 C1.8275 3.963125 2.405 3.48875 3 3 C5.1875 3.3125 5.1875 3.3125 7 4 C5.68 4.33 4.36 4.66 3 5 C2.83312552 7.41645782 2.83312552 7.41645782 3 10 C3.66 10.66 4.32 11.32 5 12 C4.625 15.125 4.625 15.125 4 18 C1.8125 18.375 1.8125 18.375 -1 18 C-3.87676896 15.44287204 -5.64130675 13.74988667 -6.41796875 9.9609375 C-6.54466886 6.73913462 -6.18693425 4.35606524 -4.6875 1.5 C-3 0 -3 0 0 0 Z " fill="#E9D9A2" transform="translate(92,48)"/>
<path d="M0 0 C5.445 1.98 5.445 1.98 11 4 C11 4.66 11 5.32 11 6 C12.051875 5.9071875 12.051875 5.9071875 13.125 5.8125 C16.65260212 6.04256101 18.93984351 7.29200568 22 9 C22 9.33 22 9.66 22 10 C16.86566371 9.67401039 12.94346786 9.15898075 8.3125 6.875 C5.53442417 5.5676702 4.05922425 5.00241732 0.9375 4.875 C-2.62640703 6.23990056 -5.13814152 8.26615815 -8.109375 10.625 C-10.41226799 12.29983127 -12.13969096 13 -15 13 C-15.99 12.34 -16.98 11.68 -18 11 C-18 10.34 -18 9.68 -18 9 C-16.88625 8.71125 -15.7725 8.4225 -14.625 8.125 C-10.99708908 7.30758671 -10.99708908 7.30758671 -9 5 C-7.5459375 4.5359375 -7.5459375 4.5359375 -6.0625 4.0625 C-2.71397954 3.15025305 -2.71397954 3.15025305 0 0 Z " fill="#ACA088" transform="translate(59,143)"/>
<path d="M0 0 C0.66 0.33 1.32 0.66 2 1 C2.78279267 8.98448519 2.78279267 8.98448519 -0.3125 13 C-3 15 -3 15 -6 16 C-6.01981934 16.61520508 -6.03963867 17.23041016 -6.06005859 17.86425781 C-6.15549727 20.65992542 -6.26509955 23.4548651 -6.375 26.25 C-6.42140625 27.70212891 -6.42140625 27.70212891 -6.46875 29.18359375 C-6.52675781 30.58544922 -6.52675781 30.58544922 -6.5859375 32.015625 C-6.6173584 32.87446289 -6.6487793 33.73330078 -6.68115234 34.61816406 C-7.02620236 37.19573526 -7.58420084 38.82339353 -9 41 C-12.125 42.75 -12.125 42.75 -15 44 C-15.33 42.68 -15.66 41.36 -16 40 C-14.35 39.34 -12.7 38.68 -11 38 C-10.97083496 37.2886792 -10.94166992 36.5773584 -10.91162109 35.84448242 C-10.76270367 32.62328801 -10.56940917 29.40625552 -10.375 26.1875 C-10.32988281 25.06794922 -10.28476563 23.94839844 -10.23828125 22.79492188 C-10.03676977 19.7447709 -9.79994438 16.95145903 -9 14 C-6.0390625 11.86328125 -6.0390625 11.86328125 -3 11 C-0.60236815 8.60236815 -0.65719414 7.66726502 -0.375 4.375 C-0.30023438 3.55773437 -0.22546875 2.74046875 -0.1484375 1.8984375 C-0.09945312 1.27195312 -0.05046875 0.64546875 0 0 Z " fill="#7E786E" transform="translate(141,82)"/>
<path d="M0 0 C2.5 2.0625 2.5 2.0625 4 4 C3.34 5.32 2.68 6.64 2 8 C1.67 7.01 1.34 6.02 1 5 C0.67 5.99 0.34 6.98 0 8 C-3.04386724 8.08226668 -5.07175348 7.97608217 -8 7 C-10.35953094 9.35953094 -10.49141413 10.77895617 -11 14 C-11.33 14 -11.66 14 -12 14 C-11.67 10.37 -11.34 6.74 -11 3 C-11.66 2.67 -12.32 2.34 -13 2 C-8.65556194 -1.39409223 -5.12474143 -1.62622275 0 0 Z " fill="#E9DEAD" transform="translate(103,45)"/>
<path d="M0 0 C-3.35529869 1.14125806 -5.14513964 0.83534496 -8.4375 -0.375 C-19.41857585 -3.8065862 -28.73749403 -3.06238379 -39.72827148 -0.29858398 C-41.80159557 0.2105377 -43.900161 0.61457318 -46 1 C-46.66 0.34 -47.32 -0.32 -48 -1 C-45.93847611 -1.64894237 -43.87573742 -2.2940264 -41.8125 -2.9375 C-40.66394531 -3.29714844 -39.51539062 -3.65679687 -38.33203125 -4.02734375 C-25.2636973 -7.84213291 -12.206488 -5.96130809 0 0 Z " fill="#6A6A62" transform="translate(121,40)"/>
<path d="M0 0 C0.33 0 0.66 0 1 0 C1.08636719 1.23234375 1.17273437 2.4646875 1.26171875 3.734375 C2.51865026 19.37478218 6.19257383 32.46212254 17.84765625 43.796875 C19.18510807 44.92248457 20.58473836 45.97393531 22 47 C21.67 47.66 21.34 48.32 21 49 C19.70145279 47.92492371 18.41141639 46.83956264 17.125 45.75 C16.40570313 45.14671875 15.68640625 44.5434375 14.9453125 43.921875 C13.02947882 42.02912366 12.03550955 40.46342273 11 38 C10.34 38 9.68 38 9 38 C1.3014709 24.41120095 -1.67542542 15.91654147 0 0 Z " fill="#A0998D" transform="translate(44,83)"/>
<path d="M0 0 C1.216875 0.268125 2.43375 0.53625 3.6875 0.8125 C3.3575 1.8025 3.0275 2.7925 2.6875 3.8125 C1.90375 4.18375 1.12 4.555 0.3125 4.9375 C-3.56801277 7.70929484 -4.15611546 11.32798433 -5.3125 15.8125 C-6.9625 14.8225 -8.6125 13.8325 -10.3125 12.8125 C-10.0752302 8.14619391 -9.88443176 5.66173201 -7.25 1.75 C-4.09847592 -0.32866482 -3.53843428 -0.42661974 0 0 Z " fill="#EAD5A7" transform="translate(131.3125,77.1875)"/>
<path d="M0 0 C2 3 2 3 1.6796875 5.375 C1.41414063 6.24125 1.14859375 7.1075 0.875 8 C0.62492187 8.86625 0.37484375 9.7325 0.1171875 10.625 C-1.21684964 13.46099504 -2.27596556 14.47130235 -5 16 C-7.7265625 16.66015625 -7.7265625 16.66015625 -10.625 17.0625 C-14.79129663 17.52289064 -14.79129663 17.52289064 -18 20 C-18.37051993 22.3245339 -18.37051993 22.3245339 -18.4140625 25.0078125 C-18.45273437 25.99394531 -18.49140625 26.98007813 -18.53125 27.99609375 C-18.5621875 29.02863281 -18.593125 30.06117187 -18.625 31.125 C-18.68300781 32.68541016 -18.68300781 32.68541016 -18.7421875 34.27734375 C-18.83664766 36.85138311 -18.92221214 39.42541155 -19 42 C-19.33 42 -19.66 42 -20 42 C-20 33.75 -20 25.5 -20 17 C-12.56736111 13.81458333 -12.56736111 13.81458333 -8.3125 13.5625 C-5.98147203 13.2560443 -5.98147203 13.2560443 -4 12 C-1.98705809 8.1517287 -0.92483257 4.22965387 0 0 Z " fill="#F3EDCB" transform="translate(32,59)"/>
<path d="M0 0 C0.6875 1.6875 0.6875 1.6875 1 4 C-0.85361191 8.09745791 -1.83449959 8.91724979 -6 11 C-6 20.57 -6 30.14 -6 40 C-6.66 40 -7.32 40 -8 40 C-8.14883585 35.81923925 -8.25743418 31.63989863 -8.32958984 27.45727539 C-8.35967954 26.0361036 -8.40056404 24.61511628 -8.45263672 23.19458008 C-8.87696993 11.31741024 -8.87696993 11.31741024 -6.68603516 8.02612305 C-5.0625 6.71875 -5.0625 6.71875 -2 5 C-0.60180488 2.3485518 -0.60180488 2.3485518 0 0 Z " fill="#756D60" transform="translate(76,85)"/>
<path d="M0 0 C4.3929331 0.27156314 6.32808662 1.97459859 9.203125 5.20703125 C9.67234375 5.75746094 10.1415625 6.30789062 10.625 6.875 C11.57511955 7.95608197 12.52562902 9.03682141 13.4765625 10.1171875 C14.30929688 11.06851563 15.14203125 12.01984375 16 13 C16.60457031 13.55558594 17.20914063 14.11117187 17.83203125 14.68359375 C19 16 19 16 19.0625 19.1875 C17.73370246 23.95553822 15.46263934 27.4638829 12 31 C11.34 31 10.68 31 10 31 C9.505 32.485 9.505 32.485 9 34 C8.1875 32.3125 8.1875 32.3125 8 30 C10.25 27.5 10.25 27.5 13 25 C14.90716824 22.89553849 15.86408962 21.58683783 16.50390625 18.82421875 C15.68894204 14.25662865 12.42133929 11.89918953 9.125 8.8125 C8.47402344 8.18408203 7.82304687 7.55566406 7.15234375 6.90820312 C5.94452222 5.74396278 4.73164353 4.58493036 3.51220703 3.43286133 C2.32386373 2.30687056 1.15758693 1.15758693 0 0 Z " fill="#B3B1A5" transform="translate(148,21)"/>
<path d="M0 0 C4.29009084 5.05617849 9.28849262 11.07617722 9 18 C6.92789151 21.42994068 4.69948238 24.46157992 0.79296875 25.69921875 C-0.09455078 25.84810547 -0.09455078 25.84810547 -1 26 C0.09901281 23.43563678 1.00497569 21.99560968 3.125 20.125 C5.24085707 18.10064905 5.24085707 18.10064905 5.5 15.125 C4.87878163 11.2423852 3.42173781 9.06278606 1 6 C0.34 5.67 -0.32 5.34 -1 5 C-0.67 3.35 -0.34 1.7 0 0 Z " fill="#AFA494" transform="translate(158,121)"/>
<path d="M0 0 C0.8971875 0.309375 0.8971875 0.309375 1.8125 0.625 C0.8225 1.285 -0.1675 1.945 -1.1875 2.625 C-0.8575 4.605 -0.5275 6.585 -0.1875 8.625 C-4.6425 10.11 -4.6425 10.11 -9.1875 11.625 C-9.1875 8.985 -9.1875 6.345 -9.1875 3.625 C-8.2903125 3.191875 -8.2903125 3.191875 -7.375 2.75 C-1.52083333 -0.26071429 -1.52083333 -0.26071429 0 0 Z " fill="#B29E74" transform="translate(120.1875,61.375)"/>
<path d="M0 0 C3 1 3 1 4 3 C4.06996014 4.70702735 4.08440154 6.41668003 4.0625 8.125 C4.05347656 9.03507812 4.04445312 9.94515625 4.03515625 10.8828125 C4.02355469 11.58148438 4.01195312 12.28015625 4 13 C-0.455 12.01 -0.455 12.01 -5 11 C-3.68 10.67 -2.36 10.34 -1 10 C-1 8.68 -1 7.36 -1 6 C-2.32 5.34 -3.64 4.68 -5 4 C-3.68 4 -2.36 4 -1 4 C-0.67 2.68 -0.34 1.36 0 0 Z " fill="#E4D1A9" transform="translate(136,79)"/>
<path d="M0 0 C0 0.66 0 1.32 0 2 C-1.94140625 3.296875 -1.94140625 3.296875 -4.5625 4.75 C-10.45388436 8.16299746 -15.23300872 12.17608943 -20 17 C-20.33 16.34 -20.66 15.68 -21 15 C-15.79604601 8.36582024 -8.95474323 0 0 0 Z " fill="#615E57" transform="translate(75,40)"/>
<path d="M0 0 C3.55482252 -0.32316568 5.37575119 -0.45553291 8.3125 1.6875 C10.17165881 4.23523615 10.83464093 5.85817768 11 9 C10.34 9.66 9.68 10.32 9 11 C8.34 9.02 7.68 7.04 7 5 C4.24358584 5.49756092 4.24358584 5.49756092 2 7 C0.33382885 7.04063832 -1.33388095 7.042721 -3 7 C-3.33 8.65 -3.66 10.3 -4 12 C-4.33 12 -4.66 12 -5 12 C-5.125 9.625 -5.125 9.625 -5 7 C-2.8614515 4.8614515 -1.86724686 4.57344937 1 4 C0.67 2.68 0.34 1.36 0 0 Z " fill="#BBAF8B" transform="translate(66,76)"/>
<path d="M0 0 C1.65 0.33 3.3 0.66 5 1 C5.09765625 7.15234375 5.09765625 7.15234375 5 9 C4 10 4 10 1.71484375 10.09765625 C0.34005859 10.08025391 0.34005859 10.08025391 -1.0625 10.0625 C-1.98160156 10.05347656 -2.90070313 10.04445313 -3.84765625 10.03515625 C-4.55792969 10.02355469 -5.26820312 10.01195313 -6 10 C-5.67 9.01 -5.34 8.02 -5 7 C-1.9375 5.8125 -1.9375 5.8125 1 5 C0.67 3.35 0.34 1.7 0 0 Z " fill="#DFC692" transform="translate(122,63)"/>
<path d="M0 0 C2.64 0 5.28 0 8 0 C8 0.66 8 1.32 8 2 C5.69 2.33 3.38 2.66 1 3 C0.7525 3.99 0.505 4.98 0.25 6 C-0.95812141 10.28095196 -2.90821294 14.09059215 -5 18 C-5.66 18 -6.32 18 -7 18 C-7.33 18.66 -7.66 19.32 -8 20 C-7.34539923 17.04093732 -6.38652554 14.44036387 -5.125 11.6875 C-3.36653569 7.81117721 -1.66664965 3.91662667 0 0 Z " fill="#716E66" transform="translate(165,103)"/>
<path d="M0 0 C2.84544687 1.15925613 4.24407631 2.2633455 6.375 4.5625 C9.39647643 7.36815668 10.89255793 8.08739238 15 8 C17.39795381 6.18712805 17.39795381 6.18712805 19 4 C19.66 4.33 20.32 4.66 21 5 C19.63016497 8.16115776 19.0109362 8.9927092 16 11 C9.3681948 11 5.87431818 7.99482164 1 4 C0.01 3.34 -0.98 2.68 -2 2 C-1.34 1.34 -0.68 0.68 0 0 Z " fill="#BAB19F" transform="translate(135,144)"/>
<path d="M0 0 C4.00512404 -0.47680048 5.85013552 -0.08174426 9.4375 1.875 C11.58729512 3.80143978 11.97832352 4.63594633 12.15234375 7.55859375 C11.89809455 10.08318088 11.52980754 12.51953741 11 15 C10.67 15 10.34 15 10 15 C9.93941406 14.37351562 9.87882813 13.74703125 9.81640625 13.1015625 C9.69072266 11.87566406 9.69072266 11.87566406 9.5625 10.625 C9.48128906 9.81289062 9.40007812 9.00078125 9.31640625 8.1640625 C9.10909886 5.95727195 9.10909886 5.95727195 8 4 C7.01 4 6.02 4 5 4 C5 3.34 5 2.68 5 2 C3.35 2 1.7 2 0 2 C0 1.34 0 0.68 0 0 Z M4 4 C4.33 4.99 4.66 5.98 5 7 C3.68 7 2.36 7 1 7 C0.34 8.65 -0.32 10.3 -1 12 C-1.6875 10.1875 -1.6875 10.1875 -2 8 C-0.15840327 5.51384442 1.00470711 4.99843096 4 4 Z " fill="#ADA289" transform="translate(130,76)"/>
<path d="M0 0 C0.33 0 0.66 0 1 0 C1.23534715 5.76600505 0.93384486 10.53973215 -1 16 C-2.65079442 17.65079442 -4.63736179 17.22549447 -6.91015625 17.31640625 C-7.89951172 17.35830078 -8.88886719 17.40019531 -9.90820312 17.44335938 C-10.94912109 17.48267578 -11.99003906 17.52199219 -13.0625 17.5625 C-14.10728516 17.60568359 -15.15207031 17.64886719 -16.22851562 17.69335938 C-18.81886884 17.79981225 -21.40932186 17.9018276 -24 18 C-24.33 17.34 -24.66 16.68 -25 16 C-17.74 15.67 -10.48 15.34 -3 15 C-2.01 10.05 -1.02 5.1 0 0 Z " fill="#CDBC91" transform="translate(111,153)"/>
<path d="M0 0 C2 0.25 2 0.25 4 1 C4.33 1.99 4.66 2.98 5 4 C4.34 4.66 3.68 5.32 3 6 C2.30251417 7.31747324 1.63040043 8.64914193 1 10 C1 8.68 1 7.36 1 6 C-2.2117961 7.63778399 -2.2117961 7.63778399 -2.51171875 10.3828125 C-2.59873047 11.74019531 -2.59873047 11.74019531 -2.6875 13.125 C-2.75324219 14.03507812 -2.81898437 14.94515625 -2.88671875 15.8828125 C-2.94279297 16.93082031 -2.94279297 16.93082031 -3 18 C-3.33 18 -3.66 18 -4 18 C-4.55697798 6.40660653 -4.55697798 6.40660653 -1 1 C-0.67 0.67 -0.34 0.34 0 0 Z " fill="#DECBA6" transform="translate(114,57)"/>
<path d="M0 0 C0.33 0 0.66 0 1 0 C1.33 9.24 1.66 18.48 2 28 C0 29 0 29 -2.625 28.1875 C-5 26 -5 26 -5.32421875 23.5703125 C-5.31342526 21.03024414 -5.21365765 18.53065621 -5 16 C-4.67 16 -4.34 16 -4 16 C-4 18.97 -4 21.94 -4 25 C-2.68 25 -1.36 25 0 25 C0 16.75 0 8.5 0 0 Z " fill="#CABA97" transform="translate(67,95)"/>
<path d="M0 0 C0.66 0.33 1.32 0.66 2 1 C-5.34915894 10.39160509 -5.34915894 10.39160509 -8.875 13.6875 C-11.64467733 16.70156063 -12.1446532 19.03430118 -13 23 C-15 20 -15 20 -14.9609375 17.66015625 C-13.66814078 14.08131656 -11.35591767 11.96184826 -8.625 9.4375 C-5.48197523 6.46226691 -2.47435625 3.57687554 0 0 Z " fill="#F2F0D1" transform="translate(42,21)"/>
<path d="M0 0 C1.41655793 -0.0272415 2.83327045 -0.04650467 4.25 -0.0625 C5.43335938 -0.07990234 5.43335938 -0.07990234 6.640625 -0.09765625 C8.90691002 -0.00385306 10.8288895 0.36758937 13 1 C13 1.66 13 2.32 13 3 C14.32 3.33 15.64 3.66 17 4 C17 4.33 17 4.66 17 5 C5.47835991 4.22095672 5.47835991 4.22095672 0 2 C0 1.34 0 0.68 0 0 Z " fill="#ABA88F" transform="translate(13,100)"/>
<path d="M0 0 C0.66 0.33 1.32 0.66 2 1 C-1.52686171 5.48873309 -6.58251782 7.58485642 -12 9 C-14.3125 8.60546875 -14.3125 8.60546875 -16 8 C-13.62096609 5.62096609 -11.73375141 5.07814125 -8.5625 4 C-5.29536384 2.88630245 -2.89225493 1.92816995 0 0 Z " fill="#6E6B64" transform="translate(133,144)"/>
<path d="M0 0 C0.66 0.66 1.32 1.32 2 2 C1.30197266 2.54140625 1.30197266 2.54140625 0.58984375 3.09375 C-2.20375624 6.44332444 -2.30633867 10.76747637 -3.05859375 14.96875 C-4 18 -4 18 -5.95703125 19.92578125 C-8 21 -8 21 -10.25 20.6875 C-10.8275 20.460625 -11.405 20.23375 -12 20 C-9 18 -9 18 -6 18 C-5.81824219 16.95199219 -5.63648437 15.90398438 -5.44921875 14.82421875 C-5.19592942 13.44519905 -4.94198904 12.06629881 -4.6875 10.6875 C-4.56955078 9.99720703 -4.45160156 9.30691406 -4.33007812 8.59570312 C-3.63169034 4.88887565 -3.13575023 2.29252328 0 0 Z " fill="#F2EFD5" transform="translate(85,4)"/>
<path d="M0 0 C1.23556641 0.01740234 1.23556641 0.01740234 2.49609375 0.03515625 C3.32238281 0.04417969 4.14867188 0.05320312 5 0.0625 C5.63808594 0.07410156 6.27617188 0.08570312 6.93359375 0.09765625 C6.60359375 0.75765625 6.27359375 1.41765625 5.93359375 2.09765625 C3.62359375 2.09765625 1.31359375 2.09765625 -1.06640625 2.09765625 C-1.04578125 3.27328125 -1.02515625 4.44890625 -1.00390625 5.66015625 C-0.99693364 9.57179092 -1.42390282 13.24263569 -2.06640625 17.09765625 C-2.39640625 17.09765625 -2.72640625 17.09765625 -3.06640625 17.09765625 C-3.09325304 14.45175611 -3.11316982 11.80612529 -3.12890625 9.16015625 C-3.13728516 8.40541016 -3.14566406 7.65066406 -3.15429688 6.87304688 C-3.16293066 4.94771312 -3.11864958 3.02230044 -3.06640625 1.09765625 C-2.06640625 0.09765625 -2.06640625 0.09765625 0 0 Z " fill="#968A78" transform="translate(118.06640625,73.90234375)"/>
<path d="M0 0 C0.33 0.66 0.66 1.32 1 2 C1.99 2.33 2.98 2.66 4 3 C9.38022193 9.07444412 12.9476359 15.17536185 15 23 C12.59347227 20.80244247 11.75778204 19.47967994 10.3125 16.375 C8.17411253 11.83826422 5.07919504 8.55792919 1.609375 4.98046875 C0 3 0 3 0 0 Z " fill="#CAC3B1" transform="translate(133,49)"/>
<path d="M0 0 C0.33 0.99 0.66 1.98 1 3 C0 4 0 4 -2.9140625 4.1328125 C-15.18839808 4.10697179 -15.18839808 4.10697179 -21 3 C-21 2.67 -21 2.34 -21 2 C-20.39937744 1.97494385 -19.79875488 1.9498877 -19.17993164 1.92407227 C-16.47388563 1.8084472 -13.76821717 1.68557064 -11.0625 1.5625 C-10.11697266 1.52318359 -9.17144531 1.48386719 -8.19726562 1.44335938 C-7.29814453 1.40146484 -6.39902344 1.35957031 -5.47265625 1.31640625 C-4.64000244 1.27974854 -3.80734863 1.24309082 -2.94946289 1.20532227 C-0.99661142 1.20632897 -0.99661142 1.20632897 0 0 Z " fill="#7E7E79" transform="translate(110,168)"/>
<path d="M0 0 C-3.42202964 1.17730378 -5.36666598 0.79946945 -8.75 -0.375 C-13.20977634 -1.82409647 -17.33701102 -2.56824176 -22 -3 C-22 -3.33 -22 -3.66 -22 -4 C-14.10286394 -6.02490668 -7.13268282 -3.3387026 0 0 Z " fill="#9E9D96" transform="translate(121,40)"/>
<path d="M0 0 C2.64 0.33 5.28 0.66 8 1 C7 4 7 4 3.9375 5.6875 C2.968125 6.120625 1.99875 6.55375 1 7 C1 6.34 1 5.68 1 5 C0.01 4.67 -0.98 4.34 -2 4 C-1.34 3.67 -0.68 3.34 0 3 C0 2.01 0 1.02 0 0 Z " fill="#D8BE8B" transform="translate(127,77)"/>
<path d="M0 0 C0.67578125 1.734375 0.67578125 1.734375 1 4 C-0.14453125 6.140625 -0.14453125 6.140625 -1.8125 8.25 C-2.35519531 8.95640625 -2.89789063 9.6628125 -3.45703125 10.390625 C-3.96621094 10.92171875 -4.47539062 11.4528125 -5 12 C-5.66 12 -6.32 12 -7 12 C-7.33 12.99 -7.66 13.98 -8 15 C-8.8125 13.3125 -8.8125 13.3125 -9 11 C-6.8125 8.625 -6.8125 8.625 -4 6 C-2.55553499 4.05411243 -1.29026574 2.05486767 0 0 Z " fill="#6E6A63" transform="translate(165,40)"/>
<path d="M0 0 C4.33333333 4.33333333 8.66666667 8.66666667 13 13 C12.67 13.66 12.34 14.32 12 15 C10.70145279 13.92492371 9.41141639 12.83956264 8.125 11.75 C7.40570313 11.14671875 6.68640625 10.5434375 5.9453125 9.921875 C4.02947882 8.02912366 3.03550955 6.46342273 2 4 C1.34 4 0.68 4 0 4 C0 2.68 0 1.36 0 0 Z " fill="#C0B6A3" transform="translate(53,117)"/>
<path d="M0 0 C0.66 0.66 1.32 1.32 2 2 C-10.61955098 8.59803935 -10.61955098 8.59803935 -16 7 C-15.34773438 6.74605469 -14.69546875 6.49210938 -14.0234375 6.23046875 C-9.22956098 4.34261472 -4.55992898 2.39996262 0 0 Z " fill="#D3BA80" transform="translate(129,144)"/>
<path d="M0 0 C1.31611677 0.95336021 2.62778961 1.91285774 3.9375 2.875 C4.66839844 3.40867188 5.39929687 3.94234375 6.15234375 4.4921875 C8 6 8 6 9 8 C11.01669827 9.13350534 11.01669827 9.13350534 13 10 C13 10.66 13 11.32 13 12 C8.02639643 10.72768281 5.32703078 8.91415386 2 5 C2 4.34 2 3.68 2 3 C1.34 3 0.68 3 0 3 C0 2.01 0 1.02 0 0 Z " fill="#BDAD8D" transform="translate(29,139)"/>
<path d="M0 0 C0.33 0.66 0.66 1.32 1 2 C2.155 1.95875 3.31 1.9175 4.5 1.875 C8.94481301 1.85912567 12.73724131 2.78206895 17 4 C16.34 4.66 15.68 5.32 15 6 C14.67 5.67 14.34 5.34 14 5 C11.47403741 4.76346477 8.96892793 4.57826308 6.4375 4.4375 C5.72658203 4.39431641 5.01566406 4.35113281 4.28320312 4.30664062 C2.52238088 4.20028223 0.7612168 4.09961154 -1 4 C-0.67 2.68 -0.34 1.36 0 0 Z " fill="#E5DCBE" transform="translate(165,71)"/>
<path d="M0 0 C0.66 0 1.32 0 2 0 C2.92470553 4.71599818 3.22923777 7.67265609 1 12 C0.01 12 -0.98 12 -2 12 C-1.67 11.34 -1.34 10.68 -1 10 C-0.77377919 8.29636178 -0.59111527 6.58671299 -0.4375 4.875 C-0.35371094 3.96492188 -0.26992187 3.05484375 -0.18359375 2.1171875 C-0.12300781 1.41851562 -0.06242187 0.71984375 0 0 Z " fill="#918B7E" transform="translate(128,60)"/>
<path d="M0 0 C0.99 0.33 1.98 0.66 3 1 C4.83081979 6.49245937 5.20568145 11.24091942 5 17 C2.70053583 13.55080374 2.19230965 10.8618978 1.375 6.8125 C0.98441406 4.90404297 0.98441406 4.90404297 0.5859375 2.95703125 C0.39257812 1.98121094 0.19921875 1.00539063 0 0 Z " fill="#8D8C83" transform="translate(109,5)"/>
<path d="M0 0 C1 3 1 3 0.00390625 5.26171875 C-0.47175781 6.06222656 -0.94742188 6.86273438 -1.4375 7.6875 C-2.14712891 8.89986328 -2.14712891 8.89986328 -2.87109375 10.13671875 C-3.24363281 10.75160156 -3.61617187 11.36648437 -4 12 C-4.66 12 -5.32 12 -6 12 C-6.33 12.66 -6.66 13.32 -7 14 C-6.32038217 10.93821659 -5.32027631 8.18402705 -4.0625 5.3125 C-3.72347656 4.52488281 -3.38445312 3.73726563 -3.03515625 2.92578125 C-2 1 -2 1 0 0 Z " fill="#7A7570" transform="translate(164,109)"/>
<path d="M0 0 C-2.83202353 1.52593049 -5.4936262 2.51690246 -8.625 3.25 C-9.78902344 3.53617188 -9.78902344 3.53617188 -10.9765625 3.828125 C-11.64429687 3.88484375 -12.31203125 3.9415625 -13 4 C-13.66 3.34 -14.32 2.68 -15 2 C-13.44240657 1.46467177 -11.87861955 0.94734622 -10.3125 0.4375 C-9.44238281 0.14746094 -8.57226562 -0.14257812 -7.67578125 -0.44140625 C-4.75368926 -1.05141961 -2.85599447 -0.77703633 0 0 Z " fill="#7D7C77" transform="translate(88,37)"/>
<path d="M0 0 C0.66 0.33 1.32 0.66 2 1 C0.68 2.65 -0.64 4.3 -2 6 C-1.34 6.33 -0.68 6.66 0 7 C-0.99 7.33 -1.98 7.66 -3 8 C-3.33 8.99 -3.66 9.98 -4 11 C-6 8 -6 8 -5.9375 6.0625 C-4.61848701 3.16067141 -2.55121184 1.83163927 0 0 Z " fill="#CAB893" transform="translate(160,140)"/>
<path d="M0 0 C0.99 0.33 1.98 0.66 3 1 C1.87895467 2.31587941 0.75303035 3.62760353 -0.375 4.9375 C-1.00148437 5.66839844 -1.62796875 6.39929688 -2.2734375 7.15234375 C-4 9 -4 9 -6 10 C-5.49477778 5.62140745 -2.82172778 3.18348776 0 0 Z " fill="#E8D0A0" transform="translate(139,119)"/>
<path d="M0 0 C0.66 0.33 1.32 0.66 2 1 C2.63019694 9.19256018 2.63019694 9.19256018 0 12.5625 C-0.99 13.2740625 -0.99 13.2740625 -2 14 C-2 11 -2 11 -1 9 C-0.77532169 7.46331135 -0.59203195 5.92031946 -0.4375 4.375 C-0.35371094 3.55773438 -0.26992187 2.74046875 -0.18359375 1.8984375 C-0.12300781 1.27195313 -0.06242187 0.64546875 0 0 Z " fill="#706C65" transform="translate(106,51)"/>
<path d="M0 0 C0.66 0.33 1.32 0.66 2 1 C-0.81152696 4.22804947 -2.67854758 5.6588327 -7 6 C-7.66 5.67 -8.32 5.34 -9 5 C-9 4.34 -9 3.68 -9 3 C-8.43410156 2.86722656 -7.86820313 2.73445312 -7.28515625 2.59765625 C-6.18494141 2.33275391 -6.18494141 2.33275391 -5.0625 2.0625 C-4.33160156 1.88847656 -3.60070313 1.71445313 -2.84765625 1.53515625 C-1.00030102 1.16112431 -1.00030102 1.16112431 0 0 Z " fill="#807C75" transform="translate(51,150)"/>
<path d="M0 0 C0.66 0.33 1.32 0.66 2 1 C0.63016497 4.16115776 0.0109362 4.9927092 -3 7 C-5.6875 7.125 -5.6875 7.125 -8 7 C-8.33 6.34 -8.66 5.68 -9 5 C-8.071875 4.731875 -7.14375 4.46375 -6.1875 4.1875 C-3.23759634 3.08851629 -1.94384814 2.37581439 0 0 Z " fill="#807B75" transform="translate(154,148)"/>
<path d="M0 0 C0 0.66 0 1.32 0 2 C-5.17578125 5.22265625 -5.17578125 5.22265625 -7 6 C-7.99 5.67 -8.98 5.34 -10 5 C-5.16129032 0 -5.16129032 0 0 0 Z " fill="#696964" transform="translate(75,40)"/>
<path d="M0 0 C0.33 0.99 0.66 1.98 1 3 C-0.81725675 5.82684384 -2.03937946 7.65310925 -5.25 8.8125 C-5.8275 8.874375 -6.405 8.93625 -7 9 C-5.44499019 5.18315774 -2.96404505 2.80804268 0 0 Z " fill="#6E6962" transform="translate(164,138)"/>
<path d="M0 0 C0.66 0.33 1.32 0.66 2 1 C1.50769231 7.52307692 1.50769231 7.52307692 -1.0625 9.9375 C-1.701875 10.288125 -2.34125 10.63875 -3 11 C-3.66 10.67 -4.32 10.34 -5 10 C-4.67 9.38125 -4.34 8.7625 -4 8.125 C-2.85806765 6.08981656 -2.85806765 6.08981656 -3 4 C-2.01 4 -1.02 4 0 4 C0 2.68 0 1.36 0 0 Z " fill="#F0E8C1" transform="translate(103,49)"/>
<path d="M0 0 C0.6875 1.6875 0.6875 1.6875 1 4 C-0.67292823 7.69805188 -2.18712958 9.55373881 -6 11 C-6.33 10.34 -6.66 9.68 -7 9 C-6.21625 8.443125 -5.4325 7.88625 -4.625 7.3125 C-1.91295142 4.92331435 -1.03866457 3.39926587 0 0 Z " fill="#7B7871" transform="translate(76,85)"/>
<path d="M0 0 C0 0.33 0 0.66 0 1 C-1.43836751 0.88541307 -2.87570966 0.75790884 -4.3125 0.625 C-5.11300781 0.55539063 -5.91351563 0.48578125 -6.73828125 0.4140625 C-9 0 -9 0 -12 -2 C-7.39077523 -3.53640826 -4.37219003 -1.82174585 0 0 Z " fill="#AAA08C" transform="translate(81,152)"/>
<path d="M0 0 C3.40756081 2.27170721 3.8695411 3.17383143 5 7 C5.125 10.3125 5.125 10.3125 5 13 C2.53698577 10.53698577 2.23233479 8.72639964 1.375 5.375 C1.11460937 4.37210937 0.85421875 3.36921875 0.5859375 2.3359375 C0.39257812 1.56507812 0.19921875 0.79421875 0 0 Z " fill="#8D8476" transform="translate(160,60)"/>
<path d="M0 0 C0.99 0.33 1.98 0.66 3 1 C4.1875 4.5625 4.1875 4.5625 5 8 C4.01 8 3.02 8 2 8 C-0.1519437 4.77208445 -0.20086443 3.71599191 0 0 Z " fill="#DDCEAD" transform="translate(82,161)"/>
<path d="M0 0 C2.75 -0.25 2.75 -0.25 6 0 C8.375 2 8.375 2 10 4 C9.34 5.32 8.68 6.64 8 8 C7.608125 7.21625 7.21625 6.4325 6.8125 5.625 C4.75725331 2.64843582 3.40320742 2.01176437 0 1 C0 0.67 0 0.34 0 0 Z " fill="#BCB8A6" transform="translate(97,45)"/>
<path d="M0 0 C1 2 1 2 0.125 4.9375 C-0.24625 5.948125 -0.6175 6.95875 -1 8 C-1.33 8.99 -1.66 9.98 -2 11 C-2.66 10.34 -3.32 9.68 -4 9 C-3.69670231 5.15822926 -2.47524576 2.90572328 0 0 Z " fill="#E9DABB" transform="translate(31,129)"/>
<path d="M0 0 C2.00720923 0.28674418 4.0085944 0.61866701 6 1 C5 4 5 4 2.9375 5.1875 C2.298125 5.455625 1.65875 5.72375 1 6 C0.34 4.35 -0.32 2.7 -1 1 C-0.67 0.67 -0.34 0.34 0 0 Z " fill="#D7C19B" transform="translate(79,81)"/>
<path d="M0 0 C1.231394 3.69418201 0.64432764 6.2056261 0 10 C-0.66 10 -1.32 10 -2 10 C-2.1953125 3.9453125 -2.1953125 3.9453125 -2 2 C-1.34 1.34 -0.68 0.68 0 0 Z " fill="#BFA26C" transform="translate(113,63)"/>
<path d="M0 0 C0.99 0 1.98 0 3 0 C1.8141763 3.37503669 0.72426311 5.64722731 -2 8 C-3 5 -3 5 -1.75 2.3125 C-1.1725 1.549375 -0.595 0.78625 0 0 Z " fill="#868581" transform="translate(53,56)"/>
<path d="M0 0 C2.125 0.375 2.125 0.375 4 1 C2.68 1.33 1.36 1.66 0 2 C-0.33 3.98 -0.66 5.96 -1 8 C-1.66 7.67 -2.32 7.34 -3 7 C-2.25 2.25 -2.25 2.25 0 0 Z " fill="#5E574E" transform="translate(95,51)"/>
<path d="M0 0 C1.61949011 2.57213134 2.04408751 3.67669159 1.625 6.75 C1.41875 7.4925 1.2125 8.235 1 9 C0.34 9 -0.32 9 -1 9 C-1.125 2.25 -1.125 2.25 0 0 Z " fill="#EAE3C4" transform="translate(56,80)"/>
<path d="M0 0 C0.33 0.66 0.66 1.32 1 2 C0.33333333 3.33333333 -0.33333333 4.66666667 -1 6 C-1.38290462 7.99110401 -1.72604615 9.99100513 -2 12 C-2.33 12 -2.66 12 -3 12 C-3.36923077 4.61538462 -3.36923077 4.61538462 -1.5 1.5 C-1.005 1.005 -0.51 0.51 0 0 Z " fill="#F3EBD2" transform="translate(89,48)"/>
<path d="M0 0 C1.9375 0.6875 1.9375 0.6875 4 2 C4.875 4.5 4.875 4.5 5 7 C4.34 7.66 3.68 8.32 3 9 C2 6 1 3 0 0 Z " fill="#B6AD9B" transform="translate(72,78)"/>
</svg>
