<?xml version="1.0" encoding="UTF-8"?>
<svg version="1.1" xmlns="http://www.w3.org/2000/svg" width="183" height="169">
<path d="M0 0 C3.554834 1.91468287 6.30066244 4.16959097 7.765625 8.00390625 C8.37289068 11.48248245 8.16657337 13.67409558 6.5625 16.8125 C6.046875 17.534375 5.53125 18.25625 5 19 C5 23.0143368 6.3944849 23.81730508 9.125 26.6875 C12.01610921 29.79612213 14.75511979 32.87714138 17.25 36.3125 C19.59341798 39.52432356 22.14930595 42.21560116 25 45 C26.46583442 46.61823687 27.92334199 48.24403398 29.375 49.875 C30.91534236 51.58452751 32.45692449 53.29293912 34 55 C34.55429688 55.62261719 35.10859375 56.24523437 35.6796875 56.88671875 C44.06130535 65.83128108 55.19514765 73.39929123 67.4375 75.1875 C69.01337891 75.42533203 69.01337891 75.42533203 70.62109375 75.66796875 C71.40613281 75.77753906 72.19117188 75.88710937 73 76 C73.38218767 77.65614657 73.71395102 79.32457024 74 81 C73 82 73 82 69.5625 82.25 C55.2861186 81.99551905 44.90996786 73.32008882 35 64 C34.05125 63.1646875 33.1025 62.329375 32.125 61.46875 C25.29042768 55.44667146 19.31628194 48.97312801 13.49609375 41.96875 C11.71803568 39.85400175 9.96584095 37.92263173 8 36 C7.1931333 43.49491229 6.86720316 50.87135016 6.91821289 58.40649414 C6.92281273 60.0280542 6.92281273 60.0280542 6.92750549 61.68237305 C6.9346098 64.00780561 6.94397241 66.3332322 6.95540047 68.65864754 C6.97289638 72.3356224 6.98312146 76.01255325 6.99131775 79.68955994 C7.01569327 90.13609973 7.05157802 100.58257929 7.09594727 111.02905273 C7.12265138 117.43482006 7.13974094 123.84055402 7.15081596 130.2463665 C7.15703781 132.68692711 7.16705801 135.12748102 7.18089485 137.56801033 C7.2000029 140.96473643 7.20699099 144.36128424 7.21118164 147.75805664 C7.22432404 149.27824654 7.22432404 149.27824654 7.23773193 150.82914734 C7.23642776 151.74997101 7.2351236 152.67079468 7.23377991 153.61952209 C7.23692231 154.42194367 7.24006472 155.22436525 7.24330235 156.05110264 C7 158 7 158 5 160 C2.04147891 160.44360072 -0.94948451 160.32412652 -3.9375 160.3125 C-4.76185547 160.32861328 -5.58621094 160.34472656 -6.43554688 160.36132812 C-7.22896484 160.36197266 -8.02238281 160.36261719 -8.83984375 160.36328125 C-9.92833618 160.36775269 -9.92833618 160.36775269 -11.03881836 160.37231445 C-13.63058616 159.88028832 -14.38405718 159.0700768 -16 157 C-16.37752342 154.68427181 -16.37752342 154.68427181 -16.38095093 151.9072113 C-16.3894104 150.85420837 -16.39786987 149.80120544 -16.40658569 148.71629333 C-16.400513 147.56137894 -16.39444031 146.40646454 -16.38818359 145.21655273 C-16.39344055 144.00013092 -16.39869751 142.78370911 -16.40411377 141.53042603 C-16.41506584 138.19360293 -16.41248446 134.85733682 -16.40297651 131.52054477 C-16.39538788 128.03143479 -16.40242314 124.54234881 -16.40713501 121.05323792 C-16.41259418 115.19470946 -16.40539604 109.33629444 -16.39111328 103.4777832 C-16.37477875 96.69927974 -16.38008028 89.92104686 -16.3965925 83.14254993 C-16.41019377 77.32677147 -16.41213395 71.5110746 -16.40427649 65.69528538 C-16.39959342 62.21989667 -16.39899251 58.74463527 -16.40888596 55.26925468 C-16.41913807 51.39741314 -16.40494043 47.52587631 -16.38818359 43.65405273 C-16.39425629 42.49711411 -16.40032898 41.34017548 -16.40658569 40.1481781 C-16.39812622 39.097995 -16.38966675 38.04781189 -16.38095093 36.96580505 C-16.37925431 35.59172564 -16.37925431 35.59172564 -16.37752342 34.18988705 C-16.25294069 33.46722432 -16.12835796 32.7445616 -16 32 C-12.20836973 29.47224649 -9.19125969 29.77556965 -4.8125 29.875 C-4.06291016 29.88402344 -3.31332031 29.89304687 -2.54101562 29.90234375 C-0.69387346 29.92587422 1.15310412 29.96174439 3 30 C2.34 29.01 1.68 28.02 1 27 C1 25.68 1 24.36 1 23 C-0.794375 23.12375 -0.794375 23.12375 -2.625 23.25 C-7.13355702 23.23404051 -9.57091806 22.03035148 -13 19 C-15.19641371 15.74080547 -16.01781953 13.8731572 -15.9375 9.9375 C-14.63044044 5.84204671 -12.67037081 3.20957887 -9.1875 0.6875 C-5.83112692 -0.36736011 -3.51106897 -0.47607715 0 0 Z M-5 6 C-5.99 6.66 -6.98 7.32 -8 8 C-8.25030977 10.58380177 -8.25030977 10.58380177 -8 13 C-5.60280568 13.67958603 -5.60280568 13.67958603 -3 14 C-2.34 13.34 -1.68 12.68 -1 12 C-1.32041397 9.39719432 -1.32041397 9.39719432 -2 7 C-2.99 6.67 -3.98 6.34 -5 6 Z M-7 41 C-7.33 42.65 -7.66 44.3 -8 46 C-5.525 46.495 -5.525 46.495 -3 47 C-2.67 45.35 -2.34 43.7 -2 42 C-3.65 41.67 -5.3 41.34 -7 41 Z M-7 55 C-7.33 56.65 -7.66 58.3 -8 60 C-5.525 60.495 -5.525 60.495 -3 61 C-2.67 59.35 -2.34 57.7 -2 56 C-3.65 55.67 -5.3 55.34 -7 55 Z M-7 68 C-8.41577477 69.18424326 -8.41577477 69.18424326 -8.0625 72.5625 C-8.041875 73.696875 -8.02125 74.83125 -8 76 C-6.34385343 76.38218767 -4.67542976 76.71395102 -3 77 C-1.58422523 75.81575674 -1.58422523 75.81575674 -1.9375 72.4375 C-1.958125 71.303125 -1.97875 70.16875 -2 69 C-3.65614657 68.61781233 -5.32457024 68.28604898 -7 68 Z M-7 86 C-7.33 87.65 -7.66 89.3 -8 91 C-5.525 91.495 -5.525 91.495 -3 92 C-2.67 90.35 -2.34 88.7 -2 87 C-3.65 86.67 -5.3 86.34 -7 86 Z M-7 99 C-7.33 100.65 -7.66 102.3 -8 104 C-5.525 104.495 -5.525 104.495 -3 105 C-2.67 103.35 -2.34 101.7 -2 100 C-3.65 99.67 -5.3 99.34 -7 99 Z M-7 114 C-7.33 115.65 -7.66 117.3 -8 119 C-5.525 119.495 -5.525 119.495 -3 120 C-2.67 118.35 -2.34 116.7 -2 115 C-3.65 114.67 -5.3 114.34 -7 114 Z M-7 128 C-7.33 129.65 -7.66 131.3 -8 133 C-5.525 133.495 -5.525 133.495 -3 134 C-2.67 132.35 -2.34 130.7 -2 129 C-3.65 128.67 -5.3 128.34 -7 128 Z M-7 142 C-7.33 143.65 -7.66 145.3 -8 147 C-5.525 147.495 -5.525 147.495 -3 148 C-2.67 146.35 -2.34 144.7 -2 143 C-3.65 142.67 -5.3 142.34 -7 142 Z " fill="#DFD3AC" transform="translate(94,8)"/>
<path d="M0 0 C1.82878465 1.82878465 1.13289704 4.37899665 1.14663696 6.8137207 C1.14618378 7.6485498 1.14573059 8.48337891 1.14526367 9.34350586 C1.14862228 10.21826065 1.1519809 11.09301544 1.15544128 11.99427795 C1.16498128 14.90114746 1.16689591 17.80795955 1.16796875 20.71484375 C1.17117918 22.72644576 1.17454309 24.73804754 1.17805481 26.74964905 C1.1840537 30.97234641 1.18589393 35.19502328 1.18530273 39.41772461 C1.18520106 44.83984397 1.19885521 50.26183253 1.21607494 55.68392086 C1.22717045 59.84022124 1.2292227 63.99648975 1.22869301 68.15280342 C1.22987676 70.15236423 1.23432047 72.15192577 1.24202538 74.15147209 C1.25177614 76.94344224 1.2489668 79.73512525 1.24291992 82.52709961 C1.24853943 83.35990448 1.25415894 84.19270935 1.25994873 85.05075073 C1.22831534 90.77168466 1.22831534 90.77168466 -1 93 C-7.27 93 -13.54 93 -20 93 C-20 62.64 -20 32.28 -20 1 C-5 0 -5 0 0 0 Z M-12 10 C-12.38218767 11.65614657 -12.71395102 13.32457024 -13 15 C-11.93354885 16.29633621 -11.93354885 16.29633621 -9.4375 16.0625 C-8.633125 16.041875 -7.82875 16.02125 -7 16 C-6.61781233 14.34385343 -6.28604898 12.67542976 -6 11 C-7.06645115 9.70366379 -7.06645115 9.70366379 -9.5625 9.9375 C-10.366875 9.958125 -11.17125 9.97875 -12 10 Z M-12 25 C-12.33 26.65 -12.66 28.3 -13 30 C-10.525 30.495 -10.525 30.495 -8 31 C-7.67 29.35 -7.34 27.7 -7 26 C-8.65 25.67 -10.3 25.34 -12 25 Z M-12 37 C-12.33 38.65 -12.66 40.3 -13 42 C-10.525 42.495 -10.525 42.495 -8 43 C-7.67 41.35 -7.34 39.7 -7 38 C-8.65 37.67 -10.3 37.34 -12 37 Z M-12 49 C-12.38218767 50.65614657 -12.71395102 52.32457024 -13 54 C-11.93354885 55.29633621 -11.93354885 55.29633621 -9.4375 55.0625 C-8.633125 55.041875 -7.82875 55.02125 -7 55 C-6.61781233 53.34385343 -6.28604898 51.67542976 -6 50 C-7.06645115 48.70366379 -7.06645115 48.70366379 -9.5625 48.9375 C-10.366875 48.958125 -11.17125 48.97875 -12 49 Z M-11 61 C-11.33 62.65 -11.66 64.3 -12 66 C-9.525 66.495 -9.525 66.495 -7 67 C-6.67 65.35 -6.34 63.7 -6 62 C-7.65 61.67 -9.3 61.34 -11 61 Z M-12 74 C-12.33 75.65 -12.66 77.3 -13 79 C-10.525 79.495 -10.525 79.495 -8 80 C-7.67 78.35 -7.34 76.7 -7 75 C-8.65 74.67 -10.3 74.34 -12 74 Z " fill="#DCCEA4" transform="translate(38,75)"/>
<path d="M0 0 C0.66687027 19.39599265 1.10559881 38.77925419 1.125 58.1875 C1.12749756 59.07614746 1.12999512 59.96479492 1.13256836 60.88037109 C1.13839637 63.39294456 1.13700944 65.9053943 1.1328125 68.41796875 C1.13479645 69.1735759 1.1367804 69.92918304 1.13882446 70.70768738 C1.11533369 75.88466631 1.11533369 75.88466631 0 77 C-1.83271522 77.04760299 -3.66704066 77.03702948 -5.5 77 C-9.45607623 76.95746155 -13.26261742 77.06319932 -17.1875 77.5625 C-19.0746875 77.7790625 -19.0746875 77.7790625 -21 78 C-22.67335996 76.32664004 -22.11962895 74.28612091 -22.12442017 72.05252075 C-22.12082489 71.3454599 -22.11722961 70.63839905 -22.11352539 69.90991211 C-22.11367142 69.16849472 -22.11381744 68.42707733 -22.1139679 67.66319275 C-22.11326865 65.20121379 -22.10547574 62.73930957 -22.09765625 60.27734375 C-22.09579211 58.57483461 -22.09436819 56.87232493 -22.09336853 55.16981506 C-22.08954302 50.68006927 -22.07971247 46.19035562 -22.06866455 41.70062256 C-22.05845113 37.12268509 -22.05387106 32.54474244 -22.04882812 27.96679688 C-22.03809022 18.97785043 -22.02101341 9.98892788 -22 1 C-18.89590179 0.83204189 -15.79171114 0.66585677 -12.6875 0.5 C-11.80642578 0.45230469 -10.92535156 0.40460938 -10.01757812 0.35546875 C-8.74624023 0.28779297 -8.74624023 0.28779297 -7.44921875 0.21875 C-6.66893311 0.17685547 -5.88864746 0.13496094 -5.0847168 0.09179688 C-3.39117604 0.01722476 -1.69518179 0 0 0 Z M-14 6 C-14.38218767 7.65614657 -14.71395102 9.32457024 -15 11 C-13.93354885 12.29633621 -13.93354885 12.29633621 -11.4375 12.0625 C-10.633125 12.041875 -9.82875 12.02125 -9 12 C-8.61781233 10.34385343 -8.28604898 8.67542976 -8 7 C-9.06645115 5.70366379 -9.06645115 5.70366379 -11.5625 5.9375 C-12.366875 5.958125 -13.17125 5.97875 -14 6 Z M-14 18 C-14.38218767 19.65614657 -14.71395102 21.32457024 -15 23 C-13.93354885 24.29633621 -13.93354885 24.29633621 -11.4375 24.0625 C-10.633125 24.041875 -9.82875 24.02125 -9 24 C-8.61781233 22.34385343 -8.28604898 20.67542976 -8 19 C-9.06645115 17.70366379 -9.06645115 17.70366379 -11.5625 17.9375 C-12.366875 17.958125 -13.17125 17.97875 -14 18 Z M-13 33 C-13.33 34.65 -13.66 36.3 -14 38 C-11.525 38.495 -11.525 38.495 -9 39 C-8.67 37.35 -8.34 35.7 -8 34 C-9.65 33.67 -11.3 33.34 -13 33 Z M-14 46 C-14.33 47.65 -14.66 49.3 -15 51 C-12.525 51.495 -12.525 51.495 -10 52 C-9.67 50.35 -9.34 48.7 -9 47 C-10.65 46.67 -12.3 46.34 -14 46 Z M-13 58 C-13.33 59.65 -13.66 61.3 -14 63 C-11.525 63.495 -11.525 63.495 -9 64 C-8.67 62.35 -8.34 60.7 -8 59 C-9.65 58.67 -11.3 58.34 -13 58 Z " fill="#D0BF93" transform="translate(70,90)"/>
<path d="M0 0 C3.554834 1.91468287 6.30066244 4.16959097 7.765625 8.00390625 C8.37289068 11.48248245 8.16657337 13.67409558 6.5625 16.8125 C6.046875 17.534375 5.53125 18.25625 5 19 C5 23.0143368 6.3944849 23.81730508 9.125 26.6875 C12.01610921 29.79612213 14.75511979 32.87714138 17.25 36.3125 C19.59341798 39.52432356 22.14930595 42.21560116 25 45 C26.46583442 46.61823687 27.92334199 48.24403398 29.375 49.875 C30.91534236 51.58452751 32.45692449 53.29293912 34 55 C34.55429688 55.62261719 35.10859375 56.24523437 35.6796875 56.88671875 C44.06130535 65.83128108 55.19514765 73.39929123 67.4375 75.1875 C69.01337891 75.42533203 69.01337891 75.42533203 70.62109375 75.66796875 C71.40613281 75.77753906 72.19117188 75.88710937 73 76 C73.38218767 77.65614657 73.71395102 79.32457024 74 81 C73 82 73 82 69.5625 82.25 C55.2861186 81.99551905 44.90996786 73.32008882 35 64 C34.05125 63.1646875 33.1025 62.329375 32.125 61.46875 C25.29042768 55.44667146 19.31628194 48.97312801 13.49609375 41.96875 C11.71803568 39.85400175 9.96584095 37.92263173 8 36 C7.1931333 43.49491229 6.86720316 50.87135016 6.91821289 58.40649414 C6.92281273 60.0280542 6.92281273 60.0280542 6.92750549 61.68237305 C6.9346098 64.00780561 6.94397241 66.3332322 6.95540047 68.65864754 C6.97289638 72.3356224 6.98312146 76.01255325 6.99131775 79.68955994 C7.01569327 90.13609973 7.05157802 100.58257929 7.09594727 111.02905273 C7.12265138 117.43482006 7.13974094 123.84055402 7.15081596 130.2463665 C7.15703781 132.68692711 7.16705801 135.12748102 7.18089485 137.56801033 C7.2000029 140.96473643 7.20699099 144.36128424 7.21118164 147.75805664 C7.22432404 149.27824654 7.22432404 149.27824654 7.23773193 150.82914734 C7.23642776 151.74997101 7.2351236 152.67079468 7.23377991 153.61952209 C7.23692231 154.42194367 7.24006472 155.22436525 7.24330235 156.05110264 C7 158 7 158 5 160 C3.15234375 160.24291992 3.15234375 160.24291992 0.9375 160.23046875 C-0.25746094 160.22756836 -0.25746094 160.22756836 -1.4765625 160.22460938 C-2.30929688 160.21236328 -3.14203125 160.20011719 -4 160.1875 C-4.83273438 160.18685547 -5.66546875 160.18621094 -6.5234375 160.18554688 C-12.71913485 160.14043257 -12.71913485 160.14043257 -15 159 C-15 158.34 -15 157.68 -15 157 C-12.36 157 -9.72 157 -7 157 C-7.18464366 152.65815798 -7.18464366 152.65815798 -9 149 C-9.125 145.5 -9.125 145.5 -9 142 C-8 141 -8 141 -5 140.875 C-2 141 -2 141 -1 142 C-1.17635452 144.69082872 -1.61835921 147.32851446 -2 150 C-2.66 150 -3.32 150 -4 150 C-3.505 152.475 -3.505 152.475 -3 155 C-0.69 155.66 1.62 156.32 4 157 C3.91619202 141.25801199 3.82109298 125.5161356 3.71247292 109.77430153 C3.66230572 102.46544116 3.61586339 95.15659223 3.578125 87.84765625 C3.54523098 81.47876416 3.50541433 75.10995987 3.45720994 68.74116457 C3.43191899 65.36750234 3.41014555 61.99389855 3.39665604 58.62016678 C3.3798759 54.85813937 3.35086096 51.09639682 3.31884766 47.33447266 C3.31668747 46.21022385 3.31452728 45.08597504 3.31230164 43.92765808 C3.30113815 42.90679611 3.28997467 41.88593414 3.2784729 40.83413696 C3.27294214 39.94368494 3.26741138 39.05323292 3.26171303 38.1357975 C3.19625343 35.78568404 3.19625343 35.78568404 1 34 C-1.65537372 33.43479997 -4.29144713 33.26211802 -7 33 C-7 32.67 -7 32.34 -7 32 C-3.7 31.34 -0.4 30.68 3 30 C2.34 29.01 1.68 28.02 1 27 C1 25.68 1 24.36 1 23 C-0.794375 23.12375 -0.794375 23.12375 -2.625 23.25 C-7.13355702 23.23404051 -9.57091806 22.03035148 -13 19 C-15.19641371 15.74080547 -16.01781953 13.8731572 -15.9375 9.9375 C-14.63044044 5.84204671 -12.67037081 3.20957887 -9.1875 0.6875 C-5.83112692 -0.36736011 -3.51106897 -0.47607715 0 0 Z M-5 6 C-5.99 6.66 -6.98 7.32 -8 8 C-8.25030977 10.58380177 -8.25030977 10.58380177 -8 13 C-5.60280568 13.67958603 -5.60280568 13.67958603 -3 14 C-2.34 13.34 -1.68 12.68 -1 12 C-1.32041397 9.39719432 -1.32041397 9.39719432 -2 7 C-2.99 6.67 -3.98 6.34 -5 6 Z M-7 142 C-7.33 143.65 -7.66 145.3 -8 147 C-5.525 147.495 -5.525 147.495 -3 148 C-2.67 146.35 -2.34 144.7 -2 143 C-3.65 142.67 -5.3 142.34 -7 142 Z " fill="#D9D6BD" transform="translate(94,8)"/>
<path d="M0 0 C0.85078125 0.04833984 1.7015625 0.09667969 2.578125 0.14648438 C3.46757813 0.20255859 4.35703125 0.25863281 5.2734375 0.31640625 C6.170625 0.36861328 7.0678125 0.42082031 7.9921875 0.47460938 C10.21127762 0.60444975 12.42993621 0.73941964 14.6484375 0.87890625 C15.96702891 3.51608908 15.8169394 5.54937143 15.86962891 8.50268555 C15.89280182 9.68118576 15.91597473 10.85968597 15.93984985 12.07389832 C15.9596994 13.35404312 15.97954895 14.63418793 16 15.953125 C16.02315277 17.26545609 16.04630554 18.57778717 16.07015991 19.92988586 C16.11865355 22.71322442 16.16356457 25.49659283 16.20605469 28.2800293 C16.26062561 31.83301149 16.32452109 35.38575271 16.39122963 38.9385252 C16.45366427 42.33914157 16.50766077 45.73987762 16.5625 49.140625 C16.58639801 50.41064865 16.61029602 51.6806723 16.63491821 52.98918152 C16.71611207 58.73753695 16.73051978 64.22332739 15.6484375 69.87890625 C11.02384506 71.05590673 6.56977288 70.99299037 1.8359375 70.94140625 C0.65354492 70.93463867 0.65354492 70.93463867 -0.55273438 70.92773438 C-2.48571011 70.91601937 -4.41864643 70.89808623 -6.3515625 70.87890625 C-7.80481926 67.97239273 -7.48143586 65.4337827 -7.484375 62.1875 C-7.48569427 61.50211151 -7.48701355 60.81672302 -7.4883728 60.11056519 C-7.49030533 57.84580117 -7.48390742 55.58115797 -7.4765625 53.31640625 C-7.47567627 52.54589935 -7.47479004 51.77539246 -7.47387695 50.98153687 C-7.45141765 34.26944257 -6.97122348 17.57844018 -6.3515625 0.87890625 C-3.94721244 -0.32326878 -2.66774881 -0.16006493 0 0 Z M2.6484375 6.87890625 C2.3184375 8.52890625 1.9884375 10.17890625 1.6484375 11.87890625 C4.1234375 12.37390625 4.1234375 12.37390625 6.6484375 12.87890625 C6.9784375 11.22890625 7.3084375 9.57890625 7.6484375 7.87890625 C5.9984375 7.54890625 4.3484375 7.21890625 2.6484375 6.87890625 Z M2.6484375 18.87890625 C2.3184375 20.52890625 1.9884375 22.17890625 1.6484375 23.87890625 C4.1234375 24.37390625 4.1234375 24.37390625 6.6484375 24.87890625 C6.9784375 23.22890625 7.3084375 21.57890625 7.6484375 19.87890625 C5.9984375 19.54890625 4.3484375 19.21890625 2.6484375 18.87890625 Z M2.6484375 31.87890625 C2.3184375 33.52890625 1.9884375 35.17890625 1.6484375 36.87890625 C4.1234375 37.37390625 4.1234375 37.37390625 6.6484375 37.87890625 C6.9784375 36.22890625 7.3084375 34.57890625 7.6484375 32.87890625 C5.9984375 32.54890625 4.3484375 32.21890625 2.6484375 31.87890625 Z M2.6484375 43.87890625 C2.3184375 45.52890625 1.9884375 47.17890625 1.6484375 48.87890625 C4.1234375 49.37390625 4.1234375 49.37390625 6.6484375 49.87890625 C6.9784375 48.22890625 7.3084375 46.57890625 7.6484375 44.87890625 C5.9984375 44.54890625 4.3484375 44.21890625 2.6484375 43.87890625 Z M2.6484375 55.87890625 C1.29225251 57.0042473 1.29225251 57.0042473 1.5859375 59.94140625 C1.6065625 60.91078125 1.6271875 61.88015625 1.6484375 62.87890625 C3.30458407 63.26109392 4.97300774 63.59285727 6.6484375 63.87890625 C8.00462249 62.7535652 8.00462249 62.7535652 7.7109375 59.81640625 C7.6903125 58.84703125 7.6696875 57.87765625 7.6484375 56.87890625 C5.99229093 56.49671858 4.32386726 56.16495523 2.6484375 55.87890625 Z " fill="#DECFA0" transform="translate(115.3515625,97.12109375)"/>
<path d="M0 0 C7.26 0 14.52 0 22 0 C22.16544186 5.39340454 22.32782298 10.78671328 22.48217773 16.18041992 C22.53567534 18.0167375 22.59101046 19.85300247 22.64819336 21.68920898 C22.72988864 24.32263847 22.80505738 26.95618405 22.87890625 29.58984375 C22.90594131 30.41588608 22.93297638 31.24192841 22.96083069 32.09300232 C23.01283011 34.0613581 23.01187837 36.03099331 23 38 C20.68052957 40.31947043 15.19470234 39.47841379 12.0625 39.625 C11.12986328 39.6765625 10.19722656 39.728125 9.23632812 39.78125 C8.34494141 39.82507813 7.45355469 39.86890625 6.53515625 39.9140625 C5.714104 39.9548291 4.89305176 39.9955957 4.04711914 40.03759766 C2 40 2 40 0 39 C0 26.13 0 13.26 0 0 Z M8 9 C7.67 10.65 7.34 12.3 7 14 C9.475 14.495 9.475 14.495 12 15 C12.33 13.35 12.66 11.7 13 10 C11.35 9.67 9.7 9.34 8 9 Z M8 25 C7.67 26.65 7.34 28.3 7 30 C9.475 30.495 9.475 30.495 12 31 C12.33 29.35 12.66 27.7 13 26 C11.35 25.67 9.7 25.34 8 25 Z " fill="#D6C598" transform="translate(141,128)"/>
<path d="M0 0 C5.28 0 10.56 0 16 0 C17.31859141 2.63718283 17.1685019 4.67046518 17.22119141 7.6237793 C17.24436432 8.80227951 17.26753723 9.98077972 17.29141235 11.19499207 C17.3112619 12.47513687 17.33111145 13.75528168 17.3515625 15.07421875 C17.37471527 16.38654984 17.39786804 17.69888092 17.42172241 19.05097961 C17.47021605 21.83431817 17.51512707 24.61768658 17.55761719 27.40112305 C17.61218811 30.95410524 17.67608359 34.50684646 17.74279213 38.05961895 C17.80522677 41.46023532 17.85922327 44.86097137 17.9140625 48.26171875 C17.93796051 49.5317424 17.96185852 50.80176605 17.98648071 52.11027527 C18.06767457 57.8586307 18.08208228 63.34442114 17 69 C12.37540756 70.17700048 7.92133538 70.11408412 3.1875 70.0625 C2.00510742 70.05573242 2.00510742 70.05573242 0.79882812 70.04882812 C-1.13414761 70.03711312 -3.06708393 70.01917998 -5 70 C-6.46146445 67.07707109 -6.12988767 64.50176998 -6.1328125 61.23828125 C-6.13413177 60.54742432 -6.13545105 59.85656738 -6.1368103 59.14477539 C-6.13874068 56.86730602 -6.13235228 54.5899571 -6.125 52.3125 C-6.12367065 51.15190567 -6.12367065 51.15190567 -6.12231445 49.96786499 C-6.10086237 33.96564064 -5.64083029 17.98837485 -5 2 C-4.67 2 -4.34 2 -4 2 C-3.68349559 7.34803358 -3.3811607 12.69663792 -3.09057617 18.04614258 C-2.9903963 19.85657024 -2.88669404 21.66680728 -2.77905273 23.47680664 C-2.1529938 34.04926669 -1.86464953 44.40325631 -2.77220154 54.97041321 C-3.18415553 60.28640743 -3.18415553 60.28640743 -1 65 C1.76223278 62.23776722 1.57856291 59.79293383 2 56 C2.33 56 2.66 56 3 56 C3.33 57.98 3.66 59.96 4 62 C5.32 62 6.64 62 8 62 C8 59.69 8 57.38 8 55 C8.99 55.33 9.98 55.66 11 56 C11.36923077 61.41538462 11.36923077 61.41538462 9.5 64.375 C9.005 64.91125 8.51 65.4475 8 66 C10.97 65.505 10.97 65.505 14 65 C13.83544815 64.13386078 13.6708963 63.26772156 13.50135803 62.37533569 C13.02412225 59.16240028 12.91455747 56.23696417 12.97827148 52.99462891 C12.99836777 51.83387848 13.01846405 50.67312805 13.03916931 49.47720337 C13.06620438 48.23949188 13.09323944 47.0017804 13.12109375 45.7265625 C13.14470474 44.44768158 13.16831573 43.16880066 13.19264221 41.85116577 C13.25609415 38.46781191 13.32432233 35.08462392 13.39489746 31.70141602 C13.46586672 28.24242712 13.53051196 24.78332052 13.59570312 21.32421875 C13.72466255 14.54935317 13.86050875 7.77465659 14 1 C9.38 1 4.76 1 0 1 C0 0.67 0 0.34 0 0 Z " fill="#C2B591" transform="translate(114,98)"/>
<path d="M0 0 C2.54620646 2.54620646 2.25106498 3.44169603 2.25396729 6.97253418 C2.25960693 8.02416245 2.26524658 9.07579071 2.27105713 10.1592865 C2.26700867 11.31779617 2.26296021 12.47630585 2.25878906 13.66992188 C2.2622937 14.88619766 2.26579834 16.10247345 2.26940918 17.35560608 C2.27671823 20.69651129 2.27498419 24.03716975 2.26865101 27.37806129 C2.2635971 30.86984216 2.26828076 34.36161229 2.27142334 37.85339355 C2.27506477 43.71787414 2.27025928 49.5823044 2.26074219 55.44677734 C2.24985727 62.23259308 2.25338273 69.01828864 2.264395 75.80410147 C2.27346286 81.62409289 2.27475562 87.44404808 2.26951766 93.26404428 C2.26639519 96.74277625 2.26599617 100.22145169 2.27259064 103.70018005 C2.27942579 107.57686049 2.2699595 111.45340567 2.25878906 115.33007812 C2.26283752 116.4885878 2.26688599 117.64709747 2.27105713 118.8407135 C2.26541748 119.89234177 2.25977783 120.94397003 2.25396729 122.02746582 C2.25321323 122.94481758 2.25245918 123.86216934 2.25168228 124.80731964 C2 127 2 127 0 129 C-1.84765625 129.24291992 -1.84765625 129.24291992 -4.0625 129.23046875 C-5.25746094 129.22756836 -5.25746094 129.22756836 -6.4765625 129.22460938 C-7.30929688 129.21236328 -8.14203125 129.20011719 -9 129.1875 C-9.83273438 129.18685547 -10.66546875 129.18621094 -11.5234375 129.18554688 C-17.71913485 129.14043257 -17.71913485 129.14043257 -20 128 C-20 127.34 -20 126.68 -20 126 C-17.36 126 -14.72 126 -12 126 C-12.18464366 121.65815798 -12.18464366 121.65815798 -14 118 C-14.125 114.5 -14.125 114.5 -14 111 C-13 110 -13 110 -10 109.875 C-7 110 -7 110 -6 111 C-6.17635452 113.69082872 -6.61835921 116.32851446 -7 119 C-7.66 119 -8.32 119 -9 119 C-8.67 120.65 -8.34 122.3 -8 124 C-5.69 124.66 -3.38 125.32 -1 126 C-1.00092179 125.35670526 -1.00184359 124.71341051 -1.00279331 124.05062199 C-1.02484855 108.4197113 -1.04141155 92.78880601 -1.05181217 77.15788364 C-1.05697512 69.59898381 -1.0640178 62.04009435 -1.07543945 54.48120117 C-1.08538632 47.89520334 -1.09185343 41.30921302 -1.09408849 34.72320789 C-1.0953956 31.23386929 -1.09848142 27.74455216 -1.10573006 24.25522041 C-1.11374398 20.36618768 -1.11399114 16.47717622 -1.11352539 12.58813477 C-1.11712067 11.42288773 -1.12071594 10.25764069 -1.12442017 9.05708313 C-1.1230455 8.00393921 -1.12167084 6.95079529 -1.12025452 5.86573792 C-1.12117631 4.94486672 -1.1220981 4.02399553 -1.12304783 3.07521915 C-1 1 -1 1 0 0 Z M-12 111 C-12.33 112.65 -12.66 114.3 -13 116 C-10.525 116.495 -10.525 116.495 -8 117 C-7.67 115.35 -7.34 113.7 -7 112 C-8.65 111.67 -10.3 111.34 -12 111 Z " fill="#8D8981" transform="translate(99,39)"/>
<path d="M0 0 C7.26 0 14.52 0 22 0 C21.67 0.66 21.34 1.32 21 2 C20.84355828 4.55106029 20.74178611 7.07918663 20.68359375 9.6328125 C20.66281265 10.38464813 20.64203156 11.13648376 20.62062073 11.91110229 C20.55517295 14.31564085 20.49626262 16.72028967 20.4375 19.125 C20.39431023 20.75391771 20.35069579 22.38282422 20.30664062 24.01171875 C20.19949649 28.00769915 20.09821567 32.00379059 20 36 C18.00045254 36.04254356 15.99958364 36.04080783 14 36 C13 35 13 35 12.8125 32.8125 C13.02602396 29.60964058 13.88445818 26.99801865 15 24 C13.68 23.67 12.36 23.34 11 23 C11 20.69 11 18.38 11 16 C11.66 16 12.32 16 13 16 C12.67 14.02 12.34 12.04 12 10 C7.71170166 8.80922504 7.71170166 8.80922504 3.6875 10.3125 C1.17554216 14.31302544 1.17727997 18.3552648 1 23 C0.67 23 0.34 23 0 23 C0 15.41 0 7.82 0 0 Z " fill="#E8DDB6" transform="translate(141,128)"/>
<path d="M0 0 C4.52319291 1.56449261 6.68873491 5.12605438 9.4375 8.8125 C12.73308953 13.18681232 16.05845764 17.17270525 20 21 C21.46950832 22.61490137 22.92797902 24.23991853 24.375 25.875 C25.91534236 27.58452751 27.45692449 29.29293912 29 31 C29.55429688 31.62261719 30.10859375 32.24523437 30.6796875 32.88671875 C39.06130535 41.83128108 50.19514765 49.39929123 62.4375 51.1875 C64.01337891 51.42533203 64.01337891 51.42533203 65.62109375 51.66796875 C66.40613281 51.77753906 67.19117188 51.88710937 68 52 C68.38218767 53.65614657 68.71395102 55.32457024 69 57 C68 58 68 58 64.5625 58.25 C50.2874194 57.99554224 39.90809476 49.32094841 30 40 C29.01644531 39.12988281 28.03289062 38.25976562 27.01953125 37.36328125 C20.27023657 31.3915156 14.49651098 25.17600045 9 18 C9.99 18 10.98 18 12 18 C14.0859375 20.265625 14.0859375 20.265625 16.375 23.25 C19.31112181 27.06393142 22.12779157 30.12662979 26 33 C26.22796454 30.78720347 26.22796454 30.78720347 24.12890625 29.00390625 C23.28199219 28.19824219 22.43507813 27.39257812 21.5625 26.5625 C17.05781973 22.15325787 13.04348736 17.54643432 9.1171875 12.62109375 C6.59285143 9.49594707 3.92909314 6.51903356 1.21484375 3.55859375 C0 2 0 2 0 0 Z " fill="#E4DFC2" transform="translate(99,32)"/>
<path d="M0 0 C5.12365027 1.8445141 7.52879647 4.15263922 10 9 C10.80061198 13.26993058 10.26114945 14.61200653 7.8125 18.25 C4.22582733 21.75696883 2.13504294 23 -2.875 23 C-7.12066762 21.64138636 -9.9315004 19.18684394 -13 16 C-14.47896861 13.04206277 -14.4355582 11.29779776 -14 8 C-10.15710457 2.20609613 -7.14586621 -0.54968202 0 0 Z M-6 7 C-6.6814823 8.89179203 -6.6814823 8.89179203 -7 11 C-6.34 11.66 -5.68 12.32 -5 13 C-2.39719432 12.67958603 -2.39719432 12.67958603 0 12 C0.59070014 10.05396726 0.59070014 10.05396726 1 8 C-0.12534105 6.64381501 -0.12534105 6.64381501 -3.0625 6.9375 C-4.031875 6.958125 -5.00125 6.97875 -6 7 Z " fill="#E0D7B2" transform="translate(61,62)"/>
<path d="M0 0 C4.09432176 2.91007349 6.60691493 6.21324968 7.6875 11.125 C6.78481884 14.8998485 5.54921837 17.05859418 3 20 C-0.99020567 22.40918078 -3.04853436 23.12901229 -7.6875 22.5 C-11.97424627 20.55883188 -13.92345961 18.15308077 -16 14 C-16.5811138 6.91041162 -16.5811138 6.91041162 -14.125 3.0625 C-10.05594061 -0.88688117 -5.44093469 -1.12710868 0 0 Z M-7 6 C-7.66 6.66 -8.32 7.32 -9 8 C-8.67958603 10.60280568 -8.67958603 10.60280568 -8 13 C-6.35 12.67 -4.7 12.34 -3 12 C-2.67 10.35 -2.34 8.7 -2 7 C-4.39719432 6.32041397 -4.39719432 6.32041397 -7 6 Z " fill="#E5DCB7" transform="translate(34,46)"/>
<path d="M0 0 C2.95409726 2.92340534 3.97911657 5.9558287 4.0625 10.125 C2.66746768 13.89979334 1.23463 15.59123298 -2 18 C-6.22904507 19.41838343 -9.19245923 19.29908917 -13.375 17.75 C-16 16 -16 16 -18 13 C-18.67395543 8.74467674 -18.80128553 5.15741244 -16.3125 1.5625 C-10.71267729 -2.22116399 -6.27618918 -2.86343827 0 0 Z M-12 5 C-12.16666667 7.5 -12.16666667 7.5 -12 10 C-10.9404123 11.28322547 -10.9404123 11.28322547 -8.5 11.125 C-6.0595877 11.28322547 -6.0595877 11.28322547 -5 10 C-4.83333333 7.5 -4.83333333 7.5 -5 5 C-6.0595877 3.71677453 -6.0595877 3.71677453 -8.5 3.875 C-10.9404123 3.71677453 -10.9404123 3.71677453 -12 5 Z " fill="#EBDEA9" transform="translate(160,103)"/>
<path d="M0 0 C0.33 0 0.66 0 1 0 C1.04626791 11.56960037 1.08184092 23.13917885 1.10362434 34.70885277 C1.1140774 40.08067458 1.12826429 45.45243327 1.15087891 50.82421875 C1.17255311 56.00483448 1.18455715 61.18538935 1.18975449 66.36604691 C1.19346002 68.34607527 1.20069562 70.32610018 1.21146011 72.30610275 C1.22590302 75.07181846 1.22798098 77.83728021 1.22705078 80.60302734 C1.23424133 81.42805252 1.24143188 82.2530777 1.24884033 83.10310364 C1.22810432 88.77189568 1.22810432 88.77189568 -1 91 C-2.87939453 91.13525391 -2.87939453 91.13525391 -5.1328125 90.9765625 C-6.34130859 90.89921875 -6.34130859 90.89921875 -7.57421875 90.8203125 C-8.41597656 90.75585938 -9.25773437 90.69140625 -10.125 90.625 C-11.39923828 90.53992188 -11.39923828 90.53992188 -12.69921875 90.453125 C-14.8001345 90.31149023 -16.90017334 90.15695674 -19 90 C-17.35 87.69 -15.7 85.38 -14 83 C-12.35 83.33 -10.7 83.66 -9 84 C-8.67 85.32 -8.34 86.64 -8 88 C-5.69 88 -3.38 88 -1 88 C-1.00222061 87.07451355 -1.00444122 86.1490271 -1.00672913 85.19549561 C-1.02685438 76.42841291 -1.04203612 67.6613381 -1.05181217 58.89423752 C-1.05700725 54.38814042 -1.06404282 49.88206258 -1.07543945 45.37597656 C-1.08638926 41.01876896 -1.09230219 36.66157975 -1.09487724 32.30435944 C-1.09670987 30.65078695 -1.10028801 28.99721536 -1.10573006 27.34365082 C-1.13468078 18.17344444 -0.9834097 9.13147238 0 0 Z " fill="#646158" transform="translate(38,77)"/>
<path d="M0 0 C0.66 0 1.32 0 2 0 C2.67800941 19.04196648 3.10598669 38.07020431 3.125 57.125 C3.12749756 58.01541992 3.12999512 58.90583984 3.13256836 59.82324219 C3.1383993 62.34313973 3.13700715 64.86291395 3.1328125 67.3828125 C3.13479645 68.14159698 3.1367804 68.90038147 3.13882446 69.68215942 C3.11532703 74.88467297 3.11532703 74.88467297 2 76 C-0.9375 76.1875 -0.9375 76.1875 -4 76 C-4.66 75.34 -5.32 74.68 -6 74 C-4.02 74 -2.04 74 0 74 C0 49.58 0 25.16 0 0 Z " fill="#696761" transform="translate(68,91)"/>
<path d="M0 0 C1.30078125 1.76953125 1.30078125 1.76953125 2.140625 3.54296875 C3.88381097 6.88847718 6.39441536 9.57116742 8.86328125 12.39453125 C9.66475586 13.32060181 9.66475586 13.32060181 10.48242188 14.26538086 C14.38360598 18.75908352 18.34588161 23.195711 22.36328125 27.5859375 C24.43066858 29.91591637 26.37410939 32.32248596 28.30078125 34.76953125 C27.31078125 35.09953125 26.32078125 35.42953125 25.30078125 35.76953125 C23.15120801 33.48134775 21.00677669 31.18840804 18.86328125 28.89453125 C18.25162109 28.24355469 17.63996094 27.59257813 17.00976562 26.921875 C16.13481445 25.98408203 16.13481445 25.98408203 15.2421875 25.02734375 C14.70279541 24.45129395 14.16340332 23.87524414 13.60766602 23.28173828 C12.30078125 21.76953125 12.30078125 21.76953125 11.30078125 19.76953125 C9.63798798 18.76310375 7.97094641 17.76367718 6.30078125 16.76953125 C5.31078125 15.77953125 4.32078125 14.78953125 3.30078125 13.76953125 C2.97078125 17.06953125 2.64078125 20.36953125 2.30078125 23.76953125 C1.97078125 23.76953125 1.64078125 23.76953125 1.30078125 23.76953125 C1.30078125 19.14953125 1.30078125 14.52953125 1.30078125 9.76953125 C0.31078125 11.08953125 -0.67921875 12.40953125 -1.69921875 13.76953125 C-2.35921875 13.10953125 -3.01921875 12.44953125 -3.69921875 11.76953125 C-6.35459247 11.20433122 -8.99066588 11.03164927 -11.69921875 10.76953125 C-11.69921875 10.43953125 -11.69921875 10.10953125 -11.69921875 9.76953125 C-8.39921875 9.10953125 -5.09921875 8.44953125 -1.69921875 7.76953125 C-2.35921875 6.77953125 -3.01921875 5.78953125 -3.69921875 4.76953125 C-3.69921875 3.44953125 -3.69921875 2.12953125 -3.69921875 0.76953125 C-6.33921875 0.76953125 -8.97921875 0.76953125 -11.69921875 0.76953125 C-11.69921875 0.43953125 -11.69921875 0.10953125 -11.69921875 -0.23046875 C-10.09806299 -0.47980445 -8.49301716 -0.70425523 -6.88671875 -0.91796875 C-5.99339844 -1.04558594 -5.10007812 -1.17320313 -4.1796875 -1.3046875 C-1.69921875 -1.23046875 -1.69921875 -1.23046875 0 0 Z " fill="#E7E2C3" transform="translate(98.69921875,30.23046875)"/>
<path d="M0 0 C2.40832406 1.77455457 3.60420698 3.25788808 5 5.875 C5 9.40035421 3.14935037 11.32783468 1 14 C-1.57106586 15.9711505 -2.73405066 16.01108122 -6 15.875 C-9.48347614 14.85898613 -10.8334681 13.8887092 -13 11 C-13.98131617 8.19623952 -14.19109659 6.66883807 -13.375 3.8125 C-10.09612235 -0.5096569 -5.05289317 -0.55122471 0 0 Z M-5 3 C-5.66 3.66 -6.32 4.32 -7 5 C-6.67958603 7.60280568 -6.67958603 7.60280568 -6 10 C-4.68 9.67 -3.36 9.34 -2 9 C-2 7.35 -2 5.7 -2 4 C-2.99 3.67 -3.98 3.34 -5 3 Z " fill="#BFB9A8" transform="translate(134,32)"/>
<path d="M0 0 C-0.66 0 -1.32 0 -2 0 C-2 3.3 -2 6.6 -2 10 C-2.33 10 -2.66 10 -3 10 C-3 7.03 -3 4.06 -3 1 C-5.91517292 2.07401108 -7.77810176 2.77810176 -10 5 C-12.125 5.625 -12.125 5.625 -14 6 C-14 7.32 -14 8.64 -14 10 C-10.37114676 10.15149298 -10.37114676 10.15149298 -7 9 C-7.33 11.97 -7.66 14.94 -8 18 C-10.21354167 17.4140625 -12.42708333 16.828125 -14.640625 16.2421875 C-17.38789693 15.74710839 -17.38789693 15.74710839 -21 18 C-21.33 12.06 -21.66 6.12 -22 0 C-18.89612732 -0.19455325 -15.7921358 -0.38092924 -12.6875 -0.5625 C-11.36588867 -0.64661133 -11.36588867 -0.64661133 -10.01757812 -0.73242188 C-8.74624023 -0.80493164 -8.74624023 -0.80493164 -7.44921875 -0.87890625 C-6.27879028 -0.94960327 -6.27879028 -0.94960327 -5.0847168 -1.02172852 C-3 -1 -3 -1 0 0 Z " fill="#EEE7BF" transform="translate(70,91)"/>
<path d="M0 0 C0.66 0.33 1.32 0.66 2 1 C2.15431105 8.7020128 2.3024864 16.4041233 2.4429636 24.10640049 C2.50839205 27.68338519 2.57588405 31.26030546 2.64819336 34.8371582 C2.71797881 38.29300555 2.78221126 41.74891668 2.84269524 45.20493889 C2.87826735 47.15635743 2.91949734 49.10767021 2.96083069 51.05897522 C3.05736645 56.82681146 3.09220895 62.32566192 2 68 C-2.49167828 69.19600901 -6.73269793 68.9185704 -11.3125 68.5625 C-12.05306641 68.51029297 -12.79363281 68.45808594 -13.55664062 68.40429688 C-15.37152709 68.27549848 -17.18583325 68.13856738 -19 68 C-19 67.34 -19 66.68 -19 66 C-12.73 66 -6.46 66 0 66 C0 44.22 0 22.44 0 0 Z " fill="#7F7C75" transform="translate(129,99)"/>
<path d="M0 0 C2.5 2.0625 2.5 2.0625 4 5 C4.07579402 9.32025896 3.62878592 11.26342221 0.8125 14.5625 C-2 16 -2 16 -5.125 15.5 C-8.17503057 13.9086797 -9.47008712 13.05982576 -11 10 C-11.52755517 6.38247881 -11.45932313 4.69817115 -9.4375 1.625 C-6.04129157 -0.63913895 -3.99900698 -0.64269755 0 0 Z " fill="#E0D0A4" transform="translate(124,77)"/>
<path d="M0 0 C1.98 0 3.96 0 6 0 C7.89215342 3.17881775 9 5.32577385 9 9.0625 C7.68675906 12.92014525 6.27187479 14.5634975 3 17 C0.17159726 17.83443299 -1.99078041 17.95066853 -5 18 C-5.66 17.34 -6.32 16.68 -7 16 C-6.43410156 15.87882812 -5.86820313 15.75765625 -5.28515625 15.6328125 C-4.55167969 15.46523437 -3.81820312 15.29765625 -3.0625 15.125 C-2.33160156 14.96257812 -1.60070312 14.80015625 -0.84765625 14.6328125 C1.20700294 14.17038477 1.20700294 14.17038477 2 12 C-0.31 11.67 -2.62 11.34 -5 11 C-3.68 10.34 -2.36 9.68 -1 9 C-1 7.35 -1 5.7 -1 4 C-2.32 3.34 -3.64 2.68 -5 2 C-3.35 2 -1.7 2 0 2 C0 1.34 0 0.68 0 0 Z M-3 12 C-1 13 -1 13 -1 13 Z " fill="#D7C99D" transform="translate(155,104)"/>
<path d="M0 0 C7.06163974 -0.47875524 7.06163974 -0.47875524 11.0625 1.5625 C13 4 13 4 13 7.5625 C12 11 12 11 10.875 13 C7.78978952 14.64544559 5.29964158 13.76598822 2 13 C1.01 12.34 0.02 11.68 -1 11 C-1.328125 8.90625 -1.328125 8.90625 -1.25 6.5 C-1.23453125 5.7059375 -1.2190625 4.911875 -1.203125 4.09375 C-1 2 -1 2 0 0 Z M5 3 C4.67 4.32 4.34 5.64 4 7 C5.32 7.33 6.64 7.66 8 8 C8.33 6.68 8.66 5.36 9 4 C7.68 3.67 6.36 3.34 5 3 Z " fill="#CDC4A1" transform="translate(146,45)"/>
<path d="M0 0 C0.33 0 0.66 0 1 0 C1.14482311 7.50321062 1.28691728 15.00646962 1.42724609 22.50976562 C1.47514233 25.05437346 1.52362938 27.59897026 1.57275391 30.14355469 C1.64386558 33.83265424 1.71316413 37.52178091 1.78125 41.2109375 C1.80348633 42.40692566 1.82572266 43.60291382 1.84863281 44.83514404 C1.98184308 52.48905192 2.04632405 60.13890445 1.93762207 67.79354858 C1.91048425 70.83284417 2.02904247 73.08712741 3 76 C5.475 75.505 5.475 75.505 8 75 C8 75.99 8 76.98 8 78 C5.03 78 2.06 78 -1 78 C-1.09075828 62.11099847 -0.82290328 46.23127972 -0.53643799 30.34521484 C-0.47489146 26.91180526 -0.41527324 23.47836217 -0.35546875 20.04492188 C-0.23870949 13.36324987 -0.12010326 6.68161269 0 0 Z " fill="#B7AB92" transform="translate(79,87)"/>
<path d="M0 0 C4.75 0.75 4.75 0.75 7 3 C7.73434551 6.98947323 8.11978012 11.25082623 5.8671875 14.76953125 C3.3181234 17.08504236 1.19644219 17.97303735 -2.1875 18.4375 C-5 18 -5 18 -8 16 C-8 14.68 -8 13.36 -8 12 C-6.72125 11.87625 -5.4425 11.7525 -4.125 11.625 C-0.65209064 11.30957601 -0.65209064 11.30957601 2 9 C1.71447643 7.10332891 1.71447643 7.10332891 1 5 C0.65939189 3.33480481 0.32441604 1.66842534 0 0 Z " fill="#F0ECC6" transform="translate(92,11)"/>
<path d="M0 0 C3.8478548 1.28261827 4.84519327 3.06252948 7.3125 6.25 C9.88766505 9.49420303 12.30391496 12.49442465 15.5625 15.0625 C16.366875 15.701875 17.17125 16.34125 18 17 C18 17.66 18 18.32 18 19 C18.56203125 19.24105469 19.1240625 19.48210937 19.703125 19.73046875 C22.467604 21.25845459 24.45787654 23.14082251 26.75 25.3125 C37.32586265 34.97209848 45.66038008 37.38814009 60 37 C59.67 38.32 59.34 39.64 59 41 C45.99996517 41.72222416 35.6786436 36.34362903 26.125 27.8125 C24.41511562 26.2099867 22.70687072 24.60572283 21 23 C19.49365896 21.66739161 17.9873175 20.33478369 16.48095703 19.00219727 C10.31961607 13.50455027 4.88814541 7.69034044 0 1 C0 0.67 0 0.34 0 0 Z " fill="#B5B4AB" transform="translate(108,49)"/>
<path d="M0 0 C0.33 0 0.66 0 1 0 C2.4960359 22.53382867 3.62771393 44.50057185 1 67 C2.32 67.33 3.64 67.66 5 68 C3.35 68 1.7 68 0 68 C-1.46146445 65.07707109 -1.12988767 62.50176998 -1.1328125 59.23828125 C-1.13413177 58.54742432 -1.13545105 57.85656738 -1.1368103 57.14477539 C-1.13874068 54.86730602 -1.13235228 52.5899571 -1.125 50.3125 C-1.12367065 49.15190567 -1.12367065 49.15190567 -1.12231445 47.96786499 C-1.10086237 31.96564064 -0.64083029 15.98837485 0 0 Z " fill="#B1A68C" transform="translate(109,100)"/>
<path d="M0 0 C2.93593005 1.20448412 3.98968659 2.18480725 5.4375 5 C5.4375 7 5.4375 7 4.4375 9 C1.875 11.25 1.875 11.25 -0.5625 13 C-4.21566671 11.75023244 -5.34315836 11.32901247 -7.5625 8 C-7.3810208 5.18707246 -6.52441063 3.94966762 -4.8125 1.6875 C-2.5625 0 -2.5625 0 0 0 Z " fill="#CABEA4" transform="translate(50.5625,27)"/>
<path d="M0 0 C4.52319291 1.56449261 6.68873491 5.12605438 9.4375 8.8125 C12.73308953 13.18681232 16.05845764 17.17270525 20 21 C21.46950832 22.61490137 22.92797902 24.23991853 24.375 25.875 C25.91534236 27.58452751 27.45692449 29.29293912 29 31 C29.55429688 31.62261719 30.10859375 32.24523437 30.6796875 32.88671875 C36.02035798 38.58609097 42.52577269 42.70656505 49 47 C48.505 47.99 48.505 47.99 48 49 C32.97938277 39.74817055 19.92061049 26.30801308 9.01171875 12.515625 C6.53319487 9.41626698 3.89600091 6.48293977 1.21484375 3.55859375 C0 2 0 2 0 0 Z " fill="#C7C4BB" transform="translate(99,32)"/>
<path d="M0 0 C0.33 0 0.66 0 1 0 C1.16723026 5.25087844 1.32782815 10.50190094 1.48217773 15.75317383 C1.53567402 17.54099032 1.59100904 19.32875275 1.64819336 21.11645508 C1.72989235 23.68038266 1.80505945 26.24442953 1.87890625 28.80859375 C1.90594131 29.6127623 1.93297638 30.41693085 1.96083069 31.24546814 C2.01285627 33.16298422 2.01187441 35.08181503 2 37 C1 38 1 38 -0.85766602 38.11352539 C-2.04380493 38.10567017 -2.04380493 38.10567017 -3.25390625 38.09765625 C-4.10791016 38.09443359 -4.96191406 38.09121094 -5.84179688 38.08789062 C-6.73962891 38.07951172 -7.63746094 38.07113281 -8.5625 38.0625 C-9.46419922 38.05798828 -10.36589844 38.05347656 -11.29492188 38.04882812 C-13.53001314 38.03700225 -15.76497437 38.0205222 -18 38 C-18 37.34 -18 36.68 -18 36 C-12.06 36 -6.12 36 0 36 C-0.33 33.69 -0.66 31.38 -1 29 C-1.08718314 26.74343706 -1.13055844 24.48480786 -1.1328125 22.2265625 C-1.13410156 20.99035156 -1.13539063 19.75414062 -1.13671875 18.48046875 C-1.13285156 17.20816406 -1.12898438 15.93585938 -1.125 14.625 C-1.13080078 12.68173828 -1.13080078 12.68173828 -1.13671875 10.69921875 C-1.13542969 9.47074219 -1.13414062 8.24226562 -1.1328125 6.9765625 C-1.13168457 5.85330566 -1.13055664 4.73004883 -1.12939453 3.57275391 C-1 1 -1 1 0 0 Z " fill="#75736A" transform="translate(162,129)"/>
<path d="M0 0 C4 2 4 2 6 4 C6.31931774 7.95953995 6.50486436 10.76939313 5 14.4375 C1.87557112 16.87846006 -1.0827601 16.74313181 -5 17 C-5 15.68 -5 14.36 -5 13 C-3.35 12.67 -1.7 12.34 0 12 C0 8.04 0 4.08 0 0 Z " fill="#ECE3BB" transform="translate(62,65)"/>
<path d="M0 0 C1.9375 1.6875 1.9375 1.6875 3 4 C2.33228817 6.39263407 1.77902615 8.22097385 0 10 C-2.33944736 9.71269945 -4.6739143 9.38063221 -7 9 C-8.33157895 3.55263158 -8.33157895 3.55263158 -6.875 1.125 C-4.34227807 -0.39463316 -2.9039635 -0.50819361 0 0 Z " fill="#ACA492" transform="translate(159,63)"/>
<path d="M0 0 C0.33 0 0.66 0 1 0 C1 9.57 1 19.14 1 29 C2.98 29 4.96 29 7 29 C7 27.68 7 26.36 7 25 C7.99 24.67 8.98 24.34 10 24 C10.66 25.98 11.32 27.96 12 30 C11.01 30 10.02 30 9 30 C9 30.66 9 31.32 9 32 C7.52168779 32.19412181 6.04230684 32.38012131 4.5625 32.5625 C3.32693359 32.71912109 3.32693359 32.71912109 2.06640625 32.87890625 C1.04353516 32.93884766 1.04353516 32.93884766 0 33 C-1 32 -1 32 -1.02172852 28.94897461 C-0.97940657 27.59992148 -0.93138482 26.25103997 -0.87890625 24.90234375 C-0.85529526 24.19348526 -0.83168427 23.48462677 -0.80735779 22.75428772 C-0.73055354 20.48182979 -0.64660225 18.20969843 -0.5625 15.9375 C-0.50929604 14.40040681 -0.45655554 12.8632975 -0.40429688 11.32617188 C-0.27491595 7.55057297 -0.1391231 3.77525197 0 0 Z " fill="#BEAC82" transform="translate(49,135)"/>
<path d="M0 0 C0.99 0.495 0.99 0.495 2 1 C2 2.32 2 3.64 2 5 C2.66 4.773125 3.32 4.54625 4 4.3125 C8.18368542 3.87669944 11.21203546 5.33630342 15 7 C14.67 7.99 14.34 8.98 14 10 C11.09227772 11.39378423 8.21696684 11.95084431 5 12 C1.9375 10.0625 1.9375 10.0625 0 7 C-0.3125 3.1875 -0.3125 3.1875 0 0 Z " fill="#DDD4AE" transform="translate(142,109)"/>
<path d="M0 0 C0.66 0 1.32 0 2 0 C2.33 2.64 2.66 5.28 3 8 C4.98 7.67 6.96 7.34 9 7 C9 6.01 9 5.02 9 4 C10.32 3.67 11.64 3.34 13 3 C13.33 4.65 13.66 6.3 14 8 C16.97 8.495 16.97 8.495 20 9 C20 7.02 20 5.04 20 3 C20.33 3 20.66 3 21 3 C21 5.31 21 7.62 21 10 C15.06 10 9.12 10 3 10 C2.67 10.99 2.34 11.98 2 13 C1.34 12.67 0.68 12.34 0 12 C0 8.04 0 4.08 0 0 Z " fill="#BCB08C" transform="translate(141,155)"/>
<path d="M0 0 C5.4350945 0.13847375 10.79143472 1.26911443 16.125 2.25 C16.125 3.24 16.125 4.23 16.125 5.25 C8.49548445 5.59855655 2.20055499 5.2517506 -4.875 2.25 C-2.875 0.25 -2.875 0.25 0 0 Z " fill="#D5CFB2" transform="translate(150.875,81.75)"/>
<path d="M0 0 C4.80519481 4.08441558 4.80519481 4.08441558 5.625 7.9375 C4.7740624 12.10709422 3.01936971 14.0477274 0 17 C-3.9421985 19.32488629 -6.60854617 19.02126833 -11 18 C-11 17.34 -11 16.68 -11 16 C-10.30132812 15.89042969 -9.60265625 15.78085938 -8.8828125 15.66796875 C-7.97273438 15.50941406 -7.06265625 15.35085937 -6.125 15.1875 C-5.22007813 15.03667969 -4.31515625 14.88585937 -3.3828125 14.73046875 C-0.65587522 14.16948699 -0.65587522 14.16948699 1 11 C1.27785432 9.04620501 1.27785432 9.04620501 1.1875 7 C1.18105469 6.319375 1.17460938 5.63875 1.16796875 4.9375 C1.05697746 2.78241791 1.05697746 2.78241791 0 0 Z " fill="#6A6B69" transform="translate(66,66)"/>
<path d="M0 0 C0.66 0.66 1.32 1.32 2 2 C1.67 2.66 1.34 3.32 1 4 C0.88055524 5.7865453 0.82277682 7.57736251 0.79467773 9.36767578 C0.7647599 11.04919235 0.7647599 11.04919235 0.73423767 12.76467896 C0.71752518 13.97928802 0.70081268 15.19389709 0.68359375 16.4453125 C0.66281265 17.68546112 0.64203156 18.92560974 0.62062073 20.20333862 C0.56622295 23.50111823 0.51599905 26.7989272 0.46777344 30.09680176 C0.41754766 33.46172653 0.36186723 36.8265605 0.30664062 40.19140625 C0.19938443 46.79419854 0.09762811 53.39705872 0 60 C-0.33 60 -0.66 60 -1 60 C-1.02312821 52.32463373 -1.04091753 44.64927104 -1.05181217 36.97387791 C-1.05703995 33.41022578 -1.06413569 29.84659743 -1.07543945 26.28295898 C-1.08834176 22.18993903 -1.09322906 18.0969442 -1.09765625 14.00390625 C-1.10281754 12.71851456 -1.10797882 11.43312286 -1.11329651 10.10877991 C-1.11337204 8.92763107 -1.11344757 7.74648224 -1.11352539 6.52954102 C-1.115746 5.48363297 -1.11796661 4.43772491 -1.12025452 3.36012268 C-1 1 -1 1 0 0 Z " fill="#A8A28B" transform="translate(99,39)"/>
<path d="M0 0 C0.33 0 0.66 0 1 0 C1 1.65 1 3.3 1 5 C4.16666667 3.16666667 4.16666667 3.16666667 6 0 C6.33 0.99 6.66 1.98 7 3 C5.33418468 6.02314632 3.85296402 8.36715572 1.0625 10.4375 C-1.57422596 11.15660708 -3.39521657 10.72355095 -6 10 C-5.1875 7.5625 -5.1875 7.5625 -4 5 C-3.01 4.67 -2.02 4.34 -1 4 C-0.26676204 1.98491642 -0.26676204 1.98491642 0 0 Z " fill="#A69D84" transform="translate(132,37)"/>
<path d="M0 0 C0.639375 0.268125 1.27875 0.53625 1.9375 0.8125 C3.4534375 1.4003125 3.4534375 1.4003125 5 2 C5.93005859 2.39638672 5.93005859 2.39638672 6.87890625 2.80078125 C13.5717468 5.40149829 19.89103072 5.29666487 27 5 C26.67 6.32 26.34 7.64 26 9 C16.29089814 9.53939455 7.74137606 7.01145962 0 1 C0 0.67 0 0.34 0 0 Z " fill="#96968E" transform="translate(141,81)"/>
<path d="M0 0 C0.33 0.66 0.66 1.32 1 2 C1.66 2 2.32 2 3 2 C3.33 3.98 3.66 5.96 4 8 C4.66 8 5.32 8 6 8 C5.625 9.9375 5.625 9.9375 5 12 C4.01 12.495 4.01 12.495 3 13 C0.63321149 10.93860355 -0.8281942 9.49087373 -1.875 6.5 C-2.01570001 3.68599981 -1.48400777 2.35695352 0 0 Z " fill="#CFC2A3" transform="translate(122,34)"/>
<path d="M0 0 C0.33 0 0.66 0 1 0 C1.30736657 3.9189238 1.36958903 6.33473975 -0.5625 9.8125 C-3.69719917 12.62569156 -5.82493923 13.43389006 -10 14 C-12.76784936 13.36969767 -14.48405442 12.45924844 -17 11 C-17.33 10.01 -17.66 9.02 -18 8 C-17.2575 8.495 -17.2575 8.495 -16.5 9 C-12.82094852 10.47162059 -9.96398837 10.2516818 -6 10 C-2.79851787 7.86567858 -2.47793261 7.31580104 -1.3125 3.875 C-1.06113281 3.15054688 -0.80976562 2.42609375 -0.55078125 1.6796875 C-0.36902344 1.12539063 -0.18726562 0.57109375 0 0 Z " fill="#636161" transform="translate(39,55)"/>
<path d="M0 0 C0.58201172 0.75216797 0.58201172 0.75216797 1.17578125 1.51953125 C0.18578125 1.51953125 -0.80421875 1.51953125 -1.82421875 1.51953125 C-1.28796875 2.57140625 -0.75171875 3.62328125 -0.19921875 4.70703125 C1.07975182 7.63379181 1.25557556 8.23104413 0.36328125 11.45703125 C-0.02859375 12.13765625 -0.42046875 12.81828125 -0.82421875 13.51953125 C-1.81421875 12.85953125 -2.80421875 12.19953125 -3.82421875 11.51953125 C-5.87342815 11.06813666 -5.87342815 11.06813666 -8.01171875 10.89453125 C-9.26984375 10.77078125 -10.52796875 10.64703125 -11.82421875 10.51953125 C-11.82421875 10.18953125 -11.82421875 9.85953125 -11.82421875 9.51953125 C-8.52421875 8.85953125 -5.22421875 8.19953125 -1.82421875 7.51953125 C-2.48421875 6.52953125 -3.14421875 5.53953125 -3.82421875 4.51953125 C-3.82421875 3.19953125 -3.82421875 1.87953125 -3.82421875 0.51953125 C-6.46421875 0.51953125 -9.10421875 0.51953125 -11.82421875 0.51953125 C-11.82421875 0.18953125 -11.82421875 -0.14046875 -11.82421875 -0.48046875 C-10.22306299 -0.72980445 -8.61801716 -0.95425523 -7.01171875 -1.16796875 C-6.11839844 -1.29558594 -5.22507812 -1.42320313 -4.3046875 -1.5546875 C-1.82421875 -1.48046875 -1.82421875 -1.48046875 0 0 Z " fill="#CFCEC6" transform="translate(98.82421875,30.48046875)"/>
<path d="M0 0 C4.52319291 1.56449261 6.68873491 5.12605438 9.4375 8.8125 C12.7310316 13.18408078 16.03266028 17.21986687 20 21 C19.67 21.99 19.34 22.98 19 24 C1.7240099 5.1720297 1.7240099 5.1720297 0 0 Z " fill="#A6A299" transform="translate(99,32)"/>
<path d="M0 0 C1.5625 1.125 1.5625 1.125 3 3 C3 6.86966584 2.22994365 8.68644048 -0.0625 11.8125 C-3.94806834 14.70600834 -6.18708344 14.92109973 -11 15 C-11.66 14.34 -12.32 13.68 -13 13 C-11.7625 12.7525 -10.525 12.505 -9.25 12.25 C-5.45837424 11.2769279 -3.26424085 10.35107646 -1 7 C-0.19234122 3.35278304 -0.19234122 3.35278304 0 0 Z " fill="#858381" transform="translate(161,107)"/>
<path d="M0 0 C0.33 0 0.66 0 1 0 C1.12375 0.969375 1.2475 1.93875 1.375 2.9375 C1.58125 3.948125 1.7875 4.95875 2 6 C2.66 6.33 3.32 6.66 4 7 C4 8.32 4 9.64 4 11 C0.7 11 -2.6 11 -6 11 C-6 9.02 -6 7.04 -6 5 C-5.01 6.32 -4.02 7.64 -3 9 C-0.23776722 6.23776722 -0.42143709 3.79293383 0 0 Z " fill="#BAA97E" transform="translate(116,154)"/>
<path d="M0 0 C2.1385485 2.1385485 2.42655063 3.13275314 3 6 C2.01 6 1.02 6 0 6 C0 6.66 0 7.32 0 8 C-4.455 8.495 -4.455 8.495 -9 9 C-9 8.34 -9 7.68 -9 7 C-7.35 7 -5.7 7 -4 7 C-4 6.34 -4 5.68 -4 5 C-3.34 5 -2.68 5 -2 5 C-2 3.68 -2 2.36 -2 1 C-1.34 0.67 -0.68 0.34 0 0 Z " fill="#867B6A" transform="translate(58,159)"/>
<path d="M0 0 C1.66611905 -0.042721 3.33382885 -0.04063832 5 0 C6 1 6 1 6.25 3.4375 C6.1675 4.283125 6.085 5.12875 6 6 C5.01 6.66 4.02 7.32 3 8 C2.01 7.67 1.02 7.34 0 7 C0 4.69 0 2.38 0 0 Z " fill="#989490" transform="translate(57,43)"/>
<path d="M0 0 C1.65 0 3.3 0 5 0 C5 1.65 5 3.3 5 5 C4.34 5 3.68 5 3 5 C3 5.66 3 6.32 3 7 C1.02 7 -0.96 7 -3 7 C-2.01 4.69 -1.02 2.38 0 0 Z " fill="#C9B281" transform="translate(47,29)"/>
<path d="M0 0 C0.28875 0.61875 0.5775 1.2375 0.875 1.875 C1.93720042 4.13325765 1.93720042 4.13325765 4 6 C6.41482413 6.50059916 6.41482413 6.50059916 9 6 C11.31377147 4.10415891 11.31377147 4.10415891 13 2 C12.6754915 5.00170365 12.3182426 6.63461035 10.3125 8.9375 C8 10 8 10 4.875 9.375 C2 8 2 8 0 5 C-0.125 2.3125 -0.125 2.3125 0 0 Z " fill="#8B877F" transform="translate(114,83)"/>
<path d="M0 0 C0.66 0.66 1.32 1.32 2 2 C1.85677669 5.79541773 1.23327002 8.52331778 -0.4375 11.9375 C-4.33812217 15.07702516 -8.17652651 14.41422959 -13 14 C-13 13.67 -13 13.34 -13 13 C-11.14375 12.6596875 -11.14375 12.6596875 -9.25 12.3125 C-6.11283264 11.51849127 -5.02490852 11.02299248 -2.5625 8.75 C-0.8656946 5.7636225 -0.31645345 3.40187461 0 0 Z " fill="#6C6A67" transform="translate(100,16)"/>
<path d="M0 0 C1.67542976 0.28604898 3.34385343 0.61781233 5 1 C5.33 2.32 5.66 3.64 6 5 C1.545 5.495 1.545 5.495 -3 6 C-1.125 1.125 -1.125 1.125 0 0 Z " fill="#AC9668" transform="translate(24,160)"/>
<path d="M0 0 C0.66 0 1.32 0 2 0 C1.40806045 6.27455919 1.40806045 6.27455919 -0.125 9 C-3.20768124 10.64409666 -5.71894649 9.78988325 -9 9 C-9.33 8.34 -9.66 7.68 -10 7 C-7.36 6.67 -4.72 6.34 -2 6 C-1.34 4.02 -0.68 2.04 0 0 Z " fill="#98968D" transform="translate(157,49)"/>
<path d="M0 0 C-0.9590625 0.433125 -0.9590625 0.433125 -1.9375 0.875 C-4.15206079 1.82823451 -4.15206079 1.82823451 -5 4 C-4.01 3.67 -3.02 3.34 -2 3 C-1.67 4.65 -1.34 6.3 -1 8 C-2.98 8.33 -4.96 8.66 -7 9 C-8.33157895 3.55263158 -8.33157895 3.55263158 -6.875 1.125 C-4.46277487 -0.32233508 -2.7648665 -0.22417836 0 0 Z " fill="#D2CEC1" transform="translate(159,63)"/>
<path d="M0 0 C-0.33 0.99 -0.66 1.98 -1 3 C-1.99 3 -2.98 3 -4 3 C-4 3.99 -4 4.98 -4 6 C-3.01 6.66 -2.02 7.32 -1 8 C-3.31 8 -5.62 8 -8 8 C-8 5.69 -8 3.38 -8 1 C-5.07175348 0.02391783 -3.04386724 -0.08226668 0 0 Z " fill="#B7A983" transform="translate(155,46)"/>
<path d="M0 0 C1.4540625 0.0309375 1.4540625 0.0309375 2.9375 0.0625 C4.0625 1.6875 4.0625 1.6875 4.9375 4.0625 C4.0625 7.3125 4.0625 7.3125 2.9375 10.0625 C-0 9.6875 -0 9.6875 -3.0625 9.0625 C-4.42873674 6.33002652 -4.190926 4.08051098 -4.0625 1.0625 C-3.0625 0.0625 -3.0625 0.0625 0 0 Z M-2.0625 2.0625 C-2.3925 3.7125 -2.7225 5.3625 -3.0625 7.0625 C-0.5875 7.5575 -0.5875 7.5575 1.9375 8.0625 C2.2675 6.4125 2.5975 4.7625 2.9375 3.0625 C1.2875 2.7325 -0.3625 2.4025 -2.0625 2.0625 Z " fill="#A19172" transform="translate(89.0625,133.9375)"/>
<path d="M0 0 C1.33804687 0.04060547 1.33804687 0.04060547 2.703125 0.08203125 C3.37859375 0.11683594 4.0540625 0.15164062 4.75 0.1875 C5.08 0.8475 5.41 1.5075 5.75 2.1875 C4.76 2.5175 3.77 2.8475 2.75 3.1875 C2.75 2.5275 2.75 1.8675 2.75 1.1875 C-2.93748885 2.43874755 -5.97847508 4.22852568 -10.25 8.1875 C-9.9299297 5.22684968 -9.71276664 3.63343877 -7.53125 1.53125 C-4.7845053 -0.08669551 -3.15927814 -0.12470835 0 0 Z " fill="#DBD8C4" transform="translate(29.25,45.8125)"/>
<path d="M0 0 C3.50373216 0.57881038 5.16793567 1.7850792 7.625 4.3125 C8.21539062 4.90675781 8.80578125 5.50101562 9.4140625 6.11328125 C10.99274729 7.99137178 12.00425102 9.76695897 13 12 C9.84296394 10.57401292 7.41971432 8.8370866 4.8125 6.5625 C4.11769531 5.96566406 3.42289063 5.36882812 2.70703125 4.75390625 C1 3 1 3 0 0 Z " fill="#ECE8CA" transform="translate(125,65)"/>
<path d="M0 0 C1.98 0 3.96 0 6 0 C7.231394 3.69418201 6.64432764 6.2056261 6 10 C5.67 10 5.34 10 5 10 C4.67 7.36 4.34 4.72 4 2 C1.83656989 4.03268602 1.83656989 4.03268602 0 7 C-0.33 6.01 -0.66 5.02 -1 4 C-3.00016466 2.79117904 -3.00016466 2.79117904 -5 2 C-3.35 2 -1.7 2 0 2 C0 1.34 0 0.68 0 0 Z " fill="#BBAF8C" transform="translate(155,104)"/>
<path d="M0 0 C2.64 0 5.28 0 8 0 C5.35261084 1.4606285 4.10551666 2 1 2 C1.33 4.97 1.66 7.94 2 11 C1.01 11 0.02 11 -1 11 C-1.0270043 9.54176788 -1.04639787 8.08339325 -1.0625 6.625 C-1.07410156 5.81289063 -1.08570313 5.00078125 -1.09765625 4.1640625 C-1 2 -1 2 0 0 Z " fill="#D8D3C1" transform="translate(146,45)"/>
<path d="M0 0 C1.5625 1.25 1.5625 1.25 3 3 C3 4.9375 3 4.9375 2 7 C-0.375 9.3125 -0.375 9.3125 -3 11 C-3.99 10.67 -4.98 10.34 -6 10 C-5 8 -5 8 -3 7.25 C-0.63752715 6.09834868 -0.63752715 6.09834868 -0.25 2.875 C-0.1675 1.92625 -0.085 0.9775 0 0 Z " fill="#8E8579" transform="translate(53,29)"/>
<path d="M0 0 C2.31 0 4.62 0 7 0 C7 0.66 7 1.32 7 2 C6.01 2.66 5.02 3.32 4 4 C3.74969023 6.58380177 3.74969023 6.58380177 4 9 C3.34 9 2.68 9 2 9 C1.67 7.02 1.34 5.04 1 3 C0.34 3 -0.32 3 -1 3 C-0.67 2.01 -0.34 1.02 0 0 Z " fill="#A69D83" transform="translate(124,33)"/>
<path d="M0 0 C0.33 0 0.66 0 1 0 C1.1938211 2.97888126 1.38035102 5.95790246 1.5625 8.9375 C1.61857422 9.78763672 1.67464844 10.63777344 1.73242188 11.51367188 C1.78076172 12.32255859 1.82910156 13.13144531 1.87890625 13.96484375 C1.94960327 15.08814087 1.94960327 15.08814087 2.02172852 16.23413086 C2 18 2 18 1 19 C-0.99958364 19.04080783 -3.00045254 19.04254356 -5 19 C-5 18.34 -5 17.68 -5 17 C-3.35 17 -1.7 17 0 17 C0 11.39 0 5.78 0 0 Z " fill="#8D8779" transform="translate(98,149)"/>
<path d="M0 0 C0.66 0.33 1.32 0.66 2 1 C2 1.66 2 2.32 2 3 C2.66 3 3.32 3 4 3 C5.625 5.5 5.625 5.5 7 8 C4.53199953 6.84826645 2.95216435 5.95216435 1 4 C0.67 7.3 0.34 10.6 0 14 C-0.33 14 -0.66 14 -1 14 C-1.02685938 11.85423363 -1.04633088 9.70837355 -1.0625 7.5625 C-1.07410156 6.36753906 -1.08570312 5.17257813 -1.09765625 3.94140625 C-1 1 -1 1 0 0 Z " fill="#CECECB" transform="translate(101,40)"/>
<path d="M0 0 C0.66 0.66 1.32 1.32 2 2 C0.4375 3.5625 0.4375 3.5625 -2 5 C-5.75 4.6875 -5.75 4.6875 -9 4 C-9 3.34 -9 2.68 -9 2 C-6.03 2 -3.06 2 0 2 C0 1.34 0 0.68 0 0 Z " fill="#757168" transform="translate(88,163)"/>
<path d="M0 0 C0.66 0 1.32 0 2 0 C2.33 4.29 2.66 8.58 3 13 C2.01 12.67 1.02 12.34 0 12 C0 8.04 0 4.08 0 0 Z " fill="#AEA796" transform="translate(141,155)"/>
<path d="M0 0 C4.92307692 4.18461538 4.92307692 4.18461538 5.3125 8.3125 C5.209375 9.199375 5.10625 10.08625 5 11 C4.01 11 3.02 11 2 11 C1.77213542 9.01432292 1.54427083 7.02864583 1.31640625 5.04296875 C1.02829265 2.80603607 1.02829265 2.80603607 0 0 Z " fill="#8C8A84" transform="translate(66,66)"/>
<path d="M0 0 C0.66 0.66 1.32 1.32 2 2 C1.67 2.66 1.34 3.32 1 4 C0.84932786 5.4465242 0.75138964 6.8987934 0.68359375 8.3515625 C0.64169922 9.20234375 0.59980469 10.053125 0.55664062 10.9296875 C0.51732422 11.81914063 0.47800781 12.70859375 0.4375 13.625 C0.39431641 14.5221875 0.35113281 15.419375 0.30664062 16.34375 C0.20043139 18.56234283 0.09838806 20.7810488 0 23 C-0.33 23 -0.66 23 -1 23 C-1.02887512 19.35418313 -1.04675585 15.70839537 -1.0625 12.0625 C-1.07087891 11.02158203 -1.07925781 9.98066406 -1.08789062 8.90820312 C-1.09272461 7.42416992 -1.09272461 7.42416992 -1.09765625 5.91015625 C-1.10289307 4.99371338 -1.10812988 4.07727051 -1.11352539 3.13305664 C-1 1 -1 1 0 0 Z " fill="#848277" transform="translate(99,39)"/>
<path d="M0 0 C0.99 0 1.98 0 3 0 C2.979375 1.11375 2.95875 2.2275 2.9375 3.375 C2.73619282 6.83215921 2.73619282 6.83215921 4 9 C2.68 9 1.36 9 0 9 C0 6.03 0 3.06 0 0 Z " fill="#9B8E71" transform="translate(87,85)"/>
<path d="M0 0 C3.36370321 1.39187719 5.21906331 2.79431396 7 6 C7.1875 9.25 7.1875 9.25 7 12 C3.10777401 9.40518268 3.16205025 7.41579095 2 3 C1.34 2.01 0.68 1.02 0 0 Z " fill="#B1AEA7" transform="translate(34,48)"/>
<path d="M0 0 C0.33 1.98 0.66 3.96 1 6 C-1.64 6 -4.28 6 -7 6 C-6.505 5.54625 -6.01 5.0925 -5.5 4.625 C-3.77390663 3.12364481 -3.77390663 3.12364481 -4 1 C-1 0 -1 0 0 0 Z " fill="#AEA077" transform="translate(154,158)"/>
<path d="M0 0 C0 3 0 6 0 9 C-1.98 8.34 -3.96 7.68 -6 7 C-4.68 6.67 -3.36 6.34 -2 6 C-2 5.34 -2 4.68 -2 4 C-2.66 4 -3.32 4 -4 4 C-4 3.34 -4 2.68 -4 2 C-2.68 1.34 -1.36 0.68 0 0 Z " fill="#E5DCB4" transform="translate(62,100)"/>
<path d="M0 0 C0.93423645 3.01031744 1.04449911 3.86650268 0 7 C-2.31 6.67 -4.62 6.34 -7 6 C-7 5.01 -7 4.02 -7 3 C-5.35 3.33 -3.7 3.66 -2 4 C-1.34 2.68 -0.68 1.36 0 0 Z " fill="#9A9582" transform="translate(62,70)"/>
<path d="M0 0 C-0.33 1.65 -0.66 3.3 -1 5 C-1.99 4.34 -2.98 3.68 -4 3 C-6.0492094 2.54860541 -6.0492094 2.54860541 -8.1875 2.375 C-9.445625 2.25125 -10.70375 2.1275 -12 2 C-12 1.67 -12 1.34 -12 1 C-7.93631321 0.22596442 -4.13574827 -0.0984702 0 0 Z " fill="#E8E6D0" transform="translate(99,39)"/>
<path d="M0 0 C-0.33 0.66 -0.66 1.32 -1 2 C-2.77734375 2.484375 -2.77734375 2.484375 -4.9375 2.75 C-5.64777344 2.84796875 -6.35804688 2.9459375 -7.08984375 3.046875 C-9 3 -9 3 -11 1 C-3.375 -1.125 -3.375 -1.125 0 0 Z " fill="#8C8B86" transform="translate(159,119)"/>
<path d="M0 0 C2 2 2 2 2.125 5.125 C2.08375 6.07375 2.0425 7.0225 2 8 C0.68 7.34 -0.64 6.68 -2 6 C-1.49396008 3.83125748 -1.00016187 2.00032373 0 0 Z " fill="#E6D9A4" transform="translate(91,86)"/>
<path d="M0 0 C2.66753731 0.36793618 3.81998328 0.81998328 5.75 2.75 C7.21079991 5.37943983 7.24687966 7.0374441 7 10 C4.83133199 7.83133199 3.54539472 5.64004931 2 3 C1.34 2.01 0.68 1.02 0 0 Z " fill="#B4B1A6" transform="translate(121,77)"/>
<path d="M0 0 C4.55015893 1.51671964 6.50057264 5.16891053 9 9 C4.18579475 8.16677217 2.81953925 5.8377062 0 2 C0 1.34 0 0.68 0 0 Z " fill="#B5B3AA" transform="translate(99,32)"/>
<path d="M0 0 C0.66 1.32 1.32 2.64 2 4 C3.98 4 5.96 4 8 4 C7.67 4.66 7.34 5.32 7 6 C4.36 6 1.72 6 -1 6 C-1.33 5.01 -1.66 4.02 -2 3 C-1.34 2.01 -0.68 1.02 0 0 Z " fill="#8A826E" transform="translate(24,54)"/>
<path d="M0 0 C0.66 0.99 1.32 1.98 2 3 C-1.625 8.875 -1.625 8.875 -5 10 C-3.33333333 6.66666667 -1.66666667 3.33333333 0 0 Z " fill="#85817C" transform="translate(137,37)"/>
<path d="M0 0 C1.32 0.33 2.64 0.66 4 1 C4 2.65 4 4.3 4 6 C3.01 6.33 2.02 6.66 1 7 C0.67 4.69 0.34 2.38 0 0 Z " fill="#D6CBA0" transform="translate(132,35)"/>
<path d="M0 0 C2.31 0.33 4.62 0.66 7 1 C7 1.33 7 1.66 7 2 C5.35 2 3.7 2 2 2 C2 2.66 2 3.32 2 4 C0.68 4 -0.64 4 -2 4 C-2 3.34 -2 2.68 -2 2 C-1.34 2 -0.68 2 0 2 C0 1.34 0 0.68 0 0 Z " fill="#D7CDA3" transform="translate(153,102)"/>
<path d="M0 0 C0.99 0 1.98 0 3 0 C1.95125002 2.62187494 1.35068687 3.79371361 -1.125 5.25 C-1.74375 5.4975 -2.3625 5.745 -3 6 C-3.66 5.34 -4.32 4.68 -5 4 C-4.01 3.67 -3.02 3.34 -2 3 C-1.34 2.01 -0.68 1.02 0 0 Z " fill="#7A7A77" transform="translate(67,77)"/>
<path d="M0 0 C0 0.99 0 1.98 0 3 C-4.455 3.495 -4.455 3.495 -9 4 C-6.10130984 1.70103884 -3.84906588 0 0 0 Z " fill="#ECE5C0" transform="translate(153,101)"/>
<path d="M0 0 C-0.33 0.99 -0.66 1.98 -1 3 C-1.66 3 -2.32 3 -3 3 C-3.66 4.98 -4.32 6.96 -5 9 C-5.33 9 -5.66 9 -6 9 C-6.36521739 3.52173913 -6.36521739 3.52173913 -4.6875 1.125 C-3 0 -3 0 0 0 Z " fill="#DCD6BE" transform="translate(119,78)"/>
<path d="M0 0 C2.19726562 1.85546875 2.19726562 1.85546875 4.39453125 3.7109375 C5.8655046 4.89201099 7.43037794 5.95358529 9 7 C7.3125 7.8125 7.3125 7.8125 5 8 C2.25 5.75 2.25 5.75 0 3 C0 2.01 0 1.02 0 0 Z " fill="#B2AFA3" transform="translate(48,75)"/>
<path d="M0 0 C0.66 0 1.32 0 2 0 C2 0.66 2 1.32 2 2 C3.32 2 4.64 2 6 2 C6 2.66 6 3.32 6 4 C4.02 4.33 2.04 4.66 0 5 C0 3.35 0 1.7 0 0 Z " fill="#A89C7E" transform="translate(48,162)"/>
<path d="M0 0 C2.31 0 4.62 0 7 0 C7 1.65 7 3.3 7 5 C6.01 5.495 6.01 5.495 5 6 C4.87625 5.071875 4.87625 5.071875 4.75 4.125 C4.18741541 1.81562433 4.18741541 1.81562433 1.9375 0.75 C1.298125 0.5025 0.65875 0.255 0 0 Z " fill="#8F8469" transform="translate(149,152)"/>
<path d="M0 0 C0.99 0 1.98 0 3 0 C1.66666667 2.66666667 0.33333333 5.33333333 -1 8 C-1.625 5.125 -1.625 5.125 -2 2 C-1.34 1.34 -0.68 0.68 0 0 Z " fill="#E4D69E" transform="translate(148,104)"/>
<path d="M0 0 C2 3 2 3 2 5 C0.35 4.67 -1.3 4.34 -3 4 C-2.67 3.01 -2.34 2.02 -2 1 C-1.34 0.67 -0.68 0.34 0 0 Z " fill="#DBCD9F" transform="translate(156,66)"/>
<path d="M0 0 C0.66 0.99 1.32 1.98 2 3 C1.125 6.1875 1.125 6.1875 0 9 C-0.33 9 -0.66 9 -1 9 C-1.09765625 2.84765625 -1.09765625 2.84765625 -1 1 C-0.67 0.67 -0.34 0.34 0 0 Z " fill="#FBF6D6" transform="translate(81,60)"/>
<path d="M0 0 C2.97 0.99 5.94 1.98 9 3 C8.01 3.66 7.02 4.32 6 5 C3.375 4.3125 3.375 4.3125 1 3 C0.67 2.01 0.34 1.02 0 0 Z " fill="#9F9C90" transform="translate(21,63)"/>
</svg>
